<svg xmlns="http://www.w3.org/2000/svg" viewBox="0 0 390 270"> <path fill="#66cd80" stroke="#000" stroke-width="0.5" d="M 281.68,157.54 281.07,147.12 301.01,156.64 Z M 283.03,135.42 302.22,138.92 281.07,147.12 Z M 282.68,173.31 281.28,165.23 301.01,156.64 Z M 281.28,165.23 281.68,157.54 301.01,156.64 Z M 293.85,197.28 284.14,196.23 294.50,186.14 Z M 284.92,183.97 294.50,186.14 284.14,196.23 Z M 276.90,203.41 284.14,196.23 286.48,213.38 Z M 294.50,186.14 284.92,183.97 282.68,173.31 Z M 293.85,197.28 286.48,213.38 284.14,196.23 Z M 293.48,125.84 302.22,138.92 283.03,135.42 Z M 302.22,138.92 306.95,148.03 301.01,156.64 Z M 315.44,154.62 318.10,142.91 321.58,147.38 Z M 318.10,142.91 315.44,154.62 306.95,148.03 Z M 331.40,188.53 306.40,171.25 315.44,154.62 Z M 306.95,148.03 315.44,154.62 301.01,156.64 Z M 303.97,185.43 294.50,186.14 306.40,171.25 Z M 282.68,173.31 301.01,156.64 306.40,171.25 Z M 294.50,186.14 282.68,173.31 306.40,171.25 Z M 303.97,185.43 308.00,195.11 293.85,197.28 Z M 331.40,188.53 318.25,201.78 308.00,195.11 Z M 306.40,171.25 301.01,156.64 315.44,154.62 Z M 293.85,197.28 308.00,195.11 303.54,205.83 Z M 303.97,185.43 331.40,188.53 308.00,195.11 Z M 303.97,185.43 306.40,171.25 331.40,188.53 Z M 303.97,185.43 293.85,197.28 294.50,186.14 Z M 318.25,201.78 331.78,202.08 322.34,215.53 Z M 301.01,156.64 281.07,147.12 302.22,138.92 Z M 318.25,201.78 303.54,205.83 308.00,195.11 Z M 277.58,221.60 277.99,218.81 291.12,223.71 Z M 286.48,213.38 296.94,213.45 291.12,223.71 Z M 286.48,213.38 293.85,197.28 296.94,213.45 Z M 297.96,242.67 291.12,223.71 312.20,231.34 Z M 286.48,213.38 291.12,223.71 277.99,218.81 Z M 277.99,218.81 276.90,203.41 286.48,213.38 Z M 277.58,221.60 291.12,223.71 273.52,238.41 Z M 274.54,253.91 291.65,251.96 276.98,261.23 Z M 291.65,251.96 274.54,253.91 273.52,238.41 Z M 298.91,266.16 288.62,264.46 291.65,251.96 Z M 291.65,251.96 288.62,264.46 276.98,261.23 Z M 297.96,242.67 291.65,251.96 273.52,238.41 Z M 305.01,257.96 291.65,251.96 297.96,242.67 Z M 273.52,238.41 291.12,223.71 297.96,242.67 Z M 291.12,223.71 296.94,213.45 312.20,231.34 Z M 312.20,231.34 313.29,243.75 297.96,242.67 Z M 296.94,213.45 322.34,215.53 312.20,231.34 Z M 312.20,231.34 326.02,242.08 313.29,243.75 Z M 333.49,235.09 326.02,242.08 312.20,231.34 Z M 322.34,215.53 333.49,235.09 312.20,231.34 Z M 313.29,243.75 326.02,242.08 321.64,255.90 Z M 303.54,205.83 318.25,201.78 322.34,215.53 Z M 297.96,242.67 313.29,243.75 305.01,257.96 Z M 298.91,266.16 305.01,257.96 306.98,267.00 Z M 298.91,266.16 291.65,251.96 305.01,257.96 Z M 306.98,267.00 305.01,257.96 317.35,266.32 Z M 317.35,266.32 321.64,255.90 322.88,266.16 Z M 321.64,255.90 317.35,266.32 305.01,257.96 Z M 334.46,267.97 322.88,266.16 321.64,255.90 Z M 305.01,257.96 313.29,243.75 321.64,255.90 Z M 321.64,255.90 326.02,242.08 338.21,245.32 Z M 303.54,205.83 322.34,215.53 296.94,213.45 Z M 293.85,197.28 303.54,205.83 296.94,213.45 Z M 321.58,147.38 332.68,152.98 315.44,154.62 Z M 332.68,152.98 343.55,176.93 331.40,188.53 Z M 343.55,176.93 332.68,152.98 343.93,155.47 Z M 343.93,155.47 355.56,156.60 355.50,174.98 Z M 364.04,186.24 355.50,174.98 383.31,172.80 Z M 343.93,155.47 355.50,174.98 343.55,176.93 Z M 343.55,176.93 355.50,174.98 351.11,185.42 Z M 331.40,188.53 345.84,198.12 331.78,202.08 Z M 345.84,198.12 331.40,188.53 351.11,185.42 Z M 345.84,198.12 333.95,218.12 331.78,202.08 Z M 331.40,188.53 331.78,202.08 318.25,201.78 Z M 351.11,185.42 364.04,186.24 355.50,196.94 Z M 364.04,186.24 351.11,185.42 355.50,174.98 Z M 355.50,196.94 364.04,186.24 371.83,191.82 Z M 351.11,185.42 355.50,196.94 345.84,198.12 Z M 331.40,188.53 343.55,176.93 351.11,185.42 Z M 355.50,196.94 351.41,216.81 345.84,198.12 Z M 355.50,174.98 355.56,156.60 372.17,158.77 Z M 332.68,152.98 331.40,188.53 315.44,154.62 Z M 383.31,172.80 355.50,174.98 372.17,158.77 Z M 386.29,154.27 387.29,167.83 372.17,158.77 Z M 386.29,154.27 372.17,158.77 383.89,145.76 Z M 372.17,158.77 387.29,167.83 383.31,172.80 Z M 384.11,208.21 364.52,207.52 371.83,191.82 Z M 364.52,207.52 355.50,196.94 371.83,191.82 Z M 371.83,191.82 364.04,186.24 383.31,172.80 Z M 384.18,186.59 371.83,191.82 383.31,172.80 Z M 371.83,191.82 386.36,192.41 384.11,208.21 Z M 386.36,192.41 371.83,191.82 384.18,186.59 Z M 364.52,207.52 384.11,208.21 373.24,221.11 Z M 355.56,156.60 367.30,153.26 372.17,158.77 Z M 364.52,207.52 351.41,216.81 355.50,196.94 Z M 333.95,218.12 347.87,231.15 333.49,235.09 Z M 347.87,231.15 333.95,218.12 351.41,216.81 Z M 351.41,216.81 364.54,217.68 357.57,224.50 Z M 351.41,216.81 364.52,207.52 364.54,217.68 Z M 364.55,242.46 347.87,231.15 357.57,224.50 Z M 351.41,216.81 357.57,224.50 347.87,231.15 Z M 333.95,218.12 345.84,198.12 351.41,216.81 Z M 364.55,242.46 338.21,245.32 347.87,231.15 Z M 338.21,245.32 334.46,267.97 321.64,255.90 Z M 333.49,235.09 347.87,231.15 338.21,245.32 Z M 334.46,267.97 338.21,245.32 343.02,263.45 Z M 326.02,242.08 333.49,235.09 338.21,245.32 Z M 338.21,245.32 352.29,264.54 343.02,263.45 Z M 361.29,262.55 352.29,264.54 364.55,242.46 Z M 352.29,264.54 338.21,245.32 364.55,242.46 Z M 357.57,224.50 364.54,217.68 373.24,221.11 Z M 333.49,235.09 322.34,215.53 333.95,218.12 Z M 364.55,242.46 373.24,221.11 382.78,231.53 Z M 373.24,221.11 364.55,242.46 357.57,224.50 Z M 373.24,221.11 387.24,227.72 382.78,231.53 Z M 387.24,227.72 373.24,221.11 388.68,215.83 Z M 364.54,217.68 364.52,207.52 373.24,221.11 Z M 364.55,242.46 382.78,231.53 376.93,243.42 Z M 377.02,262.39 375.65,253.51 386.69,253.35 Z M 376.93,243.42 375.65,253.51 364.55,242.46 Z M 385.89,244.08 375.65,253.51 376.93,243.42 Z M 377.02,262.39 361.29,262.55 375.65,253.51 Z M 377.02,262.39 386.69,253.35 384.47,267.47 Z M 386.69,253.35 375.65,253.51 385.89,244.08 Z M 376.93,243.42 382.78,231.53 385.89,244.08 Z M 375.65,253.51 361.29,262.55 364.55,242.46 Z M 388.68,215.83 373.24,221.11 384.11,208.21 Z M 322.34,215.53 331.78,202.08 333.95,218.12 Z"/>
 <path fill="#c9e00d" stroke="#000" stroke-width="0.5" d="M 221.87,171.21 206.79,166.48 205.36,157.75 Z M 206.24,145.35 205.36,157.75 193.64,152.12 Z M 206.24,145.35 225.34,145.57 205.36,157.75 Z M 193.64,152.12 205.36,157.75 193.01,167.16 Z M 208.31,192.14 206.46,182.25 221.87,171.21 Z M 206.79,166.48 206.46,182.25 201.24,173.47 Z M 206.79,166.48 221.87,171.21 206.46,182.25 Z M 193.01,167.16 205.36,157.75 206.79,166.48 Z M 211.89,112.12 215.06,123.85 204.79,124.23 Z M 215.06,123.85 222.55,134.52 213.17,138.87 Z M 222.55,134.52 215.06,123.85 234.10,125.48 Z M 224.77,114.94 231.95,116.15 234.10,125.48 Z M 234.10,125.48 231.95,116.15 246.97,124.06 Z M 224.77,114.94 234.10,125.48 215.06,123.85 Z M 215.06,123.85 211.89,112.12 224.77,114.94 Z M 225.34,145.57 222.55,134.52 238.82,142.91 Z M 231.10,158.64 205.36,157.75 225.34,145.57 Z M 225.34,145.57 213.17,138.87 222.55,134.52 Z M 205.36,157.75 231.10,158.64 221.87,171.21 Z M 225.34,145.57 206.24,145.35 213.17,138.87 Z M 234.32,175.76 233.55,195.28 221.87,171.21 Z M 244.05,163.29 234.32,175.76 231.10,158.64 Z M 233.55,195.28 234.34,212.34 217.21,198.33 Z M 234.32,175.76 221.87,171.21 231.10,158.64 Z M 231.10,158.64 225.34,145.57 238.82,142.91 Z M 208.31,192.14 221.87,171.21 217.21,198.33 Z M 234.10,125.48 238.82,142.91 222.55,134.52 Z M 215.06,123.85 213.17,138.87 204.79,124.23 Z M 217.21,198.33 221.87,171.21 233.55,195.28 Z M 186.55,245.28 182.45,238.04 203.68,228.11 Z M 203.68,228.11 182.45,238.04 183.71,225.85 Z M 186.55,245.28 203.68,228.11 195.12,253.57 Z M 191.25,212.11 203.68,228.11 183.71,225.85 Z M 177.83,261.85 178.24,251.93 186.52,266.16 Z M 186.52,266.16 195.12,253.57 198.59,263.82 Z M 195.12,253.57 186.52,266.16 178.24,251.93 Z M 203.16,266.34 198.59,263.82 195.12,253.57 Z M 178.24,251.93 186.55,245.28 195.12,253.57 Z M 208.03,202.73 191.25,212.11 193.15,201.40 Z M 203.68,228.11 207.73,217.79 211.45,234.48 Z M 203.68,228.11 191.25,212.11 207.73,217.79 Z M 211.45,234.48 234.34,212.34 232.61,237.54 Z M 208.03,202.73 193.15,201.40 208.31,192.14 Z M 234.34,212.34 207.73,217.79 217.21,198.33 Z M 217.21,198.33 207.73,217.79 208.03,202.73 Z M 191.25,212.11 208.03,202.73 207.73,217.79 Z M 211.45,234.48 214.01,243.35 195.12,253.57 Z M 216.59,266.08 203.16,266.34 217.53,254.53 Z M 195.12,253.57 214.01,243.35 217.53,254.53 Z M 203.16,266.34 195.12,253.57 217.53,254.53 Z M 217.53,254.53 232.61,237.54 224.13,261.04 Z M 232.61,237.54 217.53,254.53 214.01,243.35 Z M 224.13,261.04 232.61,237.54 245.74,245.92 Z M 217.53,254.53 224.13,261.04 216.59,266.08 Z M 214.01,243.35 211.45,234.48 232.61,237.54 Z M 211.45,234.48 207.73,217.79 234.34,212.34 Z M 195.12,253.57 203.68,228.11 211.45,234.48 Z M 208.31,192.14 217.21,198.33 208.03,202.73 Z M 233.55,195.28 234.32,175.76 238.89,186.66 Z M 238.82,142.91 246.46,135.73 256.37,148.37 Z M 238.82,142.91 234.10,125.48 246.46,135.73 Z M 246.46,135.73 268.25,134.77 256.37,148.37 Z M 273.14,161.67 255.02,157.84 256.37,148.37 Z M 254.86,125.91 246.46,135.73 246.97,124.06 Z M 234.10,125.48 246.97,124.06 246.46,135.73 Z M 238.82,142.91 256.37,148.37 255.02,157.84 Z M 234.32,175.76 246.29,178.89 238.89,186.66 Z M 234.32,175.76 244.05,163.29 246.29,178.89 Z M 265.71,187.81 246.29,178.89 273.10,182.68 Z M 255.02,157.84 246.29,178.89 244.05,163.29 Z M 255.02,157.84 273.10,182.68 246.29,178.89 Z M 238.89,186.66 246.29,178.89 252.04,195.48 Z M 244.05,163.29 238.82,142.91 255.02,157.84 Z M 265.71,187.81 252.04,195.48 246.29,178.89 Z M 268.25,134.77 246.46,135.73 254.86,125.91 Z M 242.80,196.67 233.55,195.28 238.89,186.66 Z M 268.25,134.77 273.12,128.75 283.03,135.42 Z M 283.03,135.42 281.07,147.12 268.25,134.77 Z M 281.07,147.12 273.14,161.67 256.37,148.37 Z M 273.14,161.67 281.07,147.12 281.68,157.54 Z M 273.22,194.84 273.10,182.68 284.92,183.97 Z M 273.10,182.68 255.02,157.84 273.14,161.67 Z M 282.68,173.31 273.10,182.68 273.14,161.67 Z M 273.22,194.84 265.71,187.81 273.10,182.68 Z M 282.68,173.31 284.92,183.97 273.10,182.68 Z M 281.28,165.23 282.68,173.31 273.14,161.67 Z M 273.14,161.67 281.68,157.54 281.28,165.23 Z M 273.22,194.84 284.92,183.97 284.14,196.23 Z M 268.25,134.77 281.07,147.12 256.37,148.37 Z M 263.22,197.92 265.71,187.81 273.22,194.84 Z M 245.74,245.92 232.61,237.54 242.67,224.71 Z M 242.67,224.71 234.34,212.34 252.71,217.58 Z M 242.80,196.67 252.04,195.48 252.71,217.58 Z M 252.04,195.48 242.80,196.67 238.89,186.66 Z M 255.31,228.40 252.71,217.58 264.32,218.99 Z M 242.80,196.67 252.71,217.58 234.34,212.34 Z M 233.55,195.28 242.80,196.67 234.34,212.34 Z M 242.67,224.71 252.71,217.58 255.31,228.40 Z M 241.47,267.63 237.24,265.98 245.74,245.92 Z M 258.65,265.76 245.74,245.92 274.54,253.91 Z M 255.31,228.40 245.74,245.92 242.67,224.71 Z M 273.52,238.41 245.74,245.92 255.31,228.40 Z M 245.74,245.92 258.65,265.76 241.47,267.63 Z M 224.13,261.04 245.74,245.92 237.24,265.98 Z M 252.71,217.58 252.04,195.48 263.22,197.92 Z M 242.67,224.71 232.61,237.54 234.34,212.34 Z M 267.30,207.21 264.32,218.99 252.71,217.58 Z M 263.22,197.92 273.22,194.84 267.30,207.21 Z M 267.30,207.21 273.22,194.84 276.90,203.41 Z M 276.90,203.41 277.99,218.81 267.30,207.21 Z M 252.04,195.48 265.71,187.81 263.22,197.92 Z M 267.30,207.21 277.99,218.81 264.32,218.99 Z M 274.54,253.91 245.74,245.92 273.52,238.41 Z M 273.52,238.41 264.32,218.99 277.58,221.60 Z M 258.65,265.76 274.54,253.91 265.41,266.10 Z M 255.31,228.40 264.32,218.99 273.52,238.41 Z M 274.54,253.91 276.98,261.23 265.41,266.10 Z M 264.32,218.99 277.99,218.81 277.58,221.60 Z M 252.71,217.58 263.22,197.92 267.30,207.21 Z M 284.14,196.23 276.90,203.41 273.22,194.84 Z M 231.10,158.64 238.82,142.91 244.05,163.29 Z"/>
 <path fill="#c98c83" stroke="#000" stroke-width="0.5" d="M 182.61,15.17 184.09,8.24 197.50,8.13 Z M 211.07,18.62 193.64,22.02 197.50,8.13 Z M 197.50,8.13 193.64,22.02 182.61,15.17 Z M 206.43,35.97 193.64,22.02 211.07,18.62 Z M 191.70,45.31 192.12,33.05 206.43,35.97 Z M 196.62,55.50 185.36,52.72 191.70,45.31 Z M 205.29,54.15 205.22,45.52 218.06,44.68 Z M 206.43,35.97 205.22,45.52 191.70,45.31 Z M 218.06,44.68 205.22,45.52 206.43,35.97 Z M 191.70,45.31 205.22,45.52 196.62,55.50 Z M 192.12,33.05 193.64,22.02 206.43,35.97 Z M 205.29,54.15 196.62,55.50 205.22,45.52 Z M 211.07,18.62 197.50,8.13 207.43,6.13 Z M 217.40,5.83 225.15,1.45 226.38,18.13 Z M 243.79,23.23 226.38,18.13 237.43,8.86 Z M 237.43,8.86 226.38,18.13 225.15,1.45 Z M 253.52,7.50 243.79,23.23 237.43,8.86 Z M 217.40,5.83 226.38,18.13 211.07,18.62 Z M 218.36,26.14 218.06,44.68 206.43,35.97 Z M 211.07,18.62 226.38,18.13 218.36,26.14 Z M 218.06,44.68 218.36,26.14 226.68,48.80 Z M 218.36,26.14 206.43,35.97 211.07,18.62 Z M 218.36,26.14 244.74,32.19 226.68,48.80 Z M 218.36,26.14 226.38,18.13 244.74,32.19 Z M 263.88,28.02 244.74,32.19 243.79,23.23 Z M 251.97,58.25 226.68,48.80 252.66,45.06 Z M 243.79,23.23 244.74,32.19 226.38,18.13 Z M 205.29,54.15 218.06,44.68 221.17,58.18 Z M 226.68,48.80 244.74,32.19 252.66,45.06 Z M 217.40,5.83 211.07,18.62 207.43,6.13 Z M 221.17,58.18 218.06,44.68 226.68,48.80 Z M 192.60,75.54 196.62,55.50 208.19,66.06 Z M 196.62,55.50 192.60,75.54 187.08,63.70 Z M 196.62,55.50 205.29,54.15 208.19,66.06 Z M 192.60,75.54 208.19,66.06 211.43,84.77 Z M 187.08,63.70 185.36,52.72 196.62,55.50 Z M 178.73,82.83 192.60,75.54 188.91,86.26 Z M 188.41,98.75 188.91,86.26 202.72,94.48 Z M 188.91,86.26 188.41,98.75 178.73,82.83 Z M 188.91,86.26 192.60,75.54 202.72,94.48 Z M 202.72,94.48 211.30,96.63 205.37,103.00 Z M 211.30,96.63 202.72,94.48 211.43,84.77 Z M 211.30,96.63 211.43,84.77 236.60,86.52 Z M 205.37,103.00 211.30,96.63 211.89,112.12 Z M 192.60,75.54 211.43,84.77 202.72,94.48 Z M 208.19,66.06 224.07,67.67 211.43,84.77 Z M 236.60,86.52 211.43,84.77 224.07,67.67 Z M 224.07,67.67 221.17,58.18 234.42,67.36 Z M 236.60,86.52 234.42,67.36 254.07,78.39 Z M 234.42,67.36 221.17,58.18 226.68,48.80 Z M 251.97,102.61 232.98,107.24 236.60,86.52 Z M 234.42,67.36 236.60,86.52 224.07,67.67 Z M 205.29,54.15 221.17,58.18 208.19,66.06 Z M 232.98,107.24 211.30,96.63 236.60,86.52 Z M 224.77,114.94 232.98,107.24 231.95,116.15 Z M 224.77,114.94 211.89,112.12 211.30,96.63 Z M 247.29,111.46 246.97,124.06 231.95,116.15 Z M 251.97,102.61 247.29,111.46 232.98,107.24 Z M 257.11,114.02 246.97,124.06 247.29,111.46 Z M 247.29,111.46 231.95,116.15 232.98,107.24 Z M 232.98,107.24 224.77,114.94 211.30,96.63 Z M 251.97,58.25 254.07,78.39 234.42,67.36 Z M 224.07,67.67 208.19,66.06 221.17,58.18 Z M 251.97,58.25 234.42,67.36 226.68,48.80 Z M 246.85,3.69 253.52,7.50 237.43,8.86 Z M 253.52,7.50 262.52,5.08 263.88,28.02 Z M 277.48,31.03 263.88,28.02 275.66,4.88 Z M 275.66,4.88 263.88,28.02 262.52,5.08 Z M 285.71,26.31 277.48,31.03 275.66,4.88 Z M 263.88,28.02 252.66,45.06 244.74,32.19 Z M 261.52,48.25 272.19,61.86 251.97,58.25 Z M 252.66,45.06 263.88,28.02 261.52,48.25 Z M 272.19,61.86 261.52,48.25 272.29,43.60 Z M 251.97,58.25 272.19,61.86 254.07,78.39 Z M 281.92,52.04 272.29,43.60 287.98,34.40 Z M 261.52,48.25 263.88,28.02 272.29,43.60 Z M 277.48,31.03 287.98,34.40 272.29,43.60 Z M 272.29,43.60 281.92,52.04 272.19,61.86 Z M 263.88,28.02 277.48,31.03 272.29,43.60 Z M 285.69,61.98 272.19,61.86 281.92,52.04 Z M 285.71,26.31 275.66,4.88 283.52,7.00 Z M 263.88,28.02 243.79,23.23 253.52,7.50 Z M 285.71,26.31 287.98,34.40 277.48,31.03 Z M 291.59,14.36 296.66,3.75 302.03,6.53 Z M 291.59,14.36 285.71,26.31 283.52,7.00 Z M 283.52,7.00 296.66,3.75 291.59,14.36 Z M 305.59,53.93 295.01,54.82 307.13,45.03 Z M 298.62,37.66 295.01,54.82 287.98,34.40 Z M 307.13,45.03 295.01,54.82 298.62,37.66 Z M 285.69,61.98 281.92,52.04 295.01,54.82 Z M 305.59,53.93 318.38,48.83 323.01,62.56 Z M 318.38,48.83 305.59,53.93 307.13,45.03 Z M 297.86,74.60 295.01,54.82 305.59,53.93 Z M 287.98,34.40 295.01,54.82 281.92,52.04 Z M 322.99,51.26 323.01,62.56 318.38,48.83 Z M 251.97,102.61 253.04,91.03 271.30,101.51 Z M 236.60,86.52 253.04,91.03 251.97,102.61 Z M 261.34,85.01 271.30,101.51 253.04,91.03 Z M 261.34,85.01 254.07,78.39 273.54,75.07 Z M 271.30,101.51 261.34,85.01 273.54,75.07 Z M 261.34,85.01 253.04,91.03 254.07,78.39 Z M 254.07,78.39 253.04,91.03 236.60,86.52 Z M 251.97,102.61 271.30,101.51 264.17,108.94 Z M 267.37,117.74 254.86,125.91 257.11,114.02 Z M 254.86,125.91 246.97,124.06 257.11,114.02 Z M 264.17,108.94 257.11,114.02 251.97,102.61 Z M 267.37,117.74 257.11,114.02 264.17,108.94 Z M 273.12,128.75 268.25,134.77 254.86,125.91 Z M 276.05,117.56 267.37,117.74 264.17,108.94 Z M 273.12,128.75 254.86,125.91 267.37,117.74 Z M 267.37,117.74 276.05,117.56 273.12,128.75 Z M 276.05,117.56 264.17,108.94 271.30,101.51 Z M 257.11,114.02 247.29,111.46 251.97,102.61 Z M 283.13,72.57 285.69,61.98 297.86,74.60 Z M 283.13,72.57 273.54,75.07 272.19,61.86 Z M 305.59,53.93 317.82,71.53 297.86,74.60 Z M 297.86,74.60 285.69,61.98 295.01,54.82 Z M 297.86,74.60 317.82,71.53 311.07,85.30 Z M 323.01,62.56 317.82,71.53 305.59,53.93 Z M 283.13,72.57 297.86,74.60 286.79,102.76 Z M 286.79,102.76 276.05,117.56 271.30,101.51 Z M 273.54,75.07 283.13,72.57 286.79,102.76 Z M 286.79,102.76 271.30,101.51 273.54,75.07 Z M 286.79,102.76 302.59,98.50 295.51,107.45 Z M 297.86,74.60 302.59,98.50 286.79,102.76 Z M 297.86,74.60 311.07,85.30 302.59,98.50 Z M 273.54,75.07 254.07,78.39 272.19,61.86 Z M 285.69,61.98 283.13,72.57 272.19,61.86 Z M 252.66,45.06 261.52,48.25 251.97,58.25 Z"/>
 <path fill="#79f8b7" stroke="#000" stroke-width="0.5" d="M 285.71,26.31 291.59,14.36 302.86,28.70 Z M 308.68,15.86 302.86,28.70 291.59,14.36 Z M 308.68,15.86 302.03,6.53 318.92,3.12 Z M 307.13,45.03 302.86,28.70 318.38,48.83 Z M 308.68,15.86 291.59,14.36 302.03,6.53 Z M 285.71,26.31 302.86,28.70 287.98,34.40 Z M 298.62,37.66 287.98,34.40 302.86,28.70 Z M 327.99,86.28 311.07,85.30 317.82,71.53 Z M 298.62,37.66 302.86,28.70 307.13,45.03 Z M 335.40,28.09 302.86,28.70 308.68,15.86 Z M 302.86,28.70 335.40,28.09 318.38,48.83 Z M 308.68,15.86 318.92,3.12 332.37,7.85 Z M 335.40,28.09 308.68,15.86 332.37,7.85 Z M 342.31,53.90 335.40,28.09 353.85,46.23 Z M 332.37,7.85 318.92,3.12 321.95,2.62 Z M 318.38,48.83 335.40,28.09 322.99,51.26 Z M 322.99,51.26 332.49,55.28 323.01,62.56 Z M 322.99,51.26 335.40,28.09 332.49,55.28 Z M 323.01,62.56 332.49,55.28 341.39,63.88 Z M 327.99,86.28 323.01,62.56 341.39,63.88 Z M 341.39,63.88 332.49,55.28 342.31,53.90 Z M 347.94,81.70 338.70,85.06 341.39,63.88 Z M 338.70,85.06 346.15,92.57 327.99,86.28 Z M 335.40,28.09 342.31,53.90 332.49,55.28 Z M 317.82,71.53 323.01,62.56 327.99,86.28 Z M 335.40,28.09 332.37,7.85 345.65,4.80 Z M 341.39,63.88 338.70,85.06 327.99,86.28 Z M 276.05,117.56 286.79,102.76 295.51,107.45 Z M 295.51,107.45 302.59,98.50 311.07,102.69 Z M 302.59,98.50 311.07,85.30 311.07,102.69 Z M 276.05,117.56 295.51,107.45 293.48,125.84 Z M 312.60,113.36 304.16,122.68 295.51,107.45 Z M 276.05,117.56 283.03,135.42 273.12,128.75 Z M 276.05,117.56 293.48,125.84 283.03,135.42 Z M 306.95,148.03 302.22,138.92 318.10,142.91 Z M 304.16,122.68 302.22,138.92 293.48,125.84 Z M 304.16,122.68 312.87,132.69 302.22,138.92 Z M 295.51,107.45 304.16,122.68 293.48,125.84 Z M 312.60,113.36 295.51,107.45 311.07,102.69 Z M 315.41,123.01 312.87,132.69 304.16,122.68 Z M 315.41,123.01 312.60,113.36 322.96,117.64 Z M 347.70,116.36 331.96,128.59 322.96,117.64 Z M 324.09,104.41 322.96,117.64 312.60,113.36 Z M 324.09,104.41 312.60,113.36 311.07,102.69 Z M 343.74,105.60 324.09,104.41 327.99,86.28 Z M 311.07,85.30 324.09,104.41 311.07,102.69 Z M 315.41,123.01 322.96,117.64 331.96,128.59 Z M 318.10,142.91 331.96,128.59 321.58,147.38 Z M 331.96,128.59 318.10,142.91 312.87,132.69 Z M 312.87,132.69 318.10,142.91 302.22,138.92 Z M 331.96,128.59 343.53,134.84 332.68,152.98 Z M 347.70,116.36 343.53,134.84 331.96,128.59 Z M 332.68,152.98 343.53,134.84 343.93,155.47 Z M 331.96,128.59 332.68,152.98 321.58,147.38 Z M 312.87,132.69 315.41,123.01 331.96,128.59 Z M 343.74,105.60 322.96,117.64 324.09,104.41 Z M 315.41,123.01 304.16,122.68 312.60,113.36 Z M 324.09,104.41 311.07,85.30 327.99,86.28 Z M 341.39,63.88 342.31,53.90 355.52,55.61 Z M 335.40,28.09 354.90,8.61 353.85,46.23 Z M 375.78,32.44 368.01,41.48 354.90,8.61 Z M 375.78,32.44 367.66,8.63 384.67,15.30 Z M 366.24,55.08 368.01,41.48 377.39,51.52 Z M 375.78,32.44 354.90,8.61 367.66,8.63 Z M 353.85,46.23 354.90,8.61 368.01,41.48 Z M 341.39,63.88 355.52,55.61 347.94,81.70 Z M 342.31,53.90 353.85,46.23 355.52,55.61 Z M 355.52,55.61 353.85,46.23 366.24,55.08 Z M 347.94,81.70 355.52,55.61 368.90,68.95 Z M 368.90,68.95 368.93,83.64 347.94,81.70 Z M 377.39,51.52 368.90,68.95 366.24,55.08 Z M 384.88,74.15 368.93,83.64 368.90,68.95 Z M 368.90,68.95 355.52,55.61 366.24,55.08 Z M 353.85,46.23 368.01,41.48 366.24,55.08 Z M 347.94,81.70 368.93,83.64 346.15,92.57 Z M 375.78,32.44 385.47,46.08 368.01,41.48 Z M 347.94,81.70 346.15,92.57 338.70,85.06 Z M 384.67,15.30 385.29,23.53 375.78,32.44 Z M 384.67,15.30 378.80,4.60 384.91,4.57 Z M 387.59,38.61 375.78,32.44 385.29,23.53 Z M 387.59,38.61 385.47,46.08 375.78,32.44 Z M 384.88,74.15 385.29,82.75 368.93,83.64 Z M 368.90,68.95 385.74,64.70 384.88,74.15 Z M 368.90,68.95 377.39,51.52 385.74,64.70 Z M 386.79,53.56 385.74,64.70 377.39,51.52 Z M 386.79,53.56 377.39,51.52 385.47,46.08 Z M 368.01,41.48 385.47,46.08 377.39,51.52 Z M 367.66,8.63 378.80,4.60 384.67,15.30 Z M 368.93,83.64 385.29,82.75 382.93,92.60 Z M 343.74,105.60 346.15,92.57 354.17,104.59 Z M 343.74,105.60 327.99,86.28 346.15,92.57 Z M 357.66,118.77 347.70,116.36 354.17,104.59 Z M 354.17,104.59 347.70,116.36 343.74,105.60 Z M 371.43,94.75 365.44,114.42 354.17,104.59 Z M 357.66,118.77 354.17,104.59 365.44,114.42 Z M 354.17,104.59 346.15,92.57 371.43,94.75 Z M 347.70,116.36 357.66,118.77 343.53,134.84 Z M 343.93,155.47 351.31,145.06 355.56,156.60 Z M 343.53,134.84 351.31,145.06 343.93,155.47 Z M 367.30,153.26 355.56,156.60 351.31,145.06 Z M 357.66,118.77 364.66,125.42 362.36,135.92 Z M 364.66,125.42 357.66,118.77 365.44,114.42 Z M 362.36,135.92 364.66,125.42 375.33,124.42 Z M 351.31,145.06 343.53,134.84 362.36,135.92 Z M 362.36,135.92 343.53,134.84 357.66,118.77 Z M 367.30,153.26 351.31,145.06 362.36,135.92 Z M 365.44,114.42 375.33,124.42 364.66,125.42 Z M 347.70,116.36 322.96,117.64 343.74,105.60 Z M 371.43,94.75 382.93,92.60 385.76,102.96 Z M 371.43,94.75 346.15,92.57 368.93,83.64 Z M 365.44,114.42 387.25,118.24 375.33,124.42 Z M 365.44,114.42 385.76,102.96 387.25,118.24 Z M 375.33,124.42 387.25,118.24 387.08,123.63 Z M 367.30,153.26 374.82,142.19 372.17,158.77 Z M 367.30,153.26 362.36,135.92 374.82,142.19 Z M 372.17,158.77 374.82,142.19 383.89,145.76 Z M 388.54,133.75 383.89,145.76 374.82,142.19 Z M 388.54,133.75 375.33,124.42 387.08,123.63 Z M 388.54,133.75 374.82,142.19 375.33,124.42 Z M 375.33,124.42 374.82,142.19 362.36,135.92 Z M 365.44,114.42 371.43,94.75 385.76,102.96 Z M 368.93,83.64 382.93,92.60 371.43,94.75 Z M 354.90,8.61 335.40,28.09 345.65,4.80 Z"/>
 <path fill="#dbb7ba" stroke="#000" stroke-width="0.5" d="M 75.09,148.02 85.81,134.27 91.03,143.22 Z M 85.81,134.27 75.09,148.02 71.39,131.57 Z M 91.03,143.22 85.81,134.27 94.02,132.63 Z M 72.28,157.13 75.09,148.02 78.06,163.49 Z M 95.79,158.05 78.06,163.49 75.09,148.02 Z M 95.79,158.05 84.51,171.17 78.06,163.49 Z M 87.68,192.65 112.49,191.44 93.44,202.36 Z M 86.02,185.85 98.90,174.69 87.68,192.65 Z M 98.90,174.69 86.02,185.85 84.51,171.17 Z M 91.03,143.22 95.79,158.05 75.09,148.02 Z M 106.25,141.16 91.03,143.22 94.02,132.63 Z M 91.03,143.22 106.25,141.16 95.79,158.05 Z M 105.06,158.57 106.25,141.16 113.89,147.01 Z M 106.25,141.16 105.06,158.57 95.79,158.05 Z M 105.06,158.57 113.89,147.01 122.04,154.70 Z M 112.49,191.44 98.90,174.69 127.72,181.34 Z M 105.06,158.57 98.90,174.69 95.79,158.05 Z M 127.72,181.34 98.90,174.69 105.06,158.57 Z M 98.90,174.69 112.49,191.44 87.68,192.65 Z M 131.27,204.07 121.73,201.22 123.19,191.94 Z M 123.19,191.94 121.73,201.22 112.49,191.44 Z M 127.72,181.34 123.19,191.94 112.49,191.44 Z M 144.84,188.30 131.27,204.07 123.19,191.94 Z M 105.06,158.57 122.04,154.70 127.72,181.34 Z M 93.44,202.36 112.49,191.44 112.73,211.28 Z M 122.04,154.70 134.16,166.66 127.72,181.34 Z M 95.79,158.05 98.90,174.69 84.51,171.17 Z M 112.73,211.28 112.49,191.44 121.73,201.22 Z M 102.35,236.22 94.11,234.41 105.09,226.89 Z M 94.11,234.41 102.35,236.22 94.24,247.89 Z M 93.88,221.03 105.09,226.89 94.11,234.41 Z M 105.09,226.89 93.88,221.03 95.96,215.25 Z M 94.24,247.89 102.35,236.22 103.16,255.88 Z M 73.78,265.12 84.93,257.85 87.15,265.56 Z M 87.15,265.56 84.93,257.85 98.18,266.99 Z M 98.18,266.99 103.16,255.88 102.86,265.49 Z M 103.16,255.88 98.18,266.99 84.93,257.85 Z M 102.86,265.49 103.16,255.88 111.76,264.20 Z M 84.93,257.85 94.24,247.89 103.16,255.88 Z M 102.35,236.22 113.74,247.70 103.16,255.88 Z M 105.09,226.89 112.73,211.28 116.63,227.52 Z M 112.73,211.28 105.09,226.89 95.96,215.25 Z M 112.73,211.28 126.10,216.96 116.63,227.52 Z M 112.73,211.28 121.73,201.22 126.10,216.96 Z M 142.08,225.19 126.30,234.12 126.10,216.96 Z M 116.63,227.52 126.10,216.96 126.30,234.12 Z M 95.96,215.25 93.44,202.36 112.73,211.28 Z M 116.63,227.52 113.74,247.70 102.35,236.22 Z M 121.48,268.48 111.76,264.20 126.13,252.94 Z M 111.76,264.20 103.16,255.88 113.74,247.70 Z M 126.13,252.94 111.76,264.20 113.74,247.70 Z M 126.13,252.94 126.30,234.12 133.43,244.40 Z M 126.30,234.12 126.13,252.94 113.74,247.70 Z M 142.08,225.19 133.43,244.40 126.30,234.12 Z M 121.48,268.48 126.13,252.94 133.64,263.71 Z M 113.74,247.70 116.63,227.52 126.30,234.12 Z M 133.64,263.71 126.13,252.94 133.43,244.40 Z M 126.10,216.96 131.27,204.07 136.86,213.51 Z M 102.35,236.22 105.09,226.89 116.63,227.52 Z M 131.27,204.07 126.10,216.96 121.73,201.22 Z M 123.19,191.94 127.72,181.34 144.84,188.30 Z M 158.14,174.40 134.16,166.66 142.19,158.32 Z M 145.01,145.21 157.78,146.68 153.27,158.13 Z M 158.14,174.40 153.27,158.13 164.22,168.49 Z M 145.01,145.21 153.27,158.13 142.19,158.32 Z M 158.14,174.40 142.19,158.32 153.27,158.13 Z M 148.42,198.76 131.27,204.07 144.84,188.30 Z M 148.42,198.76 144.84,188.30 156.40,185.36 Z M 158.56,197.39 156.40,185.36 182.19,184.31 Z M 158.14,174.40 156.40,185.36 144.84,188.30 Z M 158.14,174.40 182.19,184.31 156.40,185.36 Z M 156.40,185.36 158.56,197.39 148.42,198.76 Z M 144.84,188.30 134.16,166.66 158.14,174.40 Z M 156.81,207.51 148.42,198.76 158.56,197.39 Z M 165.53,153.95 153.27,158.13 157.78,146.68 Z M 148.42,198.76 147.53,208.40 131.27,204.07 Z M 165.53,153.95 173.77,158.57 164.22,168.49 Z M 193.01,167.16 206.79,166.48 201.24,173.47 Z M 182.56,155.49 193.01,167.16 173.77,158.57 Z M 173.77,158.57 193.01,167.16 182.19,184.31 Z M 158.56,197.39 182.19,184.31 174.84,207.35 Z M 164.22,168.49 173.77,158.57 182.19,184.31 Z M 193.15,201.40 182.19,184.31 206.46,182.25 Z M 182.19,184.31 158.14,174.40 164.22,168.49 Z M 206.46,182.25 208.31,192.14 193.15,201.40 Z M 206.46,182.25 182.19,184.31 201.24,173.47 Z M 193.01,167.16 201.24,173.47 182.19,184.31 Z M 165.53,153.95 164.22,168.49 153.27,158.13 Z M 193.15,201.40 183.14,202.72 182.19,184.31 Z M 154.90,244.23 133.43,244.40 142.08,225.19 Z M 142.08,225.19 136.86,213.51 148.38,217.41 Z M 147.53,208.40 156.81,207.51 148.38,217.41 Z M 147.53,208.40 148.42,198.76 156.81,207.51 Z M 142.08,225.19 148.38,217.41 152.61,226.97 Z M 147.53,208.40 148.38,217.41 136.86,213.51 Z M 131.27,204.07 147.53,208.40 136.86,213.51 Z M 152.61,226.97 148.38,217.41 156.81,207.51 Z M 133.64,263.71 133.43,244.40 148.54,266.15 Z M 154.90,244.23 142.08,225.19 152.61,226.97 Z M 154.90,244.23 148.54,266.15 133.43,244.40 Z M 155.68,261.32 178.24,251.93 163.08,267.86 Z M 163.84,244.32 154.90,244.23 152.61,226.97 Z M 154.90,244.23 155.68,261.32 148.54,266.15 Z M 155.68,261.32 154.90,244.23 163.84,244.32 Z M 174.84,207.35 152.61,226.97 156.81,207.51 Z M 126.10,216.96 136.86,213.51 142.08,225.19 Z M 174.12,236.35 174.84,207.35 183.71,225.85 Z M 174.12,236.35 163.84,244.32 152.61,226.97 Z M 191.25,212.11 183.71,225.85 174.84,207.35 Z M 191.25,212.11 183.14,202.72 193.15,201.40 Z M 191.25,212.11 174.84,207.35 183.14,202.72 Z M 156.81,207.51 158.56,197.39 174.84,207.35 Z M 174.12,236.35 183.71,225.85 182.45,238.04 Z M 163.08,267.86 178.24,251.93 177.83,261.85 Z M 163.84,244.32 174.12,236.35 173.35,245.06 Z M 178.24,251.93 163.84,244.32 173.35,245.06 Z M 178.24,251.93 155.68,261.32 163.84,244.32 Z M 173.35,245.06 186.55,245.28 178.24,251.93 Z M 186.55,245.28 173.35,245.06 182.45,238.04 Z M 174.12,236.35 182.45,238.04 173.35,245.06 Z M 174.12,236.35 152.61,226.97 174.84,207.35 Z M 183.14,202.72 174.84,207.35 182.19,184.31 Z M 127.72,181.34 134.16,166.66 144.84,188.30 Z"/>
 <path fill="#8ad317" stroke="#000" stroke-width="0.5" d="M 8.51,114.05 1.20,105.33 11.35,96.63 Z M 8.51,114.05 22.35,133.18 2.73,124.38 Z M 4.50,144.97 1.23,132.77 22.35,133.18 Z M 2.73,124.38 22.35,133.18 1.23,132.77 Z M 2.75,164.68 2.86,152.85 21.19,164.09 Z M 2.75,164.68 21.19,164.09 3.32,171.17 Z M 23.58,154.79 21.19,164.09 2.86,152.85 Z M 4.50,144.97 23.58,154.79 2.86,152.85 Z M 3.32,171.17 21.19,164.09 24.37,172.50 Z M 8.51,114.05 11.35,96.63 21.88,106.00 Z M 21.88,106.00 27.04,93.00 41.83,101.31 Z M 27.04,93.00 21.88,106.00 11.35,96.63 Z M 35.56,112.37 41.83,101.31 41.59,117.93 Z M 41.83,101.31 35.56,112.37 21.88,106.00 Z M 47.30,127.63 37.94,128.79 41.59,117.93 Z M 21.88,106.00 35.56,112.37 22.35,133.18 Z M 37.94,128.79 35.56,112.37 41.59,117.93 Z M 41.65,163.13 21.19,164.09 23.58,154.79 Z M 4.50,144.97 26.69,144.64 23.58,154.79 Z M 21.19,164.09 41.65,163.13 24.37,172.50 Z M 4.50,144.97 22.35,133.18 26.69,144.64 Z M 45.57,152.79 23.58,154.79 26.69,144.64 Z M 37.94,128.79 26.69,144.64 22.35,133.18 Z M 37.94,128.79 45.57,152.79 26.69,144.64 Z M 23.58,154.79 45.57,152.79 41.65,163.13 Z M 22.35,133.18 35.56,112.37 37.94,128.79 Z M 24.37,172.50 41.65,163.13 31.84,176.33 Z M 41.59,117.93 41.83,101.31 52.72,115.94 Z M 21.88,106.00 22.35,133.18 8.51,114.05 Z M 3.32,171.17 24.37,172.50 7.70,185.45 Z M 1.97,213.66 8.94,207.88 6.77,226.69 Z M 17.27,197.56 8.94,207.88 6.14,192.49 Z M 8.94,207.88 22.17,226.75 6.77,226.69 Z M 8.49,234.38 6.77,226.69 22.17,226.75 Z M 13.85,263.77 3.43,255.70 15.04,254.88 Z M 3.43,255.70 13.85,263.77 8.06,267.77 Z M 7.64,246.36 15.04,254.88 3.43,255.70 Z M 8.49,234.38 22.28,236.64 7.64,246.36 Z M 17.27,197.56 6.14,192.49 7.70,185.45 Z M 43.22,197.30 17.27,197.56 21.87,188.20 Z M 21.87,188.20 17.27,197.56 7.70,185.45 Z M 17.27,197.56 43.22,197.30 32.61,213.62 Z M 48.13,175.52 33.37,185.00 31.84,176.33 Z M 33.37,185.00 43.22,197.30 21.87,188.20 Z M 33.37,185.00 21.87,188.20 31.84,176.33 Z M 7.70,185.45 24.37,172.50 21.87,188.20 Z M 32.61,213.62 22.17,226.75 8.94,207.88 Z M 22.28,236.64 26.43,245.36 7.64,246.36 Z M 8.49,234.38 22.17,226.75 22.28,236.64 Z M 22.28,236.64 22.17,226.75 53.67,235.35 Z M 7.64,246.36 26.43,245.36 15.04,254.88 Z M 26.43,245.36 38.06,266.50 27.38,265.13 Z M 26.43,245.36 22.28,236.64 53.67,235.35 Z M 26.43,245.36 27.38,265.13 15.04,254.88 Z M 26.43,245.36 52.95,261.58 38.06,266.50 Z M 15.04,254.88 27.38,265.13 13.85,263.77 Z M 32.61,213.62 53.67,235.35 22.17,226.75 Z M 8.94,207.88 17.27,197.56 32.61,213.62 Z M 24.37,172.50 31.84,176.33 21.87,188.20 Z M 41.65,163.13 48.13,175.52 31.84,176.33 Z M 45.57,152.79 47.30,127.63 56.51,136.29 Z M 47.30,127.63 45.57,152.79 37.94,128.79 Z M 58.84,125.34 56.51,136.29 47.30,127.63 Z M 58.84,125.34 52.72,115.94 68.28,121.25 Z M 56.51,136.29 72.28,157.13 45.57,152.79 Z M 58.84,125.34 47.30,127.63 52.72,115.94 Z M 47.30,127.63 41.59,117.93 52.72,115.94 Z M 51.65,163.25 45.57,152.79 72.28,157.13 Z M 43.22,197.30 48.13,175.52 56.22,186.15 Z M 43.22,197.30 33.37,185.00 48.13,175.52 Z M 58.87,174.58 56.22,186.15 48.13,175.52 Z M 72.28,157.13 58.87,174.58 51.65,163.25 Z M 56.22,186.15 58.87,174.58 73.97,186.61 Z M 58.87,174.58 48.13,175.52 51.65,163.25 Z M 41.65,163.13 51.65,163.25 48.13,175.52 Z M 68.71,207.47 43.22,197.30 56.22,186.15 Z M 56.51,136.29 58.84,125.34 71.39,131.57 Z M 41.65,163.13 45.57,152.79 51.65,163.25 Z M 75.09,148.02 56.51,136.29 71.39,131.57 Z M 72.28,157.13 56.51,136.29 75.09,148.02 Z M 78.06,163.49 76.54,177.79 58.87,174.58 Z M 58.87,174.58 72.28,157.13 78.06,163.49 Z M 76.89,195.76 73.97,186.61 86.02,185.85 Z M 73.97,186.61 58.87,174.58 76.54,177.79 Z M 86.02,185.85 73.97,186.61 76.54,177.79 Z M 73.97,186.61 76.89,195.76 56.22,186.15 Z M 86.02,185.85 87.68,192.65 76.89,195.76 Z M 84.51,171.17 86.02,185.85 76.54,177.79 Z M 76.54,177.79 78.06,163.49 84.51,171.17 Z M 76.89,195.76 87.68,192.65 93.44,202.36 Z M 58.84,125.34 68.28,121.25 71.39,131.57 Z M 68.71,207.47 56.22,186.15 76.89,195.76 Z M 46.36,211.73 58.15,223.42 53.67,235.35 Z M 58.15,223.42 46.36,211.73 65.39,215.33 Z M 65.39,215.33 68.71,207.47 72.41,223.00 Z M 68.71,207.47 65.39,215.33 46.36,211.73 Z M 72.41,223.00 68.71,207.47 83.19,215.69 Z M 65.39,215.33 72.41,223.00 58.15,223.42 Z M 43.22,197.30 68.71,207.47 46.36,211.73 Z M 58.15,223.42 72.41,223.00 64.17,233.71 Z M 42.93,266.95 38.06,266.50 52.95,261.58 Z M 53.67,235.35 64.17,233.71 65.56,261.50 Z M 64.17,233.71 53.67,235.35 58.15,223.42 Z M 72.74,235.56 65.56,261.50 64.17,233.71 Z M 53.67,235.35 65.56,261.50 52.95,261.58 Z M 53.67,235.35 52.95,261.58 26.43,245.36 Z M 64.17,233.71 72.41,223.00 72.74,235.56 Z M 32.61,213.62 46.36,211.73 53.67,235.35 Z M 83.01,226.47 83.19,215.69 93.88,221.03 Z M 83.01,226.47 72.74,235.56 72.41,223.00 Z M 95.96,215.25 93.88,221.03 83.19,215.69 Z M 95.96,215.25 83.19,215.69 93.44,202.36 Z M 68.71,207.47 76.89,195.76 83.19,215.69 Z M 83.01,226.47 93.88,221.03 94.11,234.41 Z M 76.45,256.74 73.78,265.12 65.56,261.50 Z M 76.45,256.74 72.74,235.56 94.24,247.89 Z M 73.78,265.12 76.45,256.74 84.93,257.85 Z M 76.45,256.74 65.56,261.50 72.74,235.56 Z M 76.45,256.74 94.24,247.89 84.93,257.85 Z M 94.24,247.89 72.74,235.56 94.11,234.41 Z M 72.74,235.56 83.01,226.47 94.11,234.41 Z M 83.01,226.47 72.41,223.00 83.19,215.69 Z M 93.44,202.36 83.19,215.69 76.89,195.76 Z M 46.36,211.73 32.61,213.62 43.22,197.30 Z"/>
 <path fill="#ede3f1" stroke="#000" stroke-width="0.5" d="M 7.11,13.04 2.07,7.78 15.04,5.71 Z M 21.22,22.84 15.04,5.71 25.90,14.67 Z M 22.42,35.68 21.22,22.84 33.57,26.05 Z M 15.04,5.71 21.22,22.84 7.11,13.04 Z M 7.11,13.04 21.22,22.84 4.96,24.60 Z M 6.21,37.31 22.42,35.68 16.62,46.40 Z M 22.42,35.68 6.21,37.31 4.96,24.60 Z M 27.89,47.39 16.62,46.40 22.42,35.68 Z M 6.21,37.31 16.62,46.40 1.75,41.23 Z M 4.96,24.60 21.22,22.84 22.42,35.68 Z M 1.75,41.23 16.62,46.40 7.69,54.46 Z M 25.90,14.67 15.04,5.71 25.31,5.99 Z M 32.79,6.19 44.88,8.88 34.16,15.61 Z M 51.82,8.29 65.41,1.57 72.00,13.07 Z M 72.00,13.07 65.41,1.57 73.84,2.11 Z M 44.88,8.88 51.82,8.29 41.68,22.36 Z M 48.29,32.70 51.82,8.29 72.00,13.07 Z M 25.90,14.67 34.16,15.61 33.57,26.05 Z M 34.16,15.61 25.90,14.67 32.79,6.19 Z M 33.57,26.05 34.16,15.61 41.68,22.36 Z M 25.90,14.67 33.57,26.05 21.22,22.84 Z M 51.82,8.29 48.29,32.70 41.68,22.36 Z M 41.68,22.36 34.16,15.61 44.88,8.88 Z M 48.29,32.70 38.74,48.00 33.57,26.05 Z M 41.68,22.36 48.29,32.70 33.57,26.05 Z M 64.95,37.90 48.29,32.70 72.00,13.07 Z M 22.42,35.68 33.57,26.05 27.89,47.39 Z M 64.95,37.90 72.87,41.06 67.36,51.62 Z M 32.79,6.19 25.90,14.67 25.31,5.99 Z M 38.74,48.00 48.29,32.70 64.95,37.90 Z M 4.56,76.77 7.10,61.02 15.17,74.15 Z M 7.10,61.02 33.45,57.87 15.17,74.15 Z M 33.45,57.87 16.62,46.40 27.89,47.39 Z M 33.02,81.07 15.17,74.15 33.45,57.87 Z M 16.62,46.40 7.10,61.02 7.69,54.46 Z M 4.56,76.77 15.17,74.15 8.21,91.24 Z M 2.83,88.56 4.56,76.77 8.21,91.24 Z M 1.20,105.33 8.21,91.24 11.35,96.63 Z M 8.21,91.24 27.04,93.00 11.35,96.63 Z M 8.21,91.24 15.17,74.15 27.04,93.00 Z M 27.04,93.00 33.02,81.07 38.03,91.30 Z M 33.02,81.07 27.04,93.00 15.17,74.15 Z M 7.10,61.02 16.62,46.40 33.45,57.87 Z M 33.45,57.87 38.74,48.00 43.72,63.33 Z M 38.74,48.00 33.45,57.87 27.89,47.39 Z M 38.74,48.00 58.86,63.36 43.72,63.33 Z M 58.86,63.36 38.74,48.00 67.36,51.62 Z M 58.86,63.36 72.91,84.96 38.03,91.30 Z M 43.72,63.33 58.86,63.36 38.03,91.30 Z M 38.74,48.00 64.95,37.90 67.36,51.62 Z M 43.72,63.33 38.03,91.30 33.02,81.07 Z M 41.83,101.31 68.15,112.13 52.72,115.94 Z M 72.91,84.96 41.83,101.31 38.03,91.30 Z M 38.03,91.30 41.83,101.31 27.04,93.00 Z M 68.28,121.25 78.26,118.34 71.39,131.57 Z M 68.15,112.13 78.26,118.34 68.28,121.25 Z M 68.15,112.13 68.28,121.25 52.72,115.94 Z M 41.83,101.31 74.30,105.48 68.15,112.13 Z M 67.36,51.62 76.19,64.51 58.86,63.36 Z M 43.72,63.33 33.02,81.07 33.45,57.87 Z M 27.89,47.39 33.57,26.05 38.74,48.00 Z M 81.33,18.85 64.95,37.90 72.00,13.07 Z M 81.33,18.85 72.87,41.06 64.95,37.90 Z M 72.00,13.07 82.32,6.84 81.33,18.85 Z M 91.87,17.46 91.94,26.98 81.33,18.85 Z M 91.87,17.46 82.32,6.84 94.07,3.27 Z M 91.87,17.46 81.33,18.85 82.32,6.84 Z M 81.33,18.85 91.94,26.98 83.14,38.30 Z M 75.23,55.01 76.19,64.51 67.36,51.62 Z M 75.23,55.01 72.87,41.06 83.14,38.30 Z M 75.23,55.01 86.28,66.60 76.19,64.51 Z M 97.09,48.79 86.28,66.60 75.23,55.01 Z M 83.14,38.30 97.09,48.79 75.23,55.01 Z M 72.91,84.96 76.19,64.51 86.28,66.60 Z M 72.87,41.06 81.33,18.85 83.14,38.30 Z M 58.86,63.36 76.19,64.51 72.91,84.96 Z M 83.14,38.30 91.94,26.98 97.09,48.79 Z M 72.00,13.07 73.84,2.11 82.32,6.84 Z M 97.09,48.79 95.58,63.49 86.28,66.60 Z M 91.94,26.98 106.03,36.07 97.09,48.79 Z M 106.03,36.07 116.65,37.75 111.24,48.20 Z M 106.03,36.07 111.24,48.20 97.09,48.79 Z M 97.09,48.79 111.24,48.20 107.77,57.14 Z M 95.58,63.49 107.77,57.14 114.45,67.09 Z M 107.77,57.14 95.58,63.49 97.09,48.79 Z M 114.45,67.09 107.77,57.14 115.98,53.53 Z M 95.58,63.49 114.45,67.09 116.01,82.33 Z M 117.28,72.52 116.01,82.33 114.45,67.09 Z M 107.77,57.14 111.24,48.20 115.98,53.53 Z M 86.28,66.60 95.58,63.49 88.77,84.06 Z M 116.01,82.33 88.77,84.06 95.58,63.49 Z M 72.91,84.96 82.32,103.60 74.30,105.48 Z M 82.32,103.60 72.91,84.96 88.77,84.06 Z M 94.54,94.60 93.44,104.20 82.32,103.60 Z M 105.35,92.22 93.44,104.20 94.54,94.60 Z M 104.74,111.36 93.44,104.20 105.35,92.22 Z M 94.54,94.60 82.32,103.60 88.77,84.06 Z M 72.91,84.96 86.28,66.60 88.77,84.06 Z M 82.32,103.60 93.44,104.20 97.26,116.47 Z M 78.26,118.34 94.02,132.63 85.81,134.27 Z M 78.26,118.34 74.30,105.48 82.32,103.60 Z M 78.26,118.34 85.81,134.27 71.39,131.57 Z M 74.30,105.48 78.26,118.34 68.15,112.13 Z M 115.21,122.11 94.02,132.63 97.26,116.47 Z M 97.26,116.47 94.02,132.63 78.26,118.34 Z M 78.26,118.34 82.32,103.60 97.26,116.47 Z M 115.21,122.11 97.26,116.47 104.74,111.36 Z M 93.44,104.20 104.74,111.36 97.26,116.47 Z M 94.54,94.60 88.77,84.06 105.35,92.22 Z M 72.91,84.96 74.30,105.48 41.83,101.31 Z M 115.85,113.10 115.21,122.11 104.74,111.36 Z M 104.74,111.36 118.31,106.83 115.85,113.10 Z M 118.78,94.55 118.31,106.83 105.35,92.22 Z M 88.77,84.06 116.01,82.33 105.35,92.22 Z M 115.85,113.10 128.31,121.12 115.21,122.11 Z M 113.89,147.01 106.25,141.16 122.16,136.32 Z M 106.25,141.16 94.02,132.63 115.21,122.11 Z M 122.16,136.32 106.25,141.16 115.21,122.11 Z M 113.89,147.01 131.32,145.25 122.04,154.70 Z M 131.32,145.25 113.89,147.01 122.16,136.32 Z M 122.16,136.32 115.21,122.11 128.31,121.12 Z M 105.35,92.22 118.31,106.83 104.74,111.36 Z M 116.01,82.33 118.78,94.55 105.35,92.22 Z M 75.23,55.01 67.36,51.62 72.87,41.06 Z"/>
 <path fill="#3aebc1" stroke="#000" stroke-width="0.5" d="M 112.78,28.71 91.94,26.98 91.87,17.46 Z M 112.78,28.71 91.87,17.46 104.94,6.97 Z M 94.07,3.27 104.94,6.97 91.87,17.46 Z M 117.93,13.64 112.78,28.71 104.94,6.97 Z M 116.65,37.75 115.98,53.53 111.24,48.20 Z M 125.64,32.70 116.65,37.75 112.78,28.71 Z M 115.98,53.53 116.65,37.75 132.59,48.04 Z M 116.65,37.75 106.03,36.07 112.78,28.71 Z M 106.03,36.07 91.94,26.98 112.78,28.71 Z M 117.93,13.64 104.94,6.97 112.38,7.32 Z M 117.93,13.64 124.96,4.02 135.72,3.80 Z M 124.96,4.02 117.93,13.64 112.38,7.32 Z M 146.22,24.59 147.27,8.65 162.52,13.39 Z M 117.93,13.64 135.72,3.80 146.22,24.59 Z M 146.22,24.59 135.72,3.80 147.27,8.65 Z M 132.59,48.04 128.96,61.37 115.98,53.53 Z M 132.59,48.04 125.64,32.70 146.22,24.59 Z M 128.96,61.37 132.59,48.04 136.71,66.95 Z M 116.65,37.75 125.64,32.70 132.59,48.04 Z M 132.59,48.04 147.68,46.61 136.71,66.95 Z M 147.68,46.61 132.59,48.04 146.22,24.59 Z M 161.96,33.42 147.68,46.61 146.22,24.59 Z M 155.37,73.13 136.77,77.02 136.71,66.95 Z M 125.64,32.70 117.93,13.64 146.22,24.59 Z M 115.98,53.53 128.96,61.37 114.45,67.09 Z M 136.71,66.95 147.68,46.61 154.29,56.82 Z M 125.64,32.70 112.78,28.71 117.93,13.64 Z M 117.28,72.52 128.96,61.37 136.71,66.95 Z M 127.07,112.22 118.78,94.55 133.01,88.81 Z M 118.31,106.83 118.78,94.55 127.07,112.22 Z M 133.01,88.81 118.78,94.55 116.01,82.33 Z M 128.96,61.37 117.28,72.52 114.45,67.09 Z M 122.16,136.32 137.50,124.75 131.32,145.25 Z M 128.31,121.12 127.07,112.22 137.50,124.75 Z M 137.50,124.75 122.16,136.32 128.31,121.12 Z M 128.31,121.12 115.85,113.10 127.07,112.22 Z M 115.85,113.10 118.31,106.83 127.07,112.22 Z M 122.04,154.70 131.32,145.25 142.19,158.32 Z M 136.77,77.02 116.01,82.33 117.28,72.52 Z M 133.01,88.81 136.77,77.02 151.86,83.09 Z M 136.77,77.02 133.01,88.81 116.01,82.33 Z M 143.76,95.60 151.86,83.09 151.63,101.58 Z M 151.86,83.09 143.76,95.60 133.01,88.81 Z M 163.46,103.42 151.63,101.58 151.86,83.09 Z M 133.01,88.81 143.76,95.60 141.35,107.52 Z M 136.71,66.95 136.77,77.02 117.28,72.52 Z M 141.35,107.52 143.76,95.60 151.63,101.58 Z M 131.32,145.25 145.01,145.21 142.19,158.32 Z M 131.32,145.25 137.50,124.75 145.01,145.21 Z M 137.50,124.75 127.07,112.22 141.35,107.52 Z M 165.05,115.69 151.17,133.94 137.50,124.75 Z M 142.19,158.32 134.16,166.66 122.04,154.70 Z M 151.17,133.94 145.01,145.21 137.50,124.75 Z M 157.78,146.68 145.01,145.21 151.17,133.94 Z M 165.05,115.69 137.50,124.75 141.35,107.52 Z M 165.05,115.69 141.35,107.52 151.63,101.58 Z M 127.07,112.22 133.01,88.81 141.35,107.52 Z M 136.77,77.02 155.37,73.13 151.86,83.09 Z M 162.52,13.39 147.27,8.65 154.22,4.72 Z M 146.22,24.59 166.53,21.04 161.96,33.42 Z M 168.10,46.97 147.68,46.61 161.96,33.42 Z M 182.61,15.17 166.53,21.04 167.81,4.67 Z M 167.81,4.67 166.53,21.04 162.52,13.39 Z M 168.10,46.97 161.96,33.42 176.53,34.47 Z M 162.52,13.39 154.22,4.72 167.81,4.67 Z M 166.53,21.04 176.53,34.47 161.96,33.42 Z M 154.29,56.82 165.58,65.41 155.37,73.13 Z M 165.58,65.41 154.29,56.82 168.77,55.34 Z M 155.37,73.13 165.58,65.41 171.73,72.04 Z M 155.37,73.13 171.73,72.04 151.86,83.09 Z M 168.10,46.97 185.36,52.72 168.77,55.34 Z M 178.77,66.73 165.58,65.41 168.77,55.34 Z M 165.58,65.41 178.77,66.73 171.73,72.04 Z M 168.10,46.97 168.77,55.34 154.29,56.82 Z M 147.68,46.61 168.10,46.97 154.29,56.82 Z M 171.73,72.04 178.73,82.83 151.86,83.09 Z M 167.81,4.67 175.72,3.30 182.61,15.17 Z M 146.22,24.59 162.52,13.39 166.53,21.04 Z M 176.53,34.47 182.61,15.17 193.64,22.02 Z M 176.53,34.47 166.53,21.04 182.61,15.17 Z M 193.64,22.02 192.12,33.05 176.53,34.47 Z M 175.72,3.30 184.09,8.24 182.61,15.17 Z M 176.53,34.47 192.12,33.05 191.70,45.31 Z M 192.60,75.54 178.73,82.83 178.77,66.73 Z M 178.73,82.83 171.73,72.04 178.77,66.73 Z M 178.77,66.73 168.77,55.34 185.36,52.72 Z M 187.08,63.70 178.77,66.73 185.36,52.72 Z M 187.08,63.70 192.60,75.54 178.77,66.73 Z M 185.36,52.72 176.53,34.47 191.70,45.31 Z M 168.10,46.97 176.53,34.47 185.36,52.72 Z M 178.73,82.83 163.46,103.42 151.86,83.09 Z M 151.17,133.94 165.05,115.69 162.30,136.09 Z M 151.17,133.94 162.30,136.09 157.78,146.68 Z M 163.46,103.42 174.19,116.79 165.05,115.69 Z M 174.19,116.79 163.46,103.42 183.14,105.32 Z M 162.30,136.09 174.19,116.79 184.29,142.04 Z M 165.05,115.69 174.19,116.79 162.30,136.09 Z M 178.73,82.83 183.14,105.32 163.46,103.42 Z M 204.79,124.23 184.29,142.04 174.19,116.79 Z M 165.53,153.95 175.40,145.28 173.77,158.57 Z M 175.40,145.28 165.53,153.95 157.78,146.68 Z M 175.40,145.28 184.29,142.04 182.56,155.49 Z M 175.40,145.28 157.78,146.68 162.30,136.09 Z M 182.56,155.49 184.29,142.04 193.64,152.12 Z M 175.40,145.28 182.56,155.49 173.77,158.57 Z M 162.30,136.09 184.29,142.04 175.40,145.28 Z M 174.19,116.79 183.14,105.32 193.44,105.92 Z M 151.63,101.58 163.46,103.42 165.05,115.69 Z M 174.19,116.79 193.44,105.92 203.17,115.24 Z M 193.44,105.92 188.41,98.75 202.72,94.48 Z M 193.44,105.92 205.37,103.00 203.17,115.24 Z M 202.72,94.48 205.37,103.00 193.44,105.92 Z M 178.73,82.83 188.41,98.75 183.14,105.32 Z M 203.17,115.24 205.37,103.00 211.89,112.12 Z M 193.01,167.16 182.56,155.49 193.64,152.12 Z M 174.19,116.79 203.17,115.24 204.79,124.23 Z M 204.79,124.23 206.24,145.35 184.29,142.04 Z M 204.79,124.23 213.17,138.87 206.24,145.35 Z M 204.79,124.23 203.17,115.24 211.89,112.12 Z M 206.24,145.35 193.64,152.12 184.29,142.04 Z M 183.14,105.32 188.41,98.75 193.44,105.92 Z M 155.37,73.13 136.71,66.95 154.29,56.82 Z"/>
 </svg>
