<svg xmlns="http://www.w3.org/2000/svg" viewBox="0 0 390 270"> <path fill="#eec393" stroke="#000" stroke-width="0.5" d="M 204.79,124.23 211.89,112.12 215.06,123.85 Z M 224.77,114.94 215.06,123.85 211.89,112.12 Z M 224.77,114.94 231.95,116.15 227.19,126.79 Z M 213.17,138.87 204.79,124.23 215.06,123.85 Z M 222.55,134.52 215.06,123.85 227.19,126.79 Z M 227.19,126.79 234.10,125.48 236.13,134.83 Z M 227.19,126.79 215.06,123.85 224.77,114.94 Z M 234.10,125.48 231.95,116.15 246.97,124.06 Z M 227.19,126.79 236.13,134.83 222.55,134.52 Z M 231.95,116.15 234.10,125.48 227.19,126.79 Z M 222.55,134.52 236.13,134.83 225.34,145.57 Z M 234.10,125.48 246.97,124.06 236.13,134.83 Z M 213.17,138.87 215.06,123.85 222.55,134.52 Z M 246.46,135.73 246.97,124.06 254.86,125.91 Z M 275.40,135.59 268.25,134.77 273.12,128.75 Z M 283.03,135.42 293.48,125.84 291.37,134.66 Z M 302.22,138.92 291.37,134.66 293.48,125.84 Z M 281.07,147.12 283.03,135.42 291.37,134.66 Z M 253.14,136.11 254.86,125.91 268.25,134.77 Z M 246.97,124.06 246.46,135.73 236.13,134.83 Z M 283.03,135.42 275.40,135.59 273.12,128.75 Z M 206.24,145.35 213.17,138.87 218.27,146.24 Z M 206.79,166.48 193.01,167.16 205.36,157.75 Z M 193.64,152.12 206.24,145.35 205.36,157.75 Z M 217.42,157.56 218.27,146.24 225.34,145.57 Z M 217.42,157.56 205.36,157.75 206.24,145.35 Z M 218.27,146.24 217.42,157.56 206.24,145.35 Z M 212.96,167.47 205.36,157.75 217.42,157.56 Z M 222.55,134.52 218.27,146.24 213.17,138.87 Z M 225.34,145.57 238.82,142.91 241.59,152.93 Z M 218.27,146.24 222.55,134.52 225.34,145.57 Z M 241.59,152.93 242.03,145.31 256.37,148.37 Z M 242.03,145.31 241.59,152.93 238.82,142.91 Z M 238.82,142.91 246.46,135.73 242.03,145.31 Z M 225.34,145.57 241.59,152.93 231.10,158.64 Z M 222.20,164.01 228.41,157.72 233.50,163.22 Z M 222.20,164.01 217.42,157.56 228.41,157.72 Z M 231.10,158.64 233.50,163.22 228.41,157.72 Z M 233.50,163.22 231.10,158.64 241.59,152.93 Z M 228.41,157.72 225.34,145.57 231.10,158.64 Z M 222.20,164.01 233.50,163.22 221.87,171.21 Z M 233.50,163.22 244.05,163.29 234.32,175.76 Z M 228.41,157.72 217.42,157.56 225.34,145.57 Z M 238.82,142.91 225.34,145.57 236.13,134.83 Z M 212.96,167.47 217.42,157.56 222.20,164.01 Z M 201.24,173.47 206.79,166.48 212.92,175.50 Z M 212.96,167.47 206.79,166.48 205.36,157.75 Z M 212.92,175.50 206.79,166.48 212.96,167.47 Z M 206.46,182.25 201.24,173.47 212.92,175.50 Z M 212.92,175.50 213.86,182.27 206.46,182.25 Z M 212.96,167.47 221.87,171.21 212.92,175.50 Z M 213.86,182.27 212.92,175.50 221.60,182.46 Z M 221.87,171.21 234.32,175.76 221.60,182.46 Z M 221.87,171.21 212.96,167.47 222.20,164.01 Z M 212.92,175.50 221.87,171.21 221.60,182.46 Z M 221.60,182.46 234.32,175.76 238.89,186.66 Z M 238.89,186.66 234.32,175.76 246.29,178.89 Z M 233.50,163.22 234.32,175.76 221.87,171.21 Z M 244.05,163.29 233.50,163.22 241.59,152.93 Z M 253.14,136.11 256.37,148.37 242.03,145.31 Z M 246.46,135.73 254.86,125.91 253.14,136.11 Z M 256.37,148.37 268.28,154.82 255.02,157.84 Z M 268.48,145.42 268.28,154.82 256.37,148.37 Z M 256.37,148.37 253.14,136.11 268.48,145.42 Z M 255.02,157.84 241.59,152.93 256.37,148.37 Z M 244.05,163.29 255.02,157.84 258.74,167.15 Z M 244.05,163.29 241.59,152.93 255.02,157.84 Z M 263.54,172.20 258.74,167.15 264.41,165.71 Z M 264.41,165.71 258.74,167.15 255.02,157.84 Z M 255.02,157.84 268.28,154.82 264.41,165.71 Z M 244.05,163.29 258.74,167.15 254.37,173.18 Z M 268.28,154.82 272.36,158.49 264.41,165.71 Z M 242.03,145.31 246.46,135.73 253.14,136.11 Z M 268.25,134.77 275.95,141.60 268.48,145.42 Z M 268.48,145.42 253.14,136.11 268.25,134.77 Z M 275.95,141.60 281.07,147.12 268.48,145.42 Z M 275.95,141.60 275.40,135.59 283.03,135.42 Z M 281.07,147.12 275.95,141.60 283.03,135.42 Z M 281.07,147.12 272.36,158.49 268.28,154.82 Z M 273.14,161.67 264.41,165.71 272.36,158.49 Z M 273.14,161.67 272.36,158.49 281.68,157.54 Z M 282.68,173.31 281.28,165.23 296.01,174.07 Z M 281.68,157.54 281.28,165.23 273.14,161.67 Z M 272.36,158.49 281.07,147.12 281.68,157.54 Z M 264.41,165.71 273.14,161.67 273.26,176.81 Z M 268.28,154.82 268.48,145.42 281.07,147.12 Z M 246.46,135.73 238.82,142.91 236.13,134.83 Z M 281.28,165.23 273.26,176.81 273.14,161.67 Z M 243.85,187.71 246.29,178.89 251.78,187.65 Z M 243.85,187.71 238.89,186.66 246.29,178.89 Z M 265.71,187.81 252.04,195.48 251.78,187.65 Z M 254.37,173.18 251.78,187.65 246.29,178.89 Z M 246.29,178.89 244.05,163.29 254.37,173.18 Z M 243.85,187.71 251.78,187.65 252.04,195.48 Z M 263.22,197.92 252.04,195.48 265.71,187.81 Z M 251.78,187.65 254.37,173.18 265.71,187.81 Z M 263.54,172.20 273.10,182.68 265.71,187.81 Z M 273.10,182.68 263.54,172.20 273.26,176.81 Z M 273.10,182.68 273.26,176.81 284.92,183.97 Z M 273.26,176.81 263.54,172.20 264.41,165.71 Z M 281.28,165.23 282.68,173.31 273.26,176.81 Z M 284.92,183.97 273.26,176.81 282.68,173.31 Z M 265.71,187.81 273.22,194.84 263.22,197.92 Z M 265.71,187.81 273.10,182.68 273.22,194.84 Z M 276.90,203.41 273.22,194.84 284.14,196.23 Z M 284.14,196.23 273.22,194.84 284.92,183.97 Z M 273.10,182.68 284.92,183.97 273.22,194.84 Z M 263.22,197.92 273.22,194.84 267.30,207.21 Z M 284.92,183.97 282.68,173.31 296.01,174.07 Z M 263.54,172.20 265.71,187.81 254.37,173.18 Z M 254.37,173.18 258.74,167.15 263.54,172.20 Z M 281.28,165.23 281.68,157.54 294.55,156.60 Z M 234.32,175.76 244.05,163.29 246.29,178.89 Z M 268.25,134.77 275.40,135.59 275.95,141.60 Z M 276.90,203.41 267.30,207.21 273.22,194.84 Z M 281.68,157.54 281.07,147.12 294.55,156.60 Z M 193.01,167.16 193.64,152.12 205.36,157.75 Z M 301.01,156.64 294.55,156.60 298.14,142.86 Z M 298.14,142.86 294.55,156.60 281.07,147.12 Z M 302.22,138.92 306.95,148.03 298.14,142.86 Z M 291.37,134.66 298.14,142.86 281.07,147.12 Z M 301.01,156.64 298.14,142.86 306.95,148.03 Z M 301.01,156.64 298.40,166.57 294.55,156.60 Z M 298.40,166.57 296.01,174.07 281.28,165.23 Z M 298.14,142.86 291.37,134.66 302.22,138.92 Z M 298.40,166.57 281.28,165.23 294.55,156.60 Z"/>
 <path fill="#4df79a" stroke="#000" stroke-width="0.5" d="M 191.25,212.11 194.19,228.47 183.71,225.85 Z M 182.45,238.04 183.71,225.85 194.19,228.47 Z M 177.83,261.85 178.24,251.93 181.47,253.61 Z M 186.52,266.16 181.47,253.61 195.12,253.57 Z M 186.55,245.28 181.47,253.61 178.24,251.93 Z M 186.55,245.28 195.12,253.57 181.47,253.61 Z M 181.47,253.61 186.52,266.16 177.83,261.85 Z M 186.55,245.28 182.45,238.04 196.44,243.19 Z M 191.25,212.11 193.15,201.40 208.03,202.73 Z M 208.31,192.14 208.03,202.73 193.15,201.40 Z M 208.03,202.73 208.31,192.14 217.21,198.33 Z M 206.46,182.25 213.86,182.27 208.31,192.14 Z M 207.73,217.79 191.25,212.11 208.03,202.73 Z M 213.86,182.27 221.60,182.46 217.21,198.33 Z M 217.21,198.33 227.13,196.34 227.38,203.31 Z M 217.21,198.33 221.60,182.46 227.13,196.34 Z M 227.13,196.34 233.55,195.28 227.38,203.31 Z M 227.13,196.34 221.60,182.46 233.55,195.28 Z M 233.55,195.28 238.89,186.66 242.80,196.67 Z M 234.59,205.01 227.38,203.31 233.55,195.28 Z M 238.89,186.66 233.55,195.28 221.60,182.46 Z M 208.03,202.73 217.21,198.33 213.51,208.04 Z M 213.86,182.27 217.21,198.33 208.31,192.14 Z M 213.51,208.04 217.21,198.33 227.38,203.31 Z M 243.78,205.28 242.80,196.67 252.04,195.48 Z M 252.04,195.48 242.80,196.67 243.85,187.71 Z M 267.30,207.21 254.63,201.36 263.22,197.92 Z M 263.22,197.92 254.63,201.36 252.04,195.48 Z M 234.59,205.01 233.55,195.28 242.80,196.67 Z M 242.80,196.67 238.89,186.66 243.85,187.71 Z M 254.63,201.36 243.78,205.28 252.04,195.48 Z M 207.73,217.79 213.51,208.04 213.77,216.26 Z M 194.19,228.47 191.25,212.11 207.73,217.79 Z M 213.77,216.26 218.97,227.18 207.73,217.79 Z M 222.24,218.78 218.97,227.18 213.77,216.26 Z M 213.77,216.26 213.51,208.04 222.24,218.78 Z M 207.73,217.79 218.97,227.18 203.68,228.11 Z M 196.11,232.94 196.44,243.19 182.45,238.04 Z M 196.11,232.94 194.19,228.47 203.68,228.11 Z M 196.11,232.94 203.68,228.11 202.28,237.79 Z M 211.45,234.48 203.68,228.11 218.97,227.18 Z M 194.19,228.47 207.73,217.79 203.68,228.11 Z M 211.45,234.48 202.28,237.79 203.68,228.11 Z M 218.97,227.18 221.15,234.17 211.45,234.48 Z M 207.73,217.79 208.03,202.73 213.51,208.04 Z M 234.16,224.11 222.24,218.78 234.34,212.34 Z M 222.24,218.78 227.38,203.31 234.34,212.34 Z M 234.34,212.34 243.78,205.28 241.71,217.62 Z M 243.78,205.28 234.34,212.34 234.59,205.01 Z M 213.51,208.04 227.38,203.31 222.24,218.78 Z M 234.16,224.11 234.34,212.34 241.71,217.62 Z M 221.15,234.17 227.61,228.57 232.61,237.54 Z M 221.15,234.17 218.97,227.18 227.61,228.57 Z M 242.67,224.71 232.61,237.54 234.16,224.11 Z M 234.16,224.11 232.61,237.54 227.61,228.57 Z M 227.61,228.57 222.24,218.78 234.16,224.11 Z M 211.45,234.48 221.15,234.17 214.01,243.35 Z M 232.61,237.54 243.32,237.48 233.88,242.21 Z M 227.61,228.57 218.97,227.18 222.24,218.78 Z M 234.59,205.01 234.34,212.34 227.38,203.31 Z M 232.61,237.54 226.07,246.89 221.15,234.17 Z M 196.44,243.19 202.28,237.79 204.05,244.52 Z M 202.28,237.79 196.44,243.19 196.11,232.94 Z M 201.94,255.81 204.05,244.52 217.53,254.53 Z M 204.05,244.52 202.28,237.79 211.45,234.48 Z M 214.01,243.35 204.05,244.52 211.45,234.48 Z M 196.44,243.19 204.05,244.52 195.12,253.57 Z M 195.12,253.57 198.59,263.82 186.52,266.16 Z M 198.59,263.82 195.12,253.57 201.94,255.81 Z M 201.94,255.81 203.16,266.34 198.59,263.82 Z M 216.59,266.08 203.16,266.34 201.94,255.81 Z M 195.12,253.57 204.05,244.52 201.94,255.81 Z M 217.53,254.53 204.05,244.52 214.01,243.35 Z M 195.12,253.57 186.55,245.28 196.44,243.19 Z M 217.53,254.53 226.07,246.89 228.30,255.30 Z M 226.07,246.89 217.53,254.53 214.01,243.35 Z M 228.30,255.30 233.88,242.21 235.53,257.76 Z M 233.88,242.21 228.30,255.30 226.07,246.89 Z M 214.01,243.35 221.15,234.17 226.07,246.89 Z M 217.53,254.53 228.30,255.30 224.13,261.04 Z M 224.13,261.04 216.59,266.08 217.53,254.53 Z M 235.53,257.76 241.47,267.63 237.24,265.98 Z M 247.04,253.04 241.47,267.63 235.53,257.76 Z M 235.53,257.76 237.24,265.98 224.13,261.04 Z M 224.13,261.04 228.30,255.30 235.53,257.76 Z M 245.74,245.92 235.53,257.76 233.88,242.21 Z M 217.53,254.53 216.59,266.08 201.94,255.81 Z M 233.88,242.21 226.07,246.89 232.61,237.54 Z M 241.71,217.62 242.67,224.71 234.16,224.11 Z M 182.45,238.04 194.19,228.47 196.11,232.94 Z M 252.71,217.58 242.67,224.71 241.71,217.62 Z M 243.78,205.28 254.63,201.36 252.71,217.58 Z M 267.30,207.21 264.32,218.99 252.71,217.58 Z M 267.30,207.21 252.71,217.58 254.63,201.36 Z M 252.71,217.58 264.32,218.99 255.31,228.40 Z M 243.32,237.48 242.67,224.71 255.31,228.40 Z M 242.67,224.71 252.71,217.58 255.31,228.40 Z M 261.91,235.59 258.26,231.75 267.33,225.61 Z M 267.33,225.61 258.26,231.75 255.31,228.40 Z M 264.32,218.99 267.33,225.61 255.31,228.40 Z M 243.32,237.48 255.31,228.40 258.26,231.75 Z M 252.71,217.58 241.71,217.62 243.78,205.28 Z M 234.59,205.01 242.80,196.67 243.78,205.28 Z M 245.74,245.92 247.04,253.04 235.53,257.76 Z M 245.74,245.92 243.32,237.48 256.42,241.34 Z M 256.42,241.34 261.91,235.59 261.12,248.22 Z M 256.42,241.34 243.32,237.48 258.26,231.75 Z M 258.26,231.75 261.91,235.59 256.42,241.34 Z M 245.74,245.92 256.42,241.34 254.38,254.53 Z M 254.38,254.53 258.65,265.76 241.47,267.63 Z M 247.04,253.04 245.74,245.92 254.38,254.53 Z M 263.69,253.95 254.38,254.53 261.12,248.22 Z M 254.38,254.53 263.69,253.95 258.65,265.76 Z M 256.42,241.34 261.12,248.22 254.38,254.53 Z M 254.38,254.53 241.47,267.63 247.04,253.04 Z M 261.91,235.59 273.52,238.41 261.12,248.22 Z M 245.74,245.92 233.88,242.21 243.32,237.48 Z M 274.54,253.91 263.69,253.95 261.12,248.22 Z M 263.69,253.95 265.41,266.10 258.65,265.76 Z M 263.69,253.95 274.54,253.91 265.41,266.10 Z M 274.54,253.91 261.12,248.22 273.52,238.41 Z M 261.91,235.59 267.33,225.61 273.52,238.41 Z M 242.67,224.71 243.32,237.48 232.61,237.54 Z"/>
 <path fill="#afb69e" stroke="#000" stroke-width="0.5" d="M 284.14,196.23 284.92,183.97 294.50,186.14 Z M 298.40,166.57 301.01,156.64 303.46,164.98 Z M 298.40,166.57 303.46,164.98 306.40,171.25 Z M 313.65,164.25 303.46,164.98 301.01,156.64 Z M 313.65,164.25 301.01,156.64 315.44,154.62 Z M 313.65,164.25 306.40,171.25 303.46,164.98 Z M 301.01,156.64 306.95,148.03 315.44,154.62 Z M 318.10,142.91 321.58,147.38 315.44,154.62 Z M 337.78,163.62 332.68,152.98 342.08,161.55 Z M 321.58,147.38 332.68,152.98 328.08,155.26 Z M 328.08,155.26 328.37,168.45 313.65,164.25 Z M 328.08,155.26 315.44,154.62 321.58,147.38 Z M 328.37,168.45 337.78,163.62 334.22,173.88 Z M 337.78,163.62 328.37,168.45 328.08,155.26 Z M 328.08,155.26 332.68,152.98 337.78,163.62 Z M 328.08,155.26 313.65,164.25 315.44,154.62 Z M 318.10,142.91 315.44,154.62 306.95,148.03 Z M 327.04,173.96 313.65,164.25 328.37,168.45 Z M 296.01,174.07 303.97,185.43 294.50,186.14 Z M 303.97,185.43 296.01,174.07 306.40,171.25 Z M 306.40,171.25 311.13,172.48 303.97,185.43 Z M 306.40,171.25 313.65,164.25 311.13,172.48 Z M 296.01,174.07 298.40,166.57 306.40,171.25 Z M 312.75,192.41 303.97,185.43 316.12,187.09 Z M 294.50,186.14 303.97,185.43 293.85,197.28 Z M 293.85,197.28 284.14,196.23 294.50,186.14 Z M 308.00,195.11 312.75,192.41 318.25,201.78 Z M 293.85,197.28 303.97,185.43 308.00,195.11 Z M 303.97,185.43 312.75,192.41 308.00,195.11 Z M 303.54,205.83 293.85,197.28 308.00,195.11 Z M 303.97,185.43 311.13,172.48 316.12,187.09 Z M 294.50,186.14 284.92,183.97 296.01,174.07 Z M 316.12,187.09 324.65,183.82 324.17,194.77 Z M 316.12,187.09 311.13,172.48 324.65,183.82 Z M 327.04,173.96 334.22,173.88 324.65,183.82 Z M 311.13,172.48 313.65,164.25 327.04,173.96 Z M 311.13,172.48 327.04,173.96 324.65,183.82 Z M 324.65,183.82 334.22,173.88 331.40,188.53 Z M 318.25,201.78 321.14,202.02 322.34,215.53 Z M 321.14,202.02 318.25,201.78 324.17,194.77 Z M 331.78,202.08 324.17,194.77 331.40,188.53 Z M 331.40,188.53 324.17,194.77 324.65,183.82 Z M 343.55,176.93 336.58,191.05 331.40,188.53 Z M 321.14,202.02 324.17,194.77 331.78,202.08 Z M 312.75,192.41 324.17,194.77 318.25,201.78 Z M 331.40,188.53 336.58,191.05 331.78,202.08 Z M 343.55,176.93 331.40,188.53 334.22,173.88 Z M 324.17,194.77 312.75,192.41 316.12,187.09 Z M 328.37,168.45 334.22,173.88 327.04,173.96 Z M 303.54,205.83 308.00,195.11 318.25,201.78 Z M 334.22,173.88 337.78,163.62 343.55,176.93 Z M 342.08,161.55 343.93,155.47 355.56,156.60 Z M 342.08,161.55 332.68,152.98 343.93,155.47 Z M 342.08,161.55 355.56,156.60 358.34,167.36 Z M 367.30,153.26 362.24,161.05 355.56,156.60 Z M 362.24,161.05 358.34,167.36 355.56,156.60 Z M 367.30,153.26 372.17,158.77 362.24,161.05 Z M 375.89,162.80 386.29,154.27 387.29,167.83 Z M 386.29,154.27 375.89,162.80 372.17,158.77 Z M 383.89,145.76 386.29,154.27 372.17,158.77 Z M 362.24,161.05 372.17,158.77 368.85,171.95 Z M 375.89,162.80 368.85,171.95 372.17,158.77 Z M 343.55,176.93 351.11,185.42 345.54,188.97 Z M 351.11,185.42 343.55,176.93 355.50,174.98 Z M 364.04,186.24 355.50,174.98 368.85,171.95 Z M 355.50,174.98 343.55,176.93 342.08,161.55 Z M 342.08,161.55 358.34,167.36 355.50,174.98 Z M 351.11,185.42 355.50,174.98 364.04,186.24 Z M 345.84,198.12 336.58,191.05 345.54,188.97 Z M 345.84,198.12 345.54,188.97 355.50,196.94 Z M 355.50,196.94 364.04,186.24 366.88,195.95 Z M 355.50,196.94 345.54,188.97 351.11,185.42 Z M 351.11,185.42 364.04,186.24 355.50,196.94 Z M 352.32,205.71 345.84,198.12 355.50,196.94 Z M 355.50,174.98 358.34,167.36 368.85,171.95 Z M 345.54,188.97 336.58,191.05 343.55,176.93 Z M 368.85,171.95 377.49,172.73 374.63,188.02 Z M 368.85,171.95 375.89,162.80 377.49,172.73 Z M 383.31,172.80 377.49,172.73 375.89,162.80 Z M 358.34,167.36 362.24,161.05 368.85,171.95 Z M 377.49,172.73 383.31,172.80 384.18,186.59 Z M 371.42,202.21 366.88,195.95 371.83,191.82 Z M 364.04,186.24 371.83,191.82 366.88,195.95 Z M 374.63,188.02 384.18,186.59 386.36,192.41 Z M 384.18,186.59 374.63,188.02 377.49,172.73 Z M 374.63,188.02 386.36,192.41 371.83,191.82 Z M 374.63,188.02 371.83,191.82 364.04,186.24 Z M 371.42,202.21 371.83,191.82 386.36,192.41 Z M 364.04,186.24 368.85,171.95 374.63,188.02 Z M 383.31,172.80 375.89,162.80 387.29,167.83 Z M 331.78,202.08 336.58,191.05 345.84,198.12 Z M 342.08,161.55 343.55,176.93 337.78,163.62 Z M 366.88,195.95 364.52,207.52 355.50,196.94 Z M 317.36,218.02 305.67,213.34 318.25,201.78 Z M 303.54,205.83 318.25,201.78 305.67,213.34 Z M 322.34,215.53 331.78,202.08 333.95,218.12 Z M 318.25,201.78 322.34,215.53 317.36,218.02 Z M 332.13,222.82 333.95,218.12 341.50,226.27 Z M 333.95,218.12 332.13,222.82 322.34,215.53 Z M 333.95,218.12 344.32,211.57 341.50,226.27 Z M 322.34,215.53 332.13,222.82 327.97,226.69 Z M 333.95,218.12 331.78,202.08 344.32,211.57 Z M 327.97,226.69 317.36,218.02 322.34,215.53 Z M 321.14,202.02 331.78,202.08 322.34,215.53 Z M 344.32,211.57 345.58,204.85 352.32,205.71 Z M 345.58,204.85 344.32,211.57 331.78,202.08 Z M 344.32,211.57 352.32,205.71 351.41,216.81 Z M 352.32,205.71 355.50,196.94 364.52,207.52 Z M 345.84,198.12 352.32,205.71 345.58,204.85 Z M 351.41,216.81 352.32,205.71 364.52,207.52 Z M 364.54,217.68 351.41,216.81 364.52,207.52 Z M 374.00,213.57 364.54,217.68 364.52,207.52 Z M 374.00,213.57 371.42,202.21 384.11,208.21 Z M 384.11,208.21 388.68,215.83 374.00,213.57 Z M 371.42,202.21 386.36,192.41 384.11,208.21 Z M 374.00,213.57 388.68,215.83 373.24,221.11 Z M 373.24,221.11 364.54,217.68 374.00,213.57 Z M 374.00,213.57 364.52,207.52 371.42,202.21 Z M 331.78,202.08 345.84,198.12 345.58,204.85 Z M 344.32,211.57 351.41,216.81 341.50,226.27 Z M 364.52,207.52 366.88,195.95 371.42,202.21 Z"/>
 <path fill="#c1e1d5" stroke="#000" stroke-width="0.5" d="M 293.85,197.28 282.56,202.45 284.14,196.23 Z M 291.07,207.01 282.56,202.45 293.85,197.28 Z M 276.90,203.41 284.14,196.23 282.56,202.45 Z M 267.33,225.61 264.32,218.99 277.58,221.60 Z M 264.32,218.99 267.30,207.21 277.99,218.81 Z M 277.99,218.81 277.58,221.60 264.32,218.99 Z M 277.99,218.81 276.90,203.41 286.48,213.38 Z M 291.12,223.71 286.48,213.38 296.94,213.45 Z M 286.48,213.38 276.90,203.41 282.56,202.45 Z M 282.56,202.45 291.07,207.01 286.48,213.38 Z M 277.99,218.81 286.48,213.38 288.46,224.41 Z M 267.33,225.61 277.58,221.60 273.52,238.41 Z M 284.79,231.19 277.58,221.60 288.46,224.41 Z M 288.46,224.41 291.12,223.71 284.79,231.19 Z M 288.46,224.41 277.58,221.60 277.99,218.81 Z M 286.48,213.38 291.12,223.71 288.46,224.41 Z M 295.71,237.30 281.17,241.84 284.79,231.19 Z M 286.48,213.38 291.07,207.01 296.94,213.45 Z M 277.99,218.81 267.30,207.21 276.90,203.41 Z M 284.79,231.19 273.52,238.41 277.58,221.60 Z M 274.54,253.91 273.52,238.41 277.88,242.07 Z M 277.88,242.07 281.17,241.84 274.54,253.91 Z M 281.17,241.84 277.88,242.07 273.52,238.41 Z M 273.52,238.41 284.79,231.19 281.17,241.84 Z M 274.54,253.91 281.17,241.84 286.01,256.32 Z M 276.98,261.23 286.01,256.32 288.62,264.46 Z M 265.41,266.10 274.54,253.91 276.98,261.23 Z M 291.65,251.96 288.62,264.46 286.01,256.32 Z M 274.54,253.91 286.01,256.32 276.98,261.23 Z M 286.01,256.32 281.17,241.84 291.65,251.96 Z M 295.71,237.30 284.79,231.19 291.12,223.71 Z M 293.85,197.28 303.54,205.83 291.07,207.01 Z M 296.94,213.45 303.54,205.83 305.67,213.34 Z M 296.94,213.45 291.07,207.01 303.54,205.83 Z M 296.94,213.45 305.67,213.34 305.38,223.21 Z M 305.38,223.21 305.67,213.34 317.36,218.02 Z M 301.09,233.49 305.38,223.21 312.17,227.66 Z M 301.09,233.49 291.12,223.71 305.38,223.21 Z M 312.17,227.66 312.20,231.34 301.09,233.49 Z M 322.20,234.66 312.20,231.34 312.17,227.66 Z M 305.38,223.21 317.36,218.02 312.17,227.66 Z M 313.29,243.75 301.09,233.49 312.20,231.34 Z M 312.17,227.66 317.36,218.02 327.97,226.69 Z M 301.09,233.49 295.71,237.30 291.12,223.71 Z M 322.20,234.66 327.97,226.69 333.49,235.09 Z M 322.20,234.66 312.17,227.66 327.97,226.69 Z M 342.44,243.62 333.49,235.09 347.87,231.15 Z M 333.49,235.09 327.97,226.69 332.13,222.82 Z M 332.13,222.82 341.50,226.27 333.49,235.09 Z M 322.20,234.66 333.49,235.09 326.02,242.08 Z M 313.29,243.75 312.20,231.34 322.20,234.66 Z M 297.96,242.67 291.65,251.96 281.17,241.84 Z M 295.71,237.30 301.09,233.49 297.96,242.67 Z M 301.69,244.94 313.29,243.75 305.01,257.96 Z M 297.96,242.67 301.09,233.49 301.69,244.94 Z M 313.29,243.75 301.69,244.94 301.09,233.49 Z M 297.96,242.67 301.69,244.94 291.65,251.96 Z M 291.65,251.96 298.91,266.16 288.62,264.46 Z M 298.91,266.16 291.65,251.96 305.01,257.96 Z M 305.01,257.96 306.98,267.00 298.91,266.16 Z M 317.35,266.32 306.98,267.00 305.01,257.96 Z M 291.65,251.96 301.69,244.94 305.01,257.96 Z M 305.01,257.96 313.29,243.75 315.72,254.54 Z M 295.71,237.30 297.96,242.67 281.17,241.84 Z M 321.64,255.90 315.72,254.54 326.02,242.08 Z M 326.02,242.08 315.72,254.54 313.29,243.75 Z M 338.23,255.34 326.02,242.08 338.21,245.32 Z M 338.21,245.32 326.02,242.08 333.49,235.09 Z M 322.20,234.66 326.02,242.08 313.29,243.75 Z M 338.23,255.34 338.21,245.32 342.44,243.62 Z M 317.35,266.32 321.64,255.90 322.88,266.16 Z M 321.64,255.90 317.35,266.32 315.72,254.54 Z M 321.64,255.90 334.46,267.97 322.88,266.16 Z M 334.46,267.97 321.64,255.90 338.23,255.34 Z M 343.02,263.45 334.46,267.97 338.23,255.34 Z M 321.64,255.90 326.02,242.08 338.23,255.34 Z M 338.23,255.34 342.44,243.62 343.50,257.67 Z M 315.72,254.54 317.35,266.32 305.01,257.96 Z M 342.44,243.62 338.21,245.32 333.49,235.09 Z M 333.49,235.09 341.50,226.27 347.87,231.15 Z M 305.38,223.21 291.12,223.71 296.94,213.45 Z M 347.87,231.15 351.41,216.81 357.57,224.50 Z M 347.87,231.15 341.50,226.27 351.41,216.81 Z M 347.87,231.15 357.57,224.50 356.50,236.30 Z M 364.54,217.68 357.57,224.50 351.41,216.81 Z M 357.57,224.50 364.54,217.68 361.43,226.78 Z M 361.43,226.78 356.50,236.30 357.57,224.50 Z M 353.43,241.71 342.44,243.62 347.87,231.15 Z M 361.43,226.78 373.24,221.11 374.90,234.56 Z M 387.24,227.72 382.78,231.53 373.24,221.11 Z M 373.24,221.11 388.68,215.83 387.24,227.72 Z M 373.24,221.11 361.43,226.78 364.54,217.68 Z M 382.78,231.53 374.90,234.56 373.24,221.11 Z M 364.55,242.46 353.43,241.71 356.50,236.30 Z M 342.44,243.62 353.43,241.71 357.06,253.86 Z M 361.29,262.55 357.06,253.86 364.59,257.82 Z M 353.43,241.71 364.55,242.46 357.06,253.86 Z M 356.50,236.30 361.43,226.78 361.78,234.10 Z M 357.06,253.86 343.50,257.67 342.44,243.62 Z M 343.02,263.45 343.50,257.67 352.29,264.54 Z M 343.02,263.45 338.23,255.34 343.50,257.67 Z M 352.29,264.54 343.50,257.67 357.06,253.86 Z M 357.06,253.86 361.29,262.55 352.29,264.54 Z M 361.78,234.10 364.55,242.46 356.50,236.30 Z M 353.43,241.71 347.87,231.15 356.50,236.30 Z M 364.55,242.46 374.90,234.56 376.93,243.42 Z M 374.90,234.56 364.55,242.46 361.78,234.10 Z M 376.93,243.42 385.89,244.08 375.65,253.51 Z M 376.93,243.42 374.90,234.56 382.78,231.53 Z M 382.78,231.53 385.89,244.08 376.93,243.42 Z M 364.55,242.46 376.93,243.42 375.65,253.51 Z M 364.59,257.82 375.65,253.51 377.02,262.39 Z M 375.65,253.51 364.59,257.82 364.55,242.46 Z M 377.02,262.39 386.69,253.35 384.47,267.47 Z M 386.69,253.35 377.02,262.39 375.65,253.51 Z M 375.65,253.51 385.89,244.08 386.69,253.35 Z M 377.02,262.39 361.29,262.55 364.59,257.82 Z M 364.55,242.46 364.59,257.82 357.06,253.86 Z M 361.78,234.10 361.43,226.78 374.90,234.56 Z"/>
 <path fill="#0eeaa4" stroke="#000" stroke-width="0.5" d="M 308.68,15.86 313.98,12.84 311.82,25.12 Z M 313.98,12.84 308.68,15.86 302.03,6.53 Z M 302.03,6.53 318.92,3.12 313.98,12.84 Z M 306.60,32.46 311.82,25.12 315.09,32.04 Z M 311.82,25.12 306.60,32.46 302.86,28.70 Z M 308.68,15.86 311.82,25.12 302.86,28.70 Z M 298.62,37.66 302.86,28.70 306.60,32.46 Z M 313.98,12.84 326.97,11.93 311.82,25.12 Z M 318.92,3.12 321.95,2.62 326.97,11.93 Z M 326.97,11.93 332.37,7.85 333.48,14.43 Z M 332.37,7.85 326.97,11.93 321.95,2.62 Z M 328.62,27.49 311.82,25.12 326.97,11.93 Z M 328.62,27.49 322.76,33.29 311.82,25.12 Z M 315.09,32.04 311.82,25.12 322.76,33.29 Z M 333.48,14.43 335.40,28.09 328.62,27.49 Z M 338.33,37.76 335.40,28.09 342.64,37.10 Z M 326.97,11.93 333.48,14.43 328.62,27.49 Z M 338.33,37.76 328.62,27.49 335.40,28.09 Z M 335.40,28.09 333.48,14.43 344.46,21.59 Z M 326.97,11.93 313.98,12.84 318.92,3.12 Z M 306.60,32.46 315.09,32.04 307.13,45.03 Z M 295.51,45.40 298.62,37.66 307.13,45.03 Z M 295.51,45.40 307.13,45.03 305.59,53.93 Z M 311.55,51.03 307.13,45.03 318.38,48.83 Z M 306.60,32.46 307.13,45.03 298.62,37.66 Z M 305.59,53.93 307.13,45.03 311.55,51.03 Z M 311.49,66.85 303.35,64.36 305.59,53.93 Z M 305.59,53.93 303.35,64.36 295.01,54.82 Z M 295.01,54.82 295.51,45.40 305.59,53.93 Z M 311.49,66.85 305.59,53.93 311.55,51.03 Z M 318.38,48.83 307.13,45.03 315.09,32.04 Z M 323.02,44.38 322.76,33.29 336.48,41.55 Z M 342.31,53.90 332.49,55.28 336.48,41.55 Z M 338.33,37.76 336.48,41.55 322.76,33.29 Z M 322.76,33.29 328.62,27.49 338.33,37.76 Z M 323.02,44.38 336.48,41.55 332.49,55.28 Z M 322.99,51.26 323.01,62.56 311.55,51.03 Z M 318.38,48.83 323.02,44.38 322.99,51.26 Z M 338.88,66.81 323.01,62.56 332.49,55.28 Z M 332.49,55.28 323.01,62.56 322.99,51.26 Z M 342.31,53.90 341.39,63.88 332.49,55.28 Z M 311.49,66.85 311.55,51.03 323.01,62.56 Z M 323.02,44.38 332.49,55.28 322.99,51.26 Z M 322.99,51.26 311.55,51.03 318.38,48.83 Z M 336.48,41.55 338.33,37.76 342.07,42.67 Z M 315.09,32.04 323.02,44.38 318.38,48.83 Z M 322.76,33.29 323.02,44.38 315.09,32.04 Z M 338.88,66.81 332.49,55.28 341.39,63.88 Z M 333.48,14.43 332.37,7.85 345.10,13.85 Z M 345.10,13.85 345.65,4.80 354.90,8.61 Z M 345.10,13.85 344.46,21.59 333.48,14.43 Z M 353.36,16.07 354.90,8.61 365.54,18.76 Z M 354.90,8.61 353.36,16.07 345.10,13.85 Z M 345.10,13.85 353.36,16.07 344.46,21.59 Z M 344.46,21.59 351.39,24.45 342.64,37.10 Z M 344.46,21.59 353.36,16.07 351.39,24.45 Z M 362.39,24.92 365.54,18.76 377.21,22.39 Z M 362.39,24.92 351.39,24.45 353.36,16.07 Z M 365.54,18.76 362.39,24.92 353.36,16.07 Z M 358.42,32.74 351.39,24.45 362.39,24.92 Z M 354.90,8.61 367.66,8.63 365.54,18.76 Z M 335.40,28.09 344.46,21.59 342.64,37.10 Z M 374.12,18.30 367.66,8.63 378.80,4.60 Z M 384.91,4.57 384.67,15.30 378.80,4.60 Z M 374.12,18.30 378.80,4.60 384.67,15.30 Z M 365.54,18.76 374.12,18.30 377.21,22.39 Z M 362.39,24.92 377.21,22.39 375.78,32.44 Z M 377.21,22.39 385.29,23.53 375.78,32.44 Z M 377.21,22.39 374.12,18.30 384.67,15.30 Z M 384.67,15.30 385.29,23.53 377.21,22.39 Z M 375.78,32.44 385.29,23.53 387.59,38.61 Z M 374.12,18.30 365.54,18.76 367.66,8.63 Z M 361.07,32.87 362.39,24.92 375.78,32.44 Z M 353.85,46.23 342.07,42.67 342.64,37.10 Z M 342.07,42.67 338.33,37.76 342.64,37.10 Z M 353.85,46.23 342.64,37.10 358.42,32.74 Z M 361.07,32.87 358.42,32.74 362.39,24.92 Z M 342.64,37.10 351.39,24.45 358.42,32.74 Z M 353.85,46.23 358.42,32.74 361.07,32.87 Z M 342.31,53.90 353.85,46.23 355.52,55.61 Z M 353.85,46.23 342.31,53.90 342.07,42.67 Z M 355.87,66.40 341.39,63.88 355.52,55.61 Z M 366.24,55.08 355.87,66.40 355.52,55.61 Z M 355.52,55.61 353.85,46.23 366.24,55.08 Z M 355.52,55.61 341.39,63.88 342.31,53.90 Z M 368.01,41.48 353.85,46.23 361.07,32.87 Z M 342.07,42.67 342.31,53.90 336.48,41.55 Z M 368.01,41.48 377.21,45.45 377.39,51.52 Z M 368.01,41.48 375.78,32.44 377.21,45.45 Z M 387.59,38.61 385.47,46.08 377.21,45.45 Z M 361.07,32.87 375.78,32.44 368.01,41.48 Z M 377.21,45.45 385.47,46.08 377.39,51.52 Z M 366.24,55.08 377.39,51.52 378.42,62.84 Z M 377.39,51.52 366.24,55.08 368.01,41.48 Z M 378.42,62.84 386.79,53.56 385.74,64.70 Z M 386.79,53.56 378.42,62.84 377.39,51.52 Z M 368.90,68.95 366.24,55.08 378.42,62.84 Z M 377.39,51.52 385.47,46.08 386.79,53.56 Z M 355.87,66.40 366.24,55.08 368.90,68.95 Z M 368.01,41.48 366.24,55.08 353.85,46.23 Z M 387.59,38.61 377.21,45.45 375.78,32.44 Z M 377.80,74.53 378.42,62.84 385.74,64.70 Z M 332.37,7.85 345.65,4.80 345.10,13.85 Z M 353.58,73.81 341.39,63.88 355.87,66.40 Z M 353.58,73.81 355.87,66.40 361.99,73.10 Z M 354.18,85.18 353.58,73.81 361.99,73.10 Z M 362.44,98.29 354.18,85.18 368.93,83.64 Z M 354.18,85.18 361.99,73.10 368.93,83.64 Z M 368.93,83.64 368.90,68.95 377.80,74.53 Z M 368.90,68.95 378.42,62.84 377.80,74.53 Z M 378.11,81.81 384.88,74.15 385.29,82.75 Z M 384.88,74.15 378.11,81.81 377.80,74.53 Z M 385.74,64.70 384.88,74.15 377.80,74.53 Z M 368.93,83.64 377.80,74.53 378.11,81.81 Z M 368.93,83.64 371.43,94.75 362.44,98.29 Z M 368.93,83.64 378.11,81.81 371.43,94.75 Z M 371.43,94.75 378.11,81.81 382.93,92.60 Z M 378.11,81.81 385.29,82.75 382.93,92.60 Z M 362.44,98.29 371.43,94.75 365.94,103.47 Z M 368.90,68.95 368.93,83.64 361.99,73.10 Z M 378.44,104.72 371.43,94.75 382.93,92.60 Z M 375.06,112.31 365.94,103.47 378.44,104.72 Z M 375.06,112.31 378.44,104.72 387.25,118.24 Z M 378.44,104.72 365.94,103.47 371.43,94.75 Z M 382.93,92.60 385.76,102.96 378.44,104.72 Z M 387.25,118.24 378.44,104.72 385.76,102.96 Z M 368.90,68.95 361.99,73.10 355.87,66.40 Z"/>
 <path fill="#70fd31" stroke="#000" stroke-width="0.5" d="M 297.86,74.60 305.21,74.69 307.93,81.59 Z M 297.86,74.60 303.35,64.36 305.21,74.69 Z M 311.07,85.30 307.93,81.59 317.82,71.53 Z M 305.21,74.69 317.82,71.53 307.93,81.59 Z M 303.35,64.36 311.49,66.85 305.21,74.69 Z M 311.07,85.30 294.77,87.66 307.93,81.59 Z M 296.41,95.20 302.59,98.50 295.51,107.45 Z M 296.41,95.20 294.77,87.66 302.59,98.50 Z M 311.07,85.30 313.66,91.15 302.59,98.50 Z M 327.99,86.28 313.66,91.15 311.07,85.30 Z M 311.07,85.30 302.59,98.50 294.77,87.66 Z M 311.07,102.69 302.59,98.50 313.66,91.15 Z M 311.49,66.85 317.82,71.53 305.21,74.69 Z M 323.80,74.63 327.99,86.28 311.07,85.30 Z M 317.82,71.53 323.01,62.56 323.80,74.63 Z M 338.70,85.06 332.53,73.85 345.88,76.42 Z M 332.53,73.85 323.80,74.63 323.01,62.56 Z M 311.49,66.85 323.01,62.56 317.82,71.53 Z M 323.80,74.63 332.53,73.85 327.99,86.28 Z M 325.92,97.92 327.99,86.28 337.96,97.86 Z M 325.92,97.92 313.66,91.15 327.99,86.28 Z M 337.96,97.86 338.70,85.06 346.15,92.57 Z M 338.70,85.06 337.96,97.86 327.99,86.28 Z M 327.99,86.28 332.53,73.85 338.70,85.06 Z M 311.07,102.69 313.66,91.15 325.92,97.92 Z M 332.53,73.85 338.88,66.81 345.88,76.42 Z M 311.07,85.30 317.82,71.53 323.80,74.63 Z M 332.53,73.85 323.01,62.56 338.88,66.81 Z M 337.25,106.02 325.92,97.92 337.96,97.86 Z M 295.51,107.45 305.86,105.94 306.04,112.95 Z M 295.51,107.45 302.59,98.50 305.86,105.94 Z M 312.60,113.36 305.86,105.94 311.07,102.69 Z M 305.86,105.94 312.60,113.36 306.04,112.95 Z M 302.59,98.50 311.07,102.69 305.86,105.94 Z M 295.51,107.45 306.04,112.95 295.86,113.07 Z M 295.86,113.07 304.16,122.68 293.48,125.84 Z M 295.86,113.07 306.04,112.95 304.16,122.68 Z M 304.16,122.68 315.41,123.01 312.87,132.69 Z M 315.41,123.01 304.16,122.68 312.60,113.36 Z M 306.04,112.95 312.60,113.36 304.16,122.68 Z M 302.22,138.92 293.48,125.84 304.16,122.68 Z M 311.07,102.69 324.09,104.41 312.60,113.36 Z M 322.96,117.64 324.09,104.41 336.33,113.74 Z M 322.96,117.64 315.41,123.01 312.60,113.36 Z M 336.33,113.74 337.25,106.02 343.74,105.60 Z M 337.25,106.02 336.33,113.74 324.09,104.41 Z M 311.07,102.69 325.92,97.92 324.09,104.41 Z M 322.96,117.64 336.33,113.74 331.96,128.59 Z M 315.41,123.01 325.84,131.91 312.87,132.69 Z M 325.84,131.91 315.41,123.01 328.02,128.29 Z M 328.02,128.29 331.96,128.59 331.26,133.17 Z M 328.02,128.29 315.41,123.01 322.96,117.64 Z M 343.53,134.84 331.26,133.17 331.96,128.59 Z M 328.02,128.29 331.26,133.17 325.84,131.91 Z M 322.96,117.64 331.96,128.59 328.02,128.29 Z M 312.87,132.69 325.84,131.91 318.10,142.91 Z M 331.96,128.59 336.33,113.74 348.88,121.14 Z M 322.96,117.64 312.60,113.36 324.09,104.41 Z M 325.92,97.92 337.25,106.02 324.09,104.41 Z M 331.26,133.17 321.58,147.38 325.84,131.91 Z M 337.96,97.86 343.74,105.60 337.25,106.02 Z M 297.86,74.60 307.93,81.59 294.77,87.66 Z M 347.94,81.70 346.15,92.57 338.70,85.06 Z M 347.94,81.70 345.88,76.42 353.58,73.81 Z M 347.94,81.70 353.58,73.81 354.18,85.18 Z M 338.88,66.81 341.39,63.88 345.88,76.42 Z M 346.15,92.57 354.18,85.18 355.54,97.99 Z M 354.18,85.18 346.15,92.57 347.94,81.70 Z M 355.54,97.99 362.44,98.29 354.17,104.59 Z M 362.44,98.29 355.54,97.99 354.18,85.18 Z M 346.15,92.57 355.54,97.99 343.74,105.60 Z M 346.15,92.57 343.74,105.60 337.96,97.86 Z M 341.39,63.88 353.58,73.81 345.88,76.42 Z M 348.88,121.14 336.33,113.74 347.70,116.36 Z M 347.70,116.36 343.74,105.60 354.17,104.59 Z M 354.17,104.59 357.66,118.77 347.70,116.36 Z M 364.66,125.42 357.66,118.77 365.44,114.42 Z M 343.74,105.60 355.54,97.99 354.17,104.59 Z M 347.70,116.36 357.66,118.77 348.88,121.14 Z M 343.53,134.84 348.88,121.14 352.94,126.84 Z M 343.53,134.84 331.96,128.59 348.88,121.14 Z M 343.53,134.84 352.94,126.84 352.98,136.93 Z M 352.94,126.84 348.88,121.14 357.66,118.77 Z M 357.66,118.77 364.66,125.42 352.94,126.84 Z M 364.66,125.42 362.36,135.92 352.94,126.84 Z M 357.66,118.77 354.17,104.59 365.44,114.42 Z M 347.70,116.36 336.33,113.74 343.74,105.60 Z M 365.94,103.47 375.06,112.31 365.44,114.42 Z M 365.44,114.42 375.33,124.42 364.66,125.42 Z M 365.44,114.42 375.06,112.31 375.33,124.42 Z M 387.25,118.24 387.08,123.63 375.33,124.42 Z M 387.08,123.63 388.54,133.75 375.33,124.42 Z M 375.06,112.31 387.25,118.24 375.33,124.42 Z M 364.66,125.42 375.33,124.42 378.10,136.93 Z M 365.94,103.47 365.44,114.42 354.17,104.59 Z M 354.17,104.59 362.44,98.29 365.94,103.47 Z M 388.54,133.75 378.10,136.93 375.33,124.42 Z M 338.70,85.06 345.88,76.42 347.94,81.70 Z M 302.22,138.92 304.16,122.68 312.87,132.69 Z M 331.26,133.17 343.53,134.84 341.29,141.42 Z M 306.95,148.03 302.22,138.92 318.10,142.91 Z M 321.58,147.38 331.26,133.17 335.91,148.72 Z M 335.91,148.72 332.68,152.98 321.58,147.38 Z M 318.10,142.91 325.84,131.91 321.58,147.38 Z M 332.68,152.98 335.91,148.72 343.93,155.47 Z M 312.87,132.69 318.10,142.91 302.22,138.92 Z M 341.29,141.42 351.31,145.06 343.93,155.47 Z M 351.31,145.06 341.29,141.42 352.98,136.93 Z M 352.98,136.93 362.36,135.92 351.31,145.06 Z M 341.29,141.42 335.91,148.72 331.26,133.17 Z M 355.56,156.60 351.31,145.06 367.30,153.26 Z M 343.93,155.47 351.31,145.06 355.56,156.60 Z M 368.64,145.74 351.31,145.06 362.36,135.92 Z M 343.93,155.47 335.91,148.72 341.29,141.42 Z M 372.17,158.77 368.64,145.74 374.82,142.19 Z M 368.64,145.74 362.36,135.92 374.82,142.19 Z M 378.10,136.93 383.89,145.76 374.82,142.19 Z M 383.89,145.76 378.10,136.93 388.54,133.75 Z M 362.36,135.92 378.10,136.93 374.82,142.19 Z M 372.17,158.77 374.82,142.19 383.89,145.76 Z M 367.30,153.26 368.64,145.74 372.17,158.77 Z M 368.64,145.74 367.30,153.26 351.31,145.06 Z M 362.36,135.92 364.66,125.42 378.10,136.93 Z M 343.53,134.84 352.98,136.93 341.29,141.42 Z M 352.94,126.84 362.36,135.92 352.98,136.93 Z"/>
 <path fill="#70a9a8" stroke="#000" stroke-width="0.5" d="M 184.09,8.24 193.52,14.95 182.61,15.17 Z M 193.52,14.95 184.09,8.24 197.50,8.13 Z M 182.61,15.17 193.52,14.95 193.64,22.02 Z M 191.70,45.31 192.12,33.05 206.43,35.97 Z M 193.52,14.95 207.75,15.85 193.64,22.02 Z M 187.08,63.70 185.36,52.72 196.62,55.50 Z M 187.08,63.70 196.48,62.81 192.60,75.54 Z M 196.62,55.50 185.36,52.72 191.70,45.31 Z M 193.64,22.02 207.96,24.24 192.12,33.05 Z M 197.50,8.13 207.43,6.13 207.75,15.85 Z M 207.75,15.85 217.40,5.83 211.07,18.62 Z M 217.40,5.83 207.75,15.85 207.43,6.13 Z M 207.75,15.85 207.96,24.24 193.64,22.02 Z M 207.96,24.24 211.07,18.62 218.36,26.14 Z M 211.07,18.62 207.96,24.24 207.75,15.85 Z M 214.04,35.50 218.36,26.14 224.90,33.73 Z M 218.36,26.14 214.04,35.50 207.96,24.24 Z M 218.36,26.14 211.07,18.62 226.38,18.13 Z M 207.96,24.24 206.43,35.97 192.12,33.05 Z M 211.07,18.62 217.40,5.83 226.38,18.13 Z M 206.43,35.97 207.96,24.24 214.04,35.50 Z M 226.38,18.13 225.15,1.45 237.43,8.86 Z M 237.20,38.48 233.74,22.91 244.74,32.19 Z M 242.14,13.04 238.26,16.30 237.43,8.86 Z M 237.43,8.86 246.85,3.69 242.14,13.04 Z M 226.38,18.13 237.43,8.86 238.26,16.30 Z M 222.38,26.14 224.90,33.73 218.36,26.14 Z M 224.90,33.73 222.38,26.14 233.74,22.91 Z M 226.38,18.13 233.74,22.91 222.38,26.14 Z M 233.74,22.91 226.38,18.13 238.26,16.30 Z M 218.36,26.14 226.38,18.13 222.38,26.14 Z M 237.20,38.48 224.90,33.73 233.74,22.91 Z M 238.26,16.30 243.79,23.23 233.74,22.91 Z M 226.38,18.13 217.40,5.83 225.15,1.45 Z M 214.04,35.50 224.90,33.73 218.06,44.68 Z M 205.22,45.52 205.29,54.15 196.62,55.50 Z M 205.29,54.15 205.22,45.52 218.06,44.68 Z M 214.04,35.50 205.22,45.52 206.43,35.97 Z M 214.04,35.50 218.06,44.68 205.22,45.52 Z M 196.62,55.50 191.70,45.31 205.22,45.52 Z M 205.29,54.15 218.06,44.68 217.23,55.79 Z M 196.62,55.50 205.29,54.15 196.48,62.81 Z M 196.48,62.81 187.08,63.70 196.62,55.50 Z M 214.38,68.47 208.19,66.06 217.23,55.79 Z M 196.48,62.81 205.29,54.15 208.19,66.06 Z M 205.29,54.15 217.23,55.79 208.19,66.06 Z M 196.48,62.81 208.19,66.06 205.39,71.43 Z M 218.06,44.68 226.68,48.80 217.23,55.79 Z M 191.70,45.31 206.43,35.97 205.22,45.52 Z M 226.68,48.80 237.20,38.48 238.68,42.40 Z M 226.68,48.80 218.06,44.68 224.90,33.73 Z M 226.68,48.80 238.68,42.40 235.68,55.10 Z M 242.04,43.02 238.68,42.40 237.20,38.48 Z M 242.04,43.02 237.20,38.48 244.74,32.19 Z M 235.68,55.10 238.68,42.40 242.04,43.02 Z M 214.38,68.47 217.23,55.79 221.17,58.18 Z M 234.42,67.36 221.17,58.18 235.68,55.10 Z M 235.68,55.10 242.57,57.41 234.42,67.36 Z M 242.57,57.41 235.68,55.10 242.04,43.02 Z M 221.17,58.18 226.68,48.80 235.68,55.10 Z M 234.42,67.36 242.57,57.41 245.30,62.59 Z M 242.57,57.41 242.04,43.02 252.66,45.06 Z M 226.68,48.80 221.17,58.18 217.23,55.79 Z M 237.20,38.48 226.68,48.80 224.90,33.73 Z M 224.07,67.67 221.17,58.18 234.42,67.36 Z M 242.14,13.04 243.79,23.23 238.26,16.30 Z M 205.39,71.43 192.60,75.54 196.48,62.81 Z M 258.65,16.03 242.14,13.04 253.52,7.50 Z M 253.52,7.50 262.52,5.08 258.65,16.03 Z M 265.17,12.58 262.52,5.08 275.66,4.88 Z M 258.65,16.03 262.52,5.08 265.17,12.58 Z M 243.79,23.23 251.83,27.83 244.74,32.19 Z M 251.83,27.83 243.79,23.23 258.65,16.03 Z M 258.65,16.03 263.88,28.02 251.83,27.83 Z M 263.88,28.02 258.65,16.03 265.17,12.58 Z M 242.14,13.04 258.65,16.03 243.79,23.23 Z M 256.07,32.97 251.83,27.83 263.88,28.02 Z M 265.17,12.58 274.57,25.00 263.88,28.02 Z M 253.52,7.50 242.14,13.04 246.85,3.69 Z M 276.07,17.78 275.66,4.88 283.52,7.00 Z M 276.07,17.78 283.52,7.00 288.09,11.33 Z M 296.66,3.75 291.59,14.36 288.09,11.33 Z M 288.09,11.33 283.52,7.00 296.66,3.75 Z M 285.71,26.31 288.09,11.33 291.59,14.36 Z M 274.57,25.00 276.07,17.78 285.71,26.31 Z M 274.57,25.00 265.17,12.58 276.07,17.78 Z M 277.48,31.03 285.71,26.31 287.98,34.40 Z M 285.71,26.31 277.48,31.03 274.57,25.00 Z M 276.07,17.78 288.09,11.33 285.71,26.31 Z M 263.88,28.02 274.57,25.00 268.85,37.21 Z M 285.71,26.31 296.61,27.43 287.98,34.40 Z M 276.07,17.78 265.17,12.58 275.66,4.88 Z M 277.48,31.03 268.85,37.21 274.57,25.00 Z M 251.97,58.25 242.57,57.41 252.66,45.06 Z M 252.66,45.06 244.74,32.19 256.07,32.97 Z M 256.07,32.97 261.52,48.25 252.66,45.06 Z M 261.52,48.25 256.07,32.97 268.85,37.21 Z M 251.83,27.83 256.07,32.97 244.74,32.19 Z M 252.66,45.06 261.52,48.25 251.97,58.25 Z M 245.30,62.59 242.57,57.41 251.97,58.25 Z M 242.04,43.02 244.74,32.19 252.66,45.06 Z M 268.85,37.21 277.48,31.03 272.29,43.60 Z M 288.78,42.58 272.29,43.60 277.48,31.03 Z M 298.62,37.66 288.78,42.58 287.98,34.40 Z M 256.07,32.97 263.88,28.02 268.85,37.21 Z M 272.29,43.60 261.52,48.25 268.85,37.21 Z M 277.48,31.03 287.98,34.40 288.78,42.58 Z M 244.74,32.19 233.74,22.91 243.79,23.23 Z M 205.07,82.40 205.39,71.43 214.27,75.85 Z M 214.38,68.47 214.27,75.85 205.39,71.43 Z M 205.39,71.43 208.19,66.06 214.38,68.47 Z M 214.27,75.85 214.38,68.47 222.40,76.73 Z M 192.60,75.54 205.39,71.43 205.07,82.40 Z M 224.07,67.67 234.42,67.36 222.40,76.73 Z M 224.07,67.67 222.40,76.73 214.38,68.47 Z M 214.38,68.47 221.17,58.18 224.07,67.67 Z M 291.59,14.36 296.61,27.43 285.71,26.31 Z M 302.03,6.53 308.68,15.86 291.59,14.36 Z M 291.59,14.36 308.68,15.86 296.61,27.43 Z M 298.62,37.66 296.61,27.43 302.86,28.70 Z M 296.61,27.43 308.68,15.86 302.86,28.70 Z M 298.62,37.66 287.98,34.40 296.61,27.43 Z M 296.66,3.75 302.03,6.53 291.59,14.36 Z M 207.75,15.85 193.52,14.95 197.50,8.13 Z"/>
 <path fill="#d2bc35" stroke="#000" stroke-width="0.5" d="M 188.41,98.75 178.73,82.83 188.91,86.26 Z M 198.07,84.38 191.03,91.16 188.91,86.26 Z M 178.73,82.83 192.60,75.54 188.91,86.26 Z M 188.41,98.75 191.03,91.16 202.72,94.48 Z M 191.03,91.16 188.41,98.75 188.91,86.26 Z M 192.60,75.54 198.07,84.38 188.91,86.26 Z M 245.30,62.59 251.97,58.25 256.66,67.55 Z M 268.25,73.28 256.66,67.55 262.41,62.18 Z M 262.41,62.18 256.66,67.55 251.97,58.25 Z M 262.41,62.18 251.97,58.25 264.67,57.67 Z M 234.42,67.36 245.30,62.59 238.49,76.80 Z M 251.97,58.25 261.52,48.25 264.67,57.67 Z M 272.29,43.60 264.67,57.67 261.52,48.25 Z M 272.29,43.60 288.78,42.58 281.92,52.04 Z M 264.67,57.67 272.19,61.86 262.41,62.18 Z M 272.19,61.86 264.67,57.67 272.71,58.17 Z M 272.71,58.17 281.92,52.04 285.69,61.98 Z M 272.71,58.17 264.67,57.67 272.29,43.60 Z M 295.01,54.82 285.69,61.98 281.92,52.04 Z M 272.71,58.17 285.69,61.98 272.19,61.86 Z M 272.29,43.60 281.92,52.04 272.71,58.17 Z M 268.25,73.28 262.41,62.18 272.19,61.86 Z M 283.13,72.57 285.69,61.98 296.44,65.61 Z M 283.13,72.57 272.19,61.86 285.69,61.98 Z M 295.01,54.82 281.92,52.04 288.78,42.58 Z M 244.43,77.98 245.30,62.59 256.66,67.55 Z M 205.07,82.40 198.07,84.38 192.60,75.54 Z M 221.80,83.68 214.27,75.85 222.40,76.73 Z M 205.07,82.40 214.27,75.85 211.43,84.77 Z M 198.07,84.38 205.07,82.40 202.72,94.48 Z M 211.30,96.63 202.72,94.48 211.43,84.77 Z M 202.72,94.48 205.07,82.40 211.43,84.77 Z M 214.27,75.85 221.80,83.68 211.43,84.77 Z M 221.80,83.68 211.30,96.63 211.43,84.77 Z M 222.40,76.73 238.49,76.80 236.60,86.52 Z M 222.40,76.73 234.42,67.36 238.49,76.80 Z M 244.43,77.98 238.49,76.80 245.30,62.59 Z M 236.60,86.52 238.49,76.80 244.43,77.98 Z M 228.76,96.25 236.23,95.29 232.98,107.24 Z M 236.23,95.29 228.76,96.25 236.60,86.52 Z M 236.60,86.52 244.13,92.57 236.23,95.29 Z M 245.62,85.43 244.13,92.57 236.60,86.52 Z M 221.80,83.68 236.60,86.52 228.76,96.25 Z M 232.98,107.24 236.23,95.29 246.00,101.62 Z M 236.60,86.52 244.43,77.98 245.62,85.43 Z M 236.60,86.52 221.80,83.68 222.40,76.73 Z M 228.76,96.25 211.30,96.63 221.80,83.68 Z M 205.37,103.00 211.00,101.34 211.89,112.12 Z M 211.00,101.34 205.37,103.00 211.30,96.63 Z M 211.00,101.34 227.28,104.69 211.89,112.12 Z M 227.28,104.69 211.00,101.34 211.30,96.63 Z M 205.37,103.00 202.72,94.48 211.30,96.63 Z M 224.77,114.94 227.28,104.69 232.98,107.24 Z M 231.95,116.15 232.98,107.24 247.29,111.46 Z M 232.98,107.24 231.95,116.15 224.77,114.94 Z M 211.30,96.63 228.76,96.25 227.28,104.69 Z M 224.77,114.94 211.89,112.12 227.28,104.69 Z M 228.76,96.25 232.98,107.24 227.28,104.69 Z M 236.23,95.29 244.13,92.57 246.00,101.62 Z M 191.03,91.16 198.07,84.38 202.72,94.48 Z M 252.07,86.73 245.62,85.43 254.07,78.39 Z M 254.07,78.39 245.62,85.43 244.43,77.98 Z M 268.92,97.68 261.34,85.01 277.57,88.97 Z M 268.25,73.28 261.34,85.01 254.07,78.39 Z M 244.43,77.98 256.66,67.55 254.07,78.39 Z M 252.07,86.73 254.07,78.39 261.34,85.01 Z M 253.04,91.03 246.00,101.62 244.13,92.57 Z M 244.13,92.57 252.07,86.73 253.04,91.03 Z M 246.00,101.62 253.04,91.03 251.97,102.61 Z M 253.04,91.03 252.07,86.73 261.34,85.01 Z M 261.34,85.01 268.92,97.68 253.04,91.03 Z M 268.92,97.68 251.97,102.61 253.04,91.03 Z M 261.34,85.01 268.25,73.28 273.54,75.07 Z M 244.13,92.57 245.62,85.43 252.07,86.73 Z M 273.54,75.07 281.44,88.70 277.57,88.97 Z M 281.44,88.70 273.54,75.07 283.13,72.57 Z M 283.13,72.57 294.77,87.66 281.44,88.70 Z M 297.86,74.60 294.77,87.66 283.13,72.57 Z M 268.25,73.28 272.19,61.86 273.54,75.07 Z M 281.44,88.70 294.77,87.66 283.68,98.71 Z M 268.92,97.68 277.81,95.87 271.30,101.51 Z M 268.92,97.68 277.57,88.97 277.81,95.87 Z M 277.81,95.87 283.68,98.71 271.30,101.51 Z M 277.81,95.87 277.57,88.97 281.44,88.70 Z M 281.44,88.70 283.68,98.71 277.81,95.87 Z M 271.30,101.51 283.68,98.71 286.79,102.76 Z M 283.68,98.71 296.41,95.20 286.79,102.76 Z M 277.57,88.97 261.34,85.01 273.54,75.07 Z M 268.25,73.28 254.07,78.39 256.66,67.55 Z M 264.17,108.94 268.92,97.68 271.30,101.51 Z M 247.29,111.46 251.97,102.61 257.11,114.02 Z M 251.97,102.61 247.29,111.46 246.00,101.62 Z M 257.11,114.02 264.17,108.94 267.37,117.74 Z M 264.17,108.94 257.11,114.02 251.97,102.61 Z M 268.92,97.68 264.17,108.94 251.97,102.61 Z M 247.29,111.46 257.11,114.02 246.97,124.06 Z M 246.97,124.06 257.11,114.02 254.86,125.91 Z M 266.17,124.16 267.37,117.74 276.05,117.56 Z M 266.17,124.16 254.86,125.91 257.11,114.02 Z M 267.37,117.74 266.17,124.16 257.11,114.02 Z M 254.86,125.91 266.17,124.16 268.25,134.77 Z M 264.17,108.94 276.05,117.56 267.37,117.74 Z M 246.97,124.06 231.95,116.15 247.29,111.46 Z M 276.05,117.56 286.79,102.76 288.46,111.07 Z M 276.05,117.56 264.17,108.94 271.30,101.51 Z M 288.46,111.07 288.85,121.26 276.05,117.56 Z M 293.48,125.84 288.85,121.26 295.86,113.07 Z M 286.79,102.76 295.51,107.45 288.46,111.07 Z M 276.05,117.56 288.85,121.26 273.12,128.75 Z M 268.25,134.77 266.17,124.16 273.12,128.75 Z M 283.03,135.42 273.12,128.75 288.85,121.26 Z M 288.85,121.26 293.48,125.84 283.03,135.42 Z M 288.85,121.26 288.46,111.07 295.86,113.07 Z M 273.12,128.75 266.17,124.16 276.05,117.56 Z M 286.79,102.76 276.05,117.56 271.30,101.51 Z M 294.77,87.66 296.41,95.20 283.68,98.71 Z M 247.29,111.46 232.98,107.24 246.00,101.62 Z M 283.13,72.57 273.54,75.07 272.19,61.86 Z M 295.51,45.40 288.78,42.58 298.62,37.66 Z M 297.86,74.60 283.13,72.57 296.44,65.61 Z M 296.44,65.61 295.01,54.82 303.35,64.36 Z M 297.86,74.60 296.44,65.61 303.35,64.36 Z M 295.01,54.82 288.78,42.58 295.51,45.40 Z M 295.51,107.45 286.79,102.76 296.41,95.20 Z M 295.51,107.45 295.86,113.07 288.46,111.07 Z M 285.69,61.98 295.01,54.82 296.44,65.61 Z"/>
 <path fill="#82d4df" stroke="#000" stroke-width="0.5" d="M 93.44,104.20 94.54,94.60 107.66,104.88 Z M 94.02,132.63 94.94,126.18 104.38,133.84 Z M 107.66,104.88 94.54,94.60 105.35,92.22 Z M 105.35,92.22 118.78,94.55 107.66,104.88 Z M 118.31,106.83 118.78,94.55 125.64,98.35 Z M 104.74,111.36 107.66,104.88 115.85,113.10 Z M 104.74,111.36 97.26,116.47 93.44,104.20 Z M 115.21,122.11 115.85,113.10 128.31,121.12 Z M 118.31,106.83 115.85,113.10 107.66,104.88 Z M 118.78,94.55 118.31,106.83 107.66,104.88 Z M 104.74,111.36 115.85,113.10 115.21,122.11 Z M 105.08,126.96 94.94,126.18 97.26,116.47 Z M 94.94,126.18 105.08,126.96 104.38,133.84 Z M 104.38,133.84 105.08,126.96 112.10,136.73 Z M 105.08,126.96 97.26,116.47 104.74,111.36 Z M 104.74,111.36 115.21,122.11 105.08,126.96 Z M 115.21,122.11 112.10,136.73 105.08,126.96 Z M 115.85,113.10 118.31,106.83 124.20,108.04 Z M 93.44,104.20 107.66,104.88 104.74,111.36 Z M 131.42,111.73 124.20,108.04 132.21,98.35 Z M 124.20,108.04 118.31,106.83 125.64,98.35 Z M 137.84,107.82 146.21,113.51 131.42,111.73 Z M 143.76,95.60 141.35,107.52 137.84,107.82 Z M 143.76,95.60 137.84,107.82 132.21,98.35 Z M 131.42,111.73 132.21,98.35 137.84,107.82 Z M 128.31,121.12 115.85,113.10 127.07,112.22 Z M 128.31,121.12 127.07,112.22 131.42,111.73 Z M 131.42,111.73 146.21,113.51 137.50,124.75 Z M 143.39,123.82 137.50,124.75 146.21,113.51 Z M 137.50,124.75 133.96,138.88 128.31,121.12 Z M 131.42,111.73 137.50,124.75 128.31,121.12 Z M 127.07,112.22 124.20,108.04 131.42,111.73 Z M 122.16,136.32 115.21,122.11 128.31,121.12 Z M 146.21,113.51 137.84,107.82 141.35,107.52 Z M 127.07,112.22 115.85,113.10 124.20,108.04 Z M 132.21,98.35 124.20,108.04 125.64,98.35 Z M 143.39,123.82 143.60,136.99 137.50,124.75 Z M 157.81,116.15 146.21,113.51 151.63,101.58 Z M 146.21,113.51 141.35,107.52 151.63,101.58 Z M 151.63,101.58 163.46,103.42 157.81,116.15 Z M 165.05,115.69 163.46,103.42 174.84,108.62 Z M 165.05,115.69 157.81,116.15 163.46,103.42 Z M 162.30,136.09 151.17,133.94 152.39,127.89 Z M 151.17,133.94 143.39,123.82 152.39,127.89 Z M 157.81,116.15 165.40,128.81 152.39,127.89 Z M 165.40,128.81 157.81,116.15 165.05,115.69 Z M 152.39,127.89 146.21,113.51 157.81,116.15 Z M 165.40,128.81 162.30,136.09 152.39,127.89 Z M 165.05,115.69 174.19,116.79 165.40,128.81 Z M 152.39,127.89 143.39,123.82 146.21,113.51 Z M 184.52,117.08 174.84,108.62 183.14,105.32 Z M 163.46,103.42 171.21,93.03 174.84,108.62 Z M 188.41,98.75 193.44,105.92 183.14,105.32 Z M 202.72,94.48 193.44,105.92 188.41,98.75 Z M 183.14,105.32 174.84,108.62 171.21,93.03 Z M 191.68,112.80 183.14,105.32 193.44,105.92 Z M 174.19,116.79 177.67,121.71 165.40,128.81 Z M 177.67,121.71 174.19,116.79 184.52,117.08 Z M 184.52,117.08 191.68,112.80 187.74,122.83 Z M 184.52,117.08 174.19,116.79 174.84,108.62 Z M 187.74,122.83 193.73,135.81 183.20,136.65 Z M 184.52,117.08 187.74,122.83 177.67,121.71 Z M 183.14,105.32 191.68,112.80 184.52,117.08 Z M 165.40,128.81 177.67,121.71 175.90,138.97 Z M 187.74,122.83 191.68,112.80 196.45,128.88 Z M 174.84,108.62 174.19,116.79 165.05,115.69 Z M 188.41,98.75 183.14,105.32 171.21,93.03 Z M 187.74,122.83 183.20,136.65 177.67,121.71 Z M 151.63,101.58 141.35,107.52 143.76,95.60 Z M 106.25,141.16 94.02,132.63 104.38,133.84 Z M 143.60,136.99 143.39,123.82 151.17,133.94 Z M 106.25,141.16 112.10,136.73 113.89,147.01 Z M 121.46,144.04 113.89,147.01 112.10,136.73 Z M 112.10,136.73 122.16,136.32 121.46,144.04 Z M 122.04,154.70 113.89,147.01 121.46,144.04 Z M 131.32,145.25 122.04,154.70 121.46,144.04 Z M 131.32,145.25 122.16,136.32 133.96,138.88 Z M 134.55,152.03 131.32,145.25 145.01,145.21 Z M 133.96,138.88 122.16,136.32 128.31,121.12 Z M 143.60,136.99 133.96,138.88 137.50,124.75 Z M 133.96,138.88 145.01,145.21 131.32,145.25 Z M 134.16,166.66 122.04,154.70 134.55,152.03 Z M 134.55,152.03 122.04,154.70 131.32,145.25 Z M 134.55,152.03 142.19,158.32 134.16,166.66 Z M 142.19,158.32 134.55,152.03 145.01,145.21 Z M 143.60,136.99 145.01,145.21 133.96,138.88 Z M 131.32,145.25 121.46,144.04 122.16,136.32 Z M 106.25,141.16 104.38,133.84 112.10,136.73 Z M 143.60,136.99 151.17,133.94 145.01,145.21 Z M 162.30,136.09 168.96,146.89 157.78,146.68 Z M 168.96,146.89 162.30,136.09 175.90,138.97 Z M 157.78,146.68 145.01,145.21 151.17,133.94 Z M 157.78,146.68 168.96,146.89 165.53,153.95 Z M 165.53,153.95 168.96,146.89 173.77,158.57 Z M 175.40,145.28 175.90,138.97 184.29,142.04 Z M 175.40,145.28 173.77,158.57 168.96,146.89 Z M 183.20,136.65 184.29,142.04 175.90,138.97 Z M 184.29,142.04 183.20,136.65 193.73,135.81 Z M 162.30,136.09 165.40,128.81 175.90,138.97 Z M 175.40,145.28 184.29,142.04 182.56,155.49 Z M 193.64,152.12 193.01,167.16 182.56,155.49 Z M 173.77,158.57 175.40,145.28 182.56,155.49 Z M 182.56,155.49 184.29,142.04 193.64,152.12 Z M 175.40,145.28 168.96,146.89 175.90,138.97 Z M 177.67,121.71 183.20,136.65 175.90,138.97 Z M 112.10,136.73 115.21,122.11 122.16,136.32 Z M 157.78,146.68 151.17,133.94 162.30,136.09 Z M 203.17,115.24 191.68,112.80 193.44,105.92 Z M 193.44,105.92 202.72,94.48 205.37,103.00 Z M 205.37,103.00 211.89,112.12 203.17,115.24 Z M 196.45,128.88 201.83,133.99 193.73,135.81 Z M 201.83,133.99 196.45,128.88 204.79,124.23 Z M 203.17,115.24 204.79,124.23 196.45,128.88 Z M 204.79,124.23 203.17,115.24 211.89,112.12 Z M 203.17,115.24 196.45,128.88 191.68,112.80 Z M 204.79,124.23 213.17,138.87 201.83,133.99 Z M 193.44,105.92 205.37,103.00 203.17,115.24 Z M 187.74,122.83 196.45,128.88 193.73,135.81 Z M 195.15,141.18 193.64,152.12 184.29,142.04 Z M 193.73,135.81 201.83,133.99 195.15,141.18 Z M 195.15,141.18 201.83,133.99 206.24,145.35 Z M 213.17,138.87 206.24,145.35 201.83,133.99 Z M 195.15,141.18 206.24,145.35 193.64,152.12 Z M 195.15,141.18 184.29,142.04 193.73,135.81 Z"/>
 <path fill="#e5e76c" stroke="#000" stroke-width="0.5" d="M 94.54,94.60 88.77,84.06 95.23,81.01 Z M 135.84,15.48 135.72,3.80 145.67,11.84 Z M 146.22,24.59 145.67,11.84 152.34,22.19 Z M 147.27,8.65 145.67,11.84 135.72,3.80 Z M 135.84,15.48 145.67,11.84 146.22,24.59 Z M 148.90,36.76 133.83,34.30 146.22,24.59 Z M 147.68,46.61 134.39,56.30 132.59,48.04 Z M 128.96,61.37 125.75,58.28 134.39,56.30 Z M 136.71,66.95 134.39,56.30 145.28,58.17 Z M 147.68,46.61 145.28,58.17 134.39,56.30 Z M 151.40,61.79 147.65,63.33 145.28,58.17 Z M 128.96,61.37 134.39,56.30 136.71,66.95 Z M 125.75,58.28 132.59,48.04 134.39,56.30 Z M 128.96,61.37 114.45,67.09 125.75,58.28 Z M 147.68,46.61 132.59,48.04 133.83,34.30 Z M 136.71,66.95 145.28,58.17 147.65,63.33 Z M 158.84,15.26 145.67,11.84 147.27,8.65 Z M 154.22,4.72 162.52,13.39 158.84,15.26 Z M 162.52,13.39 154.22,4.72 167.81,4.67 Z M 166.53,21.04 162.52,13.39 178.98,13.06 Z M 167.81,4.67 178.98,13.06 162.52,13.39 Z M 152.34,22.19 158.84,15.26 166.53,21.04 Z M 152.34,22.19 145.67,11.84 158.84,15.26 Z M 152.34,22.19 166.53,21.04 161.96,33.42 Z M 166.53,21.04 158.84,15.26 162.52,13.39 Z M 166.53,21.04 178.98,13.06 175.11,26.92 Z M 175.11,26.92 161.96,33.42 166.53,21.04 Z M 178.98,13.06 167.81,4.67 175.72,3.30 Z M 156.50,35.50 146.22,24.59 152.34,22.19 Z M 182.61,15.17 184.33,28.10 175.11,26.92 Z M 182.61,15.17 178.98,13.06 184.09,8.24 Z M 178.98,13.06 175.72,3.30 184.09,8.24 Z M 175.11,26.92 184.33,28.10 176.53,34.47 Z M 188.94,33.31 184.33,28.10 192.12,33.05 Z M 193.64,22.02 192.12,33.05 184.33,28.10 Z M 184.33,28.10 182.61,15.17 193.64,22.02 Z M 188.94,33.31 192.12,33.05 191.70,45.31 Z M 182.61,15.17 175.11,26.92 178.98,13.06 Z M 188.94,33.31 176.53,34.47 184.33,28.10 Z M 148.90,36.76 156.50,35.50 158.25,42.48 Z M 146.22,24.59 156.50,35.50 148.90,36.76 Z M 168.10,46.97 154.29,56.82 158.25,42.48 Z M 161.96,33.42 158.25,42.48 156.50,35.50 Z M 152.34,22.19 161.96,33.42 156.50,35.50 Z M 148.90,36.76 158.25,42.48 147.68,46.61 Z M 154.29,56.82 145.28,58.17 147.68,46.61 Z M 145.28,58.17 154.29,56.82 151.40,61.79 Z M 154.29,56.82 165.58,65.41 151.40,61.79 Z M 154.29,56.82 147.68,46.61 158.25,42.48 Z M 154.29,56.82 168.77,55.34 165.58,65.41 Z M 147.65,63.33 151.40,61.79 155.37,73.13 Z M 158.25,42.48 161.96,33.42 168.10,46.97 Z M 148.90,36.76 147.68,46.61 133.83,34.30 Z M 168.10,46.97 176.53,34.47 177.22,44.89 Z M 176.53,34.47 168.10,46.97 161.96,33.42 Z M 168.10,46.97 177.22,44.89 176.72,54.93 Z M 188.94,33.31 177.22,44.89 176.53,34.47 Z M 188.94,33.31 191.70,45.31 184.94,48.16 Z M 177.22,44.89 188.94,33.31 184.94,48.16 Z M 178.77,66.73 168.77,55.34 176.72,54.93 Z M 168.77,55.34 168.10,46.97 176.72,54.93 Z M 191.70,45.31 185.36,52.72 184.94,48.16 Z M 185.36,52.72 187.08,63.70 176.72,54.93 Z M 184.94,48.16 185.36,52.72 176.72,54.93 Z M 177.22,44.89 184.94,48.16 176.72,54.93 Z M 168.77,55.34 178.77,66.73 165.58,65.41 Z M 168.10,46.97 168.77,55.34 154.29,56.82 Z M 161.96,33.42 175.11,26.92 176.53,34.47 Z M 178.77,66.73 176.72,54.93 187.08,63.70 Z M 147.27,8.65 154.22,4.72 158.84,15.26 Z M 165.58,65.41 155.37,73.13 151.40,61.79 Z M 114.45,67.09 117.28,72.52 103.80,73.12 Z M 114.45,67.09 128.96,61.37 117.28,72.52 Z M 103.80,73.12 117.28,72.52 116.01,82.33 Z M 105.35,92.22 95.23,81.01 106.66,87.99 Z M 105.35,92.22 106.66,87.99 118.78,94.55 Z M 106.66,87.99 95.23,81.01 103.80,73.12 Z M 103.80,73.12 116.01,82.33 106.66,87.99 Z M 118.78,94.55 106.66,87.99 116.01,82.33 Z M 117.28,72.52 127.38,77.86 116.01,82.33 Z M 127.38,77.86 136.71,66.95 136.77,77.02 Z M 127.38,77.86 117.28,72.52 128.96,61.37 Z M 133.01,88.81 136.77,77.02 145.17,81.78 Z M 142.26,73.96 136.77,77.02 136.71,66.95 Z M 147.65,63.33 142.26,73.96 136.71,66.95 Z M 127.38,77.86 136.77,77.02 133.01,88.81 Z M 118.78,94.55 123.56,84.07 125.64,98.35 Z M 123.56,84.07 118.78,94.55 116.01,82.33 Z M 125.64,98.35 133.01,88.81 132.21,98.35 Z M 133.01,88.81 125.64,98.35 123.56,84.07 Z M 123.56,84.07 127.38,77.86 133.01,88.81 Z M 132.21,98.35 133.01,88.81 143.76,95.60 Z M 127.38,77.86 123.56,84.07 116.01,82.33 Z M 128.96,61.37 136.71,66.95 127.38,77.86 Z M 142.26,73.96 145.17,81.78 136.77,77.02 Z M 105.35,92.22 94.54,94.60 95.23,81.01 Z M 145.17,81.78 151.86,83.09 143.76,95.60 Z M 151.86,83.09 145.17,81.78 155.37,73.13 Z M 155.37,73.13 165.21,75.34 151.86,83.09 Z M 155.37,73.13 165.58,65.41 165.21,75.34 Z M 145.17,81.78 142.26,73.96 155.37,73.13 Z M 151.86,83.09 165.21,75.34 167.55,88.63 Z M 151.63,101.58 143.76,95.60 156.06,95.21 Z M 143.76,95.60 151.86,83.09 156.06,95.21 Z M 164.27,96.04 167.55,88.63 171.21,93.03 Z M 167.55,88.63 164.27,96.04 156.06,95.21 Z M 151.86,83.09 167.55,88.63 156.06,95.21 Z M 163.46,103.42 156.06,95.21 164.27,96.04 Z M 165.21,75.34 178.73,82.83 167.55,88.63 Z M 145.17,81.78 143.76,95.60 133.01,88.81 Z M 171.73,72.04 178.77,66.73 184.89,71.07 Z M 165.21,75.34 165.58,65.41 171.73,72.04 Z M 171.73,72.04 184.89,71.07 178.73,82.83 Z M 184.89,71.07 178.77,66.73 187.08,63.70 Z M 187.08,63.70 192.60,75.54 184.89,71.07 Z M 178.73,82.83 184.89,71.07 192.60,75.54 Z M 188.41,98.75 171.21,93.03 178.73,82.83 Z M 171.21,93.03 167.55,88.63 178.73,82.83 Z M 164.27,96.04 171.21,93.03 163.46,103.42 Z M 178.73,82.83 165.21,75.34 171.73,72.04 Z M 147.65,63.33 155.37,73.13 142.26,73.96 Z M 156.06,95.21 163.46,103.42 151.63,101.58 Z M 171.73,72.04 165.58,65.41 178.77,66.73 Z"/>
 <path fill="#e493e2" stroke="#000" stroke-width="0.5" d="M 43.72,63.33 47.73,53.94 58.86,63.36 Z M 47.73,53.94 47.07,45.80 51.32,51.08 Z M 51.82,8.29 61.60,16.08 54.03,18.76 Z M 61.60,16.08 51.82,8.29 65.41,1.57 Z M 65.41,1.57 72.00,13.07 61.60,16.08 Z M 72.00,13.07 65.41,1.57 73.84,2.11 Z M 61.60,16.08 72.00,13.07 63.33,27.34 Z M 58.27,23.35 54.03,18.76 61.60,16.08 Z M 61.60,16.08 63.33,27.34 58.27,23.35 Z M 63.33,27.34 53.03,34.82 58.27,23.35 Z M 72.00,13.07 77.63,24.18 63.33,27.34 Z M 72.00,13.07 82.32,6.84 81.33,18.85 Z M 91.94,26.98 91.87,17.46 106.04,24.26 Z M 94.07,3.27 91.87,17.46 82.32,6.84 Z M 81.33,18.85 82.32,6.84 91.87,17.46 Z M 77.63,24.18 81.33,18.85 87.46,26.03 Z M 77.63,24.18 72.00,13.07 81.33,18.85 Z M 77.63,24.18 87.46,26.03 83.14,38.30 Z M 87.46,26.03 81.33,18.85 91.87,17.46 Z M 91.87,17.46 91.94,26.98 87.46,26.03 Z M 77.63,24.18 74.21,35.90 63.33,27.34 Z M 95.58,63.49 87.21,57.74 92.09,55.00 Z M 72.00,13.07 73.84,2.11 82.32,6.84 Z M 91.94,26.98 83.14,38.30 87.46,26.03 Z M 51.80,46.22 53.03,34.82 62.23,45.01 Z M 51.80,46.22 47.07,45.80 53.03,34.82 Z M 67.36,51.62 62.23,45.01 72.87,41.06 Z M 64.95,37.90 62.23,45.01 53.03,34.82 Z M 63.33,27.34 64.95,37.90 53.03,34.82 Z M 51.80,46.22 62.23,45.01 51.32,51.08 Z M 51.32,51.08 58.86,63.36 47.73,53.94 Z M 58.86,63.36 51.32,51.08 67.36,51.62 Z M 67.36,51.62 68.59,62.39 58.86,63.36 Z M 68.59,62.39 67.36,51.62 75.23,55.01 Z M 51.32,51.08 62.23,45.01 67.36,51.62 Z M 67.21,78.88 58.86,63.36 68.59,62.39 Z M 62.23,45.01 64.95,37.90 72.87,41.06 Z M 51.32,51.08 47.07,45.80 51.80,46.22 Z M 72.87,41.06 74.21,35.90 83.14,38.30 Z M 74.21,35.90 72.87,41.06 64.95,37.90 Z M 72.87,41.06 83.14,38.30 75.23,55.01 Z M 95.36,38.72 88.68,42.11 83.14,38.30 Z M 74.21,35.90 77.63,24.18 83.14,38.30 Z M 75.23,55.01 83.14,38.30 88.68,42.11 Z M 76.19,64.51 68.59,62.39 75.23,55.01 Z M 76.19,64.51 75.23,55.01 87.21,57.74 Z M 95.58,63.49 86.28,66.60 87.21,57.74 Z M 87.21,57.74 86.28,66.60 76.19,64.51 Z M 87.21,57.74 75.23,55.01 88.68,42.11 Z M 95.02,73.85 86.28,66.60 95.58,63.49 Z M 88.68,42.11 92.09,55.00 87.21,57.74 Z M 76.49,76.85 68.59,62.39 76.19,64.51 Z M 92.09,55.00 88.68,42.11 97.09,48.79 Z M 75.23,55.01 67.36,51.62 72.87,41.06 Z M 63.33,27.34 74.21,35.90 64.95,37.90 Z M 55.77,74.60 43.72,63.33 58.86,63.36 Z M 83.14,38.30 91.94,26.98 95.36,38.72 Z M 86.28,66.60 76.49,76.85 76.19,64.51 Z M 53.51,81.50 47.94,75.83 55.77,74.60 Z M 55.77,74.60 67.21,78.88 53.51,81.50 Z M 55.77,74.60 58.86,63.36 67.21,78.88 Z M 53.51,81.50 67.21,78.88 67.57,83.56 Z M 67.21,78.88 72.91,84.96 67.57,83.56 Z M 72.91,84.96 76.49,76.85 84.56,78.39 Z M 76.49,76.85 86.28,66.60 84.56,78.39 Z M 84.56,78.39 95.23,81.01 88.77,84.06 Z M 68.59,62.39 76.49,76.85 67.21,78.88 Z M 72.91,84.96 84.56,78.39 88.77,84.06 Z M 76.49,76.85 72.91,84.96 67.21,78.88 Z M 43.72,63.33 55.77,74.60 47.94,75.83 Z M 95.02,73.85 95.23,81.01 84.56,78.39 Z M 84.56,78.39 86.28,66.60 95.02,73.85 Z M 104.94,6.97 91.87,17.46 94.07,3.27 Z M 106.12,16.19 104.94,6.97 112.38,7.32 Z M 122.35,12.85 124.96,4.02 135.84,15.48 Z M 124.96,4.02 122.35,12.85 112.38,7.32 Z M 117.93,13.64 112.38,7.32 122.35,12.85 Z M 106.04,24.26 106.12,16.19 117.93,13.64 Z M 106.04,24.26 91.87,17.46 106.12,16.19 Z M 127.56,24.70 112.78,28.71 117.93,13.64 Z M 117.93,13.64 112.78,28.71 106.04,24.26 Z M 106.12,16.19 112.38,7.32 117.93,13.64 Z M 106.04,24.26 112.78,28.71 106.03,36.07 Z M 117.93,13.64 122.35,12.85 127.56,24.70 Z M 106.04,24.26 106.03,36.07 91.94,26.98 Z M 135.84,15.48 127.56,24.70 122.35,12.85 Z M 133.83,34.30 125.64,32.70 127.56,24.70 Z M 127.56,24.70 125.64,32.70 112.78,28.71 Z M 133.83,34.30 127.56,24.70 135.18,21.49 Z M 146.22,24.59 135.18,21.49 135.84,15.48 Z M 127.56,24.70 135.84,15.48 135.18,21.49 Z M 133.83,34.30 135.18,21.49 146.22,24.59 Z M 135.84,15.48 124.96,4.02 135.72,3.80 Z M 112.78,28.71 125.64,32.70 116.65,37.75 Z M 97.09,48.79 95.36,38.72 106.03,36.07 Z M 95.36,38.72 91.94,26.98 106.03,36.07 Z M 108.50,47.26 111.24,48.20 107.77,57.14 Z M 116.65,37.75 111.24,48.20 108.50,47.26 Z M 111.24,48.20 126.72,43.64 115.98,53.53 Z M 97.09,48.79 106.03,36.07 108.50,47.26 Z M 92.09,55.00 107.77,57.14 95.58,63.49 Z M 92.09,55.00 97.09,48.79 107.77,57.14 Z M 107.52,65.84 95.58,63.49 107.77,57.14 Z M 107.77,57.14 97.09,48.79 108.50,47.26 Z M 111.24,48.20 115.98,53.53 107.77,57.14 Z M 115.98,53.53 114.45,67.09 107.77,57.14 Z M 116.65,37.75 108.50,47.26 106.03,36.07 Z M 103.80,73.12 95.02,73.85 95.58,63.49 Z M 115.98,53.53 126.72,43.64 125.75,58.28 Z M 116.65,37.75 125.64,32.70 126.72,43.64 Z M 133.83,34.30 132.59,48.04 126.72,43.64 Z M 106.03,36.07 112.78,28.71 116.65,37.75 Z M 125.75,58.28 126.72,43.64 132.59,48.04 Z M 114.45,67.09 115.98,53.53 125.75,58.28 Z M 126.72,43.64 111.24,48.20 116.65,37.75 Z M 133.83,34.30 126.72,43.64 125.64,32.70 Z M 106.12,16.19 91.87,17.46 104.94,6.97 Z M 103.80,73.12 107.52,65.84 114.45,67.09 Z M 95.23,81.01 95.02,73.85 103.80,73.12 Z M 107.77,57.14 114.45,67.09 107.52,65.84 Z M 103.80,73.12 95.58,63.49 107.52,65.84 Z M 88.68,42.11 95.36,38.72 97.09,48.79 Z"/>
 <path fill="#31f03b" stroke="#000" stroke-width="0.5" d="M 7.11,13.04 15.04,5.71 11.28,12.94 Z M 15.04,5.71 7.11,13.04 2.07,7.78 Z M 11.28,12.94 15.04,5.71 25.90,14.67 Z M 21.22,22.84 11.28,12.94 25.90,14.67 Z M 7.11,13.04 11.28,12.94 4.96,24.60 Z M 22.42,35.68 17.38,24.31 21.22,22.84 Z M 4.96,24.60 11.28,12.94 17.38,24.31 Z M 11.28,12.94 21.22,22.84 17.38,24.31 Z M 12.38,35.39 4.96,24.60 17.38,24.31 Z M 25.90,14.67 15.04,5.71 25.31,5.99 Z M 25.90,14.67 32.79,6.19 34.16,15.61 Z M 32.79,6.19 25.90,14.67 25.31,5.99 Z M 34.16,15.61 44.88,8.88 42.88,16.80 Z M 44.88,8.88 34.16,15.61 32.79,6.19 Z M 25.90,14.67 34.16,15.61 33.57,26.05 Z M 48.29,32.70 31.47,33.39 33.57,26.05 Z M 31.47,33.39 21.22,22.84 33.57,26.05 Z M 33.57,26.05 41.68,22.36 48.29,32.70 Z M 41.68,22.36 33.57,26.05 34.16,15.61 Z M 34.16,15.61 42.88,16.80 41.68,22.36 Z M 48.29,32.70 38.74,48.00 31.47,33.39 Z M 54.03,18.76 41.68,22.36 42.88,16.80 Z M 33.57,26.05 21.22,22.84 25.90,14.67 Z M 31.47,33.39 22.42,35.68 21.22,22.84 Z M 1.75,41.23 6.21,37.31 16.62,46.40 Z M 12.38,35.39 16.62,46.40 6.21,37.31 Z M 16.62,46.40 12.38,35.39 22.42,35.68 Z M 6.21,37.31 4.96,24.60 12.38,35.39 Z M 1.75,41.23 16.62,46.40 7.69,54.46 Z M 7.10,61.02 7.69,54.46 14.00,54.51 Z M 14.00,54.51 15.07,67.23 7.10,61.02 Z M 14.00,54.51 23.04,67.73 15.07,67.23 Z M 7.69,54.46 16.62,46.40 14.00,54.51 Z M 7.10,61.02 15.07,67.23 4.56,76.77 Z M 14.00,54.51 16.62,46.40 27.38,57.53 Z M 27.89,47.39 27.38,57.53 16.62,46.40 Z M 22.42,35.68 31.47,33.39 27.89,47.39 Z M 38.74,48.00 47.07,45.80 47.73,53.94 Z M 27.89,47.39 31.47,33.39 38.74,48.00 Z M 38.74,48.00 48.29,32.70 47.07,45.80 Z M 27.89,47.39 38.74,48.00 33.45,57.87 Z M 33.48,68.51 27.38,57.53 33.45,57.87 Z M 27.38,57.53 27.89,47.39 33.45,57.87 Z M 47.73,53.94 43.72,63.33 33.45,57.87 Z M 38.74,48.00 47.73,53.94 33.45,57.87 Z M 14.00,54.51 27.38,57.53 23.04,67.73 Z M 27.89,47.39 16.62,46.40 22.42,35.68 Z M 12.38,35.39 17.38,24.31 22.42,35.68 Z M 43.72,63.33 33.48,68.51 33.45,57.87 Z M 51.82,8.29 42.88,16.80 44.88,8.88 Z M 48.29,32.70 54.03,18.76 58.27,23.35 Z M 48.29,32.70 41.68,22.36 54.03,18.76 Z M 48.29,32.70 58.27,23.35 53.03,34.82 Z M 54.03,18.76 42.88,16.80 51.82,8.29 Z M 47.07,45.80 48.29,32.70 53.03,34.82 Z M 14.92,81.24 4.56,76.77 15.17,74.15 Z M 4.56,76.77 15.07,67.23 15.17,74.15 Z M 26.38,71.67 15.17,74.15 23.04,67.73 Z M 15.17,74.15 26.38,71.67 21.13,81.12 Z M 15.07,67.23 23.04,67.73 15.17,74.15 Z M 14.92,81.24 15.17,74.15 21.13,81.12 Z M 8.21,91.24 2.83,88.56 14.92,81.24 Z M 27.04,93.00 11.35,96.63 14.92,81.24 Z M 14.92,81.24 11.35,96.63 8.21,91.24 Z M 2.83,88.56 4.56,76.77 14.92,81.24 Z M 1.20,105.33 8.21,91.24 11.35,96.63 Z M 14.92,81.24 21.13,81.12 27.04,93.00 Z M 33.02,81.07 27.04,93.00 21.13,81.12 Z M 33.02,81.07 26.38,71.67 36.95,74.33 Z M 33.48,68.51 36.95,74.33 26.38,71.67 Z M 33.48,68.51 43.72,63.33 36.95,74.33 Z M 26.38,71.67 23.04,67.73 33.48,68.51 Z M 38.03,91.30 33.02,81.07 48.63,88.10 Z M 27.04,93.00 38.03,91.30 41.83,101.31 Z M 38.03,91.30 27.04,93.00 33.02,81.07 Z M 42.08,95.41 41.83,101.31 38.03,91.30 Z M 42.08,95.41 38.03,91.30 48.63,88.10 Z M 47.94,75.83 33.02,81.07 36.95,74.33 Z M 33.02,81.07 21.13,81.12 26.38,71.67 Z M 23.04,67.73 27.38,57.53 33.48,68.51 Z M 41.83,101.31 42.08,95.41 58.31,98.76 Z M 47.94,75.83 53.51,81.50 48.63,88.10 Z M 43.72,63.33 47.94,75.83 36.95,74.33 Z M 58.31,98.76 58.76,101.89 41.83,101.31 Z M 58.31,98.76 48.63,88.10 61.86,95.11 Z M 61.86,95.11 67.57,83.56 74.83,92.80 Z M 61.86,95.11 48.63,88.10 53.51,81.50 Z M 53.51,81.50 67.57,83.56 61.86,95.11 Z M 58.76,101.89 58.31,98.76 61.86,95.11 Z M 47.94,75.83 48.63,88.10 33.02,81.07 Z M 72.91,84.96 74.83,92.80 67.57,83.56 Z M 72.91,84.96 88.77,84.06 74.83,92.80 Z M 82.32,103.60 74.83,92.80 87.42,94.46 Z M 74.83,92.80 88.77,84.06 87.42,94.46 Z M 88.77,84.06 94.54,94.60 87.42,94.46 Z M 68.35,103.35 61.86,95.11 74.83,92.80 Z M 93.44,104.20 87.42,94.46 94.54,94.60 Z M 52.72,115.94 58.76,101.89 68.15,112.13 Z M 52.72,115.94 41.83,101.31 58.76,101.89 Z M 78.26,118.34 68.28,121.25 68.15,112.13 Z M 68.35,103.35 68.15,112.13 58.76,101.89 Z M 61.86,95.11 68.35,103.35 58.76,101.89 Z M 52.72,115.94 68.15,112.13 68.28,121.25 Z M 71.39,131.57 73.20,126.17 85.81,134.27 Z M 73.20,126.17 71.39,131.57 68.28,121.25 Z M 73.20,126.17 68.28,121.25 78.26,118.34 Z M 68.15,112.13 68.35,103.35 74.30,105.48 Z M 78.26,118.34 82.32,103.60 82.01,118.27 Z M 82.32,103.60 78.26,118.34 74.30,105.48 Z M 82.32,103.60 93.44,104.20 82.01,118.27 Z M 74.83,92.80 82.32,103.60 74.30,105.48 Z M 68.35,103.35 74.83,92.80 74.30,105.48 Z M 88.68,121.95 82.01,118.27 97.26,116.47 Z M 82.01,118.27 73.20,126.17 78.26,118.34 Z M 88.68,121.95 73.20,126.17 82.01,118.27 Z M 94.94,126.18 94.02,132.63 85.81,134.27 Z M 97.26,116.47 94.94,126.18 88.68,121.95 Z M 94.94,126.18 85.81,134.27 88.68,121.95 Z M 88.68,121.95 85.81,134.27 73.20,126.17 Z M 93.44,104.20 97.26,116.47 82.01,118.27 Z M 74.30,105.48 78.26,118.34 68.15,112.13 Z M 87.42,94.46 93.44,104.20 82.32,103.60 Z M 42.08,95.41 48.63,88.10 58.31,98.76 Z"/>
 <path fill="#93af3f" stroke="#000" stroke-width="0.5" d="M 3.32,171.17 13.15,175.38 7.70,185.45 Z M 18.66,181.05 13.15,175.38 24.37,172.50 Z M 13.15,175.38 3.32,171.17 15.62,164.67 Z M 7.70,185.45 13.15,175.38 18.66,181.05 Z M 6.14,192.49 7.70,185.45 17.27,197.56 Z M 17.27,197.56 21.87,188.20 25.08,192.67 Z M 21.87,188.20 17.27,197.56 7.70,185.45 Z M 7.70,185.45 18.66,181.05 21.87,188.20 Z M 6.14,192.49 17.27,197.56 8.94,207.88 Z M 18.66,181.05 33.37,185.00 21.87,188.20 Z M 18.66,181.05 24.37,172.50 31.84,176.33 Z M 21.87,188.20 33.37,185.00 25.08,192.67 Z M 33.37,185.00 18.66,181.05 31.84,176.33 Z M 33.37,185.00 31.84,176.33 48.13,175.52 Z M 25.08,192.67 33.37,185.00 33.60,197.97 Z M 25.08,192.67 33.60,197.97 25.85,207.54 Z M 38.20,201.14 33.60,197.97 43.22,197.30 Z M 43.22,197.30 47.62,201.10 38.20,201.14 Z M 43.22,197.30 33.37,185.00 48.40,184.66 Z M 33.60,197.97 33.37,185.00 43.22,197.30 Z M 46.36,211.73 38.20,201.14 47.62,201.10 Z M 43.22,197.30 58.53,194.12 47.62,201.10 Z M 25.08,192.67 25.85,207.54 17.27,197.56 Z M 15.62,164.67 24.37,172.50 13.15,175.38 Z M 25.85,207.54 33.60,197.97 38.20,201.14 Z M 48.13,175.52 48.40,184.66 33.37,185.00 Z M 56.22,186.15 48.40,184.66 48.13,175.52 Z M 56.22,186.15 58.53,194.12 48.40,184.66 Z M 58.53,194.12 56.22,186.15 63.02,191.52 Z M 68.71,207.47 58.53,194.12 63.02,191.52 Z M 48.40,184.66 58.53,194.12 43.22,197.30 Z M 68.71,207.47 63.02,191.52 76.89,195.76 Z M 58.53,194.12 53.45,203.62 47.62,201.10 Z M 17.47,215.15 1.97,213.66 8.94,207.88 Z M 8.94,207.88 18.09,206.92 17.47,215.15 Z M 21.17,211.14 18.09,206.92 25.85,207.54 Z M 8.94,207.88 17.27,197.56 18.09,206.92 Z M 21.17,211.14 17.47,215.15 18.09,206.92 Z M 8.49,234.38 6.77,226.69 15.49,224.41 Z M 22.17,226.75 15.49,224.41 17.47,215.15 Z M 15.49,224.41 6.77,226.69 1.97,213.66 Z M 1.97,213.66 17.47,215.15 15.49,224.41 Z M 11.45,237.96 8.49,234.38 15.49,224.41 Z M 17.47,215.15 21.17,211.14 22.17,226.75 Z M 21.17,211.14 32.61,213.62 22.17,226.75 Z M 32.61,213.62 21.17,211.14 25.85,207.54 Z M 22.17,226.75 32.61,213.62 38.90,227.26 Z M 32.61,213.62 25.85,207.54 38.20,201.14 Z M 46.36,211.73 32.61,213.62 38.20,201.14 Z M 38.90,227.26 32.61,213.62 46.36,211.73 Z M 33.71,232.70 38.90,227.26 41.32,232.92 Z M 38.90,227.26 33.71,232.70 22.17,226.75 Z M 53.67,235.35 48.91,244.37 41.32,232.92 Z M 41.92,228.08 41.32,232.92 38.90,227.26 Z M 38.90,227.26 46.36,211.73 41.92,228.08 Z M 22.28,236.64 22.17,226.75 33.71,232.70 Z M 53.67,235.35 41.32,232.92 41.92,228.08 Z M 22.28,236.64 15.49,224.41 22.17,226.75 Z M 17.27,197.56 25.85,207.54 18.09,206.92 Z M 36.40,247.70 33.71,232.70 41.32,232.92 Z M 7.64,246.36 11.45,237.96 15.56,242.60 Z M 11.45,237.96 7.64,246.36 8.49,234.38 Z M 15.04,254.88 15.56,242.60 26.43,245.36 Z M 22.28,236.64 15.56,242.60 11.45,237.96 Z M 11.45,237.96 15.49,224.41 22.28,236.64 Z M 7.64,246.36 15.56,242.60 15.04,254.88 Z M 8.06,267.77 3.43,255.70 13.85,263.77 Z M 22.76,258.80 13.85,263.77 15.04,254.88 Z M 15.04,254.88 13.85,263.77 3.43,255.70 Z M 3.43,255.70 7.64,246.36 15.04,254.88 Z M 26.43,245.36 15.56,242.60 22.28,236.64 Z M 38.46,253.75 26.43,245.36 36.40,247.70 Z M 22.28,236.64 33.71,232.70 26.43,245.36 Z M 42.93,266.95 41.92,252.34 52.95,261.58 Z M 48.91,244.37 41.92,252.34 36.40,247.70 Z M 36.40,247.70 26.43,245.36 33.71,232.70 Z M 38.46,253.75 36.40,247.70 41.92,252.34 Z M 22.76,258.80 27.38,265.13 13.85,263.77 Z M 27.38,265.13 22.76,258.80 38.46,253.75 Z M 38.06,266.50 38.46,253.75 42.93,266.95 Z M 38.46,253.75 38.06,266.50 27.38,265.13 Z M 42.93,266.95 38.46,253.75 41.92,252.34 Z M 22.76,258.80 26.43,245.36 38.46,253.75 Z M 41.92,252.34 48.91,244.37 52.96,251.16 Z M 26.43,245.36 22.76,258.80 15.04,254.88 Z M 41.32,232.92 48.91,244.37 36.40,247.70 Z M 41.92,228.08 46.36,211.73 53.53,217.78 Z M 41.92,228.08 53.53,217.78 58.15,223.42 Z M 53.53,217.78 53.45,203.62 65.39,215.33 Z M 72.41,223.00 65.39,215.33 78.68,215.57 Z M 68.71,207.47 65.39,215.33 53.45,203.62 Z M 58.53,194.12 68.71,207.47 53.45,203.62 Z M 53.53,217.78 65.39,215.33 58.15,223.42 Z M 58.15,223.42 53.67,235.35 41.92,228.08 Z M 64.17,233.71 58.15,223.42 67.81,224.63 Z M 64.17,233.71 67.81,224.63 72.74,235.56 Z M 67.81,224.63 58.15,223.42 65.39,215.33 Z M 65.39,215.33 72.41,223.00 67.81,224.63 Z M 72.41,223.00 72.74,235.56 67.81,224.63 Z M 65.39,215.33 68.71,207.47 78.68,215.57 Z M 53.67,235.35 58.15,223.42 64.17,233.71 Z M 77.85,208.17 78.68,215.57 68.71,207.47 Z M 83.19,215.69 78.68,215.57 77.85,208.17 Z M 68.71,207.47 76.89,195.76 77.85,208.17 Z M 83.19,215.69 83.01,226.47 78.68,215.57 Z M 72.74,235.56 72.41,223.00 83.01,226.47 Z M 78.68,215.57 83.01,226.47 72.41,223.00 Z M 55.63,245.77 52.96,251.16 48.91,244.37 Z M 55.63,245.77 53.67,235.35 63.06,241.20 Z M 55.63,245.77 63.06,241.20 66.17,254.33 Z M 63.06,241.20 53.67,235.35 64.17,233.71 Z M 64.17,233.71 72.74,235.56 63.06,241.20 Z M 77.06,241.42 66.17,254.33 63.06,241.20 Z M 52.95,261.58 52.96,251.16 66.17,254.33 Z M 52.96,251.16 52.95,261.58 41.92,252.34 Z M 66.17,254.33 65.56,261.50 52.95,261.58 Z M 52.96,251.16 55.63,245.77 66.17,254.33 Z M 77.06,241.42 63.06,241.20 72.74,235.56 Z M 48.91,244.37 53.67,235.35 55.63,245.77 Z M 53.53,217.78 46.36,211.73 53.45,203.62 Z M 53.45,203.62 46.36,211.73 47.62,201.10 Z"/>
 <path fill="#43c7e9" stroke="#000" stroke-width="0.5" d="M 41.83,101.31 52.72,115.94 37.56,108.70 Z M 11.35,96.63 27.04,93.00 18.87,105.75 Z M 37.56,108.70 27.04,93.00 41.83,101.31 Z M 1.20,105.33 14.15,112.36 8.51,114.05 Z M 1.20,105.33 11.35,96.63 14.15,112.36 Z M 14.15,112.36 18.87,105.75 23.76,111.56 Z M 21.88,106.00 18.87,105.75 27.04,93.00 Z M 11.35,96.63 18.87,105.75 14.15,112.36 Z M 15.02,128.86 14.15,112.36 22.28,125.22 Z M 1.23,132.77 2.73,124.38 15.02,128.86 Z M 8.51,114.05 15.02,128.86 2.73,124.38 Z M 15.02,128.86 8.51,114.05 14.15,112.36 Z M 17.16,135.32 1.23,132.77 15.02,128.86 Z M 23.76,111.56 18.87,105.75 21.88,106.00 Z M 22.28,125.22 23.76,111.56 35.56,112.37 Z M 35.56,112.37 23.76,111.56 37.56,108.70 Z M 37.56,108.70 41.59,117.93 35.56,112.37 Z M 41.59,117.93 37.56,108.70 52.72,115.94 Z M 23.76,111.56 21.88,106.00 37.56,108.70 Z M 37.94,128.79 35.56,112.37 41.59,117.93 Z M 22.28,125.22 22.35,133.18 15.02,128.86 Z M 22.35,133.18 22.28,125.22 37.94,128.79 Z M 43.73,135.92 36.63,135.07 37.94,128.79 Z M 37.94,128.79 36.63,135.07 22.35,133.18 Z M 37.94,128.79 22.28,125.22 35.56,112.37 Z M 47.30,127.63 43.73,135.92 37.94,128.79 Z M 41.59,117.93 47.30,127.63 37.94,128.79 Z M 17.16,135.32 15.02,128.86 22.35,133.18 Z M 41.59,117.93 52.72,115.94 47.30,127.63 Z M 23.76,111.56 22.28,125.22 14.15,112.36 Z M 21.88,106.00 27.04,93.00 37.56,108.70 Z M 26.69,144.64 22.35,133.18 36.63,135.07 Z M 58.84,125.34 68.28,121.25 71.39,131.57 Z M 68.28,121.25 58.84,125.34 52.72,115.94 Z M 47.30,127.63 58.84,125.34 56.51,136.29 Z M 52.72,115.94 58.84,125.34 47.30,127.63 Z M 91.03,143.22 85.81,134.27 94.02,132.63 Z M 71.39,131.57 63.53,138.22 58.84,125.34 Z M 85.81,134.27 81.94,143.36 71.39,131.57 Z M 15.11,158.62 2.86,152.85 4.50,144.97 Z M 17.16,135.32 17.88,142.86 4.50,144.97 Z M 23.58,154.79 17.88,142.86 26.69,144.64 Z M 4.50,144.97 1.23,132.77 17.16,135.32 Z M 15.11,158.62 4.50,144.97 17.88,142.86 Z M 2.86,152.85 15.11,158.62 2.75,164.68 Z M 15.62,164.67 15.11,158.62 21.19,164.09 Z M 21.19,164.09 23.58,154.79 32.65,156.39 Z M 23.58,154.79 21.19,164.09 15.11,158.62 Z M 15.11,158.62 17.88,142.86 23.58,154.79 Z M 24.37,172.50 15.62,164.67 21.19,164.09 Z M 17.16,135.32 22.35,133.18 17.88,142.86 Z M 2.75,164.68 15.11,158.62 15.62,164.67 Z M 32.65,156.39 26.69,144.64 34.02,143.78 Z M 22.35,133.18 26.69,144.64 17.88,142.86 Z M 43.73,135.92 47.26,144.02 34.02,143.78 Z M 47.26,144.02 43.73,135.92 56.51,136.29 Z M 34.02,143.78 26.69,144.64 36.63,135.07 Z M 45.57,152.79 34.02,143.78 47.26,144.02 Z M 34.46,162.55 21.19,164.09 32.65,156.39 Z M 34.46,162.55 32.65,156.39 41.65,163.13 Z M 31.84,176.33 41.65,163.13 48.13,175.52 Z M 45.57,152.79 41.65,163.13 32.65,156.39 Z M 32.65,156.39 34.02,143.78 45.57,152.79 Z M 21.19,164.09 34.46,162.55 24.37,172.50 Z M 41.65,163.13 45.57,152.79 51.65,163.25 Z M 32.65,156.39 23.58,154.79 26.69,144.64 Z M 43.73,135.92 34.02,143.78 36.63,135.07 Z M 41.65,163.13 31.84,176.33 34.46,162.55 Z M 2.75,164.68 15.62,164.67 3.32,171.17 Z M 24.37,172.50 34.46,162.55 31.84,176.33 Z M 45.57,152.79 47.26,144.02 53.07,145.33 Z M 53.07,145.33 56.51,136.29 63.53,138.22 Z M 56.51,136.29 53.07,145.33 47.26,144.02 Z M 63.53,138.22 67.43,148.26 53.07,145.33 Z M 67.43,148.26 63.53,138.22 75.09,148.02 Z M 91.03,143.22 81.94,143.36 85.81,134.27 Z M 53.07,145.33 67.43,148.26 53.46,152.97 Z M 51.65,163.25 53.46,152.97 66.52,162.43 Z M 51.65,163.25 45.57,152.79 53.46,152.97 Z M 66.52,162.43 67.73,156.97 72.28,157.13 Z M 67.73,156.97 66.52,162.43 53.46,152.97 Z M 53.46,152.97 67.43,148.26 67.73,156.97 Z M 64.46,172.26 51.65,163.25 66.52,162.43 Z M 67.43,148.26 72.28,157.13 67.73,156.97 Z M 51.65,163.25 48.13,175.52 41.65,163.13 Z M 75.09,148.02 81.94,143.36 82.99,157.00 Z M 75.09,148.02 63.53,138.22 71.39,131.57 Z M 82.99,157.00 91.03,143.22 95.79,158.05 Z M 91.03,143.22 82.99,157.00 81.94,143.36 Z M 71.39,131.57 81.94,143.36 75.09,148.02 Z M 75.09,148.02 82.99,157.00 72.28,157.13 Z M 72.28,157.13 78.06,163.49 66.52,162.43 Z M 72.28,157.13 82.99,157.00 78.06,163.49 Z M 78.06,163.49 81.03,162.52 84.51,171.17 Z M 78.06,163.49 82.99,157.00 81.03,162.52 Z M 82.99,157.00 95.79,158.05 81.03,162.52 Z M 97.64,165.09 81.03,162.52 95.79,158.05 Z M 91.03,143.22 106.25,141.16 95.79,158.05 Z M 75.09,148.02 72.28,157.13 67.43,148.26 Z M 56.51,136.29 58.84,125.34 63.53,138.22 Z M 64.46,172.26 66.52,162.43 78.06,163.49 Z M 56.22,186.15 48.13,175.52 58.87,174.58 Z M 58.87,174.58 48.13,175.52 51.65,163.25 Z M 64.46,172.26 58.87,174.58 51.65,163.25 Z M 66.72,186.34 58.87,174.58 64.46,172.26 Z M 63.02,191.52 66.72,186.34 73.97,186.61 Z M 66.72,186.34 63.02,191.52 56.22,186.15 Z M 56.22,186.15 58.87,174.58 66.72,186.34 Z M 64.46,172.26 76.54,177.79 66.72,186.34 Z M 76.54,177.79 84.51,171.17 86.02,185.85 Z M 76.54,177.79 64.46,172.26 78.06,163.49 Z M 84.51,171.17 98.90,174.69 86.02,185.85 Z M 78.06,163.49 84.51,171.17 76.54,177.79 Z M 76.54,177.79 86.02,185.85 73.97,186.61 Z M 73.97,186.61 76.89,195.76 63.02,191.52 Z M 73.97,186.61 86.02,185.85 76.89,195.76 Z M 98.90,174.69 84.51,171.17 97.64,165.09 Z M 76.54,177.79 73.97,186.61 66.72,186.34 Z M 97.64,165.09 84.51,171.17 81.03,162.52 Z M 95.79,158.05 105.06,158.57 97.64,165.09 Z M 45.57,152.79 53.07,145.33 53.46,152.97 Z M 47.30,127.63 56.51,136.29 43.73,135.92 Z M 106.25,141.16 91.03,143.22 94.02,132.63 Z M 106.52,164.22 98.90,174.69 97.64,165.09 Z M 106.52,164.22 97.64,165.09 105.06,158.57 Z M 105.06,158.57 95.79,158.05 106.25,141.16 Z"/>
 <path fill="#a6da76" stroke="#000" stroke-width="0.5" d="M 153.27,158.13 143.60,163.62 142.19,158.32 Z M 134.16,166.66 142.19,158.32 143.60,163.62 Z M 138.06,171.20 134.16,166.66 143.60,163.62 Z M 144.84,188.30 135.20,181.72 141.55,178.84 Z M 138.06,171.20 141.55,178.84 135.20,181.72 Z M 138.06,171.20 143.60,163.62 141.55,178.84 Z M 143.60,163.62 155.78,167.92 141.55,178.84 Z M 145.01,145.21 157.78,146.68 153.27,158.13 Z M 155.78,167.92 143.60,163.62 153.27,158.13 Z M 155.78,167.92 153.27,158.13 164.22,168.49 Z M 173.77,158.57 164.22,168.49 165.53,153.95 Z M 165.53,153.95 164.22,168.49 153.27,158.13 Z M 153.27,158.13 157.78,146.68 165.53,153.95 Z M 155.78,167.92 164.22,168.49 158.14,174.40 Z M 155.78,167.92 158.14,174.40 141.55,178.84 Z M 173.77,158.57 178.76,161.83 164.22,168.49 Z M 178.76,161.83 173.77,158.57 182.56,155.49 Z M 178.76,161.83 182.56,155.49 185.79,168.68 Z M 164.22,168.49 178.76,161.83 175.42,174.36 Z M 193.01,167.16 185.79,168.68 182.56,155.49 Z M 144.84,188.30 156.40,185.36 148.42,198.76 Z M 144.84,188.30 141.55,178.84 156.40,185.36 Z M 158.14,174.40 168.16,176.36 156.40,185.36 Z M 158.14,174.40 164.22,168.49 168.16,176.36 Z M 158.14,174.40 156.40,185.36 141.55,178.84 Z M 156.40,185.36 168.16,176.36 168.19,188.40 Z M 156.81,207.51 148.42,198.76 158.56,197.39 Z M 148.42,198.76 156.40,185.36 158.56,197.39 Z M 167.77,194.07 168.19,188.40 173.12,193.23 Z M 168.19,188.40 167.77,194.07 158.56,197.39 Z M 156.40,185.36 168.19,188.40 158.56,197.39 Z M 164.71,207.37 158.56,197.39 167.77,194.07 Z M 168.16,176.36 176.37,181.95 168.19,188.40 Z M 176.37,181.95 173.12,193.23 168.19,188.40 Z M 176.37,181.95 175.42,174.36 185.26,175.87 Z M 185.79,168.68 193.01,167.16 185.26,175.87 Z M 185.79,168.68 185.26,175.87 175.42,174.36 Z M 164.22,168.49 175.42,174.36 168.16,176.36 Z M 176.37,181.95 185.26,175.87 182.19,184.31 Z M 173.12,193.23 182.19,184.31 183.24,196.56 Z M 182.19,184.31 173.12,193.23 176.37,181.95 Z M 183.24,196.56 191.62,186.80 191.83,193.54 Z M 191.62,186.80 183.24,196.56 182.19,184.31 Z M 208.31,192.14 193.15,201.40 191.83,193.54 Z M 183.24,196.56 191.83,193.54 193.15,201.40 Z M 182.19,184.31 185.26,175.87 191.62,186.80 Z M 167.77,194.07 173.12,193.23 174.84,207.35 Z M 185.26,175.87 196.45,171.33 191.62,186.80 Z M 176.37,181.95 168.16,176.36 175.42,174.36 Z M 178.76,161.83 185.79,168.68 175.42,174.36 Z M 173.12,193.23 183.24,196.56 183.14,202.72 Z M 208.31,192.14 191.83,193.54 191.62,186.80 Z M 153.27,158.13 142.19,158.32 145.01,145.21 Z M 131.27,204.07 136.86,213.51 126.10,216.96 Z M 136.86,213.51 131.27,204.07 147.53,208.40 Z M 126.10,216.96 136.86,213.51 132.04,227.36 Z M 126.30,234.12 132.04,227.36 137.46,237.85 Z M 136.86,213.51 142.08,225.19 132.04,227.36 Z M 137.46,237.85 132.04,227.36 142.08,225.19 Z M 136.86,213.51 148.38,217.41 142.08,225.19 Z M 133.43,244.40 137.46,237.85 147.27,246.62 Z M 145.60,238.94 147.27,246.62 137.46,237.85 Z M 147.27,246.62 145.60,238.94 154.90,244.23 Z M 137.46,237.85 142.08,225.19 145.60,238.94 Z M 133.43,244.40 147.27,246.62 146.97,253.89 Z M 147.27,246.62 154.90,244.23 146.97,253.89 Z M 133.43,244.40 126.30,234.12 137.46,237.85 Z M 142.08,225.19 152.61,226.97 145.60,238.94 Z M 147.53,208.40 156.81,207.51 158.99,213.05 Z M 131.27,204.07 148.42,198.76 147.53,208.40 Z M 158.99,213.05 164.71,207.37 163.98,216.99 Z M 164.71,207.37 158.99,213.05 156.81,207.51 Z M 158.56,197.39 164.71,207.37 156.81,207.51 Z M 147.53,208.40 158.99,213.05 148.38,217.41 Z M 145.60,238.94 152.61,226.97 157.16,235.11 Z M 148.38,217.41 158.99,213.05 152.61,226.97 Z M 163.98,216.99 164.85,223.69 152.61,226.97 Z M 176.41,221.70 164.85,223.69 163.98,216.99 Z M 158.99,213.05 163.98,216.99 152.61,226.97 Z M 164.65,231.93 152.61,226.97 164.85,223.69 Z M 163.98,216.99 164.71,207.37 174.84,207.35 Z M 152.61,226.97 142.08,225.19 148.38,217.41 Z M 183.94,214.76 174.84,207.35 183.14,202.72 Z M 174.84,207.35 164.71,207.37 167.77,194.07 Z M 193.15,201.40 191.25,212.11 183.14,202.72 Z M 173.12,193.23 183.14,202.72 174.84,207.35 Z M 183.94,214.76 183.14,202.72 191.25,212.11 Z M 176.41,221.70 177.86,217.29 183.71,225.85 Z M 176.41,221.70 163.98,216.99 177.86,217.29 Z M 183.71,225.85 183.94,214.76 191.25,212.11 Z M 183.94,214.76 183.71,225.85 177.86,217.29 Z M 177.86,217.29 174.84,207.35 183.94,214.76 Z M 164.85,223.69 176.41,221.70 164.65,231.93 Z M 177.86,217.29 163.98,216.99 174.84,207.35 Z M 156.81,207.51 147.53,208.40 148.42,198.76 Z M 183.71,225.85 174.12,236.35 176.41,221.70 Z M 154.90,244.23 157.16,235.11 163.84,244.32 Z M 154.90,244.23 158.06,257.37 146.97,253.89 Z M 163.08,267.86 161.15,252.38 177.83,261.85 Z M 163.84,244.32 161.15,252.38 154.90,244.23 Z M 157.16,235.11 164.65,231.93 163.84,244.32 Z M 154.90,244.23 161.15,252.38 158.06,257.37 Z M 158.06,257.37 163.08,267.86 155.68,261.32 Z M 163.08,267.86 158.06,257.37 161.15,252.38 Z M 158.06,257.37 155.68,261.32 146.97,253.89 Z M 161.15,252.38 163.84,244.32 173.35,245.06 Z M 145.60,238.94 157.16,235.11 154.90,244.23 Z M 178.24,251.93 161.15,252.38 173.35,245.06 Z M 163.84,244.32 174.12,236.35 173.35,245.06 Z M 174.12,236.35 182.45,238.04 173.35,245.06 Z M 174.12,236.35 164.65,231.93 176.41,221.70 Z M 183.71,225.85 182.45,238.04 174.12,236.35 Z M 173.35,245.06 182.45,238.04 186.55,245.28 Z M 177.83,261.85 161.15,252.38 178.24,251.93 Z M 178.24,251.93 173.35,245.06 186.55,245.28 Z M 163.84,244.32 164.65,231.93 174.12,236.35 Z M 157.16,235.11 152.61,226.97 164.65,231.93 Z M 148.38,217.41 136.86,213.51 147.53,208.40 Z M 183.24,196.56 193.15,201.40 183.14,202.72 Z M 193.01,167.16 196.45,171.33 185.26,175.87 Z M 201.24,173.47 206.46,182.25 191.62,186.80 Z M 201.24,173.47 196.45,171.33 206.79,166.48 Z M 193.01,167.16 206.79,166.48 196.45,171.33 Z M 191.62,186.80 206.46,182.25 208.31,192.14 Z M 201.24,173.47 191.62,186.80 196.45,171.33 Z"/>
 <path fill="#a586ec" stroke="#000" stroke-width="0.5" d="M 97.68,184.27 87.68,192.65 86.02,185.85 Z M 87.68,192.65 96.96,198.90 93.44,202.36 Z M 97.68,184.27 96.96,198.90 87.68,192.65 Z M 95.96,215.25 93.44,202.36 101.60,207.65 Z M 76.89,195.76 87.68,192.65 83.28,205.34 Z M 86.02,185.85 87.68,192.65 76.89,195.76 Z M 87.68,192.65 93.44,202.36 83.28,205.34 Z M 83.19,215.69 77.85,208.17 83.28,205.34 Z M 95.96,215.25 83.28,205.34 93.44,202.36 Z M 83.19,215.69 83.28,205.34 95.96,215.25 Z M 83.01,226.47 83.19,215.69 93.88,221.03 Z M 93.88,221.03 94.11,234.41 83.01,226.47 Z M 105.09,226.89 94.11,234.41 93.88,221.03 Z M 83.19,215.69 95.96,215.25 93.88,221.03 Z M 94.24,247.89 94.11,234.41 102.35,236.22 Z M 83.28,205.34 77.85,208.17 76.89,195.76 Z M 87.33,237.47 83.01,226.47 94.11,234.41 Z M 76.45,256.74 65.56,261.50 66.17,254.33 Z M 77.06,241.42 87.33,237.47 88.79,245.36 Z M 87.33,237.47 77.06,241.42 72.74,235.56 Z M 77.06,241.42 88.79,245.36 76.45,256.74 Z M 88.79,245.36 87.33,237.47 94.11,234.41 Z M 94.11,234.41 94.24,247.89 88.79,245.36 Z M 84.93,257.85 88.79,245.36 94.24,247.89 Z M 73.78,265.12 76.45,256.74 84.93,257.85 Z M 73.78,265.12 65.56,261.50 76.45,256.74 Z M 84.93,257.85 95.68,256.87 87.15,265.56 Z M 84.93,257.85 76.45,256.74 88.79,245.36 Z M 87.15,265.56 95.68,256.87 98.18,266.99 Z M 84.93,257.85 87.15,265.56 73.78,265.12 Z M 94.24,247.89 95.68,256.87 84.93,257.85 Z M 95.68,256.87 94.24,247.89 103.16,255.88 Z M 76.45,256.74 66.17,254.33 77.06,241.42 Z M 72.74,235.56 83.01,226.47 87.33,237.47 Z M 95.96,215.25 105.09,226.89 93.88,221.03 Z M 101.60,207.65 93.44,202.36 96.96,198.90 Z M 112.92,156.75 113.89,147.01 122.04,154.70 Z M 106.25,141.16 113.89,147.01 105.06,158.57 Z M 106.52,164.22 105.06,158.57 112.92,156.75 Z M 112.92,156.75 116.75,163.44 106.52,164.22 Z M 122.04,154.70 116.75,163.44 112.92,156.75 Z M 105.06,158.57 113.89,147.01 112.92,156.75 Z M 111.85,174.18 106.52,164.22 116.75,163.44 Z M 116.75,163.44 122.04,154.70 127.72,168.25 Z M 102.67,182.66 98.90,174.69 106.51,175.84 Z M 98.90,174.69 106.52,164.22 106.51,175.84 Z M 111.85,174.18 114.94,181.80 106.51,175.84 Z M 114.94,181.80 111.85,174.18 121.28,171.49 Z M 111.85,174.18 106.51,175.84 106.52,164.22 Z M 102.67,182.66 106.51,175.84 114.94,181.80 Z M 97.68,184.27 102.67,182.66 108.09,193.15 Z M 102.67,182.66 97.68,184.27 98.90,174.69 Z M 115.78,208.11 108.09,193.15 112.49,191.44 Z M 112.49,191.44 108.09,193.15 102.67,182.66 Z M 102.67,182.66 114.94,181.80 112.49,191.44 Z M 108.09,193.15 101.60,207.65 96.96,198.90 Z M 114.94,181.80 123.19,191.94 112.49,191.44 Z M 98.90,174.69 97.68,184.27 86.02,185.85 Z M 127.72,181.34 121.28,171.49 127.72,168.25 Z M 121.28,171.49 111.85,174.18 116.75,163.44 Z M 134.16,166.66 138.06,171.20 127.72,168.25 Z M 127.72,168.25 121.28,171.49 116.75,163.44 Z M 127.72,181.34 127.72,168.25 138.06,171.20 Z M 123.19,191.94 127.72,181.34 137.40,191.69 Z M 123.19,191.94 114.94,181.80 127.72,181.34 Z M 137.40,191.69 135.20,181.72 144.84,188.30 Z M 135.20,181.72 127.72,181.34 138.06,171.20 Z M 135.20,181.72 137.40,191.69 127.72,181.34 Z M 123.19,191.94 121.73,201.22 112.49,191.44 Z M 127.72,181.34 114.94,181.80 121.28,171.49 Z M 122.04,154.70 134.16,166.66 127.72,168.25 Z M 137.40,191.69 131.27,204.07 123.19,191.94 Z M 144.84,188.30 148.42,198.76 137.40,191.69 Z M 148.42,198.76 131.27,204.07 137.40,191.69 Z M 105.19,213.95 105.09,226.89 95.96,215.25 Z M 105.19,213.95 101.60,207.65 112.73,211.28 Z M 116.63,227.52 112.73,211.28 126.10,216.96 Z M 115.78,208.11 112.73,211.28 101.60,207.65 Z M 108.09,193.15 115.78,208.11 101.60,207.65 Z M 105.19,213.95 112.73,211.28 116.63,227.52 Z M 102.35,236.22 105.09,226.89 118.71,235.91 Z M 102.35,236.22 94.11,234.41 105.09,226.89 Z M 116.63,227.52 118.71,235.91 105.09,226.89 Z M 126.49,227.76 118.71,235.91 116.63,227.52 Z M 105.09,226.89 105.19,213.95 116.63,227.52 Z M 102.35,236.22 118.71,235.91 113.74,247.70 Z M 126.10,216.96 112.73,211.28 115.78,208.11 Z M 94.24,247.89 102.35,236.22 106.71,247.52 Z M 126.10,216.96 126.49,227.76 116.63,227.52 Z M 126.10,216.96 121.73,201.22 131.27,204.07 Z M 123.19,191.94 131.27,204.07 121.73,201.22 Z M 126.30,234.12 126.49,227.76 132.04,227.36 Z M 126.30,234.12 118.71,235.91 126.49,227.76 Z M 132.04,227.36 126.49,227.76 126.10,216.96 Z M 115.78,208.11 121.73,201.22 126.10,216.96 Z M 112.49,191.44 121.73,201.22 115.78,208.11 Z M 118.71,235.91 126.30,234.12 126.05,248.76 Z M 103.16,255.88 106.71,247.52 111.94,256.54 Z M 95.68,256.87 103.16,255.88 102.86,265.49 Z M 121.48,268.48 111.94,256.54 126.13,252.94 Z M 113.74,247.70 111.94,256.54 106.71,247.52 Z M 102.35,236.22 113.74,247.70 106.71,247.52 Z M 103.16,255.88 111.94,256.54 111.76,264.20 Z M 98.18,266.99 95.68,256.87 102.86,265.49 Z M 121.48,268.48 111.76,264.20 111.94,256.54 Z M 102.86,265.49 103.16,255.88 111.76,264.20 Z M 111.94,256.54 113.74,247.70 126.13,252.94 Z M 94.24,247.89 106.71,247.52 103.16,255.88 Z M 133.43,244.40 126.05,248.76 126.30,234.12 Z M 126.05,248.76 126.13,252.94 113.74,247.70 Z M 126.13,252.94 126.05,248.76 132.96,255.46 Z M 132.96,255.46 146.97,253.89 133.64,263.71 Z M 132.96,255.46 126.05,248.76 133.43,244.40 Z M 133.64,263.71 146.97,253.89 148.54,266.15 Z M 132.96,255.46 133.64,263.71 126.13,252.94 Z M 133.43,244.40 146.97,253.89 132.96,255.46 Z M 126.13,252.94 133.64,263.71 121.48,268.48 Z M 126.05,248.76 113.74,247.70 118.71,235.91 Z M 105.19,213.95 95.96,215.25 101.60,207.65 Z M 146.97,253.89 155.68,261.32 148.54,266.15 Z M 96.96,198.90 97.68,184.27 108.09,193.15 Z"/>
 </svg>
