<svg xmlns="http://www.w3.org/2000/svg" viewBox="0 0 390 270"> <path fill="#ec921a" stroke="#000" stroke-width="0.5" d="M 16.62,46.40 1.75,41.23 6.21,37.31 Z M 4.96,24.60 22.42,35.68 6.21,37.31 Z M 16.62,46.40 7.10,61.02 7.69,54.46 Z M 1.75,41.23 16.62,46.40 7.69,54.46 Z M 2.07,7.78 15.04,5.71 7.11,13.04 Z M 8.21,91.24 4.56,76.77 33.02,81.07 Z M 7.10,61.02 33.02,81.07 4.56,76.77 Z M 4.56,76.77 8.21,91.24 2.83,88.56 Z M 21.88,106.00 1.20,105.33 8.21,91.24 Z M 7.11,13.04 22.42,35.68 4.96,24.60 Z M 22.42,35.68 16.62,46.40 6.21,37.31 Z M 7.11,13.04 25.31,5.99 22.42,35.68 Z M 16.62,46.40 22.42,35.68 27.89,47.39 Z M 7.10,61.02 16.62,46.40 27.89,47.39 Z M 22.42,35.68 48.29,32.70 27.89,47.39 Z M 43.72,63.33 27.89,47.39 48.29,32.70 Z M 32.79,6.19 22.42,35.68 25.31,5.99 Z M 27.89,47.39 33.02,81.07 7.10,61.02 Z M 1.20,105.33 21.88,106.00 8.51,114.05 Z M 33.02,81.07 21.88,106.00 8.21,91.24 Z M 21.88,106.00 33.02,81.07 41.83,101.31 Z M 22.35,133.18 8.51,114.05 21.88,106.00 Z M 21.88,106.00 41.83,101.31 35.56,112.37 Z M 72.91,84.96 41.83,101.31 33.02,81.07 Z M 41.83,101.31 78.26,118.34 35.56,112.37 Z M 37.94,128.79 35.56,112.37 78.26,118.34 Z M 27.89,47.39 43.72,63.33 33.02,81.07 Z M 2.73,124.38 8.51,114.05 22.35,133.18 Z M 48.29,32.70 22.42,35.68 32.79,6.19 Z M 15.04,5.71 25.31,5.99 7.11,13.04 Z M 35.56,112.37 22.35,133.18 21.88,106.00 Z M 31.84,176.33 2.75,164.68 2.86,152.85 Z M 3.32,171.17 31.84,176.33 7.70,185.45 Z M 2.75,164.68 31.84,176.33 3.32,171.17 Z M 4.50,144.97 22.35,133.18 2.86,152.85 Z M 1.23,132.77 22.35,133.18 4.50,144.97 Z M 8.94,207.88 6.77,226.69 1.97,213.66 Z M 3.43,255.70 13.85,263.77 8.06,267.77 Z M 7.64,246.36 13.85,263.77 3.43,255.70 Z M 7.70,185.45 17.27,197.56 6.14,192.49 Z M 6.14,192.49 17.27,197.56 8.94,207.88 Z M 31.84,176.33 2.86,152.85 45.57,152.79 Z M 7.70,185.45 31.84,176.33 17.27,197.56 Z M 32.61,213.62 8.94,207.88 17.27,197.56 Z M 43.22,197.30 31.84,176.33 48.13,175.52 Z M 2.86,152.85 22.35,133.18 45.57,152.79 Z M 22.35,133.18 37.94,128.79 45.57,152.79 Z M 31.84,176.33 43.22,197.30 17.27,197.56 Z M 1.23,132.77 2.73,124.38 22.35,133.18 Z M 32.61,213.62 17.27,197.56 43.22,197.30 Z M 22.28,236.64 13.85,263.77 7.64,246.36 Z M 6.77,226.69 22.28,236.64 8.49,234.38 Z M 13.85,263.77 22.28,236.64 27.38,265.13 Z M 22.28,236.64 7.64,246.36 8.49,234.38 Z M 22.28,236.64 38.06,266.50 27.38,265.13 Z M 52.95,261.58 38.06,266.50 22.28,236.64 Z M 42.93,266.95 38.06,266.50 52.95,261.58 Z M 46.36,211.73 22.28,236.64 32.61,213.62 Z M 32.61,213.62 22.28,236.64 6.77,226.69 Z M 32.61,213.62 43.22,197.30 46.36,211.73 Z M 6.77,226.69 8.94,207.88 32.61,213.62 Z M 35.56,112.37 37.94,128.79 22.35,133.18 Z M 58.86,63.36 33.02,81.07 43.72,63.33 Z M 44.88,8.88 51.82,8.29 48.29,32.70 Z M 48.29,32.70 51.82,8.29 65.41,1.57 Z M 43.72,63.33 48.29,32.70 67.36,51.62 Z M 65.41,1.57 73.84,2.11 82.32,6.84 Z M 48.29,32.70 65.41,1.57 83.14,38.30 Z M 83.14,38.30 65.41,1.57 82.32,6.84 Z M 58.86,63.36 67.36,51.62 72.91,84.96 Z M 58.86,63.36 43.72,63.33 67.36,51.62 Z M 88.77,84.06 72.91,84.96 67.36,51.62 Z M 82.32,103.60 41.83,101.31 72.91,84.96 Z M 82.32,103.60 78.26,118.34 41.83,101.31 Z M 88.77,84.06 82.32,103.60 72.91,84.96 Z M 83.14,38.30 97.09,48.79 67.36,51.62 Z M 67.36,51.62 48.29,32.70 83.14,38.30 Z M 78.26,118.34 75.09,148.02 37.94,128.79 Z M 82.32,6.84 91.94,26.98 83.14,38.30 Z M 72.91,84.96 33.02,81.07 58.86,63.36 Z M 94.07,3.27 91.87,17.46 82.32,6.84 Z M 97.09,48.79 83.14,38.30 91.94,26.98 Z M 106.03,36.07 116.65,37.75 111.24,48.20 Z M 91.94,26.98 106.03,36.07 97.09,48.79 Z M 97.09,48.79 106.03,36.07 111.24,48.20 Z M 88.77,84.06 97.09,48.79 114.45,67.09 Z M 88.77,84.06 67.36,51.62 97.09,48.79 Z M 114.45,67.09 97.09,48.79 115.98,53.53 Z M 88.77,84.06 114.45,67.09 116.01,82.33 Z M 117.28,72.52 116.01,82.33 114.45,67.09 Z M 97.09,48.79 111.24,48.20 115.98,53.53 Z M 91.94,26.98 82.32,6.84 91.87,17.46 Z M 48.13,175.52 75.09,148.02 56.22,186.15 Z M 75.09,148.02 48.13,175.52 45.57,152.79 Z M 56.22,186.15 68.71,207.47 43.22,197.30 Z M 56.22,186.15 43.22,197.30 48.13,175.52 Z M 98.90,174.69 83.19,215.69 68.71,207.47 Z M 56.22,186.15 98.90,174.69 68.71,207.47 Z M 45.57,152.79 37.94,128.79 75.09,148.02 Z M 56.22,186.15 75.09,148.02 98.90,174.69 Z M 78.26,118.34 85.81,134.27 75.09,148.02 Z M 43.22,197.30 68.71,207.47 46.36,211.73 Z M 52.95,261.58 72.74,235.56 65.56,261.50 Z M 72.74,235.56 52.95,261.58 46.36,211.73 Z M 46.36,211.73 52.95,261.58 22.28,236.64 Z M 73.78,265.12 72.74,235.56 94.24,247.89 Z M 72.74,235.56 46.36,211.73 68.71,207.47 Z M 93.88,221.03 72.74,235.56 83.19,215.69 Z M 72.74,235.56 73.78,265.12 65.56,261.50 Z M 68.71,207.47 83.19,215.69 72.74,235.56 Z M 48.13,175.52 31.84,176.33 45.57,152.79 Z M 98.90,174.69 112.49,191.44 83.19,215.69 Z M 72.74,235.56 93.88,221.03 102.35,236.22 Z M 112.49,191.44 112.73,211.28 83.19,215.69 Z M 112.73,211.28 116.63,227.52 93.88,221.03 Z M 112.73,211.28 93.88,221.03 83.19,215.69 Z M 93.88,221.03 116.63,227.52 102.35,236.22 Z M 87.15,265.56 94.24,247.89 98.18,266.99 Z M 87.15,265.56 73.78,265.12 94.24,247.89 Z M 98.18,266.99 94.24,247.89 102.86,265.49 Z M 113.74,247.70 102.86,265.49 94.24,247.89 Z M 113.74,247.70 102.35,236.22 116.63,227.52 Z M 111.76,264.20 102.86,265.49 113.74,247.70 Z M 113.74,247.70 94.24,247.89 102.35,236.22 Z M 72.74,235.56 102.35,236.22 94.24,247.89 Z M 75.09,148.02 95.79,158.05 98.90,174.69 Z M 48.29,32.70 32.79,6.19 44.88,8.88 Z"/>
 <path fill="#9cfe4e" stroke="#000" stroke-width="0.5" d="M 82.32,103.60 88.77,84.06 105.35,92.22 Z M 115.85,113.10 105.35,92.22 118.31,106.83 Z M 116.01,82.33 105.35,92.22 88.77,84.06 Z M 118.78,94.55 105.35,92.22 116.01,82.33 Z M 82.32,103.60 105.35,92.22 97.26,116.47 Z M 97.26,116.47 105.35,92.22 115.85,113.10 Z M 85.81,134.27 78.26,118.34 97.26,116.47 Z M 75.09,148.02 85.81,134.27 95.79,158.05 Z M 85.81,134.27 106.25,141.16 95.79,158.05 Z M 106.25,141.16 85.81,134.27 97.26,116.47 Z M 106.25,141.16 97.26,116.47 115.85,113.10 Z M 95.79,158.05 106.25,141.16 122.04,154.70 Z M 78.26,118.34 82.32,103.60 97.26,116.47 Z M 115.85,113.10 122.16,136.32 106.25,141.16 Z M 115.85,113.10 128.31,121.12 122.16,136.32 Z M 118.78,94.55 118.31,106.83 105.35,92.22 Z M 122.16,136.32 122.04,154.70 106.25,141.16 Z M 122.16,136.32 131.32,145.25 122.04,154.70 Z M 142.19,158.32 145.01,145.21 157.78,146.68 Z M 142.19,158.32 157.78,146.68 165.53,153.95 Z M 95.79,158.05 122.04,154.70 98.90,174.69 Z M 182.19,184.31 173.77,158.57 193.01,167.16 Z M 142.19,158.32 165.53,153.95 158.14,174.40 Z M 173.77,158.57 158.14,174.40 165.53,153.95 Z M 112.49,191.44 98.90,174.69 127.72,181.34 Z M 112.73,211.28 112.49,191.44 126.10,216.96 Z M 112.73,211.28 126.10,216.96 116.63,227.52 Z M 126.10,216.96 112.49,191.44 127.72,181.34 Z M 133.43,244.40 126.10,216.96 174.84,207.35 Z M 116.63,227.52 126.10,216.96 126.30,234.12 Z M 122.04,154.70 127.72,181.34 98.90,174.69 Z M 121.48,268.48 111.76,264.20 126.13,252.94 Z M 126.13,252.94 111.76,264.20 113.74,247.70 Z M 126.13,252.94 126.30,234.12 133.43,244.40 Z M 126.30,234.12 126.13,252.94 113.74,247.70 Z M 133.43,244.40 126.30,234.12 126.10,216.96 Z M 121.48,268.48 126.13,252.94 133.64,263.71 Z M 113.74,247.70 116.63,227.52 126.30,234.12 Z M 133.64,263.71 126.13,252.94 133.43,244.40 Z M 126.10,216.96 127.72,181.34 156.40,185.36 Z M 134.16,166.66 158.14,174.40 156.40,185.36 Z M 158.14,174.40 134.16,166.66 142.19,158.32 Z M 156.40,185.36 158.14,174.40 182.19,184.31 Z M 156.40,185.36 174.84,207.35 126.10,216.96 Z M 183.71,225.85 174.84,207.35 203.68,228.11 Z M 182.19,184.31 174.84,207.35 156.40,185.36 Z M 203.68,228.11 174.84,207.35 182.19,184.31 Z M 133.43,244.40 174.84,207.35 183.71,225.85 Z M 158.14,174.40 173.77,158.57 182.19,184.31 Z M 155.68,261.32 133.43,244.40 183.71,225.85 Z M 133.43,244.40 148.54,266.15 133.64,263.71 Z M 133.43,244.40 155.68,261.32 148.54,266.15 Z M 177.83,261.85 163.08,267.86 155.68,261.32 Z M 198.59,263.82 186.52,266.16 177.83,261.85 Z M 155.68,261.32 183.71,225.85 177.83,261.85 Z M 177.83,261.85 183.71,225.85 198.59,263.82 Z M 156.40,185.36 127.72,181.34 134.16,166.66 Z M 122.04,154.70 134.16,166.66 127.72,181.34 Z M 182.56,155.49 193.01,167.16 173.77,158.57 Z M 224.77,114.94 204.79,124.23 211.89,112.12 Z M 225.34,145.57 213.17,138.87 224.77,114.94 Z M 224.77,114.94 213.17,138.87 204.79,124.23 Z M 225.34,145.57 224.77,114.94 231.95,116.15 Z M 206.24,145.35 213.17,138.87 225.34,145.57 Z M 193.64,152.12 206.24,145.35 193.01,167.16 Z M 206.24,145.35 221.87,171.21 193.01,167.16 Z M 221.87,171.21 234.34,212.34 182.19,184.31 Z M 231.10,158.64 234.32,175.76 221.87,171.21 Z M 238.82,142.91 231.10,158.64 225.34,145.57 Z M 244.05,163.29 234.32,175.76 231.10,158.64 Z M 231.10,158.64 221.87,171.21 225.34,145.57 Z M 206.24,145.35 225.34,145.57 221.87,171.21 Z M 234.34,212.34 221.87,171.21 234.32,175.76 Z M 238.82,142.91 225.34,145.57 231.95,116.15 Z M 238.82,142.91 246.97,124.06 254.86,125.91 Z M 246.97,124.06 238.82,142.91 231.95,116.15 Z M 238.82,142.91 254.86,125.91 268.25,134.77 Z M 268.25,134.77 273.12,128.75 283.03,135.42 Z M 238.82,142.91 268.25,134.77 255.02,157.84 Z M 281.07,147.12 268.25,134.77 283.03,135.42 Z M 282.68,173.31 244.05,163.29 255.02,157.84 Z M 255.02,157.84 244.05,163.29 238.82,142.91 Z M 281.07,147.12 255.02,157.84 268.25,134.77 Z M 281.68,157.54 255.02,157.84 281.07,147.12 Z M 281.68,157.54 281.28,165.23 255.02,157.84 Z M 281.28,165.23 282.68,173.31 255.02,157.84 Z M 234.32,175.76 244.05,163.29 276.90,203.41 Z M 238.82,142.91 244.05,163.29 231.10,158.64 Z M 284.92,183.97 244.05,163.29 282.68,173.31 Z M 203.68,228.11 234.34,212.34 232.61,237.54 Z M 182.19,184.31 234.34,212.34 203.68,228.11 Z M 232.61,237.54 234.34,212.34 242.67,224.71 Z M 224.13,261.04 203.68,228.11 232.61,237.54 Z M 245.74,245.92 242.67,224.71 255.31,228.40 Z M 252.71,217.58 242.67,224.71 234.34,212.34 Z M 241.47,267.63 245.74,245.92 258.65,265.76 Z M 242.67,224.71 245.74,245.92 232.61,237.54 Z M 234.32,175.76 252.71,217.58 234.34,212.34 Z M 224.13,261.04 232.61,237.54 245.74,245.92 Z M 198.59,263.82 216.59,266.08 203.16,266.34 Z M 216.59,266.08 198.59,263.82 224.13,261.04 Z M 237.24,265.98 224.13,261.04 245.74,245.92 Z M 241.47,267.63 237.24,265.98 245.74,245.92 Z M 198.59,263.82 203.68,228.11 224.13,261.04 Z M 255.31,228.40 242.67,224.71 252.71,217.58 Z M 198.59,263.82 183.71,225.85 203.68,228.11 Z M 277.58,221.60 264.32,218.99 277.99,218.81 Z M 264.32,218.99 252.71,217.58 276.90,203.41 Z M 277.99,218.81 264.32,218.99 276.90,203.41 Z M 264.32,218.99 277.58,221.60 273.52,238.41 Z M 284.14,196.23 276.90,203.41 284.92,183.97 Z M 255.31,228.40 252.71,217.58 264.32,218.99 Z M 258.65,265.76 274.54,253.91 265.41,266.10 Z M 245.74,245.92 273.52,238.41 274.54,253.91 Z M 273.52,238.41 245.74,245.92 255.31,228.40 Z M 274.54,253.91 276.98,261.23 265.41,266.10 Z M 274.54,253.91 258.65,265.76 245.74,245.92 Z M 255.31,228.40 264.32,218.99 273.52,238.41 Z M 276.90,203.41 252.71,217.58 234.32,175.76 Z M 284.92,183.97 276.90,203.41 244.05,163.29 Z M 182.19,184.31 193.01,167.16 221.87,171.21 Z"/>
 <path fill="#9caac4" stroke="#000" stroke-width="0.5" d="M 283.03,135.42 276.05,117.56 293.48,125.84 Z M 293.48,125.84 286.79,102.76 311.07,102.69 Z M 302.22,138.92 293.48,125.84 311.07,102.69 Z M 286.79,102.76 293.48,125.84 276.05,117.56 Z M 283.03,135.42 293.48,125.84 302.22,138.92 Z M 281.68,157.54 281.07,147.12 302.22,138.92 Z M 306.40,171.25 281.28,165.23 281.68,157.54 Z M 284.92,183.97 282.68,173.31 306.40,171.25 Z M 281.28,165.23 306.40,171.25 282.68,173.31 Z M 281.68,157.54 302.22,138.92 306.40,171.25 Z M 281.07,147.12 283.03,135.42 302.22,138.92 Z M 311.07,85.30 286.79,102.76 297.86,74.60 Z M 305.59,53.93 318.38,48.83 311.07,85.30 Z M 311.07,85.30 318.38,48.83 342.31,53.90 Z M 311.07,85.30 311.07,102.69 286.79,102.76 Z M 335.40,28.09 353.85,46.23 342.31,53.90 Z M 345.65,4.80 335.40,28.09 332.37,7.85 Z M 335.40,28.09 342.31,53.90 318.38,48.83 Z M 311.07,85.30 342.31,53.90 324.09,104.41 Z M 306.40,171.25 303.97,185.43 284.92,183.97 Z M 311.07,102.69 331.96,128.59 302.22,138.92 Z M 306.40,171.25 302.22,138.92 343.93,155.47 Z M 331.40,188.53 303.97,185.43 306.40,171.25 Z M 331.96,128.59 354.17,104.59 343.53,134.84 Z M 324.09,104.41 354.17,104.59 331.96,128.59 Z M 343.93,155.47 302.22,138.92 331.96,128.59 Z M 324.09,104.41 331.96,128.59 311.07,102.69 Z M 311.07,102.69 311.07,85.30 324.09,104.41 Z M 343.93,155.47 331.40,188.53 306.40,171.25 Z M 324.09,104.41 342.31,53.90 354.17,104.59 Z M 305.59,53.93 311.07,85.30 297.86,74.60 Z M 284.92,183.97 303.97,185.43 284.14,196.23 Z M 312.20,231.34 297.96,242.67 277.58,221.60 Z M 284.14,196.23 277.99,218.81 276.90,203.41 Z M 273.52,238.41 277.58,221.60 297.96,242.67 Z M 277.58,221.60 277.99,218.81 312.20,231.34 Z M 274.54,253.91 288.62,264.46 276.98,261.23 Z M 288.62,264.46 274.54,253.91 297.96,242.67 Z M 297.96,242.67 306.98,267.00 298.91,266.16 Z M 313.29,243.75 306.98,267.00 297.96,242.67 Z M 297.96,242.67 298.91,266.16 288.62,264.46 Z M 274.54,253.91 273.52,238.41 297.96,242.67 Z M 318.25,201.78 277.99,218.81 284.14,196.23 Z M 312.20,231.34 318.25,201.78 322.34,215.53 Z M 318.25,201.78 312.20,231.34 277.99,218.81 Z M 322.34,215.53 318.25,201.78 331.78,202.08 Z M 326.02,242.08 312.20,231.34 322.34,215.53 Z M 331.40,188.53 345.84,198.12 331.78,202.08 Z M 331.78,202.08 345.84,198.12 333.95,218.12 Z M 331.78,202.08 333.95,218.12 322.34,215.53 Z M 331.40,188.53 331.78,202.08 318.25,201.78 Z M 284.14,196.23 303.97,185.43 318.25,201.78 Z M 326.02,242.08 322.34,215.53 333.95,218.12 Z M 313.29,243.75 322.88,266.16 317.35,266.32 Z M 322.88,266.16 313.29,243.75 326.02,242.08 Z M 313.29,243.75 317.35,266.32 306.98,267.00 Z M 326.02,242.08 343.02,263.45 334.46,267.97 Z M 364.55,242.46 343.02,263.45 326.02,242.08 Z M 326.02,242.08 334.46,267.97 322.88,266.16 Z M 313.29,243.75 312.20,231.34 326.02,242.08 Z M 326.02,242.08 333.95,218.12 364.55,242.46 Z M 312.20,231.34 313.29,243.75 297.96,242.67 Z M 303.97,185.43 331.40,188.53 318.25,201.78 Z M 343.93,155.47 331.96,128.59 343.53,134.84 Z M 354.90,8.61 353.85,46.23 335.40,28.09 Z M 367.66,8.63 378.80,4.60 384.67,15.30 Z M 384.67,15.30 378.80,4.60 384.91,4.57 Z M 354.90,8.61 367.66,8.63 375.78,32.44 Z M 375.78,32.44 367.66,8.63 384.67,15.30 Z M 342.31,53.90 368.90,68.95 354.17,104.59 Z M 353.85,46.23 354.90,8.61 368.01,41.48 Z M 368.90,68.95 353.85,46.23 368.01,41.48 Z M 342.31,53.90 353.85,46.23 368.90,68.95 Z M 382.93,92.60 368.90,68.95 385.29,82.75 Z M 368.01,41.48 386.79,53.56 368.90,68.95 Z M 368.01,41.48 375.78,32.44 385.47,46.08 Z M 368.90,68.95 382.93,92.60 354.17,104.59 Z M 354.90,8.61 375.78,32.44 368.01,41.48 Z M 354.17,104.59 382.93,92.60 385.76,102.96 Z M 375.78,32.44 384.67,15.30 385.29,23.53 Z M 343.53,134.84 354.17,104.59 387.08,123.63 Z M 387.59,38.61 375.78,32.44 385.29,23.53 Z M 375.78,32.44 387.59,38.61 385.47,46.08 Z M 386.79,53.56 368.01,41.48 385.47,46.08 Z M 386.79,53.56 385.74,64.70 368.90,68.95 Z M 385.74,64.70 384.88,74.15 368.90,68.95 Z M 385.29,82.75 368.90,68.95 384.88,74.15 Z M 387.08,123.63 354.17,104.59 387.25,118.24 Z M 387.08,123.63 351.31,145.06 343.53,134.84 Z M 387.25,118.24 354.17,104.59 385.76,102.96 Z M 351.31,145.06 387.08,123.63 388.54,133.75 Z M 331.40,188.53 355.50,174.98 345.84,198.12 Z M 343.93,155.47 343.53,134.84 351.31,145.06 Z M 372.17,158.77 343.93,155.47 351.31,145.06 Z M 355.50,174.98 331.40,188.53 343.93,155.47 Z M 364.04,186.24 355.50,174.98 383.31,172.80 Z M 372.17,158.77 355.50,174.98 343.93,155.47 Z M 384.11,208.21 373.24,221.11 364.04,186.24 Z M 355.50,174.98 364.04,186.24 345.84,198.12 Z M 351.31,145.06 383.89,145.76 372.17,158.77 Z M 345.84,198.12 364.04,186.24 373.24,221.11 Z M 352.29,264.54 364.55,242.46 361.29,262.55 Z M 343.02,263.45 364.55,242.46 352.29,264.54 Z M 361.29,262.55 364.55,242.46 377.02,262.39 Z M 364.55,242.46 386.69,253.35 377.02,262.39 Z M 387.24,227.72 382.78,231.53 373.24,221.11 Z M 385.89,244.08 364.55,242.46 382.78,231.53 Z M 382.78,231.53 364.55,242.46 373.24,221.11 Z M 373.24,221.11 364.55,242.46 333.95,218.12 Z M 383.31,172.80 355.50,174.98 372.17,158.77 Z M 333.95,218.12 345.84,198.12 373.24,221.11 Z M 386.29,154.27 372.17,158.77 383.89,145.76 Z M 372.17,158.77 386.29,154.27 387.29,167.83 Z M 386.36,192.41 364.04,186.24 384.18,186.59 Z M 383.31,172.80 372.17,158.77 387.29,167.83 Z M 386.36,192.41 384.11,208.21 364.04,186.24 Z M 386.69,253.35 364.55,242.46 385.89,244.08 Z M 377.02,262.39 386.69,253.35 384.47,267.47 Z M 388.68,215.83 373.24,221.11 384.11,208.21 Z M 387.24,227.72 373.24,221.11 388.68,215.83 Z M 364.04,186.24 383.31,172.80 384.18,186.59 Z M 351.31,145.06 388.54,133.75 383.89,145.76 Z M 345.65,4.80 354.90,8.61 335.40,28.09 Z"/>
 <path fill="#ffbd51" stroke="#000" stroke-width="0.5" d="M 91.87,17.46 94.07,3.27 104.94,6.97 Z M 106.03,36.07 91.87,17.46 104.94,6.97 Z M 116.65,37.75 112.38,7.32 124.96,4.02 Z M 106.03,36.07 104.94,6.97 112.38,7.32 Z M 124.96,4.02 146.22,24.59 116.65,37.75 Z M 91.94,26.98 91.87,17.46 106.03,36.07 Z M 115.98,53.53 116.65,37.75 132.59,48.04 Z M 116.65,37.75 115.98,53.53 111.24,48.20 Z M 146.22,24.59 132.59,48.04 116.65,37.75 Z M 136.71,66.95 115.98,53.53 132.59,48.04 Z M 112.38,7.32 116.65,37.75 106.03,36.07 Z M 146.22,24.59 124.96,4.02 135.72,3.80 Z M 146.22,24.59 147.27,8.65 154.22,4.72 Z M 147.27,8.65 146.22,24.59 135.72,3.80 Z M 161.96,33.42 146.22,24.59 154.22,4.72 Z M 167.81,4.67 175.72,3.30 184.09,8.24 Z M 161.96,33.42 154.22,4.72 167.81,4.67 Z M 176.53,34.47 167.81,4.67 184.09,8.24 Z M 154.29,56.82 147.68,46.61 168.10,46.97 Z M 161.96,33.42 147.68,46.61 146.22,24.59 Z M 168.10,46.97 147.68,46.61 161.96,33.42 Z M 132.59,48.04 147.68,46.61 136.71,66.95 Z M 168.10,46.97 176.53,34.47 192.12,33.05 Z M 176.53,34.47 168.10,46.97 161.96,33.42 Z M 176.53,34.47 161.96,33.42 167.81,4.67 Z M 151.86,83.09 154.29,56.82 192.60,75.54 Z M 184.09,8.24 192.12,33.05 176.53,34.47 Z M 154.29,56.82 168.10,46.97 192.60,75.54 Z M 184.09,8.24 197.50,8.13 192.12,33.05 Z M 146.22,24.59 147.68,46.61 132.59,48.04 Z M 154.29,56.82 136.71,66.95 147.68,46.61 Z M 133.01,88.81 117.28,72.52 136.71,66.95 Z M 116.01,82.33 117.28,72.52 133.01,88.81 Z M 118.31,106.83 118.78,94.55 133.01,88.81 Z M 133.01,88.81 118.78,94.55 116.01,82.33 Z M 128.31,121.12 118.31,106.83 141.35,107.52 Z M 117.28,72.52 114.45,67.09 136.71,66.95 Z M 128.31,121.12 145.01,145.21 131.32,145.25 Z M 142.19,158.32 122.04,154.70 131.32,145.25 Z M 122.04,154.70 142.19,158.32 134.16,166.66 Z M 128.31,121.12 131.32,145.25 122.16,136.32 Z M 115.85,113.10 118.31,106.83 128.31,121.12 Z M 133.01,88.81 141.35,107.52 118.31,106.83 Z M 143.76,95.60 141.35,107.52 133.01,88.81 Z M 133.01,88.81 151.86,83.09 143.76,95.60 Z M 141.35,107.52 143.76,95.60 163.46,103.42 Z M 145.01,145.21 128.31,121.12 141.35,107.52 Z M 151.86,83.09 192.60,75.54 163.46,103.42 Z M 174.19,116.79 163.46,103.42 192.60,75.54 Z M 163.46,103.42 174.19,116.79 141.35,107.52 Z M 151.86,83.09 163.46,103.42 143.76,95.60 Z M 136.71,66.95 154.29,56.82 151.86,83.09 Z M 141.35,107.52 174.19,116.79 157.78,146.68 Z M 142.19,158.32 131.32,145.25 145.01,145.21 Z M 145.01,145.21 141.35,107.52 157.78,146.68 Z M 165.53,153.95 175.40,145.28 173.77,158.57 Z M 175.40,145.28 165.53,153.95 157.78,146.68 Z M 182.56,155.49 173.77,158.57 175.40,145.28 Z M 182.56,155.49 175.40,145.28 193.64,152.12 Z M 174.19,116.79 175.40,145.28 157.78,146.68 Z M 204.79,124.23 175.40,145.28 174.19,116.79 Z M 136.71,66.95 151.86,83.09 133.01,88.81 Z M 114.45,67.09 115.98,53.53 136.71,66.95 Z M 192.12,33.05 192.60,75.54 168.10,46.97 Z M 218.36,26.14 197.50,8.13 207.43,6.13 Z M 217.40,5.83 218.36,26.14 207.43,6.13 Z M 225.15,1.45 237.43,8.86 217.40,5.83 Z M 253.52,7.50 237.43,8.86 246.85,3.69 Z M 206.43,35.97 218.36,26.14 218.06,44.68 Z M 206.43,35.97 197.50,8.13 218.36,26.14 Z M 218.06,44.68 218.36,26.14 244.74,32.19 Z M 206.43,35.97 218.06,44.68 208.19,66.06 Z M 244.74,32.19 251.97,58.25 218.06,44.68 Z M 244.74,32.19 237.43,8.86 253.52,7.50 Z M 261.52,48.25 251.97,58.25 244.74,32.19 Z M 244.74,32.19 218.36,26.14 237.43,8.86 Z M 217.40,5.83 237.43,8.86 218.36,26.14 Z M 218.06,44.68 251.97,58.25 234.42,67.36 Z M 244.74,32.19 253.52,7.50 263.88,28.02 Z M 208.19,66.06 192.12,33.05 206.43,35.97 Z M 263.88,28.02 262.52,5.08 275.66,4.88 Z M 335.40,28.09 302.03,6.53 318.92,3.12 Z M 332.37,7.85 318.92,3.12 321.95,2.62 Z M 302.03,6.53 283.52,7.00 296.66,3.75 Z M 305.59,53.93 261.52,48.25 263.88,28.02 Z M 261.52,48.25 244.74,32.19 263.88,28.02 Z M 283.52,7.00 263.88,28.02 275.66,4.88 Z M 305.59,53.93 263.88,28.02 283.52,7.00 Z M 305.59,53.93 302.03,6.53 318.38,48.83 Z M 283.52,7.00 302.03,6.53 305.59,53.93 Z M 335.40,28.09 318.38,48.83 302.03,6.53 Z M 318.92,3.12 332.37,7.85 335.40,28.09 Z M 251.97,58.25 261.52,48.25 272.19,61.86 Z M 263.88,28.02 253.52,7.50 262.52,5.08 Z M 272.19,61.86 261.52,48.25 305.59,53.93 Z M 211.30,96.63 192.60,75.54 211.43,84.77 Z M 192.60,75.54 192.12,33.05 208.19,66.06 Z M 211.43,84.77 192.60,75.54 208.19,66.06 Z M 211.30,96.63 211.89,112.12 174.19,116.79 Z M 224.77,114.94 211.89,112.12 211.30,96.63 Z M 224.77,114.94 211.30,96.63 236.60,86.52 Z M 236.60,86.52 231.95,116.15 224.77,114.94 Z M 236.60,86.52 211.30,96.63 211.43,84.77 Z M 174.19,116.79 211.89,112.12 204.79,124.23 Z M 193.01,167.16 182.56,155.49 193.64,152.12 Z M 193.64,152.12 175.40,145.28 204.79,124.23 Z M 206.24,145.35 193.64,152.12 204.79,124.23 Z M 204.79,124.23 213.17,138.87 206.24,145.35 Z M 211.43,84.77 208.19,66.06 234.42,67.36 Z M 192.60,75.54 211.30,96.63 174.19,116.79 Z M 234.42,67.36 254.07,78.39 236.60,86.52 Z M 234.42,67.36 251.97,58.25 254.07,78.39 Z M 246.97,124.06 236.60,86.52 254.07,78.39 Z M 234.42,67.36 236.60,86.52 211.43,84.77 Z M 272.19,61.86 297.86,74.60 273.54,75.07 Z M 297.86,74.60 272.19,61.86 305.59,53.93 Z M 286.79,102.76 254.07,78.39 273.54,75.07 Z M 272.19,61.86 273.54,75.07 254.07,78.39 Z M 208.19,66.06 218.06,44.68 234.42,67.36 Z M 286.79,102.76 273.54,75.07 297.86,74.60 Z M 246.97,124.06 254.07,78.39 254.86,125.91 Z M 268.25,134.77 254.86,125.91 273.12,128.75 Z M 254.86,125.91 254.07,78.39 276.05,117.56 Z M 283.03,135.42 273.12,128.75 276.05,117.56 Z M 276.05,117.56 273.12,128.75 254.86,125.91 Z M 254.07,78.39 286.79,102.76 276.05,117.56 Z M 236.60,86.52 246.97,124.06 231.95,116.15 Z M 272.19,61.86 254.07,78.39 251.97,58.25 Z M 206.43,35.97 192.12,33.05 197.50,8.13 Z"/>
 </svg>
