<?xml version="1.0" encoding="UTF-8"?>
<!-- Generated by graphviz version 7.0.4 (0)
 -->
<!-- Pages: 1 -->
<svg width="390pt" height="145pt" version="1.1" viewBox="0 0 390.2 144.8" xmlns="http://www.w3.org/2000/svg">
 <path d="m53.218 93.25s7.0046 0.26827 29.987 0.83581c14.305 0.35327 11.413 43.106 25.723 43.124 33.724 0.0417 40.16-0.0651 71.984 0.47489 15.14 0.25689 11.52-43.412 26.118-43.424 48.042-0.03826 128.33-0.75684 128.33-0.75684" fill="none" stroke="#ecec00" stroke-linecap="round" stroke-width="15.008"/>
 <g class="graph" transform="scale(1) translate(4 140.8)">
  <!-- n3a -->
  <g class="node">
   <title>n3a</title>
   <ellipse cx="203.6" cy="-133.2" rx="3.6" ry="3.6" stroke="#000"/>
  </g>
  <!-- n2a -->
  <g class="node">
   <title>n2a</title>
   <ellipse cx="178.6" cy="-90" rx="3.6" ry="3.6" fill="#f00" stroke="#f00"/>
  </g>
  <!-- n3a&#45;&gt;n2a -->
  <g class="edge">
   <title>n3a-&gt;n2a</title>
   <path d="m201.96-129.5c-4.61 7.59-17.6 29.01-21.94 36.15" fill="none" stroke="#000"/>
  </g>
  <!-- n2b -->
  <g class="node">
   <title>n2b</title>
   <ellipse cx="153.6" cy="-90" rx="3.6" ry="3.6" fill="#f00" stroke="#f00"/>
  </g>
  <!-- n3a&#45;&gt;n2b -->
  <g class="edge">
   <title>n3a-&gt;n2b</title>
   <path d="m201.19-130.21c-8.43 6.94-36.51 30.08-45.08 37.15" fill="none" stroke="#000"/>
  </g>
  <!-- n2c -->
  <g class="node">
   <title>n2c</title>
   <ellipse cx="228.6" cy="-90" rx="3.6" ry="3.6" stroke="#000"/>
  </g>
  <!-- n3a&#45;&gt;n2c -->
  <g class="edge">
   <title>n3a-&gt;n2c</title>
   <path d="m205.24-129.5c4.61 7.59 17.6 29.01 21.94 36.15" fill="none" stroke="#000"/>
  </g>
  <!-- n2d -->
  <g class="node">
   <title>n2d</title>
   <ellipse cx="203.6" cy="-90" rx="3.6" ry="3.6" stroke="#000"/>
  </g>
  <!-- n3a&#45;&gt;n2d -->
  <g class="edge">
   <title>n3a-&gt;n2d</title>
   <path d="m203.6-129.24v35.52" fill="none" stroke="#000"/>
  </g>
  <!-- n1a -->
  <g class="node">
   <title>n1a</title>
   <ellipse cx="153.6" cy="-46.8" rx="3.6" ry="3.6" fill="#d00" stroke="#d00"/>
  </g>
  <!-- n2a&#45;&gt;n1a -->
  <g class="edge">
   <title>n2a-&gt;n1a</title>
   <path d="m176.96-86.3c-4.61 7.59-17.6 29.01-21.94 36.15" fill="none" stroke="#000"/>
  </g>
  <!-- n1b -->
  <g class="node">
   <title>n1b</title>
   <ellipse cx="203.6" cy="-46.8" rx="3.6" ry="3.6" fill="#d00" stroke="#d00"/>
  </g>
  <!-- n2a&#45;&gt;n1b -->
  <g class="edge">
   <title>n2a-&gt;n1b</title>
   <path d="m180.24-86.3c4.61 7.59 17.6 29.01 21.94 36.15" fill="none" stroke="#000"/>
  </g>
  <!-- n1c -->
  <g class="node">
   <title>n1c</title>
   <ellipse cx="78.6" cy="-46.8" rx="3.6" ry="3.6" fill="#d00" stroke="#d00"/>
  </g>
  <!-- n2a&#45;&gt;n1c -->
  <g class="edge">
   <title>n2a-&gt;n1c</title>
   <path d="m175.27-87.63c-15.32 6.31-78.93 32.52-93.63 38.58" fill="none" stroke="#000"/>
  </g>
  <!-- n1d -->
  <g class="node">
   <title>n1d</title>
   <ellipse cx="53.6" cy="-46.8" rx="3.6" ry="3.6" fill="#d00" stroke="#d00"/>
  </g>
  <!-- n2a&#45;&gt;n1d -->
  <g class="edge">
   <title>n2a-&gt;n1d</title>
   <path d="m175.26-87.9c-17.71 5.84-100.38 33.08-118.25 38.98" fill="none" stroke="#000"/>
  </g>
  <!-- n3b -->
  <g class="node">
   <title>n3b</title>
   <ellipse cx="178.6" cy="-133.2" rx="3.6" ry="3.6" stroke="#000"/>
  </g>
  <!-- n3b&#45;&gt;n2a -->
  <g class="edge">
   <title>n3b-&gt;n2a</title>
   <path d="m178.6-129.24v35.52" fill="none" stroke="#000"/>
  </g>
  <!-- n3b&#45;&gt;n2b -->
  <g class="edge">
   <title>n3b-&gt;n2b</title>
   <path d="m176.96-129.5c-4.61 7.59-17.6 29.01-21.94 36.15" fill="none" stroke="#000"/>
  </g>
  <!-- n3b&#45;&gt;n2c -->
  <g class="edge">
   <title>n3b-&gt;n2c</title>
   <path d="m181.01-130.21c8.43 6.94 36.51 30.08 45.08 37.15" fill="none" stroke="#000"/>
  </g>
  <!-- n3b&#45;&gt;n2d -->
  <g class="edge">
   <title>n3b-&gt;n2d</title>
   <path d="m180.24-129.5c4.61 7.59 17.6 29.01 21.94 36.15" fill="none" stroke="#000"/>
  </g>
  <!-- n2b&#45;&gt;n1a -->
  <g class="edge">
   <title>n2b-&gt;n1a</title>
   <path d="m153.6-86.04v35.52" fill="none" stroke="#000"/>
  </g>
  <!-- n2b&#45;&gt;n1b -->
  <g class="edge">
   <title>n2b-&gt;n1b</title>
   <path d="m156.01-87.01c8.43 6.94 36.51 30.08 45.08 37.15" fill="none" stroke="#000"/>
  </g>
  <!-- n2b&#45;&gt;n1c -->
  <g class="edge">
   <title>n2b-&gt;n1c</title>
   <path d="m150.75-87.44c-11.88 6.53-57.41 31.54-69.3 38.07" fill="none" stroke="#000"/>
  </g>
  <!-- n2b&#45;&gt;n1d -->
  <g class="edge">
   <title>n2b-&gt;n1d</title>
   <path d="m150.27-87.63c-15.32 6.31-78.93 32.52-93.63 38.58" fill="none" stroke="#000"/>
  </g>
  <!-- n1e -->
  <g class="node">
   <title>n1e</title>
   <ellipse cx="178.6" cy="-46.8" rx="3.6" ry="3.6" fill="#070" stroke="#070"/>
  </g>
  <!-- n2c&#45;&gt;n1e -->
  <g class="edge">
   <title>n2c-&gt;n1e</title>
   <path d="m226.19-87.01c-8.43 6.94-36.51 30.08-45.08 37.15" fill="none" stroke="#000"/>
  </g>
  <!-- n1f -->
  <g class="node">
   <title>n1f</title>
   <ellipse cx="228.6" cy="-46.8" rx="3.6" ry="3.6" fill="#00f" stroke="#00f"/>
  </g>
  <!-- n2c&#45;&gt;n1f -->
  <g class="edge">
   <title>n2c-&gt;n1f</title>
   <path d="m228.6-86.04v35.52" fill="none" stroke="#000"/>
  </g>
  <!-- n1g -->
  <g class="node">
   <title>n1g</title>
   <ellipse cx="328.6" cy="-46.8" rx="3.6" ry="3.6" stroke="#000"/>
  </g>
  <!-- n2c&#45;&gt;n1g -->
  <g class="edge">
   <title>n2c-&gt;n1g</title>
   <path d="m231.93-87.63c15.32 6.31 78.93 32.52 93.63 38.58" fill="none" stroke="#000"/>
  </g>
  <!-- n1h -->
  <g class="node">
   <title>n1h</title>
   <ellipse cx="303.6" cy="-46.8" rx="3.6" ry="3.6" stroke="#000"/>
  </g>
  <!-- n2c&#45;&gt;n1h -->
  <g class="edge">
   <title>n2c-&gt;n1h</title>
   <path d="m231.45-87.44c11.88 6.53 57.41 31.54 69.3 38.07" fill="none" stroke="#000"/>
  </g>
  <!-- n2d&#45;&gt;n1e -->
  <g class="edge">
   <title>n2d-&gt;n1e</title>
   <path d="m201.96-86.3c-4.61 7.59-17.6 29.01-21.94 36.15" fill="none" stroke="#000"/>
  </g>
  <!-- n2d&#45;&gt;n1f -->
  <g class="edge">
   <title>n2d-&gt;n1f</title>
   <path d="m205.24-86.3c4.61 7.59 17.6 29.01 21.94 36.15" fill="none" stroke="#000"/>
  </g>
  <!-- n2d&#45;&gt;n1g -->
  <g class="edge">
   <title>n2d-&gt;n1g</title>
   <path d="m206.94-87.9c17.71 5.84 100.38 33.08 118.25 38.98" fill="none" stroke="#000"/>
  </g>
  <!-- n2d&#45;&gt;n1h -->
  <g class="edge">
   <title>n2d-&gt;n1h</title>
   <path d="m206.93-87.63c15.32 6.31 78.93 32.52 93.63 38.58" fill="none" stroke="#000"/>
  </g>
  <!-- n0a -->
  <g class="node">
   <title>n0a</title>
   <ellipse cx="178.6" cy="-3.6" rx="3.6" ry="3.6" fill="#850" stroke="#850"/>
  </g>
  <!-- n1a&#45;&gt;n0a -->
  <g class="edge">
   <title>n1a-&gt;n0a</title>
   <path d="m155.24-43.1c4.61 7.59 17.6 29.01 21.94 36.15" fill="none" stroke="#000"/>
  </g>
  <!-- n0b -->
  <g class="node">
   <title>n0b</title>
   <ellipse cx="103.6" cy="-3.6" rx="3.6" ry="3.6" fill="#850" stroke="#850"/>
  </g>
  <!-- n1a&#45;&gt;n0b -->
  <g class="edge">
   <title>n1a-&gt;n0b</title>
   <path d="m151.19-43.81c-8.43 6.94-36.51 30.08-45.08 37.15" fill="none" stroke="#000"/>
  </g>
  <!-- n0c -->
  <g class="node">
   <title>n0c</title>
   <ellipse cx="128.6" cy="-3.6" rx="3.6" ry="3.6" fill="#850" stroke="#850"/>
  </g>
  <!-- n1a&#45;&gt;n0c -->
  <g class="edge">
   <title>n1a-&gt;n0c</title>
   <path d="m151.96-43.1c-4.61 7.59-17.6 29.01-21.94 36.15" fill="none" stroke="#000"/>
  </g>
  <!-- n0d -->
  <g class="node">
   <title>n0d</title>
   <ellipse cx="153.6" cy="-3.6" rx="3.6" ry="3.6" fill="#850" stroke="#850"/>
  </g>
  <!-- n1a&#45;&gt;n0d -->
  <g class="edge">
   <title>n1a-&gt;n0d</title>
   <path d="m153.6-42.84v35.52" fill="none" stroke="#000"/>
  </g>
  <!-- n0e -->
  <g class="node">
   <title>n0e</title>
   <ellipse cx="278.6" cy="-3.6" rx="3.6" ry="3.6" fill="#808" stroke="#808"/>
  </g>
  <!-- n1b&#45;&gt;n0e -->
  <g class="edge">
   <title>n1b-&gt;n0e</title>
   <path d="m206.45-44.24c11.88 6.53 57.41 31.54 69.3 38.07" fill="none" stroke="#000"/>
  </g>
  <!-- n0f -->
  <g class="node">
   <title>n0f</title>
   <ellipse cx="203.6" cy="-3.6" rx="3.6" ry="3.6" fill="#808" stroke="#808"/>
  </g>
  <!-- n1b&#45;&gt;n0f -->
  <g class="edge">
   <title>n1b-&gt;n0f</title>
   <path d="m203.6-42.84v35.52" fill="none" stroke="#000"/>
  </g>
  <!-- n0g -->
  <g class="node">
   <title>n0g</title>
   <ellipse cx="228.6" cy="-3.6" rx="3.6" ry="3.6" fill="#808" stroke="#808"/>
  </g>
  <!-- n1b&#45;&gt;n0g -->
  <g class="edge">
   <title>n1b-&gt;n0g</title>
   <path d="m205.24-43.1c4.61 7.59 17.6 29.01 21.94 36.15" fill="none" stroke="#000"/>
  </g>
  <!-- n0h -->
  <g class="node">
   <title>n0h</title>
   <ellipse cx="253.6" cy="-3.6" rx="3.6" ry="3.6" fill="#808" stroke="#808"/>
  </g>
  <!-- n1b&#45;&gt;n0h -->
  <g class="edge">
   <title>n1b-&gt;n0h</title>
   <path d="m206.01-43.81c8.43 6.94 36.51 30.08 45.08 37.15" fill="none" stroke="#000"/>
  </g>
  <!-- n0i -->
  <g class="node">
   <title>n0i</title>
   <ellipse cx="78.6" cy="-3.6" rx="3.6" ry="3.6" fill="#b00" stroke="#b00"/>
  </g>
  <!-- n1c&#45;&gt;n0i -->
  <g class="edge">
   <title>n1c-&gt;n0i</title>
   <path d="m78.6-42.84v35.52" fill="none" stroke="#000"/>
  </g>
  <!-- n0j -->
  <g class="node">
   <title>n0j</title>
   <ellipse cx="3.6" cy="-3.6" rx="3.6" ry="3.6" fill="#b00" stroke="#b00"/>
  </g>
  <!-- n1c&#45;&gt;n0j -->
  <g class="edge">
   <title>n1c-&gt;n0j</title>
   <path d="m75.75-44.24c-11.88 6.53-57.41 31.54-69.3 38.07" fill="none" stroke="#000"/>
  </g>
  <!-- n0k -->
  <g class="node">
   <title>n0k</title>
   <ellipse cx="28.6" cy="-3.6" rx="3.6" ry="3.6" fill="#b00" stroke="#b00"/>
  </g>
  <!-- n1c&#45;&gt;n0k -->
  <g class="edge">
   <title>n1c-&gt;n0k</title>
   <path d="m76.19-43.81c-8.43 6.94-36.51 30.08-45.08 37.15" fill="none" stroke="#000"/>
  </g>
  <!-- n0l -->
  <g class="node">
   <title>n0l</title>
   <ellipse cx="53.6" cy="-3.6" rx="3.6" ry="3.6" fill="#b00" stroke="#b00"/>
  </g>
  <!-- n1c&#45;&gt;n0l -->
  <g class="edge">
   <title>n1c-&gt;n0l</title>
   <path d="m76.96-43.1c-4.61 7.59-17.6 29.01-21.94 36.15" fill="none" stroke="#000"/>
  </g>
  <!-- n1d&#45;&gt;n0i -->
  <g class="edge">
   <title>n1d-&gt;n0i</title>
   <path d="m55.24-43.1c4.61 7.59 17.6 29.01 21.94 36.15" fill="none" stroke="#000"/>
  </g>
  <!-- n1d&#45;&gt;n0j -->
  <g class="edge">
   <title>n1d-&gt;n0j</title>
   <path d="m51.19-43.81c-8.43 6.94-36.51 30.08-45.08 37.15" fill="none" stroke="#000"/>
  </g>
  <!-- n1d&#45;&gt;n0k -->
  <g class="edge">
   <title>n1d-&gt;n0k</title>
   <path d="m51.96-43.1c-4.61 7.59-17.6 29.01-21.94 36.15" fill="none" stroke="#000"/>
  </g>
  <!-- n1d&#45;&gt;n0l -->
  <g class="edge">
   <title>n1d-&gt;n0l</title>
   <path d="m53.6-42.84v35.52" fill="none" stroke="#000"/>
  </g>
  <!-- n1e&#45;&gt;n0a -->
  <g class="edge">
   <title>n1e-&gt;n0a</title>
   <path d="m178.6-42.84v35.52" fill="none" stroke="#000"/>
  </g>
  <!-- n1e&#45;&gt;n0b -->
  <g class="edge">
   <title>n1e-&gt;n0b</title>
   <path d="m175.75-44.24c-11.88 6.53-57.41 31.54-69.3 38.07" fill="none" stroke="#000"/>
  </g>
  <!-- n1e&#45;&gt;n0c -->
  <g class="edge">
   <title>n1e-&gt;n0c</title>
   <path d="m176.19-43.81c-8.43 6.94-36.51 30.08-45.08 37.15" fill="none" stroke="#000"/>
  </g>
  <!-- n1e&#45;&gt;n0d -->
  <g class="edge">
   <title>n1e-&gt;n0d</title>
   <path d="m176.96-43.1c-4.61 7.59-17.6 29.01-21.94 36.15" fill="none" stroke="#000"/>
  </g>
  <!-- n1f&#45;&gt;n0e -->
  <g class="edge">
   <title>n1f-&gt;n0e</title>
   <path d="m231.01-43.81c8.43 6.94 36.51 30.08 45.08 37.15" fill="none" stroke="#000"/>
  </g>
  <!-- n1f&#45;&gt;n0f -->
  <g class="edge">
   <title>n1f-&gt;n0f</title>
   <path d="m226.96-43.1c-4.61 7.59-17.6 29.01-21.94 36.15" fill="none" stroke="#000"/>
  </g>
  <!-- n1f&#45;&gt;n0g -->
  <g class="edge">
   <title>n1f-&gt;n0g</title>
   <path d="m228.6-42.84v35.52" fill="none" stroke="#000"/>
  </g>
  <!-- n1f&#45;&gt;n0h -->
  <g class="edge">
   <title>n1f-&gt;n0h</title>
   <path d="m230.24-43.1c4.61 7.59 17.6 29.01 21.94 36.15" fill="none" stroke="#000"/>
  </g>
  <!-- n0m -->
  <g class="node">
   <title>n0m</title>
   <ellipse cx="378.6" cy="-3.6" rx="3.6" ry="3.6" stroke="#000"/>
  </g>
  <!-- n1g&#45;&gt;n0m -->
  <g class="edge">
   <title>n1g-&gt;n0m</title>
   <path d="m331.01-43.81c8.43 6.94 36.51 30.08 45.08 37.15" fill="none" stroke="#000"/>
  </g>
  <!-- n0n -->
  <g class="node">
   <title>n0n</title>
   <ellipse cx="303.6" cy="-3.6" rx="3.6" ry="3.6" stroke="#000"/>
  </g>
  <!-- n1g&#45;&gt;n0n -->
  <g class="edge">
   <title>n1g-&gt;n0n</title>
   <path d="m326.96-43.1c-4.61 7.59-17.6 29.01-21.94 36.15" fill="none" stroke="#000"/>
  </g>
  <!-- n0o -->
  <g class="node">
   <title>n0o</title>
   <ellipse cx="328.6" cy="-3.6" rx="3.6" ry="3.6" stroke="#000"/>
  </g>
  <!-- n1g&#45;&gt;n0o -->
  <g class="edge">
   <title>n1g-&gt;n0o</title>
   <path d="m328.6-42.84v35.52" fill="none" stroke="#000"/>
  </g>
  <!-- n0p -->
  <g class="node">
   <title>n0p</title>
   <ellipse cx="353.6" cy="-3.6" rx="3.6" ry="3.6" stroke="#000"/>
  </g>
  <!-- n1g&#45;&gt;n0p -->
  <g class="edge">
   <title>n1g-&gt;n0p</title>
   <path d="m330.24-43.1c4.61 7.59 17.6 29.01 21.94 36.15" fill="none" stroke="#000"/>
  </g>
  <!-- n1h&#45;&gt;n0m -->
  <g class="edge">
   <title>n1h-&gt;n0m</title>
   <path d="m306.45-44.24c11.88 6.53 57.41 31.54 69.3 38.07" fill="none" stroke="#000"/>
  </g>
  <!-- n1h&#45;&gt;n0n -->
  <g class="edge">
   <title>n1h-&gt;n0n</title>
   <path d="m303.6-42.84v35.52" fill="none" stroke="#000"/>
  </g>
  <!-- n1h&#45;&gt;n0o -->
  <g class="edge">
   <title>n1h-&gt;n0o</title>
   <path d="m305.24-43.1c4.61 7.59 17.6 29.01 21.94 36.15" fill="none" stroke="#000"/>
  </g>
  <!-- n1h&#45;&gt;n0p -->
  <g class="edge">
   <title>n1h-&gt;n0p</title>
   <path d="m306.01-43.81c8.43 6.94 36.51 30.08 45.08 37.15" fill="none" stroke="#000"/>
  </g>
 </g>
</svg>
