<?xml version="1.0" encoding="UTF-8" standalone="no"?>
<!DOCTYPE svg PUBLIC "-//W3C//DTD SVG 1.1//EN"
 "http://www.w3.org/Graphics/SVG/1.1/DTD/svg11.dtd">
<!-- Generated by graphviz version 7.0.4 (0)
 -->
<!-- Pages: 1 -->
<svg width="390pt" height="145pt"
 viewBox="0.00 0.00 390.20 144.80" xmlns="http://www.w3.org/2000/svg" xmlns:xlink="http://www.w3.org/1999/xlink">
<g id="graph0" class="graph" transform="scale(1 1) rotate(0) translate(4 140.8)">
<polygon fill="white" stroke="none" points="-4,4 -4,-140.8 386.2,-140.8 386.2,4 -4,4"/>
<!-- n3a -->
<g id="node1" class="node">
<title>n3a</title>
<ellipse fill="black" stroke="black" cx="203.6" cy="-133.2" rx="3.6" ry="3.6"/>
</g>
<!-- n2a -->
<g id="node2" class="node">
<title>n2a</title>
<ellipse fill="#ff0000" stroke="#ff0000" cx="178.6" cy="-90" rx="3.6" ry="3.6"/>
</g>
<!-- n3a&#45;&gt;n2a -->
<g id="edge1" class="edge">
<title>n3a&#45;&gt;n2a</title>
<path fill="none" stroke="black" d="M201.96,-129.5C197.35,-121.91 184.36,-100.49 180.02,-93.35"/>
</g>
<!-- n2b -->
<g id="node4" class="node">
<title>n2b</title>
<ellipse fill="#ff0000" stroke="#ff0000" cx="153.6" cy="-90" rx="3.6" ry="3.6"/>
</g>
<!-- n3a&#45;&gt;n2b -->
<g id="edge3" class="edge">
<title>n3a&#45;&gt;n2b</title>
<path fill="none" stroke="black" d="M201.19,-130.21C192.76,-123.27 164.68,-100.13 156.11,-93.06"/>
</g>
<!-- n2c -->
<g id="node5" class="node">
<title>n2c</title>
<ellipse fill="black" stroke="black" cx="228.6" cy="-90" rx="3.6" ry="3.6"/>
</g>
<!-- n3a&#45;&gt;n2c -->
<g id="edge5" class="edge">
<title>n3a&#45;&gt;n2c</title>
<path fill="none" stroke="black" d="M205.24,-129.5C209.85,-121.91 222.84,-100.49 227.18,-93.35"/>
</g>
<!-- n2d -->
<g id="node6" class="node">
<title>n2d</title>
<ellipse fill="black" stroke="black" cx="203.6" cy="-90" rx="3.6" ry="3.6"/>
</g>
<!-- n3a&#45;&gt;n2d -->
<g id="edge7" class="edge">
<title>n3a&#45;&gt;n2d</title>
<path fill="none" stroke="black" d="M203.6,-129.24C203.6,-121.56 203.6,-101.12 203.6,-93.72"/>
</g>
<!-- n1a -->
<g id="node7" class="node">
<title>n1a</title>
<ellipse fill="#dd0000" stroke="#dd0000" cx="153.6" cy="-46.8" rx="3.6" ry="3.6"/>
</g>
<!-- n2a&#45;&gt;n1a -->
<g id="edge9" class="edge">
<title>n2a&#45;&gt;n1a</title>
<path fill="none" stroke="black" d="M176.96,-86.3C172.35,-78.71 159.36,-57.29 155.02,-50.15"/>
</g>
<!-- n1b -->
<g id="node8" class="node">
<title>n1b</title>
<ellipse fill="#dd0000" stroke="#dd0000" cx="203.6" cy="-46.8" rx="3.6" ry="3.6"/>
</g>
<!-- n2a&#45;&gt;n1b -->
<g id="edge11" class="edge">
<title>n2a&#45;&gt;n1b</title>
<path fill="none" stroke="black" d="M180.24,-86.3C184.85,-78.71 197.84,-57.29 202.18,-50.15"/>
</g>
<!-- n1c -->
<g id="node9" class="node">
<title>n1c</title>
<ellipse fill="#dd0000" stroke="#dd0000" cx="78.6" cy="-46.8" rx="3.6" ry="3.6"/>
</g>
<!-- n2a&#45;&gt;n1c -->
<g id="edge13" class="edge">
<title>n2a&#45;&gt;n1c</title>
<path fill="none" stroke="black" d="M175.27,-87.63C159.95,-81.32 96.34,-55.11 81.64,-49.05"/>
</g>
<!-- n1d -->
<g id="node10" class="node">
<title>n1d</title>
<ellipse fill="#dd0000" stroke="#dd0000" cx="53.6" cy="-46.8" rx="3.6" ry="3.6"/>
</g>
<!-- n2a&#45;&gt;n1d -->
<g id="edge15" class="edge">
<title>n2a&#45;&gt;n1d</title>
<path fill="none" stroke="black" d="M175.26,-87.9C157.55,-82.06 74.88,-54.82 57.01,-48.92"/>
</g>
<!-- n3b -->
<g id="node3" class="node">
<title>n3b</title>
<ellipse fill="black" stroke="black" cx="178.6" cy="-133.2" rx="3.6" ry="3.6"/>
</g>
<!-- n3b&#45;&gt;n2a -->
<g id="edge2" class="edge">
<title>n3b&#45;&gt;n2a</title>
<path fill="none" stroke="black" d="M178.6,-129.24C178.6,-121.56 178.6,-101.12 178.6,-93.72"/>
</g>
<!-- n3b&#45;&gt;n2b -->
<g id="edge4" class="edge">
<title>n3b&#45;&gt;n2b</title>
<path fill="none" stroke="black" d="M176.96,-129.5C172.35,-121.91 159.36,-100.49 155.02,-93.35"/>
</g>
<!-- n3b&#45;&gt;n2c -->
<g id="edge6" class="edge">
<title>n3b&#45;&gt;n2c</title>
<path fill="none" stroke="black" d="M181.01,-130.21C189.44,-123.27 217.52,-100.13 226.09,-93.06"/>
</g>
<!-- n3b&#45;&gt;n2d -->
<g id="edge8" class="edge">
<title>n3b&#45;&gt;n2d</title>
<path fill="none" stroke="black" d="M180.24,-129.5C184.85,-121.91 197.84,-100.49 202.18,-93.35"/>
</g>
<!-- n2b&#45;&gt;n1a -->
<g id="edge10" class="edge">
<title>n2b&#45;&gt;n1a</title>
<path fill="none" stroke="black" d="M153.6,-86.04C153.6,-78.36 153.6,-57.92 153.6,-50.52"/>
</g>
<!-- n2b&#45;&gt;n1b -->
<g id="edge12" class="edge">
<title>n2b&#45;&gt;n1b</title>
<path fill="none" stroke="black" d="M156.01,-87.01C164.44,-80.07 192.52,-56.93 201.09,-49.86"/>
</g>
<!-- n2b&#45;&gt;n1c -->
<g id="edge14" class="edge">
<title>n2b&#45;&gt;n1c</title>
<path fill="none" stroke="black" d="M150.75,-87.44C138.87,-80.91 93.34,-55.9 81.45,-49.37"/>
</g>
<!-- n2b&#45;&gt;n1d -->
<g id="edge16" class="edge">
<title>n2b&#45;&gt;n1d</title>
<path fill="none" stroke="black" d="M150.27,-87.63C134.95,-81.32 71.34,-55.11 56.64,-49.05"/>
</g>
<!-- n1e -->
<g id="node11" class="node">
<title>n1e</title>
<ellipse fill="#007700" stroke="#007700" cx="178.6" cy="-46.8" rx="3.6" ry="3.6"/>
</g>
<!-- n2c&#45;&gt;n1e -->
<g id="edge17" class="edge">
<title>n2c&#45;&gt;n1e</title>
<path fill="none" stroke="black" d="M226.19,-87.01C217.76,-80.07 189.68,-56.93 181.11,-49.86"/>
</g>
<!-- n1f -->
<g id="node12" class="node">
<title>n1f</title>
<ellipse fill="#0000ff" stroke="#0000ff" cx="228.6" cy="-46.8" rx="3.6" ry="3.6"/>
</g>
<!-- n2c&#45;&gt;n1f -->
<g id="edge19" class="edge">
<title>n2c&#45;&gt;n1f</title>
<path fill="none" stroke="black" d="M228.6,-86.04C228.6,-78.36 228.6,-57.92 228.6,-50.52"/>
</g>
<!-- n1g -->
<g id="node13" class="node">
<title>n1g</title>
<ellipse fill="black" stroke="black" cx="328.6" cy="-46.8" rx="3.6" ry="3.6"/>
</g>
<!-- n2c&#45;&gt;n1g -->
<g id="edge21" class="edge">
<title>n2c&#45;&gt;n1g</title>
<path fill="none" stroke="black" d="M231.93,-87.63C247.25,-81.32 310.86,-55.11 325.56,-49.05"/>
</g>
<!-- n1h -->
<g id="node14" class="node">
<title>n1h</title>
<ellipse fill="black" stroke="black" cx="303.6" cy="-46.8" rx="3.6" ry="3.6"/>
</g>
<!-- n2c&#45;&gt;n1h -->
<g id="edge23" class="edge">
<title>n2c&#45;&gt;n1h</title>
<path fill="none" stroke="black" d="M231.45,-87.44C243.33,-80.91 288.86,-55.9 300.75,-49.37"/>
</g>
<!-- n2d&#45;&gt;n1e -->
<g id="edge18" class="edge">
<title>n2d&#45;&gt;n1e</title>
<path fill="none" stroke="black" d="M201.96,-86.3C197.35,-78.71 184.36,-57.29 180.02,-50.15"/>
</g>
<!-- n2d&#45;&gt;n1f -->
<g id="edge20" class="edge">
<title>n2d&#45;&gt;n1f</title>
<path fill="none" stroke="black" d="M205.24,-86.3C209.85,-78.71 222.84,-57.29 227.18,-50.15"/>
</g>
<!-- n2d&#45;&gt;n1g -->
<g id="edge22" class="edge">
<title>n2d&#45;&gt;n1g</title>
<path fill="none" stroke="black" d="M206.94,-87.9C224.65,-82.06 307.32,-54.82 325.19,-48.92"/>
</g>
<!-- n2d&#45;&gt;n1h -->
<g id="edge24" class="edge">
<title>n2d&#45;&gt;n1h</title>
<path fill="none" stroke="black" d="M206.93,-87.63C222.25,-81.32 285.86,-55.11 300.56,-49.05"/>
</g>
<!-- n0a -->
<g id="node15" class="node">
<title>n0a</title>
<ellipse fill="#885500" stroke="#885500" cx="178.6" cy="-3.6" rx="3.6" ry="3.6"/>
</g>
<!-- n1a&#45;&gt;n0a -->
<g id="edge25" class="edge">
<title>n1a&#45;&gt;n0a</title>
<path fill="none" stroke="black" d="M155.24,-43.1C159.85,-35.51 172.84,-14.09 177.18,-6.95"/>
</g>
<!-- n0b -->
<g id="node16" class="node">
<title>n0b</title>
<ellipse fill="#885500" stroke="#885500" cx="103.6" cy="-3.6" rx="3.6" ry="3.6"/>
</g>
<!-- n1a&#45;&gt;n0b -->
<g id="edge27" class="edge">
<title>n1a&#45;&gt;n0b</title>
<path fill="none" stroke="black" d="M151.19,-43.81C142.76,-36.87 114.68,-13.73 106.11,-6.66"/>
</g>
<!-- n0c -->
<g id="node17" class="node">
<title>n0c</title>
<ellipse fill="#885500" stroke="#885500" cx="128.6" cy="-3.6" rx="3.6" ry="3.6"/>
</g>
<!-- n1a&#45;&gt;n0c -->
<g id="edge29" class="edge">
<title>n1a&#45;&gt;n0c</title>
<path fill="none" stroke="black" d="M151.96,-43.1C147.35,-35.51 134.36,-14.09 130.02,-6.95"/>
</g>
<!-- n0d -->
<g id="node18" class="node">
<title>n0d</title>
<ellipse fill="#885500" stroke="#885500" cx="153.6" cy="-3.6" rx="3.6" ry="3.6"/>
</g>
<!-- n1a&#45;&gt;n0d -->
<g id="edge31" class="edge">
<title>n1a&#45;&gt;n0d</title>
<path fill="none" stroke="black" d="M153.6,-42.84C153.6,-35.16 153.6,-14.72 153.6,-7.32"/>
</g>
<!-- n0e -->
<g id="node19" class="node">
<title>n0e</title>
<ellipse fill="#880088" stroke="#880088" cx="278.6" cy="-3.6" rx="3.6" ry="3.6"/>
</g>
<!-- n1b&#45;&gt;n0e -->
<g id="edge33" class="edge">
<title>n1b&#45;&gt;n0e</title>
<path fill="none" stroke="black" d="M206.45,-44.24C218.33,-37.71 263.86,-12.7 275.75,-6.17"/>
</g>
<!-- n0f -->
<g id="node20" class="node">
<title>n0f</title>
<ellipse fill="#880088" stroke="#880088" cx="203.6" cy="-3.6" rx="3.6" ry="3.6"/>
</g>
<!-- n1b&#45;&gt;n0f -->
<g id="edge35" class="edge">
<title>n1b&#45;&gt;n0f</title>
<path fill="none" stroke="black" d="M203.6,-42.84C203.6,-35.16 203.6,-14.72 203.6,-7.32"/>
</g>
<!-- n0g -->
<g id="node21" class="node">
<title>n0g</title>
<ellipse fill="#880088" stroke="#880088" cx="228.6" cy="-3.6" rx="3.6" ry="3.6"/>
</g>
<!-- n1b&#45;&gt;n0g -->
<g id="edge37" class="edge">
<title>n1b&#45;&gt;n0g</title>
<path fill="none" stroke="black" d="M205.24,-43.1C209.85,-35.51 222.84,-14.09 227.18,-6.95"/>
</g>
<!-- n0h -->
<g id="node22" class="node">
<title>n0h</title>
<ellipse fill="#880088" stroke="#880088" cx="253.6" cy="-3.6" rx="3.6" ry="3.6"/>
</g>
<!-- n1b&#45;&gt;n0h -->
<g id="edge39" class="edge">
<title>n1b&#45;&gt;n0h</title>
<path fill="none" stroke="black" d="M206.01,-43.81C214.44,-36.87 242.52,-13.73 251.09,-6.66"/>
</g>
<!-- n0i -->
<g id="node23" class="node">
<title>n0i</title>
<ellipse fill="#bb0000" stroke="#bb0000" cx="78.6" cy="-3.6" rx="3.6" ry="3.6"/>
</g>
<!-- n1c&#45;&gt;n0i -->
<g id="edge41" class="edge">
<title>n1c&#45;&gt;n0i</title>
<path fill="none" stroke="black" d="M78.6,-42.84C78.6,-35.16 78.6,-14.72 78.6,-7.32"/>
</g>
<!-- n0j -->
<g id="node24" class="node">
<title>n0j</title>
<ellipse fill="#bb0000" stroke="#bb0000" cx="3.6" cy="-3.6" rx="3.6" ry="3.6"/>
</g>
<!-- n1c&#45;&gt;n0j -->
<g id="edge43" class="edge">
<title>n1c&#45;&gt;n0j</title>
<path fill="none" stroke="black" d="M75.75,-44.24C63.87,-37.71 18.34,-12.7 6.45,-6.17"/>
</g>
<!-- n0k -->
<g id="node25" class="node">
<title>n0k</title>
<ellipse fill="#bb0000" stroke="#bb0000" cx="28.6" cy="-3.6" rx="3.6" ry="3.6"/>
</g>
<!-- n1c&#45;&gt;n0k -->
<g id="edge45" class="edge">
<title>n1c&#45;&gt;n0k</title>
<path fill="none" stroke="black" d="M76.19,-43.81C67.76,-36.87 39.68,-13.73 31.11,-6.66"/>
</g>
<!-- n0l -->
<g id="node26" class="node">
<title>n0l</title>
<ellipse fill="#bb0000" stroke="#bb0000" cx="53.6" cy="-3.6" rx="3.6" ry="3.6"/>
</g>
<!-- n1c&#45;&gt;n0l -->
<g id="edge47" class="edge">
<title>n1c&#45;&gt;n0l</title>
<path fill="none" stroke="black" d="M76.96,-43.1C72.35,-35.51 59.36,-14.09 55.02,-6.95"/>
</g>
<!-- n1d&#45;&gt;n0i -->
<g id="edge42" class="edge">
<title>n1d&#45;&gt;n0i</title>
<path fill="none" stroke="black" d="M55.24,-43.1C59.85,-35.51 72.84,-14.09 77.18,-6.95"/>
</g>
<!-- n1d&#45;&gt;n0j -->
<g id="edge44" class="edge">
<title>n1d&#45;&gt;n0j</title>
<path fill="none" stroke="black" d="M51.19,-43.81C42.76,-36.87 14.68,-13.73 6.11,-6.66"/>
</g>
<!-- n1d&#45;&gt;n0k -->
<g id="edge46" class="edge">
<title>n1d&#45;&gt;n0k</title>
<path fill="none" stroke="black" d="M51.96,-43.1C47.35,-35.51 34.36,-14.09 30.02,-6.95"/>
</g>
<!-- n1d&#45;&gt;n0l -->
<g id="edge48" class="edge">
<title>n1d&#45;&gt;n0l</title>
<path fill="none" stroke="black" d="M53.6,-42.84C53.6,-35.16 53.6,-14.72 53.6,-7.32"/>
</g>
<!-- n1e&#45;&gt;n0a -->
<g id="edge26" class="edge">
<title>n1e&#45;&gt;n0a</title>
<path fill="none" stroke="black" d="M178.6,-42.84C178.6,-35.16 178.6,-14.72 178.6,-7.32"/>
</g>
<!-- n1e&#45;&gt;n0b -->
<g id="edge28" class="edge">
<title>n1e&#45;&gt;n0b</title>
<path fill="none" stroke="black" d="M175.75,-44.24C163.87,-37.71 118.34,-12.7 106.45,-6.17"/>
</g>
<!-- n1e&#45;&gt;n0c -->
<g id="edge30" class="edge">
<title>n1e&#45;&gt;n0c</title>
<path fill="none" stroke="black" d="M176.19,-43.81C167.76,-36.87 139.68,-13.73 131.11,-6.66"/>
</g>
<!-- n1e&#45;&gt;n0d -->
<g id="edge32" class="edge">
<title>n1e&#45;&gt;n0d</title>
<path fill="none" stroke="black" d="M176.96,-43.1C172.35,-35.51 159.36,-14.09 155.02,-6.95"/>
</g>
<!-- n1f&#45;&gt;n0e -->
<g id="edge34" class="edge">
<title>n1f&#45;&gt;n0e</title>
<path fill="none" stroke="black" d="M231.01,-43.81C239.44,-36.87 267.52,-13.73 276.09,-6.66"/>
</g>
<!-- n1f&#45;&gt;n0f -->
<g id="edge36" class="edge">
<title>n1f&#45;&gt;n0f</title>
<path fill="none" stroke="black" d="M226.96,-43.1C222.35,-35.51 209.36,-14.09 205.02,-6.95"/>
</g>
<!-- n1f&#45;&gt;n0g -->
<g id="edge38" class="edge">
<title>n1f&#45;&gt;n0g</title>
<path fill="none" stroke="black" d="M228.6,-42.84C228.6,-35.16 228.6,-14.72 228.6,-7.32"/>
</g>
<!-- n1f&#45;&gt;n0h -->
<g id="edge40" class="edge">
<title>n1f&#45;&gt;n0h</title>
<path fill="none" stroke="black" d="M230.24,-43.1C234.85,-35.51 247.84,-14.09 252.18,-6.95"/>
</g>
<!-- n0m -->
<g id="node27" class="node">
<title>n0m</title>
<ellipse fill="black" stroke="black" cx="378.6" cy="-3.6" rx="3.6" ry="3.6"/>
</g>
<!-- n1g&#45;&gt;n0m -->
<g id="edge49" class="edge">
<title>n1g&#45;&gt;n0m</title>
<path fill="none" stroke="black" d="M331.01,-43.81C339.44,-36.87 367.52,-13.73 376.09,-6.66"/>
</g>
<!-- n0n -->
<g id="node28" class="node">
<title>n0n</title>
<ellipse fill="black" stroke="black" cx="303.6" cy="-3.6" rx="3.6" ry="3.6"/>
</g>
<!-- n1g&#45;&gt;n0n -->
<g id="edge51" class="edge">
<title>n1g&#45;&gt;n0n</title>
<path fill="none" stroke="black" d="M326.96,-43.1C322.35,-35.51 309.36,-14.09 305.02,-6.95"/>
</g>
<!-- n0o -->
<g id="node29" class="node">
<title>n0o</title>
<ellipse fill="black" stroke="black" cx="328.6" cy="-3.6" rx="3.6" ry="3.6"/>
</g>
<!-- n1g&#45;&gt;n0o -->
<g id="edge53" class="edge">
<title>n1g&#45;&gt;n0o</title>
<path fill="none" stroke="black" d="M328.6,-42.84C328.6,-35.16 328.6,-14.72 328.6,-7.32"/>
</g>
<!-- n0p -->
<g id="node30" class="node">
<title>n0p</title>
<ellipse fill="black" stroke="black" cx="353.6" cy="-3.6" rx="3.6" ry="3.6"/>
</g>
<!-- n1g&#45;&gt;n0p -->
<g id="edge55" class="edge">
<title>n1g&#45;&gt;n0p</title>
<path fill="none" stroke="black" d="M330.24,-43.1C334.85,-35.51 347.84,-14.09 352.18,-6.95"/>
</g>
<!-- n1h&#45;&gt;n0m -->
<g id="edge50" class="edge">
<title>n1h&#45;&gt;n0m</title>
<path fill="none" stroke="black" d="M306.45,-44.24C318.33,-37.71 363.86,-12.7 375.75,-6.17"/>
</g>
<!-- n1h&#45;&gt;n0n -->
<g id="edge52" class="edge">
<title>n1h&#45;&gt;n0n</title>
<path fill="none" stroke="black" d="M303.6,-42.84C303.6,-35.16 303.6,-14.72 303.6,-7.32"/>
</g>
<!-- n1h&#45;&gt;n0o -->
<g id="edge54" class="edge">
<title>n1h&#45;&gt;n0o</title>
<path fill="none" stroke="black" d="M305.24,-43.1C309.85,-35.51 322.84,-14.09 327.18,-6.95"/>
</g>
<!-- n1h&#45;&gt;n0p -->
<g id="edge56" class="edge">
<title>n1h&#45;&gt;n0p</title>
<path fill="none" stroke="black" d="M306.01,-43.81C314.44,-36.87 342.52,-13.73 351.09,-6.66"/>
</g>
</g>
</svg>
