<svg xmlns="http://www.w3.org/2000/svg" viewBox="0 40 200 100" font-size="6" style="width:32rem;">
<circle cx="10" cy="100" r="3" fill="blue"></circle> <circle cx="190" cy="100" r="3" fill="blue"></circle> <g fill="none" stroke="black"> <path d="M 10,100 190,100" stroke="blue"></path> <path d="M 10,110 S 40,100 70,120 100,125 130,125 160,130 190,100" stroke-width="0.5" stroke="#800"></path> <path d="m 100,100 -40,-40 -2,2 -2,-6 6,2 -2,2" stroke-width="0.5"></path> <path d="m 100,100 -0,30 30,0 -30,-30 m 30,0 0,30" stroke-width="0.5" stroke-dasharray="1 1"></path> </g> <text x="15" y="95" fill="blue">Polygon</text> <text x="50" y="137" fill="#800">Virtual displaced surface</text> <text x="45" y="53">to eye</text> <circle cx="100" cy="100" r="2"></circle> <text x="98" y="107" text-anchor="end">Fragment</text> <circle cx="130" cy="100" r="2" fill="green"></circle> <text x="132" y="107" text-anchor="start" fill="green">Used u’,v’</text>
</svg>
