<?xml version="1.0" encoding="UTF-8" standalone="no"?>
<!-- Created with Inkscape (http://www.inkscape.org/) -->

<svg
   width="195mm"
   height="115mm"
   viewBox="0 0 195 115"
   version="1.1"
   id="svg5"
   xmlns="http://www.w3.org/2000/svg"
   xmlns:svg="http://www.w3.org/2000/svg">
  <defs
     id="defs2" />
  <g
     id="layer1">
    <path
       id="path1707-3-6-7-5"
       style="stroke:#000000;stroke-opacity:1"
       d="m 190.5427,90.458333 h -53.975 l -5.29167,5.29167 H 120.6927 l -5.29167,-5.29167 H 76.242709 l -5.291667,5.29167 H 60.367709 l -5.291667,-5.29167 H 5.3343757 L 190.5427,74.583333 h -62.44166 l -5.29167,5.29167 h -10.58333 l -5.29167,-5.29167 H 76.242706 l -5.291667,5.29167 H 60.367706 l -5.291667,-5.29167 H 5.3343727 L 190.5427,58.708337 h -73.55417 l -5.29166,5.291666 H 60.3677 L 55.076033,58.708337 H 5.3343667 L 190.5427,42.833336 h -60.325 l -5.29167,5.291666 H 114.3427 l -5.29167,-5.291666 H 76.242703 l -5.291667,5.291666 H 60.367703 L 55.076036,42.833336 H 5.3343697 L 190.5427,26.958336 h -58.20833 l -5.29167,5.291666 h -10.58333 l -5.29167,-5.291666 h -34.925 l -5.291667,5.291666 H 60.3677 L 55.076033,26.958336 H 5.3343667 L 190.5427,11.083336 H 121.75103 L 116.45937,5.791669 H 60.3677 l -5.291667,5.291667 H 5.3343667 55.076033 l 5.291667,5.291666 h 56.09167 l 5.29166,-5.291666 H 190.5427 L 5.3343667,26.958336 H 55.076033 L 60.3677,21.666669 h 10.583333 l 5.291667,5.291667 h 34.925 l 5.29167,-5.291667 h 10.58333 l 5.29167,5.291667 H 190.5427 L 5.3343697,42.833336 H 55.076036 l 5.291667,-5.291667 h 10.583333 l 5.291667,5.291667 h 32.808327 l 5.29167,-5.291667 h 10.58333 l 5.29167,5.291667 h 60.325 L 5.3343667,58.708337 H 55.076033 L 60.3677,53.41667 h 51.32917 l 5.29166,5.291667 H 190.5427 L 5.3343727,74.583333 H 55.076039 l 5.291667,-5.29166 h 10.583333 l 5.291667,5.29166 h 30.691664 l 5.29167,-5.29166 h 10.58333 l 5.29167,5.29166 H 190.5427 L 5.3343757,90.458333 H 55.076042 l 5.291667,-5.29166 h 10.583333 l 5.291667,5.29166 h 39.158321 l 5.29167,-5.29166 h 10.58333 l 5.29167,5.29166 h 53.975 L 5.3343787,106.33333 H 55.076045 l 5.291667,-5.29166 h 10.583333 l 5.291667,5.29166 h 47.095818 l 5.29167,-5.29166 h 10.58333 l 5.29167,5.29166 h 46.0375 -46.0375 l -5.29167,5.29167 H 128.6302 l -5.29167,-5.29167 H 76.242712 L 70.951045,111.625 H 60.367712 l -5.291667,-5.29167 H 5.3343787 Z" />
  </g>
</svg>
