<svg xmlns="http://www.w3.org/2000/svg" viewBox="0 0 390 270"> <path fill="#56d3c2" stroke="#000" stroke-width="0.5" d="M 7.11,13.04 2.07,7.78 15.04,5.71 Z M 4.96,24.60 7.11,13.04 22.42,35.68 Z M 25.31,5.99 22.42,35.68 7.11,13.04 Z M 27.38,57.53 22.42,35.68 53.03,34.82 Z M 25.31,5.99 7.11,13.04 15.04,5.71 Z M 4.96,24.60 22.42,35.68 6.21,37.31 Z M 7.69,54.46 1.75,41.23 6.21,37.31 Z M 7.10,61.02 7.69,54.46 27.38,57.53 Z M 7.69,54.46 6.21,37.31 22.42,35.68 Z M 4.56,76.77 7.10,61.02 21.13,81.12 Z M 22.42,35.68 27.38,57.53 7.69,54.46 Z M 27.38,57.53 21.13,81.12 7.10,61.02 Z M 22.42,35.68 25.31,5.99 32.79,6.19 Z M 73.84,2.11 64.95,37.90 65.41,1.57 Z M 82.32,6.84 94.07,3.27 104.94,6.97 Z M 64.95,37.90 82.32,6.84 116.65,37.75 Z M 82.32,6.84 64.95,37.90 73.84,2.11 Z M 43.72,63.33 36.95,74.33 27.38,57.53 Z M 44.88,8.88 53.03,34.82 22.42,35.68 Z M 53.03,34.82 43.72,63.33 27.38,57.53 Z M 48.63,88.10 36.95,74.33 43.72,63.33 Z M 51.82,8.29 64.95,37.90 53.03,34.82 Z M 64.95,37.90 51.82,8.29 65.41,1.57 Z M 53.03,34.82 64.95,37.90 43.72,63.33 Z M 51.82,8.29 53.03,34.82 44.88,8.88 Z M 64.95,37.90 67.21,78.88 43.72,63.33 Z M 67.21,78.88 64.95,37.90 107.77,57.14 Z M 32.79,6.19 44.88,8.88 22.42,35.68 Z M 21.13,81.12 27.38,57.53 36.95,74.33 Z M 2.83,88.56 4.56,76.77 8.21,91.24 Z M 1.20,105.33 8.21,91.24 21.88,106.00 Z M 27.04,93.00 21.88,106.00 8.21,91.24 Z M 21.13,81.12 36.95,74.33 27.04,93.00 Z M 35.56,112.37 21.88,106.00 41.83,101.31 Z M 27.04,93.00 8.21,91.24 21.13,81.12 Z M 4.56,76.77 21.13,81.12 8.21,91.24 Z M 1.20,105.33 21.88,106.00 8.51,114.05 Z M 17.16,135.32 1.23,132.77 2.73,124.38 Z M 17.16,135.32 2.73,124.38 8.51,114.05 Z M 8.51,114.05 22.35,133.18 17.16,135.32 Z M 8.51,114.05 21.88,106.00 22.35,133.18 Z M 22.35,133.18 35.56,112.37 36.63,135.07 Z M 21.88,106.00 35.56,112.37 22.35,133.18 Z M 21.88,106.00 27.04,93.00 41.83,101.31 Z M 68.15,112.13 41.83,101.31 48.63,88.10 Z M 48.63,88.10 41.83,101.31 27.04,93.00 Z M 27.04,93.00 36.95,74.33 48.63,88.10 Z M 68.15,112.13 48.63,88.10 67.21,78.88 Z M 71.39,131.57 68.15,112.13 85.81,134.27 Z M 107.66,104.88 94.02,132.63 68.15,112.13 Z M 85.81,134.27 68.15,112.13 94.02,132.63 Z M 56.51,136.29 35.56,112.37 68.15,112.13 Z M 94.02,132.63 115.21,122.11 104.38,133.84 Z M 56.51,136.29 68.15,112.13 71.39,131.57 Z M 43.73,135.92 36.63,135.07 35.56,112.37 Z M 56.51,136.29 43.73,135.92 35.56,112.37 Z M 63.53,138.22 56.51,136.29 71.39,131.57 Z M 67.21,78.88 105.35,92.22 68.15,112.13 Z M 35.56,112.37 41.83,101.31 68.15,112.13 Z M 43.72,63.33 67.21,78.88 48.63,88.10 Z M 104.94,6.97 116.65,37.75 82.32,6.84 Z M 124.96,4.02 127.56,24.70 112.38,7.32 Z M 135.72,3.80 127.56,24.70 124.96,4.02 Z M 146.22,24.59 147.27,8.65 154.22,4.72 Z M 147.27,8.65 146.22,24.59 135.72,3.80 Z M 147.68,46.61 146.22,24.59 156.50,35.50 Z M 146.22,24.59 127.56,24.70 135.72,3.80 Z M 147.68,46.61 107.77,57.14 116.65,37.75 Z M 107.77,57.14 64.95,37.90 116.65,37.75 Z M 127.56,24.70 116.65,37.75 112.38,7.32 Z M 147.68,46.61 116.65,37.75 127.56,24.70 Z M 142.26,73.96 147.68,46.61 155.37,73.13 Z M 147.68,46.61 142.26,73.96 107.77,57.14 Z M 156.50,35.50 155.37,73.13 147.68,46.61 Z M 133.01,88.81 142.26,73.96 155.37,73.13 Z M 127.56,24.70 146.22,24.59 147.68,46.61 Z M 107.77,57.14 142.26,73.96 116.01,82.33 Z M 167.81,4.67 146.22,24.59 154.22,4.72 Z M 116.65,37.75 104.94,6.97 112.38,7.32 Z M 167.81,4.67 175.72,3.30 184.09,8.24 Z M 156.50,35.50 167.81,4.67 184.09,8.24 Z M 197.50,8.13 193.52,14.95 184.09,8.24 Z M 193.52,14.95 193.64,22.02 184.09,8.24 Z M 192.12,33.05 184.09,8.24 193.64,22.02 Z M 156.50,35.50 192.12,33.05 191.70,45.31 Z M 192.12,33.05 156.50,35.50 184.09,8.24 Z M 191.70,45.31 196.48,62.81 155.37,73.13 Z M 155.37,73.13 196.48,62.81 178.73,82.83 Z M 196.48,62.81 191.70,45.31 196.62,55.50 Z M 155.37,73.13 156.50,35.50 191.70,45.31 Z M 167.81,4.67 156.50,35.50 146.22,24.59 Z M 192.60,75.54 178.73,82.83 196.48,62.81 Z M 107.66,104.88 118.78,94.55 115.21,122.11 Z M 118.78,94.55 107.66,104.88 105.35,92.22 Z M 115.21,122.11 112.10,136.73 104.38,133.84 Z M 115.21,122.11 94.02,132.63 107.66,104.88 Z M 116.01,82.33 133.01,88.81 118.78,94.55 Z M 116.01,82.33 142.26,73.96 133.01,88.81 Z M 115.21,122.11 118.78,94.55 137.50,124.75 Z M 116.01,82.33 118.78,94.55 105.35,92.22 Z M 105.35,92.22 107.77,57.14 116.01,82.33 Z M 137.50,124.75 118.78,94.55 133.01,88.81 Z M 112.10,136.73 115.21,122.11 122.16,136.32 Z M 133.96,138.88 122.16,136.32 137.50,124.75 Z M 137.50,124.75 151.17,133.94 143.60,136.99 Z M 174.19,116.79 151.17,133.94 137.50,124.75 Z M 137.50,124.75 143.60,136.99 133.96,138.88 Z M 115.21,122.11 137.50,124.75 122.16,136.32 Z M 137.50,124.75 133.01,88.81 174.19,116.79 Z M 107.66,104.88 68.15,112.13 105.35,92.22 Z M 191.03,91.16 193.44,105.92 174.19,116.79 Z M 178.73,82.83 192.60,75.54 191.03,91.16 Z M 191.03,91.16 174.19,116.79 178.73,82.83 Z M 174.19,116.79 193.44,105.92 191.68,112.80 Z M 191.03,91.16 202.72,94.48 193.44,105.92 Z M 192.60,75.54 198.07,84.38 191.03,91.16 Z M 162.30,136.09 174.19,116.79 175.90,138.97 Z M 162.30,136.09 151.17,133.94 174.19,116.79 Z M 175.90,138.97 174.19,116.79 183.20,136.65 Z M 183.20,136.65 196.45,128.88 193.73,135.81 Z M 196.45,128.88 183.20,136.65 174.19,116.79 Z M 174.19,116.79 191.68,112.80 196.45,128.88 Z M 133.01,88.81 155.37,73.13 174.19,116.79 Z M 178.73,82.83 174.19,116.79 155.37,73.13 Z M 107.77,57.14 105.35,92.22 67.21,78.88 Z"/>
 <path fill="#b9e64f" stroke="#000" stroke-width="0.5" d="M 4.50,144.97 1.23,132.77 17.16,135.32 Z M 23.58,154.79 17.16,135.32 22.35,133.18 Z M 4.50,144.97 17.16,135.32 23.58,154.79 Z M 36.63,135.07 23.58,154.79 22.35,133.18 Z M 3.32,171.17 2.75,164.68 24.37,172.50 Z M 23.58,154.79 2.75,164.68 2.86,152.85 Z M 3.32,171.17 24.37,172.50 7.70,185.45 Z M 24.37,172.50 2.75,164.68 23.58,154.79 Z M 41.65,163.13 24.37,172.50 23.58,154.79 Z M 43.22,197.30 7.70,185.45 24.37,172.50 Z M 2.86,152.85 4.50,144.97 23.58,154.79 Z M 23.58,154.79 36.63,135.07 41.65,163.13 Z M 41.65,163.13 43.73,135.92 56.51,136.29 Z M 41.65,163.13 56.51,136.29 63.53,138.22 Z M 75.09,148.02 85.81,134.27 95.79,158.05 Z M 63.53,138.22 71.39,131.57 75.09,148.02 Z M 75.09,148.02 71.39,131.57 85.81,134.27 Z M 48.40,184.66 64.46,172.26 63.02,191.52 Z M 64.46,172.26 48.40,184.66 41.65,163.13 Z M 43.22,197.30 24.37,172.50 48.40,184.66 Z M 41.65,163.13 48.40,184.66 24.37,172.50 Z M 64.46,172.26 75.09,148.02 76.54,177.79 Z M 64.46,172.26 41.65,163.13 63.53,138.22 Z M 95.79,158.05 76.54,177.79 75.09,148.02 Z M 64.46,172.26 76.54,177.79 63.02,191.52 Z M 63.53,138.22 75.09,148.02 64.46,172.26 Z M 63.02,191.52 76.54,177.79 93.88,221.03 Z M 76.54,177.79 112.49,191.44 93.88,221.03 Z M 43.73,135.92 41.65,163.13 36.63,135.07 Z M 43.22,197.30 48.40,184.66 63.02,191.52 Z M 6.77,226.69 1.97,213.66 8.94,207.88 Z M 6.77,226.69 32.61,213.62 8.49,234.38 Z M 32.61,213.62 6.77,226.69 8.94,207.88 Z M 32.61,213.62 8.94,207.88 6.14,192.49 Z M 8.49,234.38 32.61,213.62 26.43,245.36 Z M 6.14,192.49 43.22,197.30 32.61,213.62 Z M 8.06,267.77 3.43,255.70 13.85,263.77 Z M 13.85,263.77 3.43,255.70 7.64,246.36 Z M 13.85,263.77 26.43,245.36 27.38,265.13 Z M 26.43,245.36 13.85,263.77 7.64,246.36 Z M 38.06,266.50 27.38,265.13 26.43,245.36 Z M 7.64,246.36 8.49,234.38 26.43,245.36 Z M 26.43,245.36 32.61,213.62 53.53,217.78 Z M 53.53,217.78 65.39,215.33 64.17,233.71 Z M 53.53,217.78 43.22,197.30 63.02,191.52 Z M 64.17,233.71 52.95,261.58 26.43,245.36 Z M 26.43,245.36 53.53,217.78 64.17,233.71 Z M 65.39,215.33 93.88,221.03 77.06,241.42 Z M 53.53,217.78 63.02,191.52 65.39,215.33 Z M 87.15,265.56 77.06,241.42 94.24,247.89 Z M 65.39,215.33 77.06,241.42 64.17,233.71 Z M 63.02,191.52 93.88,221.03 65.39,215.33 Z M 64.17,233.71 77.06,241.42 65.56,261.50 Z M 38.06,266.50 52.95,261.58 42.93,266.95 Z M 38.06,266.50 26.43,245.36 52.95,261.58 Z M 77.06,241.42 73.78,265.12 65.56,261.50 Z M 73.78,265.12 77.06,241.42 87.15,265.56 Z M 52.95,261.58 64.17,233.71 65.56,261.50 Z M 77.06,241.42 93.88,221.03 94.11,234.41 Z M 53.53,217.78 32.61,213.62 43.22,197.30 Z M 6.14,192.49 7.70,185.45 43.22,197.30 Z M 94.02,132.63 95.79,158.05 85.81,134.27 Z M 122.04,154.70 112.10,136.73 122.16,136.32 Z M 104.38,133.84 112.10,136.73 95.79,158.05 Z M 155.78,167.92 143.60,136.99 151.17,133.94 Z M 155.78,167.92 151.17,133.94 162.30,136.09 Z M 95.79,158.05 122.04,154.70 112.49,191.44 Z M 95.79,158.05 112.10,136.73 122.04,154.70 Z M 112.49,191.44 122.04,154.70 155.78,167.92 Z M 113.74,247.70 93.88,221.03 112.49,191.44 Z M 155.78,167.92 156.40,185.36 112.49,191.44 Z M 155.78,167.92 133.96,138.88 143.60,136.99 Z M 176.37,181.95 156.40,185.36 155.78,167.92 Z M 155.78,167.92 122.04,154.70 133.96,138.88 Z M 122.16,136.32 133.96,138.88 122.04,154.70 Z M 163.98,216.99 112.49,191.44 156.40,185.36 Z M 155.78,167.92 162.30,136.09 178.76,161.83 Z M 104.38,133.84 95.79,158.05 94.02,132.63 Z M 178.76,161.83 175.90,138.97 193.64,152.12 Z M 193.64,152.12 175.90,138.97 183.20,136.65 Z M 178.76,161.83 176.37,181.95 155.78,167.92 Z M 183.20,136.65 195.15,141.18 193.64,152.12 Z M 195.15,141.18 183.20,136.65 193.73,135.81 Z M 178.76,161.83 193.64,152.12 193.01,167.16 Z M 176.37,181.95 191.62,186.80 191.83,193.54 Z M 191.62,186.80 176.37,181.95 196.45,171.33 Z M 174.84,207.35 176.37,181.95 191.83,193.54 Z M 196.45,171.33 176.37,181.95 193.01,167.16 Z M 176.37,181.95 178.76,161.83 193.01,167.16 Z M 156.40,185.36 176.37,181.95 174.84,207.35 Z M 178.76,161.83 162.30,136.09 175.90,138.97 Z M 191.83,193.54 193.15,201.40 174.84,207.35 Z M 94.11,234.41 113.74,247.70 94.24,247.89 Z M 126.13,252.94 113.74,247.70 163.98,216.99 Z M 102.86,265.49 94.24,247.89 113.74,247.70 Z M 94.11,234.41 94.24,247.89 77.06,241.42 Z M 126.13,252.94 155.68,261.32 133.64,263.71 Z M 163.98,216.99 155.68,261.32 126.13,252.94 Z M 133.64,263.71 155.68,261.32 148.54,266.15 Z M 113.74,247.70 126.13,252.94 111.76,264.20 Z M 94.11,234.41 93.88,221.03 113.74,247.70 Z M 133.64,263.71 121.48,268.48 126.13,252.94 Z M 102.86,265.49 98.18,266.99 94.24,247.89 Z M 111.76,264.20 102.86,265.49 113.74,247.70 Z M 121.48,268.48 111.76,264.20 126.13,252.94 Z M 155.68,261.32 177.83,261.85 163.08,267.86 Z M 94.24,247.89 98.18,266.99 87.15,265.56 Z M 163.98,216.99 174.84,207.35 176.41,221.70 Z M 113.74,247.70 112.49,191.44 163.98,216.99 Z M 176.41,221.70 174.84,207.35 191.25,212.11 Z M 182.45,238.04 163.98,216.99 176.41,221.70 Z M 176.41,221.70 194.19,228.47 182.45,238.04 Z M 191.25,212.11 194.19,228.47 176.41,221.70 Z M 174.84,207.35 193.15,201.40 191.25,212.11 Z M 196.11,232.94 182.45,238.04 194.19,228.47 Z M 186.52,266.16 177.83,261.85 195.12,253.57 Z M 177.83,261.85 155.68,261.32 182.45,238.04 Z M 195.12,253.57 177.83,261.85 182.45,238.04 Z M 196.44,243.19 195.12,253.57 182.45,238.04 Z M 195.12,253.57 198.59,263.82 186.52,266.16 Z M 182.45,238.04 196.11,232.94 196.44,243.19 Z M 182.45,238.04 155.68,261.32 163.98,216.99 Z M 156.40,185.36 174.84,207.35 163.98,216.99 Z M 112.49,191.44 76.54,177.79 95.79,158.05 Z"/>
 <path fill="#b892c5" stroke="#000" stroke-width="0.5" d="M 193.64,22.02 193.52,14.95 207.43,6.13 Z M 207.43,6.13 193.52,14.95 197.50,8.13 Z M 226.38,18.13 206.43,35.97 207.43,6.13 Z M 193.64,22.02 207.43,6.13 206.43,35.97 Z M 217.40,5.83 226.38,18.13 207.43,6.13 Z M 206.43,35.97 191.70,45.31 192.12,33.05 Z M 208.19,66.06 196.62,55.50 226.68,48.80 Z M 206.43,35.97 196.62,55.50 191.70,45.31 Z M 206.43,35.97 226.68,48.80 196.62,55.50 Z M 196.62,55.50 208.19,66.06 196.48,62.81 Z M 192.12,33.05 193.64,22.02 206.43,35.97 Z M 196.48,62.81 208.19,66.06 192.60,75.54 Z M 226.38,18.13 217.40,5.83 225.15,1.45 Z M 237.43,8.86 243.79,23.23 226.38,18.13 Z M 237.43,8.86 226.38,18.13 225.15,1.45 Z M 253.52,7.50 237.43,8.86 246.85,3.69 Z M 263.88,28.02 253.52,7.50 262.52,5.08 Z M 243.79,23.23 237.43,8.86 253.52,7.50 Z M 275.66,4.88 263.88,28.02 262.52,5.08 Z M 226.68,48.80 243.79,23.23 252.66,45.06 Z M 243.79,23.23 226.68,48.80 226.38,18.13 Z M 252.66,45.06 243.79,23.23 263.88,28.02 Z M 234.42,67.36 226.68,48.80 252.66,45.06 Z M 252.66,45.06 281.92,52.04 262.41,62.18 Z M 281.92,52.04 252.66,45.06 263.88,28.02 Z M 283.52,7.00 281.92,52.04 263.88,28.02 Z M 297.86,74.60 253.04,91.03 262.41,62.18 Z M 243.79,23.23 253.52,7.50 263.88,28.02 Z M 208.19,66.06 226.68,48.80 234.42,67.36 Z M 263.88,28.02 275.66,4.88 283.52,7.00 Z M 226.38,18.13 226.68,48.80 206.43,35.97 Z M 262.41,62.18 234.42,67.36 252.66,45.06 Z M 198.07,84.38 221.80,83.68 202.72,94.48 Z M 198.07,84.38 192.60,75.54 208.19,66.06 Z M 224.77,114.94 191.68,112.80 193.44,105.92 Z M 198.07,84.38 202.72,94.48 191.03,91.16 Z M 221.80,83.68 198.07,84.38 208.19,66.06 Z M 202.72,94.48 224.77,114.94 193.44,105.92 Z M 224.77,114.94 201.83,133.99 196.45,128.88 Z M 193.73,135.81 196.45,128.88 201.83,133.99 Z M 201.83,133.99 222.55,134.52 213.17,138.87 Z M 224.77,114.94 222.55,134.52 201.83,133.99 Z M 224.77,114.94 196.45,128.88 191.68,112.80 Z M 202.72,94.48 221.80,83.68 224.77,114.94 Z M 221.80,83.68 236.60,86.52 224.77,114.94 Z M 236.60,86.52 221.80,83.68 234.42,67.36 Z M 236.60,86.52 234.42,67.36 253.04,91.03 Z M 224.77,114.94 236.60,86.52 247.29,111.46 Z M 247.29,111.46 253.04,91.03 264.17,108.94 Z M 253.04,91.03 247.29,111.46 236.60,86.52 Z M 296.41,95.20 264.17,108.94 253.04,91.03 Z M 224.77,114.94 247.29,111.46 246.97,124.06 Z M 234.42,67.36 262.41,62.18 253.04,91.03 Z M 246.97,124.06 247.29,111.46 264.17,108.94 Z M 236.13,134.83 246.97,124.06 246.46,135.73 Z M 246.97,124.06 236.13,134.83 224.77,114.94 Z M 246.46,135.73 246.97,124.06 253.14,136.11 Z M 268.25,134.77 253.14,136.11 246.97,124.06 Z M 268.25,134.77 246.97,124.06 264.17,108.94 Z M 264.17,108.94 275.40,135.59 268.25,134.77 Z M 275.40,135.59 264.17,108.94 283.03,135.42 Z M 224.77,114.94 236.13,134.83 222.55,134.52 Z M 208.19,66.06 234.42,67.36 221.80,83.68 Z M 297.86,74.60 262.41,62.18 281.92,52.04 Z M 283.52,7.00 296.66,3.75 302.03,6.53 Z M 335.40,28.09 281.92,52.04 302.03,6.53 Z M 332.37,7.85 318.92,3.12 321.95,2.62 Z M 302.03,6.53 318.92,3.12 335.40,28.09 Z M 335.40,28.09 323.01,62.56 281.92,52.04 Z M 335.40,28.09 318.92,3.12 332.37,7.85 Z M 332.37,7.85 345.65,4.80 335.40,28.09 Z M 323.01,62.56 335.40,28.09 342.31,53.90 Z M 335.40,28.09 353.85,46.23 342.31,53.90 Z M 358.42,32.74 353.85,46.23 335.40,28.09 Z M 358.42,32.74 335.40,28.09 354.90,8.61 Z M 368.90,68.95 342.31,53.90 353.85,46.23 Z M 345.65,4.80 354.90,8.61 335.40,28.09 Z M 323.80,74.63 323.01,62.56 342.31,53.90 Z M 281.92,52.04 323.01,62.56 297.86,74.60 Z M 375.78,32.44 367.66,8.63 384.67,15.30 Z M 384.67,15.30 367.66,8.63 378.80,4.60 Z M 367.66,8.63 375.78,32.44 358.42,32.74 Z M 384.91,4.57 384.67,15.30 378.80,4.60 Z M 384.67,15.30 385.29,23.53 375.78,32.44 Z M 375.78,32.44 385.29,23.53 387.59,38.61 Z M 375.78,32.44 385.47,46.08 368.01,41.48 Z M 368.01,41.48 358.42,32.74 375.78,32.44 Z M 368.01,41.48 385.47,46.08 386.79,53.56 Z M 353.85,46.23 368.01,41.48 368.90,68.95 Z M 368.90,68.95 368.01,41.48 386.79,53.56 Z M 387.59,38.61 385.47,46.08 375.78,32.44 Z M 368.01,41.48 353.85,46.23 358.42,32.74 Z M 367.66,8.63 358.42,32.74 354.90,8.61 Z M 368.90,68.95 386.79,53.56 385.74,64.70 Z M 296.41,95.20 297.86,74.60 313.66,91.15 Z M 291.37,134.66 264.17,108.94 296.41,95.20 Z M 313.66,91.15 297.86,74.60 323.80,74.63 Z M 312.87,132.69 296.41,95.20 313.66,91.15 Z M 312.87,132.69 313.66,91.15 325.92,97.92 Z M 343.53,134.84 325.92,97.92 346.15,92.57 Z M 325.84,131.91 325.92,97.92 331.26,133.17 Z M 325.92,97.92 313.66,91.15 323.80,74.63 Z M 323.01,62.56 323.80,74.63 297.86,74.60 Z M 312.87,132.69 325.92,97.92 325.84,131.91 Z M 264.17,108.94 291.37,134.66 283.03,135.42 Z M 302.22,138.92 291.37,134.66 312.87,132.69 Z M 343.53,134.84 331.26,133.17 325.92,97.92 Z M 296.41,95.20 312.87,132.69 291.37,134.66 Z M 325.92,97.92 323.80,74.63 346.15,92.57 Z M 253.04,91.03 297.86,74.60 296.41,95.20 Z M 346.15,92.57 368.90,68.95 382.93,92.60 Z M 346.15,92.57 323.80,74.63 342.31,53.90 Z M 382.93,92.60 368.90,68.95 385.29,82.75 Z M 346.15,92.57 382.93,92.60 385.76,102.96 Z M 385.29,82.75 368.90,68.95 384.88,74.15 Z M 368.90,68.95 385.74,64.70 384.88,74.15 Z M 346.15,92.57 385.76,102.96 362.36,135.92 Z M 352.98,136.93 346.15,92.57 362.36,135.92 Z M 378.10,136.93 362.36,135.92 387.08,123.63 Z M 387.25,118.24 387.08,123.63 362.36,135.92 Z M 387.08,123.63 388.54,133.75 378.10,136.93 Z M 385.76,102.96 387.25,118.24 362.36,135.92 Z M 346.15,92.57 352.98,136.93 343.53,134.84 Z M 368.90,68.95 346.15,92.57 342.31,53.90 Z M 281.92,52.04 283.52,7.00 302.03,6.53 Z"/>
 <path fill="#68fef9" stroke="#000" stroke-width="0.5" d="M 195.15,141.18 193.73,135.81 201.83,133.99 Z M 193.64,152.12 195.15,141.18 205.36,157.75 Z M 213.17,138.87 205.36,157.75 195.15,141.18 Z M 205.36,157.75 213.17,138.87 221.87,171.21 Z M 213.17,138.87 195.15,141.18 201.83,133.99 Z M 193.64,152.12 205.36,157.75 193.01,167.16 Z M 213.51,208.04 191.83,193.54 191.62,186.80 Z M 193.15,201.40 191.83,193.54 213.51,208.04 Z M 221.87,171.21 191.62,186.80 196.45,171.33 Z M 196.45,171.33 193.01,167.16 205.36,157.75 Z M 191.62,186.80 221.87,171.21 213.51,208.04 Z M 205.36,157.75 221.87,171.21 196.45,171.33 Z M 213.17,138.87 222.55,134.52 221.87,171.21 Z M 244.05,163.29 222.55,134.52 236.13,134.83 Z M 244.05,163.29 236.13,134.83 246.46,135.73 Z M 275.40,135.59 283.03,135.42 273.14,161.67 Z M 273.14,161.67 268.25,134.77 275.40,135.59 Z M 246.29,178.89 244.05,163.29 255.02,157.84 Z M 255.02,157.84 246.46,135.73 253.14,136.11 Z M 244.05,163.29 246.46,135.73 255.02,157.84 Z M 246.29,178.89 221.87,171.21 244.05,163.29 Z M 255.02,157.84 273.14,161.67 273.26,176.81 Z M 255.02,157.84 253.14,136.11 268.25,134.77 Z M 313.65,164.25 273.26,176.81 273.14,161.67 Z M 255.02,157.84 273.26,176.81 246.29,178.89 Z M 268.25,134.77 273.14,161.67 255.02,157.84 Z M 213.51,208.04 221.87,171.21 246.29,178.89 Z M 277.99,218.81 273.26,176.81 318.25,201.78 Z M 244.05,163.29 221.87,171.21 222.55,134.52 Z M 267.30,207.21 246.29,178.89 273.26,176.81 Z M 194.19,228.47 222.24,218.78 196.11,232.94 Z M 213.51,208.04 194.19,228.47 191.25,212.11 Z M 196.11,232.94 222.24,218.78 196.44,243.19 Z M 222.24,218.78 194.19,228.47 213.51,208.04 Z M 213.51,208.04 246.29,178.89 222.24,218.78 Z M 196.44,243.19 222.24,218.78 224.13,261.04 Z M 191.25,212.11 193.15,201.40 213.51,208.04 Z M 195.12,253.57 203.16,266.34 198.59,263.82 Z M 203.16,266.34 195.12,253.57 216.59,266.08 Z M 216.59,266.08 195.12,253.57 196.44,243.19 Z M 243.32,237.48 237.24,265.98 224.13,261.04 Z M 196.44,243.19 224.13,261.04 216.59,266.08 Z M 224.13,261.04 222.24,218.78 243.32,237.48 Z M 222.24,218.78 252.71,217.58 242.67,224.71 Z M 246.29,178.89 252.71,217.58 222.24,218.78 Z M 252.71,217.58 267.30,207.21 267.33,225.61 Z M 243.32,237.48 242.67,224.71 252.71,217.58 Z M 267.33,225.61 277.99,218.81 291.12,223.71 Z M 277.99,218.81 267.33,225.61 267.30,207.21 Z M 277.99,218.81 267.30,207.21 273.26,176.81 Z M 276.98,261.23 267.33,225.61 295.71,237.30 Z M 277.99,218.81 318.25,201.78 291.12,223.71 Z M 243.32,237.48 252.71,217.58 267.33,225.61 Z M 241.47,267.63 243.32,237.48 258.65,265.76 Z M 241.47,267.63 237.24,265.98 243.32,237.48 Z M 243.32,237.48 267.33,225.61 258.65,265.76 Z M 258.65,265.76 267.33,225.61 265.41,266.10 Z M 265.41,266.10 267.33,225.61 276.98,261.23 Z M 276.98,261.23 295.71,237.30 288.62,264.46 Z M 295.71,237.30 267.33,225.61 291.12,223.71 Z M 243.32,237.48 222.24,218.78 242.67,224.71 Z M 246.29,178.89 267.30,207.21 252.71,217.58 Z M 291.37,134.66 273.14,161.67 283.03,135.42 Z M 313.65,164.25 302.22,138.92 312.87,132.69 Z M 302.22,138.92 313.65,164.25 273.14,161.67 Z M 332.68,152.98 325.84,131.91 331.26,133.17 Z M 332.68,152.98 312.87,132.69 325.84,131.91 Z M 332.68,152.98 331.26,133.17 343.53,134.84 Z M 318.25,201.78 313.65,164.25 336.58,191.05 Z M 332.68,152.98 313.65,164.25 312.87,132.69 Z M 342.08,161.55 313.65,164.25 332.68,152.98 Z M 318.25,201.78 273.26,176.81 313.65,164.25 Z M 336.58,191.05 342.08,161.55 351.11,185.42 Z M 342.08,161.55 336.58,191.05 313.65,164.25 Z M 375.89,162.80 351.11,185.42 342.08,161.55 Z M 344.32,211.57 318.25,201.78 336.58,191.05 Z M 342.08,161.55 332.68,152.98 352.98,136.93 Z M 355.50,196.94 336.58,191.05 351.11,185.42 Z M 352.98,136.93 332.68,152.98 343.53,134.84 Z M 322.34,215.53 291.12,223.71 318.25,201.78 Z M 362.36,135.92 375.89,162.80 352.98,136.93 Z M 383.89,145.76 362.36,135.92 378.10,136.93 Z M 388.54,133.75 383.89,145.76 378.10,136.93 Z M 362.36,135.92 383.89,145.76 375.89,162.80 Z M 386.29,154.27 375.89,162.80 383.89,145.76 Z M 383.31,172.80 384.18,186.59 351.11,185.42 Z M 351.11,185.42 375.89,162.80 383.31,172.80 Z M 383.31,172.80 375.89,162.80 387.29,167.83 Z M 351.11,185.42 384.18,186.59 355.50,196.94 Z M 384.18,186.59 386.36,192.41 355.50,196.94 Z M 375.89,162.80 386.29,154.27 387.29,167.83 Z M 355.50,196.94 386.36,192.41 384.11,208.21 Z M 375.89,162.80 342.08,161.55 352.98,136.93 Z M 344.32,211.57 336.58,191.05 355.50,196.94 Z M 295.71,237.30 312.20,231.34 313.29,243.75 Z M 291.12,223.71 312.20,231.34 295.71,237.30 Z M 313.29,243.75 312.20,231.34 333.49,235.09 Z M 295.71,237.30 313.29,243.75 298.91,266.16 Z M 333.49,235.09 356.50,236.30 342.44,243.62 Z M 344.32,211.57 333.49,235.09 322.34,215.53 Z M 333.49,235.09 342.44,243.62 313.29,243.75 Z M 322.34,215.53 333.49,235.09 312.20,231.34 Z M 322.34,215.53 312.20,231.34 291.12,223.71 Z M 313.29,243.75 342.44,243.62 322.88,266.16 Z M 313.29,243.75 306.98,267.00 298.91,266.16 Z M 313.29,243.75 317.35,266.32 306.98,267.00 Z M 342.44,243.62 334.46,267.97 322.88,266.16 Z M 322.88,266.16 317.35,266.32 313.29,243.75 Z M 334.46,267.97 342.44,243.62 343.02,263.45 Z M 342.44,243.62 352.29,264.54 343.02,263.45 Z M 295.71,237.30 298.91,266.16 288.62,264.46 Z M 356.50,236.30 384.11,208.21 382.78,231.53 Z M 384.11,208.21 356.50,236.30 344.32,211.57 Z M 356.50,236.30 382.78,231.53 385.89,244.08 Z M 361.29,262.55 342.44,243.62 356.50,236.30 Z M 388.68,215.83 387.24,227.72 382.78,231.53 Z M 388.68,215.83 382.78,231.53 384.11,208.21 Z M 344.32,211.57 355.50,196.94 384.11,208.21 Z M 342.44,243.62 361.29,262.55 352.29,264.54 Z M 361.29,262.55 356.50,236.30 377.02,262.39 Z M 377.02,262.39 386.69,253.35 384.47,267.47 Z M 386.69,253.35 377.02,262.39 385.89,244.08 Z M 385.89,244.08 377.02,262.39 356.50,236.30 Z M 356.50,236.30 333.49,235.09 344.32,211.57 Z M 322.34,215.53 318.25,201.78 344.32,211.57 Z M 273.14,161.67 291.37,134.66 302.22,138.92 Z"/>
 </svg>
