<svg xmlns="http://www.w3.org/2000/svg" viewBox="0 0 390 270"> <path fill="#83b581" stroke="#000" stroke-width="0.5" d="M 7.11,13.04 15.04,5.71 21.22,22.84 Z M 15.04,5.71 7.11,13.04 2.07,7.78 Z M 21.22,22.84 15.04,5.71 25.90,14.67 Z M 7.11,13.04 21.22,22.84 4.96,24.60 Z M 4.96,24.60 21.22,22.84 22.42,35.68 Z M 1.75,41.23 6.21,37.31 16.62,46.40 Z M 1.75,41.23 16.62,46.40 7.69,54.46 Z M 16.62,46.40 6.21,37.31 22.42,35.68 Z M 16.62,46.40 22.42,35.68 27.89,47.39 Z M 7.69,54.46 16.62,46.40 27.38,57.53 Z M 6.21,37.31 4.96,24.60 22.42,35.68 Z M 21.22,22.84 33.57,26.05 22.42,35.68 Z M 21.22,22.84 25.90,14.67 33.57,26.05 Z M 25.90,14.67 25.31,5.99 32.79,6.19 Z M 32.79,6.19 44.88,8.88 34.16,15.61 Z M 34.16,15.61 44.88,8.88 42.88,16.80 Z M 32.79,6.19 34.16,15.61 25.90,14.67 Z M 25.90,14.67 34.16,15.61 33.57,26.05 Z M 27.38,57.53 27.89,47.39 38.74,48.00 Z M 27.38,57.53 16.62,46.40 27.89,47.39 Z M 38.74,48.00 33.57,26.05 53.03,34.82 Z M 42.88,16.80 33.57,26.05 34.16,15.61 Z M 58.86,63.36 43.72,63.33 38.74,48.00 Z M 33.57,26.05 38.74,48.00 27.89,47.39 Z M 22.42,35.68 33.57,26.05 27.89,47.39 Z M 27.38,57.53 38.74,48.00 43.72,63.33 Z M 42.88,16.80 53.03,34.82 33.57,26.05 Z M 25.90,14.67 15.04,5.71 25.31,5.99 Z M 7.69,54.46 27.38,57.53 7.10,61.02 Z M 2.83,88.56 4.56,76.77 8.21,91.24 Z M 21.13,81.12 8.21,91.24 4.56,76.77 Z M 7.10,61.02 27.38,57.53 21.13,81.12 Z M 21.88,106.00 1.20,105.33 8.21,91.24 Z M 21.13,81.12 4.56,76.77 7.10,61.02 Z M 2.73,124.38 8.51,114.05 17.16,135.32 Z M 22.35,133.18 17.16,135.32 8.51,114.05 Z M 2.73,124.38 17.16,135.32 1.23,132.77 Z M 8.51,114.05 1.20,105.33 21.88,106.00 Z M 27.04,93.00 8.21,91.24 21.13,81.12 Z M 21.88,106.00 27.04,93.00 41.83,101.31 Z M 27.04,93.00 21.88,106.00 8.21,91.24 Z M 48.63,88.10 27.04,93.00 36.95,74.33 Z M 21.13,81.12 27.38,57.53 36.95,74.33 Z M 52.72,115.94 41.59,117.93 41.83,101.31 Z M 27.04,93.00 48.63,88.10 41.83,101.31 Z M 27.04,93.00 21.13,81.12 36.95,74.33 Z M 21.88,106.00 41.83,101.31 35.56,112.37 Z M 36.63,135.07 22.35,133.18 41.59,117.93 Z M 35.56,112.37 22.35,133.18 21.88,106.00 Z M 41.59,117.93 22.35,133.18 35.56,112.37 Z M 47.30,127.63 43.73,135.92 36.63,135.07 Z M 52.72,115.94 47.30,127.63 41.59,117.93 Z M 43.73,135.92 47.30,127.63 56.51,136.29 Z M 47.30,127.63 36.63,135.07 41.59,117.93 Z M 35.56,112.37 41.83,101.31 41.59,117.93 Z M 43.72,63.33 48.63,88.10 36.95,74.33 Z M 21.88,106.00 22.35,133.18 8.51,114.05 Z M 27.38,57.53 43.72,63.33 36.95,74.33 Z M 51.82,8.29 42.88,16.80 44.88,8.88 Z M 38.74,48.00 53.03,34.82 67.36,51.62 Z M 53.03,34.82 51.82,8.29 72.00,13.07 Z M 65.41,1.57 73.84,2.11 72.00,13.07 Z M 74.21,35.90 72.00,13.07 81.33,18.85 Z M 65.41,1.57 72.00,13.07 51.82,8.29 Z M 53.03,34.82 72.00,13.07 64.95,37.90 Z M 67.36,51.62 58.86,63.36 38.74,48.00 Z M 67.36,51.62 53.03,34.82 64.95,37.90 Z M 68.59,62.39 67.36,51.62 75.23,55.01 Z M 74.21,35.90 67.36,51.62 64.95,37.90 Z M 75.23,55.01 67.36,51.62 74.21,35.90 Z M 67.36,51.62 68.59,62.39 58.86,63.36 Z M 64.95,37.90 72.00,13.07 74.21,35.90 Z M 58.86,63.36 68.59,62.39 67.21,78.88 Z M 72.00,13.07 73.84,2.11 82.32,6.84 Z M 58.86,63.36 48.63,88.10 43.72,63.33 Z M 81.33,18.85 82.32,6.84 91.87,17.46 Z M 91.94,26.98 74.21,35.90 81.33,18.85 Z M 91.87,17.46 94.07,3.27 104.94,6.97 Z M 94.07,3.27 91.87,17.46 82.32,6.84 Z M 81.33,18.85 91.87,17.46 91.94,26.98 Z M 75.23,55.01 74.21,35.90 92.09,55.00 Z M 74.21,35.90 91.94,26.98 95.36,38.72 Z M 74.21,35.90 95.36,38.72 92.09,55.00 Z M 68.59,62.39 75.23,55.01 86.28,66.60 Z M 95.36,38.72 97.09,48.79 92.09,55.00 Z M 91.94,26.98 91.87,17.46 106.04,24.26 Z M 81.33,18.85 72.00,13.07 82.32,6.84 Z M 86.28,66.60 75.23,55.01 92.09,55.00 Z M 48.63,88.10 67.21,78.88 74.30,105.48 Z M 48.63,88.10 58.86,63.36 67.21,78.88 Z M 48.63,88.10 74.30,105.48 68.15,112.13 Z M 74.30,105.48 67.21,78.88 76.49,76.85 Z M 74.30,105.48 76.49,76.85 82.32,103.60 Z M 71.39,131.57 68.15,112.13 85.81,134.27 Z M 68.59,62.39 76.49,76.85 67.21,78.88 Z M 68.15,112.13 52.72,115.94 41.83,101.31 Z M 58.84,125.34 47.30,127.63 52.72,115.94 Z M 47.30,127.63 58.84,125.34 56.51,136.29 Z M 58.84,125.34 71.39,131.57 63.53,138.22 Z M 58.84,125.34 52.72,115.94 68.15,112.13 Z M 58.84,125.34 63.53,138.22 56.51,136.29 Z M 68.15,112.13 71.39,131.57 58.84,125.34 Z M 68.15,112.13 74.30,105.48 82.32,103.60 Z M 68.15,112.13 41.83,101.31 48.63,88.10 Z M 76.49,76.85 94.54,94.60 82.32,103.60 Z M 76.49,76.85 95.23,81.01 94.54,94.60 Z M 95.58,63.49 95.02,73.85 86.28,66.60 Z M 95.23,81.01 76.49,76.85 95.02,73.85 Z M 86.28,66.60 92.09,55.00 95.58,63.49 Z M 68.15,112.13 94.94,126.18 85.81,134.27 Z M 93.44,104.20 82.32,103.60 94.54,94.60 Z M 97.26,116.47 82.32,103.60 93.44,104.20 Z M 94.94,126.18 68.15,112.13 82.32,103.60 Z M 94.94,126.18 94.02,132.63 85.81,134.27 Z M 97.26,116.47 94.94,126.18 82.32,103.60 Z M 76.49,76.85 86.28,66.60 95.02,73.85 Z M 86.28,66.60 76.49,76.85 68.59,62.39 Z M 53.03,34.82 42.88,16.80 51.82,8.29 Z"/>
 <path fill="#e5c80e" stroke="#000" stroke-width="0.5" d="M 23.58,154.79 4.50,144.97 17.16,135.32 Z M 17.16,135.32 4.50,144.97 1.23,132.77 Z M 4.50,144.97 23.58,154.79 2.86,152.85 Z M 34.02,143.78 23.58,154.79 17.16,135.32 Z M 24.37,172.50 3.32,171.17 2.75,164.68 Z M 7.70,185.45 17.27,197.56 6.14,192.49 Z M 3.32,171.17 24.37,172.50 7.70,185.45 Z M 2.75,164.68 23.58,154.79 24.37,172.50 Z M 2.75,164.68 2.86,152.85 23.58,154.79 Z M 17.16,135.32 22.35,133.18 34.02,143.78 Z M 34.02,143.78 36.63,135.07 43.73,135.92 Z M 41.65,163.13 23.58,154.79 34.02,143.78 Z M 34.02,143.78 53.07,145.33 41.65,163.13 Z M 53.07,145.33 34.02,143.78 43.73,135.92 Z M 53.07,145.33 43.73,135.92 56.51,136.29 Z M 41.65,163.13 53.07,145.33 51.65,163.25 Z M 41.65,163.13 24.37,172.50 23.58,154.79 Z M 24.37,172.50 31.84,176.33 33.37,185.00 Z M 24.37,172.50 41.65,163.13 31.84,176.33 Z M 33.37,185.00 31.84,176.33 48.13,175.52 Z M 7.70,185.45 24.37,172.50 25.08,192.67 Z M 48.40,184.66 48.13,175.52 64.46,172.26 Z M 48.13,175.52 31.84,176.33 41.65,163.13 Z M 48.40,184.66 63.02,191.52 43.22,197.30 Z M 48.13,175.52 48.40,184.66 33.37,185.00 Z M 51.65,163.25 48.13,175.52 41.65,163.13 Z M 33.37,185.00 25.08,192.67 24.37,172.50 Z M 64.46,172.26 48.13,175.52 51.65,163.25 Z M 34.02,143.78 22.35,133.18 36.63,135.07 Z M 43.22,197.30 33.37,185.00 48.40,184.66 Z M 6.77,226.69 1.97,213.66 15.49,224.41 Z M 6.77,226.69 15.49,224.41 8.49,234.38 Z M 15.49,224.41 1.97,213.66 8.94,207.88 Z M 15.49,224.41 8.94,207.88 32.61,213.62 Z M 22.28,236.64 7.64,246.36 8.49,234.38 Z M 3.43,255.70 7.64,246.36 15.04,254.88 Z M 3.43,255.70 13.85,263.77 8.06,267.77 Z M 13.85,263.77 3.43,255.70 15.04,254.88 Z M 13.85,263.77 15.04,254.88 27.38,265.13 Z M 15.04,254.88 7.64,246.36 26.43,245.36 Z M 8.49,234.38 15.49,224.41 22.28,236.64 Z M 17.27,197.56 25.08,192.67 32.61,213.62 Z M 25.08,192.67 17.27,197.56 7.70,185.45 Z M 32.61,213.62 43.22,197.30 46.36,211.73 Z M 43.22,197.30 32.61,213.62 25.08,192.67 Z M 63.02,191.52 46.36,211.73 43.22,197.30 Z M 22.28,236.64 32.61,213.62 53.67,235.35 Z M 25.08,192.67 33.37,185.00 43.22,197.30 Z M 32.61,213.62 22.28,236.64 15.49,224.41 Z M 26.43,245.36 27.38,265.13 15.04,254.88 Z M 26.43,245.36 22.28,236.64 53.67,235.35 Z M 27.38,265.13 26.43,245.36 38.06,266.50 Z M 26.43,245.36 7.64,246.36 22.28,236.64 Z M 38.06,266.50 52.95,261.58 42.93,266.95 Z M 52.95,261.58 38.06,266.50 26.43,245.36 Z M 26.43,245.36 53.67,235.35 52.95,261.58 Z M 32.61,213.62 46.36,211.73 53.53,217.78 Z M 32.61,213.62 8.94,207.88 17.27,197.56 Z M 6.14,192.49 17.27,197.56 8.94,207.88 Z M 51.65,163.25 53.07,145.33 67.73,156.97 Z M 53.07,145.33 63.53,138.22 67.73,156.97 Z M 71.39,131.57 81.94,143.36 75.09,148.02 Z M 81.94,143.36 71.39,131.57 85.81,134.27 Z M 84.51,171.17 67.73,156.97 75.09,148.02 Z M 71.39,131.57 75.09,148.02 63.53,138.22 Z M 67.73,156.97 63.53,138.22 75.09,148.02 Z M 63.02,191.52 64.46,172.26 76.54,177.79 Z M 63.02,191.52 48.40,184.66 64.46,172.26 Z M 76.54,177.79 76.89,195.76 63.02,191.52 Z M 67.73,156.97 84.51,171.17 64.46,172.26 Z M 87.68,192.65 76.89,195.76 76.54,177.79 Z M 84.51,171.17 76.54,177.79 64.46,172.26 Z M 51.65,163.25 67.73,156.97 64.46,172.26 Z M 63.02,191.52 76.89,195.76 68.71,207.47 Z M 95.79,158.05 75.09,148.02 81.94,143.36 Z M 63.02,191.52 68.71,207.47 46.36,211.73 Z M 91.03,143.22 95.79,158.05 81.94,143.36 Z M 91.03,143.22 85.81,134.27 94.02,132.63 Z M 106.25,141.16 91.03,143.22 94.02,132.63 Z M 75.09,148.02 95.79,158.05 84.51,171.17 Z M 87.68,192.65 97.68,184.27 96.96,198.90 Z M 97.68,184.27 87.68,192.65 84.51,171.17 Z M 76.89,195.76 87.68,192.65 77.85,208.17 Z M 84.51,171.17 87.68,192.65 76.54,177.79 Z M 98.90,174.69 97.68,184.27 84.51,171.17 Z M 98.90,174.69 84.51,171.17 97.64,165.09 Z M 84.51,171.17 95.79,158.05 97.64,165.09 Z M 91.03,143.22 81.94,143.36 85.81,134.27 Z M 77.85,208.17 87.68,192.65 96.96,198.90 Z M 53.53,217.78 64.17,233.71 53.67,235.35 Z M 64.17,233.71 53.53,217.78 65.39,215.33 Z M 72.41,223.00 65.39,215.33 77.85,208.17 Z M 68.71,207.47 65.39,215.33 53.53,217.78 Z M 77.06,241.42 72.41,223.00 83.01,226.47 Z M 65.39,215.33 72.41,223.00 64.17,233.71 Z M 46.36,211.73 68.71,207.47 53.53,217.78 Z M 64.17,233.71 72.41,223.00 77.06,241.42 Z M 53.67,235.35 65.56,261.50 52.95,261.58 Z M 53.67,235.35 64.17,233.71 65.56,261.50 Z M 65.56,261.50 76.45,256.74 73.78,265.12 Z M 76.45,256.74 65.56,261.50 77.06,241.42 Z M 76.45,256.74 77.06,241.42 94.24,247.89 Z M 73.78,265.12 76.45,256.74 87.15,265.56 Z M 64.17,233.71 77.06,241.42 65.56,261.50 Z M 77.85,208.17 65.39,215.33 68.71,207.47 Z M 53.53,217.78 53.67,235.35 32.61,213.62 Z M 77.06,241.42 83.01,226.47 94.11,234.41 Z M 83.01,226.47 77.85,208.17 93.88,221.03 Z M 95.96,215.25 93.88,221.03 77.85,208.17 Z M 95.96,215.25 77.85,208.17 96.96,198.90 Z M 68.71,207.47 76.89,195.76 77.85,208.17 Z M 83.01,226.47 93.88,221.03 94.11,234.41 Z M 95.68,256.87 76.45,256.74 94.24,247.89 Z M 77.06,241.42 94.11,234.41 94.24,247.89 Z M 94.24,247.89 94.11,234.41 102.35,236.22 Z M 76.45,256.74 95.68,256.87 87.15,265.56 Z M 95.68,256.87 98.18,266.99 87.15,265.56 Z M 83.01,226.47 72.41,223.00 77.85,208.17 Z M 101.60,207.65 95.96,215.25 96.96,198.90 Z M 56.51,136.29 63.53,138.22 53.07,145.33 Z"/>
 <path fill="#e57484" stroke="#000" stroke-width="0.5" d="M 106.04,24.26 106.03,36.07 91.94,26.98 Z M 116.65,37.75 106.03,36.07 106.04,24.26 Z M 108.50,47.26 106.03,36.07 116.65,37.75 Z M 106.04,24.26 91.87,17.46 104.94,6.97 Z M 91.94,26.98 106.03,36.07 95.36,38.72 Z M 95.58,63.49 92.09,55.00 107.77,57.14 Z M 97.09,48.79 108.50,47.26 107.77,57.14 Z M 97.09,48.79 95.36,38.72 106.03,36.07 Z M 107.77,57.14 108.50,47.26 126.72,43.64 Z M 97.09,48.79 107.77,57.14 92.09,55.00 Z M 106.03,36.07 108.50,47.26 97.09,48.79 Z M 95.58,63.49 107.77,57.14 114.45,67.09 Z M 106.04,24.26 104.94,6.97 112.38,7.32 Z M 122.35,12.85 127.56,24.70 106.04,24.26 Z M 122.35,12.85 112.38,7.32 124.96,4.02 Z M 135.72,3.80 127.56,24.70 122.35,12.85 Z M 133.83,34.30 127.56,24.70 146.22,24.59 Z M 135.72,3.80 122.35,12.85 124.96,4.02 Z M 106.04,24.26 127.56,24.70 116.65,37.75 Z M 107.77,57.14 126.72,43.64 114.45,67.09 Z M 108.50,47.26 116.65,37.75 126.72,43.64 Z M 126.72,43.64 116.65,37.75 133.83,34.30 Z M 114.45,67.09 126.72,43.64 134.39,56.30 Z M 136.71,66.95 154.29,56.82 142.26,73.96 Z M 136.71,66.95 134.39,56.30 154.29,56.82 Z M 134.39,56.30 136.71,66.95 114.45,67.09 Z M 126.72,43.64 147.68,46.61 134.39,56.30 Z M 116.65,37.75 127.56,24.70 133.83,34.30 Z M 114.45,67.09 136.71,66.95 116.01,82.33 Z M 133.83,34.30 147.68,46.61 126.72,43.64 Z M 106.04,24.26 112.38,7.32 122.35,12.85 Z M 95.58,63.49 114.45,67.09 95.02,73.85 Z M 107.66,104.88 93.44,104.20 94.54,94.60 Z M 95.23,81.01 116.01,82.33 105.35,92.22 Z M 116.01,82.33 95.23,81.01 95.02,73.85 Z M 95.23,81.01 105.35,92.22 94.54,94.60 Z M 107.66,104.88 94.54,94.60 105.35,92.22 Z M 104.38,133.84 94.02,132.63 94.94,126.18 Z M 115.21,122.11 104.38,133.84 94.94,126.18 Z M 112.10,136.73 104.38,133.84 115.21,122.11 Z M 94.94,126.18 97.26,116.47 115.21,122.11 Z M 107.66,104.88 115.21,122.11 97.26,116.47 Z M 97.26,116.47 93.44,104.20 107.66,104.88 Z M 105.35,92.22 118.78,94.55 107.66,104.88 Z M 116.01,82.33 133.01,88.81 118.78,94.55 Z M 116.01,82.33 136.71,66.95 133.01,88.81 Z M 118.78,94.55 133.01,88.81 141.35,107.52 Z M 128.31,121.12 107.66,104.88 118.78,94.55 Z M 133.01,88.81 143.76,95.60 141.35,107.52 Z M 143.76,95.60 133.01,88.81 142.26,73.96 Z M 143.76,95.60 142.26,73.96 155.37,73.13 Z M 165.05,115.69 137.50,124.75 141.35,107.52 Z M 95.02,73.85 114.45,67.09 116.01,82.33 Z M 118.78,94.55 141.35,107.52 128.31,121.12 Z M 115.21,122.11 128.31,121.12 122.16,136.32 Z M 115.21,122.11 107.66,104.88 128.31,121.12 Z M 122.16,136.32 128.31,121.12 133.96,138.88 Z M 115.21,122.11 122.16,136.32 112.10,136.73 Z M 133.96,138.88 137.50,124.75 143.60,136.99 Z M 137.50,124.75 133.96,138.88 128.31,121.12 Z M 151.17,133.94 143.60,136.99 137.50,124.75 Z M 128.31,121.12 141.35,107.52 137.50,124.75 Z M 141.35,107.52 143.76,95.60 151.63,101.58 Z M 118.78,94.55 105.35,92.22 116.01,82.33 Z M 142.26,73.96 133.01,88.81 136.71,66.95 Z M 146.22,24.59 127.56,24.70 135.72,3.80 Z M 147.27,8.65 154.22,4.72 158.84,15.26 Z M 166.53,21.04 158.84,15.26 167.81,4.67 Z M 167.81,4.67 158.84,15.26 154.22,4.72 Z M 166.53,21.04 167.81,4.67 175.72,3.30 Z M 147.27,8.65 158.84,15.26 146.22,24.59 Z M 147.68,46.61 168.10,46.97 154.29,56.82 Z M 156.50,35.50 147.68,46.61 146.22,24.59 Z M 154.29,56.82 155.37,73.13 142.26,73.96 Z M 147.68,46.61 154.29,56.82 134.39,56.30 Z M 168.10,46.97 156.50,35.50 176.53,34.47 Z M 156.50,35.50 146.22,24.59 158.84,15.26 Z M 166.53,21.04 176.53,34.47 156.50,35.50 Z M 156.50,35.50 168.10,46.97 147.68,46.61 Z M 158.84,15.26 166.53,21.04 156.50,35.50 Z M 165.58,65.41 154.29,56.82 168.10,46.97 Z M 166.53,21.04 175.72,3.30 184.09,8.24 Z M 147.27,8.65 146.22,24.59 135.72,3.80 Z M 176.53,34.47 193.64,22.02 192.12,33.05 Z M 176.53,34.47 166.53,21.04 193.64,22.02 Z M 197.50,8.13 193.52,14.95 184.09,8.24 Z M 193.52,14.95 193.64,22.02 184.09,8.24 Z M 177.22,44.89 176.72,54.93 168.10,46.97 Z M 177.22,44.89 176.53,34.47 191.70,45.31 Z M 176.72,54.93 177.22,44.89 185.36,52.72 Z M 177.22,44.89 168.10,46.97 176.53,34.47 Z M 185.36,52.72 191.70,45.31 196.62,55.50 Z M 191.70,45.31 185.36,52.72 177.22,44.89 Z M 176.72,54.93 185.36,52.72 178.77,66.73 Z M 176.53,34.47 192.12,33.05 191.70,45.31 Z M 165.58,65.41 168.10,46.97 176.72,54.93 Z M 193.64,22.02 166.53,21.04 184.09,8.24 Z M 196.62,55.50 196.48,62.81 185.36,52.72 Z M 151.63,101.58 155.37,73.13 165.21,75.34 Z M 151.63,101.58 143.76,95.60 155.37,73.13 Z M 178.73,82.83 165.21,75.34 178.77,66.73 Z M 165.58,65.41 165.21,75.34 155.37,73.13 Z M 178.77,66.73 165.21,75.34 165.58,65.41 Z M 151.63,101.58 165.21,75.34 163.46,103.42 Z M 155.37,73.13 154.29,56.82 165.58,65.41 Z M 163.46,103.42 165.21,75.34 178.73,82.83 Z M 162.30,136.09 151.17,133.94 165.05,115.69 Z M 165.05,115.69 151.63,101.58 163.46,103.42 Z M 137.50,124.75 165.05,115.69 151.17,133.94 Z M 174.19,116.79 175.90,138.97 162.30,136.09 Z M 174.19,116.79 165.05,115.69 163.46,103.42 Z M 183.20,136.65 175.90,138.97 174.19,116.79 Z M 174.19,116.79 162.30,136.09 165.05,115.69 Z M 174.19,116.79 163.46,103.42 183.14,105.32 Z M 183.14,105.32 163.46,103.42 178.73,82.83 Z M 141.35,107.52 151.63,101.58 165.05,115.69 Z M 192.60,75.54 191.03,91.16 178.73,82.83 Z M 192.60,75.54 178.77,66.73 196.48,62.81 Z M 191.03,91.16 192.60,75.54 198.07,84.38 Z M 191.03,91.16 183.14,105.32 178.73,82.83 Z M 165.58,65.41 176.72,54.93 178.77,66.73 Z M 191.03,91.16 202.72,94.48 193.44,105.92 Z M 196.45,128.88 174.19,116.79 191.68,112.80 Z M 191.68,112.80 183.14,105.32 193.44,105.92 Z M 174.19,116.79 196.45,128.88 183.20,136.65 Z M 174.19,116.79 183.14,105.32 191.68,112.80 Z M 196.45,128.88 193.73,135.81 183.20,136.65 Z M 183.14,105.32 191.03,91.16 193.44,105.92 Z M 178.77,66.73 192.60,75.54 178.73,82.83 Z M 185.36,52.72 196.48,62.81 178.77,66.73 Z M 147.68,46.61 133.83,34.30 146.22,24.59 Z"/>
 <path fill="#95e0b8" stroke="#000" stroke-width="0.5" d="M 104.38,133.84 112.10,136.73 106.25,141.16 Z M 106.52,164.22 106.25,141.16 122.04,154.70 Z M 104.38,133.84 106.25,141.16 94.02,132.63 Z M 91.03,143.22 106.25,141.16 95.79,158.05 Z M 97.64,165.09 95.79,158.05 106.52,164.22 Z M 112.49,191.44 97.68,184.27 98.90,174.69 Z M 106.52,164.22 98.90,174.69 97.64,165.09 Z M 96.96,198.90 97.68,184.27 112.49,191.44 Z M 95.79,158.05 106.25,141.16 106.52,164.22 Z M 106.52,164.22 112.49,191.44 98.90,174.69 Z M 106.25,141.16 112.10,136.73 122.04,154.70 Z M 122.04,154.70 122.16,136.32 133.96,138.88 Z M 127.72,181.34 106.52,164.22 122.04,154.70 Z M 133.96,138.88 143.60,136.99 142.19,158.32 Z M 144.84,188.30 142.19,158.32 155.78,167.92 Z M 133.96,138.88 142.19,158.32 122.04,154.70 Z M 122.04,154.70 142.19,158.32 127.72,181.34 Z M 112.49,191.44 123.19,191.94 121.73,201.22 Z M 123.19,191.94 112.49,191.44 127.72,181.34 Z M 121.73,201.22 123.19,191.94 131.27,204.07 Z M 96.96,198.90 112.49,191.44 101.60,207.65 Z M 144.84,188.30 131.27,204.07 123.19,191.94 Z M 144.84,188.30 127.72,181.34 142.19,158.32 Z M 147.53,208.40 131.27,204.07 148.42,198.76 Z M 144.84,188.30 123.19,191.94 127.72,181.34 Z M 106.52,164.22 127.72,181.34 112.49,191.44 Z M 101.60,207.65 112.49,191.44 121.73,201.22 Z M 131.27,204.07 144.84,188.30 148.42,198.76 Z M 122.04,154.70 112.10,136.73 122.16,136.32 Z M 126.10,216.96 121.73,201.22 131.27,204.07 Z M 94.11,234.41 93.88,221.03 105.09,226.89 Z M 95.96,215.25 101.60,207.65 105.09,226.89 Z M 105.09,226.89 101.60,207.65 116.63,227.52 Z M 95.96,215.25 105.09,226.89 93.88,221.03 Z M 94.11,234.41 105.09,226.89 102.35,236.22 Z M 95.68,256.87 102.86,265.49 98.18,266.99 Z M 113.74,247.70 111.76,264.20 95.68,256.87 Z M 111.76,264.20 102.86,265.49 95.68,256.87 Z M 102.35,236.22 113.74,247.70 94.24,247.89 Z M 94.24,247.89 113.74,247.70 95.68,256.87 Z M 102.35,236.22 105.09,226.89 116.63,227.52 Z M 126.49,227.76 116.63,227.52 126.10,216.96 Z M 126.10,216.96 116.63,227.52 101.60,207.65 Z M 142.08,225.19 136.86,213.51 148.38,217.41 Z M 126.10,216.96 101.60,207.65 121.73,201.22 Z M 154.90,244.23 133.43,244.40 142.08,225.19 Z M 136.86,213.51 142.08,225.19 126.10,216.96 Z M 136.86,213.51 126.10,216.96 131.27,204.07 Z M 126.49,227.76 126.10,216.96 142.08,225.19 Z M 126.13,252.94 121.48,268.48 111.76,264.20 Z M 126.13,252.94 113.74,247.70 133.43,244.40 Z M 121.48,268.48 126.13,252.94 133.64,263.71 Z M 126.13,252.94 111.76,264.20 113.74,247.70 Z M 133.43,244.40 133.64,263.71 126.13,252.94 Z M 133.43,244.40 126.49,227.76 142.08,225.19 Z M 148.54,266.15 133.64,263.71 133.43,244.40 Z M 133.43,244.40 113.74,247.70 126.49,227.76 Z M 113.74,247.70 116.63,227.52 126.49,227.76 Z M 148.38,217.41 136.86,213.51 147.53,208.40 Z M 116.63,227.52 113.74,247.70 102.35,236.22 Z M 131.27,204.07 147.53,208.40 136.86,213.51 Z M 157.78,146.68 142.19,158.32 143.60,136.99 Z M 155.78,167.92 142.19,158.32 153.27,158.13 Z M 142.19,158.32 157.78,146.68 153.27,158.13 Z M 157.78,146.68 162.30,136.09 175.90,138.97 Z M 162.30,136.09 157.78,146.68 151.17,133.94 Z M 153.27,158.13 157.78,146.68 164.22,168.49 Z M 178.76,161.83 164.22,168.49 157.78,146.68 Z M 144.84,188.30 156.40,185.36 148.42,198.76 Z M 144.84,188.30 155.78,167.92 156.40,185.36 Z M 156.40,185.36 155.78,167.92 164.22,168.49 Z M 148.42,198.76 156.40,185.36 158.56,197.39 Z M 156.40,185.36 176.37,181.95 158.56,197.39 Z M 176.37,181.95 156.40,185.36 164.22,168.49 Z M 178.76,161.83 176.37,181.95 164.22,168.49 Z M 158.56,197.39 176.37,181.95 183.24,196.56 Z M 155.78,167.92 153.27,158.13 164.22,168.49 Z M 158.56,197.39 163.98,216.99 147.53,208.40 Z M 178.76,161.83 157.78,146.68 175.90,138.97 Z M 143.60,136.99 151.17,133.94 157.78,146.68 Z M 175.90,138.97 193.64,152.12 178.76,161.83 Z M 193.64,152.12 175.90,138.97 183.20,136.65 Z M 183.20,136.65 195.15,141.18 193.64,152.12 Z M 195.15,141.18 183.20,136.65 193.73,135.81 Z M 178.76,161.83 193.64,152.12 193.01,167.16 Z M 176.37,181.95 191.62,186.80 183.24,196.56 Z M 176.37,181.95 185.26,175.87 191.62,186.80 Z M 191.62,186.80 185.26,175.87 196.45,171.33 Z M 183.24,196.56 191.62,186.80 191.83,193.54 Z M 196.45,171.33 185.26,175.87 193.01,167.16 Z M 185.26,175.87 178.76,161.83 193.01,167.16 Z M 183.24,196.56 191.83,193.54 193.15,201.40 Z M 185.26,175.87 176.37,181.95 178.76,161.83 Z M 174.84,207.35 158.56,197.39 183.24,196.56 Z M 142.08,225.19 152.61,226.97 157.16,235.11 Z M 152.61,226.97 148.38,217.41 163.98,216.99 Z M 174.12,236.35 157.16,235.11 163.98,216.99 Z M 163.98,216.99 157.16,235.11 152.61,226.97 Z M 148.38,217.41 147.53,208.40 163.98,216.99 Z M 176.41,221.70 174.12,236.35 163.98,216.99 Z M 158.56,197.39 174.84,207.35 163.98,216.99 Z M 157.16,235.11 154.90,244.23 142.08,225.19 Z M 148.54,266.15 154.90,244.23 155.68,261.32 Z M 148.54,266.15 133.43,244.40 154.90,244.23 Z M 155.68,261.32 154.90,244.23 163.84,244.32 Z M 163.84,244.32 178.24,251.93 155.68,261.32 Z M 155.68,261.32 178.24,251.93 163.08,267.86 Z M 163.84,244.32 154.90,244.23 157.16,235.11 Z M 178.24,251.93 163.84,244.32 174.12,236.35 Z M 157.16,235.11 174.12,236.35 163.84,244.32 Z M 163.98,216.99 174.84,207.35 176.41,221.70 Z M 152.61,226.97 142.08,225.19 148.38,217.41 Z M 182.45,238.04 176.41,221.70 194.19,228.47 Z M 176.41,221.70 174.84,207.35 191.25,212.11 Z M 194.19,228.47 176.41,221.70 191.25,212.11 Z M 182.45,238.04 178.24,251.93 174.12,236.35 Z M 194.19,228.47 196.11,232.94 182.45,238.04 Z M 183.24,196.56 191.25,212.11 174.84,207.35 Z M 182.45,238.04 196.11,232.94 196.44,243.19 Z M 177.83,261.85 178.24,251.93 186.52,266.16 Z M 177.83,261.85 163.08,267.86 178.24,251.93 Z M 186.52,266.16 178.24,251.93 195.12,253.57 Z M 196.44,243.19 195.12,253.57 178.24,251.93 Z M 195.12,253.57 198.59,263.82 186.52,266.16 Z M 178.24,251.93 182.45,238.04 196.44,243.19 Z M 174.12,236.35 176.41,221.70 182.45,238.04 Z M 183.24,196.56 193.15,201.40 191.25,212.11 Z M 158.56,197.39 147.53,208.40 148.42,198.76 Z"/>
 <path fill="#f8f345" stroke="#000" stroke-width="0.5" d="M 193.52,14.95 207.43,6.13 193.64,22.02 Z M 207.43,6.13 193.52,14.95 197.50,8.13 Z M 192.12,33.05 193.64,22.02 206.43,35.97 Z M 218.36,26.14 206.43,35.97 193.64,22.02 Z M 196.62,55.50 191.70,45.31 205.29,54.15 Z M 196.48,62.81 196.62,55.50 205.29,54.15 Z M 208.19,66.06 205.29,54.15 217.23,55.79 Z M 206.43,35.97 205.29,54.15 191.70,45.31 Z M 206.43,35.97 218.06,44.68 205.29,54.15 Z M 205.29,54.15 208.19,66.06 196.48,62.81 Z M 191.70,45.31 192.12,33.05 206.43,35.97 Z M 196.48,62.81 208.19,66.06 192.60,75.54 Z M 218.36,26.14 193.64,22.02 207.43,6.13 Z M 217.40,5.83 225.15,1.45 226.38,18.13 Z M 226.38,18.13 237.43,8.86 243.79,23.23 Z M 237.43,8.86 226.38,18.13 225.15,1.45 Z M 243.79,23.23 237.43,8.86 253.52,7.50 Z M 226.38,18.13 243.79,23.23 218.36,26.14 Z M 217.40,5.83 226.38,18.13 218.36,26.14 Z M 205.29,54.15 218.06,44.68 217.23,55.79 Z M 206.43,35.97 218.36,26.14 218.06,44.68 Z M 218.06,44.68 218.36,26.14 226.68,48.80 Z M 217.23,55.79 218.06,44.68 226.68,48.80 Z M 224.07,67.67 226.68,48.80 234.42,67.36 Z M 226.68,48.80 224.07,67.67 217.23,55.79 Z M 226.68,48.80 218.36,26.14 243.79,23.23 Z M 224.07,67.67 234.42,67.36 221.80,83.68 Z M 226.68,48.80 251.97,58.25 234.42,67.36 Z M 217.23,55.79 224.07,67.67 208.19,66.06 Z M 236.60,86.52 234.42,67.36 261.34,85.01 Z M 218.36,26.14 207.43,6.13 217.40,5.83 Z M 208.19,66.06 224.07,67.67 221.80,83.68 Z M 202.72,94.48 191.03,91.16 198.07,84.38 Z M 202.72,94.48 198.07,84.38 221.80,83.68 Z M 203.17,115.24 193.44,105.92 211.00,101.34 Z M 208.19,66.06 198.07,84.38 192.60,75.54 Z M 196.45,128.88 191.68,112.80 203.17,115.24 Z M 193.73,135.81 196.45,128.88 201.83,133.99 Z M 196.45,128.88 204.79,124.23 201.83,133.99 Z M 204.79,124.23 196.45,128.88 203.17,115.24 Z M 211.89,112.12 204.79,124.23 203.17,115.24 Z M 201.83,133.99 204.79,124.23 213.17,138.87 Z M 191.68,112.80 193.44,105.92 203.17,115.24 Z M 211.00,101.34 193.44,105.92 202.72,94.48 Z M 211.89,112.12 211.00,101.34 224.77,114.94 Z M 221.80,83.68 211.00,101.34 202.72,94.48 Z M 236.60,86.52 211.00,101.34 221.80,83.68 Z M 215.06,123.85 204.79,124.23 211.89,112.12 Z M 224.77,114.94 236.60,86.52 246.00,101.62 Z M 236.60,86.52 224.77,114.94 211.00,101.34 Z M 253.04,91.03 246.00,101.62 236.60,86.52 Z M 234.10,125.48 224.77,114.94 247.29,111.46 Z M 208.19,66.06 221.80,83.68 198.07,84.38 Z M 211.89,112.12 224.77,114.94 215.06,123.85 Z M 213.17,138.87 215.06,123.85 222.55,134.52 Z M 213.17,138.87 204.79,124.23 215.06,123.85 Z M 222.55,134.52 215.06,123.85 234.10,125.48 Z M 236.13,134.83 246.97,124.06 246.46,135.73 Z M 234.10,125.48 246.97,124.06 236.13,134.83 Z M 234.10,125.48 236.13,134.83 222.55,134.52 Z M 215.06,123.85 224.77,114.94 234.10,125.48 Z M 247.29,111.46 224.77,114.94 246.00,101.62 Z M 211.89,112.12 203.17,115.24 211.00,101.34 Z M 234.42,67.36 236.60,86.52 221.80,83.68 Z M 252.66,45.06 226.68,48.80 243.79,23.23 Z M 253.52,7.50 263.88,28.02 243.79,23.23 Z M 262.52,5.08 275.66,4.88 263.88,28.02 Z M 268.85,37.21 263.88,28.02 277.48,31.03 Z M 262.52,5.08 263.88,28.02 253.52,7.50 Z M 243.79,23.23 263.88,28.02 256.07,32.97 Z M 261.52,48.25 251.97,58.25 252.66,45.06 Z M 251.97,58.25 226.68,48.80 252.66,45.06 Z M 252.66,45.06 243.79,23.23 256.07,32.97 Z M 261.52,48.25 252.66,45.06 256.07,32.97 Z M 262.41,62.18 261.52,48.25 281.92,52.04 Z M 268.85,37.21 261.52,48.25 256.07,32.97 Z M 281.92,52.04 261.52,48.25 268.85,37.21 Z M 261.52,48.25 262.41,62.18 251.97,58.25 Z M 256.07,32.97 263.88,28.02 268.85,37.21 Z M 251.97,58.25 262.41,62.18 261.34,85.01 Z M 263.88,28.02 275.66,4.88 277.48,31.03 Z M 234.42,67.36 251.97,58.25 261.34,85.01 Z M 277.48,31.03 283.52,7.00 291.59,14.36 Z M 283.52,7.00 277.48,31.03 275.66,4.88 Z M 296.66,3.75 291.59,14.36 283.52,7.00 Z M 277.48,31.03 291.59,14.36 287.98,34.40 Z M 287.98,34.40 291.59,14.36 296.61,27.43 Z M 285.69,61.98 281.92,52.04 295.01,54.82 Z M 288.78,42.58 277.48,31.03 287.98,34.40 Z M 268.85,37.21 288.78,42.58 281.92,52.04 Z M 281.92,52.04 285.69,61.98 262.41,62.18 Z M 298.62,37.66 288.78,42.58 287.98,34.40 Z M 288.78,42.58 295.01,54.82 281.92,52.04 Z M 285.69,61.98 295.01,54.82 296.44,65.61 Z M 288.78,42.58 268.85,37.21 277.48,31.03 Z M 262.41,62.18 285.69,61.98 273.54,75.07 Z M 246.00,101.62 264.17,108.94 247.29,111.46 Z M 246.00,101.62 253.04,91.03 264.17,108.94 Z M 264.17,108.94 261.34,85.01 286.79,102.76 Z M 253.04,91.03 236.60,86.52 261.34,85.01 Z M 267.37,117.74 264.17,108.94 288.46,111.07 Z M 261.34,85.01 264.17,108.94 253.04,91.03 Z M 262.41,62.18 273.54,75.07 261.34,85.01 Z M 247.29,111.46 264.17,108.94 267.37,117.74 Z M 246.97,124.06 267.37,117.74 253.14,136.11 Z M 267.37,117.74 246.97,124.06 247.29,111.46 Z M 253.14,136.11 267.37,117.74 268.25,134.77 Z M 246.97,124.06 253.14,136.11 246.46,135.73 Z M 267.37,117.74 275.40,135.59 268.25,134.77 Z M 283.03,135.42 275.40,135.59 288.85,121.26 Z M 288.85,121.26 275.40,135.59 267.37,117.74 Z M 273.54,75.07 286.79,102.76 261.34,85.01 Z M 246.97,124.06 234.10,125.48 247.29,111.46 Z M 294.77,87.66 286.79,102.76 273.54,75.07 Z M 294.77,87.66 283.13,72.57 297.86,74.60 Z M 286.79,102.76 294.77,87.66 296.41,95.20 Z M 288.46,111.07 264.17,108.94 286.79,102.76 Z M 297.86,74.60 283.13,72.57 296.44,65.61 Z M 273.54,75.07 285.69,61.98 283.13,72.57 Z M 293.48,125.84 291.37,134.66 283.03,135.42 Z M 295.86,113.07 288.85,121.26 288.46,111.07 Z M 293.48,125.84 283.03,135.42 288.85,121.26 Z M 288.85,121.26 267.37,117.74 288.46,111.07 Z M 288.46,111.07 286.79,102.76 295.51,107.45 Z M 273.54,75.07 283.13,72.57 294.77,87.66 Z M 285.69,61.98 296.44,65.61 283.13,72.57 Z M 237.43,8.86 246.85,3.69 253.52,7.50 Z"/>
 <path fill="#f79fbb" stroke="#000" stroke-width="0.5" d="M 195.15,141.18 201.83,133.99 206.24,145.35 Z M 201.83,133.99 195.15,141.18 193.73,135.81 Z M 206.24,145.35 201.83,133.99 213.17,138.87 Z M 195.15,141.18 206.24,145.35 193.64,152.12 Z M 193.64,152.12 206.24,145.35 205.36,157.75 Z M 208.31,192.14 191.83,193.54 191.62,186.80 Z M 191.62,186.80 196.45,171.33 206.46,182.25 Z M 191.83,193.54 208.31,192.14 193.15,201.40 Z M 205.36,157.75 196.45,171.33 193.01,167.16 Z M 206.46,182.25 196.45,171.33 205.36,157.75 Z M 193.01,167.16 193.64,152.12 205.36,157.75 Z M 206.24,145.35 225.34,145.57 205.36,157.75 Z M 213.17,138.87 222.55,134.52 225.34,145.57 Z M 225.34,145.57 236.13,134.83 241.59,152.93 Z M 236.13,134.83 225.34,145.57 222.55,134.52 Z M 241.59,152.93 236.13,134.83 246.46,135.73 Z M 225.34,145.57 241.59,152.93 221.87,171.21 Z M 225.34,145.57 221.87,171.21 205.36,157.75 Z M 208.31,192.14 221.87,171.21 217.21,198.33 Z M 221.87,171.21 208.31,192.14 206.46,182.25 Z M 193.15,201.40 208.31,192.14 213.51,208.04 Z M 206.46,182.25 208.31,192.14 191.62,186.80 Z M 234.32,175.76 238.89,186.66 217.21,198.33 Z M 244.05,163.29 234.32,175.76 221.87,171.21 Z M 246.29,178.89 238.89,186.66 234.32,175.76 Z M 234.32,175.76 217.21,198.33 221.87,171.21 Z M 205.36,157.75 221.87,171.21 206.46,182.25 Z M 217.21,198.33 238.89,186.66 227.38,203.31 Z M 227.38,203.31 238.89,186.66 242.80,196.67 Z M 206.24,145.35 213.17,138.87 225.34,145.57 Z M 213.51,208.04 208.31,192.14 217.21,198.33 Z M 194.19,228.47 191.25,212.11 203.68,228.11 Z M 194.19,228.47 203.68,228.11 196.11,232.94 Z M 203.68,228.11 191.25,212.11 213.51,208.04 Z M 211.45,234.48 203.68,228.11 222.24,218.78 Z M 196.11,232.94 203.68,228.11 211.45,234.48 Z M 193.15,201.40 213.51,208.04 191.25,212.11 Z M 198.59,263.82 195.12,253.57 203.16,266.34 Z M 214.01,243.35 195.12,253.57 196.44,243.19 Z M 203.16,266.34 195.12,253.57 217.53,254.53 Z M 214.01,243.35 196.44,243.19 211.45,234.48 Z M 221.15,234.17 214.01,243.35 211.45,234.48 Z M 217.53,254.53 195.12,253.57 214.01,243.35 Z M 196.44,243.19 196.11,232.94 211.45,234.48 Z M 222.24,218.78 203.68,228.11 213.51,208.04 Z M 221.15,234.17 222.24,218.78 232.61,237.54 Z M 226.07,246.89 214.01,243.35 221.15,234.17 Z M 242.67,224.71 232.61,237.54 222.24,218.78 Z M 227.38,203.31 243.78,205.28 222.24,218.78 Z M 232.61,237.54 243.32,237.48 226.07,246.89 Z M 243.78,205.28 242.67,224.71 222.24,218.78 Z M 222.24,218.78 213.51,208.04 227.38,203.31 Z M 221.15,234.17 232.61,237.54 226.07,246.89 Z M 216.59,266.08 217.53,254.53 224.13,261.04 Z M 217.53,254.53 216.59,266.08 203.16,266.34 Z M 224.13,261.04 217.53,254.53 226.07,246.89 Z M 226.07,246.89 243.32,237.48 237.24,265.98 Z M 241.47,267.63 237.24,265.98 254.38,254.53 Z M 226.07,246.89 237.24,265.98 224.13,261.04 Z M 214.01,243.35 226.07,246.89 217.53,254.53 Z M 232.61,237.54 242.67,224.71 243.32,237.48 Z M 221.15,234.17 211.45,234.48 222.24,218.78 Z M 217.21,198.33 227.38,203.31 213.51,208.04 Z M 241.59,152.93 244.05,163.29 221.87,171.21 Z M 246.46,135.73 253.14,136.11 256.37,148.37 Z M 273.14,161.67 255.02,157.84 256.37,148.37 Z M 255.02,157.84 241.59,152.93 256.37,148.37 Z M 268.25,134.77 256.37,148.37 253.14,136.11 Z M 273.14,161.67 256.37,148.37 268.25,134.77 Z M 241.59,152.93 255.02,157.84 244.05,163.29 Z M 246.29,178.89 265.71,187.81 252.04,195.48 Z M 246.29,178.89 244.05,163.29 255.02,157.84 Z M 252.04,195.48 242.80,196.67 238.89,186.66 Z M 252.04,195.48 238.89,186.66 246.29,178.89 Z M 273.22,194.84 265.71,187.81 273.26,176.81 Z M 273.26,176.81 265.71,187.81 246.29,178.89 Z M 273.14,161.67 273.26,176.81 255.02,157.84 Z M 252.04,195.48 265.71,187.81 263.22,197.92 Z M 246.29,178.89 255.02,157.84 273.26,176.81 Z M 263.22,197.92 265.71,187.81 273.22,194.84 Z M 268.25,134.77 275.40,135.59 273.14,161.67 Z M 256.37,148.37 241.59,152.93 246.46,135.73 Z M 283.03,135.42 294.55,156.60 273.14,161.67 Z M 298.14,142.86 294.55,156.60 283.03,135.42 Z M 298.14,142.86 283.03,135.42 291.37,134.66 Z M 273.14,161.67 294.55,156.60 281.28,165.23 Z M 273.26,176.81 281.28,165.23 284.92,183.97 Z M 273.26,176.81 273.14,161.67 281.28,165.23 Z M 284.92,183.97 281.28,165.23 296.01,174.07 Z M 273.26,176.81 284.92,183.97 273.22,194.84 Z M 296.01,174.07 294.50,186.14 284.92,183.97 Z M 298.40,166.57 296.01,174.07 281.28,165.23 Z M 281.28,165.23 294.55,156.60 298.40,166.57 Z M 273.22,194.84 284.92,183.97 282.56,202.45 Z M 273.14,161.67 275.40,135.59 283.03,135.42 Z M 293.85,197.28 284.92,183.97 294.50,186.14 Z M 252.71,217.58 242.67,224.71 243.78,205.28 Z M 242.80,196.67 252.04,195.48 243.78,205.28 Z M 252.71,217.58 263.22,197.92 267.30,207.21 Z M 252.71,217.58 243.78,205.28 252.04,195.48 Z M 263.22,197.92 273.22,194.84 267.30,207.21 Z M 258.26,231.75 252.71,217.58 267.33,225.61 Z M 252.71,217.58 252.04,195.48 263.22,197.92 Z M 258.26,231.75 242.67,224.71 252.71,217.58 Z M 243.32,237.48 258.26,231.75 254.38,254.53 Z M 243.32,237.48 242.67,224.71 258.26,231.75 Z M 254.38,254.53 258.26,231.75 263.69,253.95 Z M 254.38,254.53 258.65,265.76 241.47,267.63 Z M 258.65,265.76 263.69,253.95 265.41,266.10 Z M 263.69,253.95 258.65,265.76 254.38,254.53 Z M 276.98,261.23 265.41,266.10 263.69,253.95 Z M 263.69,253.95 258.26,231.75 267.33,225.61 Z M 254.38,254.53 237.24,265.98 243.32,237.48 Z M 267.30,207.21 267.33,225.61 252.71,217.58 Z M 243.78,205.28 227.38,203.31 242.80,196.67 Z M 277.99,218.81 282.56,202.45 291.07,207.01 Z M 277.99,218.81 267.33,225.61 267.30,207.21 Z M 291.07,207.01 282.56,202.45 293.85,197.28 Z M 277.99,218.81 291.07,207.01 291.12,223.71 Z M 291.07,207.01 296.94,213.45 291.12,223.71 Z M 273.22,194.84 282.56,202.45 267.30,207.21 Z M 277.99,218.81 291.12,223.71 267.33,225.61 Z M 276.98,261.23 291.65,251.96 288.62,264.46 Z M 276.98,261.23 263.69,253.95 291.65,251.96 Z M 291.65,251.96 263.69,253.95 267.33,225.61 Z M 291.65,251.96 295.71,237.30 297.96,242.67 Z M 295.71,237.30 291.65,251.96 267.33,225.61 Z M 267.33,225.61 291.12,223.71 295.71,237.30 Z M 277.99,218.81 267.30,207.21 282.56,202.45 Z M 293.85,197.28 282.56,202.45 284.92,183.97 Z M 246.29,178.89 234.32,175.76 244.05,163.29 Z"/>
 <path fill="#44fc14" stroke="#000" stroke-width="0.5" d="M 291.59,14.36 302.03,6.53 296.61,27.43 Z M 302.03,6.53 291.59,14.36 296.66,3.75 Z M 298.62,37.66 296.61,27.43 313.98,12.84 Z M 287.98,34.40 296.61,27.43 298.62,37.66 Z M 295.01,54.82 288.78,42.58 298.62,37.66 Z M 297.86,74.60 296.44,65.61 323.01,62.56 Z M 295.01,54.82 323.01,62.56 296.44,65.61 Z M 295.01,54.82 298.62,37.66 323.01,62.56 Z M 313.98,12.84 296.61,27.43 302.03,6.53 Z M 313.98,12.84 318.92,3.12 321.95,2.62 Z M 318.92,3.12 313.98,12.84 302.03,6.53 Z M 332.37,7.85 335.40,28.09 313.98,12.84 Z M 335.40,28.09 332.37,7.85 344.46,21.59 Z M 332.37,7.85 313.98,12.84 321.95,2.62 Z M 332.49,55.28 298.62,37.66 335.40,28.09 Z M 323.80,74.63 332.53,73.85 327.99,86.28 Z M 332.53,73.85 323.80,74.63 323.01,62.56 Z M 297.86,74.60 323.80,74.63 313.66,91.15 Z M 323.80,74.63 297.86,74.60 323.01,62.56 Z M 332.53,73.85 338.88,66.81 338.70,85.06 Z M 323.01,62.56 332.49,55.28 338.88,66.81 Z M 332.53,73.85 338.70,85.06 327.99,86.28 Z M 323.01,62.56 338.88,66.81 332.53,73.85 Z M 298.62,37.66 332.49,55.28 323.01,62.56 Z M 327.99,86.28 338.70,85.06 337.96,97.86 Z M 332.49,55.28 335.40,28.09 342.31,53.90 Z M 298.62,37.66 313.98,12.84 335.40,28.09 Z M 313.66,91.15 323.80,74.63 327.99,86.28 Z M 296.41,95.20 295.51,107.45 286.79,102.76 Z M 296.41,95.20 294.77,87.66 313.66,91.15 Z M 295.86,113.07 295.51,107.45 312.60,113.36 Z M 288.46,111.07 295.51,107.45 295.86,113.07 Z M 302.22,138.92 293.48,125.84 304.16,122.68 Z M 295.86,113.07 293.48,125.84 288.85,121.26 Z M 295.86,113.07 304.16,122.68 293.48,125.84 Z M 293.48,125.84 302.22,138.92 291.37,134.66 Z M 311.07,102.69 295.51,107.45 296.41,95.20 Z M 312.60,113.36 304.16,122.68 295.86,113.07 Z M 312.60,113.36 311.07,102.69 325.92,97.92 Z M 327.99,86.28 325.92,97.92 313.66,91.15 Z M 325.92,97.92 327.99,86.28 337.96,97.86 Z M 312.60,113.36 325.92,97.92 322.96,117.64 Z M 313.66,91.15 325.92,97.92 311.07,102.69 Z M 295.51,107.45 311.07,102.69 312.60,113.36 Z M 322.96,117.64 325.92,97.92 337.96,97.86 Z M 304.16,122.68 315.41,123.01 312.87,132.69 Z M 304.16,122.68 312.60,113.36 315.41,123.01 Z M 312.87,132.69 315.41,123.01 325.84,131.91 Z M 304.16,122.68 312.87,132.69 302.22,138.92 Z M 322.96,117.64 331.26,133.17 325.84,131.91 Z M 348.88,121.14 331.26,133.17 322.96,117.64 Z M 322.96,117.64 325.84,131.91 315.41,123.01 Z M 312.60,113.36 322.96,117.64 315.41,123.01 Z M 322.96,117.64 337.96,97.86 348.88,121.14 Z M 311.07,102.69 296.41,95.20 313.66,91.15 Z M 294.77,87.66 297.86,74.60 313.66,91.15 Z M 338.70,85.06 346.15,92.57 337.96,97.86 Z M 344.46,21.59 345.65,4.80 354.90,8.61 Z M 344.46,21.59 358.42,32.74 335.40,28.09 Z M 354.90,8.61 367.66,8.63 358.42,32.74 Z M 368.01,41.48 353.85,46.23 358.42,32.74 Z M 354.90,8.61 358.42,32.74 344.46,21.59 Z M 358.42,32.74 353.85,46.23 335.40,28.09 Z M 342.31,53.90 353.85,46.23 355.52,55.61 Z M 342.31,53.90 335.40,28.09 353.85,46.23 Z M 355.52,55.61 366.24,55.08 355.87,66.40 Z M 366.24,55.08 355.52,55.61 353.85,46.23 Z M 368.90,68.95 355.87,66.40 366.24,55.08 Z M 355.52,55.61 355.87,66.40 342.31,53.90 Z M 366.24,55.08 353.85,46.23 368.01,41.48 Z M 342.31,53.90 355.87,66.40 338.88,66.81 Z M 358.42,32.74 367.66,8.63 375.78,32.44 Z M 342.31,53.90 338.88,66.81 332.49,55.28 Z M 367.66,8.63 384.67,15.30 375.78,32.44 Z M 375.78,32.44 368.01,41.48 358.42,32.74 Z M 384.91,4.57 384.67,15.30 378.80,4.60 Z M 384.67,15.30 385.29,23.53 375.78,32.44 Z M 375.78,32.44 385.29,23.53 387.59,38.61 Z M 368.01,41.48 385.47,46.08 377.39,51.52 Z M 368.01,41.48 375.78,32.44 385.47,46.08 Z M 377.39,51.52 385.47,46.08 386.79,53.56 Z M 366.24,55.08 377.39,51.52 368.90,68.95 Z M 377.39,51.52 386.79,53.56 385.74,64.70 Z M 375.78,32.44 387.59,38.61 385.47,46.08 Z M 377.39,51.52 366.24,55.08 368.01,41.48 Z M 367.66,8.63 378.80,4.60 384.67,15.30 Z M 385.74,64.70 368.90,68.95 377.39,51.52 Z M 348.88,121.14 337.96,97.86 346.15,92.57 Z M 338.70,85.06 355.87,66.40 346.15,92.57 Z M 385.76,102.96 365.44,114.42 365.94,103.47 Z M 346.15,92.57 365.94,103.47 357.66,118.77 Z M 346.15,92.57 371.43,94.75 365.94,103.47 Z M 364.66,125.42 365.44,114.42 375.33,124.42 Z M 355.87,66.40 368.90,68.95 368.93,83.64 Z M 357.66,118.77 365.94,103.47 365.44,114.42 Z M 343.53,134.84 348.88,121.14 352.98,136.93 Z M 343.53,134.84 331.26,133.17 348.88,121.14 Z M 352.98,136.93 348.88,121.14 357.66,118.77 Z M 364.66,125.42 362.36,135.92 352.98,136.93 Z M 364.66,125.42 357.66,118.77 365.44,114.42 Z M 362.36,135.92 364.66,125.42 378.10,136.93 Z M 364.66,125.42 352.98,136.93 357.66,118.77 Z M 348.88,121.14 346.15,92.57 357.66,118.77 Z M 368.93,83.64 346.15,92.57 355.87,66.40 Z M 338.70,85.06 338.88,66.81 355.87,66.40 Z M 385.76,102.96 365.94,103.47 371.43,94.75 Z M 371.43,94.75 368.93,83.64 382.93,92.60 Z M 368.93,83.64 385.29,82.75 382.93,92.60 Z M 385.29,82.75 368.93,83.64 384.88,74.15 Z M 368.93,83.64 368.90,68.95 384.88,74.15 Z M 371.43,94.75 382.93,92.60 385.76,102.96 Z M 378.10,136.93 375.33,124.42 388.54,133.75 Z M 365.44,114.42 385.76,102.96 387.25,118.24 Z M 375.33,124.42 365.44,114.42 387.25,118.24 Z M 375.33,124.42 378.10,136.93 364.66,125.42 Z M 387.25,118.24 387.08,123.63 375.33,124.42 Z M 387.08,123.63 388.54,133.75 375.33,124.42 Z M 371.43,94.75 346.15,92.57 368.93,83.64 Z M 368.90,68.95 385.74,64.70 384.88,74.15 Z M 344.46,21.59 332.37,7.85 345.65,4.80 Z"/>
 <path fill="#a6bb18" stroke="#000" stroke-width="0.5" d="M 298.14,142.86 302.22,138.92 306.95,148.03 Z M 302.22,138.92 298.14,142.86 291.37,134.66 Z M 306.95,148.03 302.22,138.92 312.87,132.69 Z M 298.14,142.86 306.95,148.03 294.55,156.60 Z M 294.55,156.60 306.95,148.03 298.40,166.57 Z M 293.85,197.28 294.50,186.14 303.97,185.43 Z M 303.97,185.43 296.01,174.07 313.65,164.25 Z M 298.40,166.57 313.65,164.25 296.01,174.07 Z M 296.01,174.07 303.97,185.43 294.50,186.14 Z M 293.85,197.28 303.97,185.43 308.00,195.11 Z M 298.40,166.57 306.95,148.03 313.65,164.25 Z M 321.58,147.38 315.44,154.62 306.95,148.03 Z M 321.58,147.38 312.87,132.69 325.84,131.91 Z M 331.26,133.17 332.68,152.98 321.58,147.38 Z M 332.68,152.98 331.26,133.17 343.53,134.84 Z M 331.26,133.17 321.58,147.38 325.84,131.91 Z M 321.58,147.38 332.68,152.98 315.44,154.62 Z M 308.00,195.11 336.58,191.05 318.25,201.78 Z M 336.58,191.05 308.00,195.11 303.97,185.43 Z M 336.58,191.05 331.78,202.08 318.25,201.78 Z M 313.65,164.25 336.58,191.05 303.97,185.43 Z M 318.25,201.78 331.78,202.08 322.34,215.53 Z M 313.65,164.25 315.44,154.62 332.68,152.98 Z M 306.95,148.03 315.44,154.62 313.65,164.25 Z M 293.85,197.28 308.00,195.11 303.54,205.83 Z M 344.32,211.57 322.34,215.53 331.78,202.08 Z M 312.87,132.69 321.58,147.38 306.95,148.03 Z M 303.54,205.83 308.00,195.11 318.25,201.78 Z M 296.94,213.45 312.20,231.34 291.12,223.71 Z M 291.12,223.71 312.20,231.34 295.71,237.30 Z M 303.54,205.83 296.94,213.45 291.07,207.01 Z M 297.96,242.67 295.71,237.30 312.20,231.34 Z M 291.07,207.01 293.85,197.28 303.54,205.83 Z M 288.62,264.46 291.65,251.96 298.91,266.16 Z M 305.01,257.96 298.91,266.16 291.65,251.96 Z M 313.29,243.75 305.01,257.96 297.96,242.67 Z M 298.91,266.16 305.01,257.96 306.98,267.00 Z M 305.01,257.96 291.65,251.96 297.96,242.67 Z M 303.54,205.83 322.34,215.53 296.94,213.45 Z M 312.20,231.34 322.34,215.53 327.97,226.69 Z M 322.34,215.53 312.20,231.34 296.94,213.45 Z M 326.02,242.08 327.97,226.69 333.49,235.09 Z M 327.97,226.69 326.02,242.08 312.20,231.34 Z M 344.32,211.57 327.97,226.69 322.34,215.53 Z M 342.44,243.62 321.64,255.90 326.02,242.08 Z M 327.97,226.69 347.87,231.15 333.49,235.09 Z M 312.20,231.34 326.02,242.08 313.29,243.75 Z M 306.98,267.00 305.01,257.96 317.35,266.32 Z M 305.01,257.96 313.29,243.75 321.64,255.90 Z M 305.01,257.96 321.64,255.90 317.35,266.32 Z M 321.64,255.90 334.46,267.97 322.88,266.16 Z M 321.64,255.90 313.29,243.75 326.02,242.08 Z M 321.64,255.90 322.88,266.16 317.35,266.32 Z M 321.64,255.90 343.02,263.45 334.46,267.97 Z M 342.44,243.62 326.02,242.08 333.49,235.09 Z M 313.29,243.75 297.96,242.67 312.20,231.34 Z M 303.54,205.83 318.25,201.78 322.34,215.53 Z M 332.68,152.98 342.08,161.55 313.65,164.25 Z M 332.68,152.98 352.98,136.93 342.08,161.55 Z M 343.55,176.93 313.65,164.25 342.08,161.55 Z M 342.08,161.55 375.89,162.80 355.50,174.98 Z M 364.04,186.24 355.50,174.98 375.89,162.80 Z M 352.98,136.93 375.89,162.80 342.08,161.55 Z M 342.08,161.55 355.50,174.98 343.55,176.93 Z M 336.58,191.05 343.55,176.93 351.11,185.42 Z M 336.58,191.05 313.65,164.25 343.55,176.93 Z M 351.11,185.42 364.04,186.24 355.50,196.94 Z M 351.11,185.42 343.55,176.93 355.50,174.98 Z M 355.50,196.94 364.04,186.24 364.52,207.52 Z M 351.11,185.42 355.50,196.94 336.58,191.05 Z M 355.50,174.98 364.04,186.24 351.11,185.42 Z M 344.32,211.57 336.58,191.05 355.50,196.94 Z M 362.36,135.92 375.89,162.80 352.98,136.93 Z M 332.68,152.98 343.53,134.84 352.98,136.93 Z M 362.36,135.92 383.89,145.76 375.89,162.80 Z M 364.04,186.24 375.89,162.80 383.31,172.80 Z M 388.54,133.75 383.89,145.76 378.10,136.93 Z M 383.89,145.76 386.29,154.27 375.89,162.80 Z M 375.89,162.80 386.29,154.27 387.29,167.83 Z M 374.63,188.02 384.11,208.21 364.52,207.52 Z M 364.52,207.52 364.04,186.24 374.63,188.02 Z M 374.63,188.02 364.04,186.24 383.31,172.80 Z M 384.18,186.59 374.63,188.02 383.31,172.80 Z M 384.18,186.59 386.36,192.41 374.63,188.02 Z M 383.31,172.80 375.89,162.80 387.29,167.83 Z M 384.11,208.21 374.63,188.02 386.36,192.41 Z M 362.36,135.92 378.10,136.93 383.89,145.76 Z M 351.41,216.81 355.50,196.94 364.52,207.52 Z M 347.87,231.15 342.44,243.62 333.49,235.09 Z M 347.87,231.15 344.32,211.57 351.41,216.81 Z M 351.41,216.81 364.54,217.68 356.50,236.30 Z M 351.41,216.81 344.32,211.57 355.50,196.94 Z M 356.50,236.30 364.54,217.68 364.55,242.46 Z M 351.41,216.81 356.50,236.30 347.87,231.15 Z M 364.54,217.68 351.41,216.81 364.52,207.52 Z M 347.87,231.15 356.50,236.30 342.44,243.62 Z M 343.02,263.45 321.64,255.90 342.44,243.62 Z M 343.02,263.45 342.44,243.62 352.29,264.54 Z M 352.29,264.54 364.55,242.46 361.29,262.55 Z M 364.55,242.46 352.29,264.54 342.44,243.62 Z M 361.29,262.55 364.55,242.46 375.65,253.51 Z M 342.44,243.62 356.50,236.30 364.55,242.46 Z M 364.54,217.68 382.78,231.53 364.55,242.46 Z M 327.97,226.69 344.32,211.57 347.87,231.15 Z M 382.78,231.53 376.93,243.42 364.55,242.46 Z M 382.78,231.53 374.00,213.57 387.24,227.72 Z M 388.68,215.83 387.24,227.72 374.00,213.57 Z M 388.68,215.83 374.00,213.57 384.11,208.21 Z M 364.52,207.52 374.00,213.57 364.54,217.68 Z M 377.02,262.39 375.65,253.51 386.69,253.35 Z M 375.65,253.51 364.55,242.46 376.93,243.42 Z M 385.89,244.08 375.65,253.51 376.93,243.42 Z M 375.65,253.51 377.02,262.39 361.29,262.55 Z M 377.02,262.39 386.69,253.35 384.47,267.47 Z M 386.69,253.35 375.65,253.51 385.89,244.08 Z M 376.93,243.42 382.78,231.53 385.89,244.08 Z M 364.54,217.68 374.00,213.57 382.78,231.53 Z M 364.52,207.52 384.11,208.21 374.00,213.57 Z M 331.78,202.08 336.58,191.05 344.32,211.57 Z"/>
 </svg>
