<svg xmlns="http://www.w3.org/2000/svg" viewBox="0 0 390 270"> <path fill="#cabdfc" stroke="#000" stroke-width="0.5" d="M 7.69,54.46 6.21,37.31 27.38,57.53 Z M 4.96,24.60 25.31,5.99 6.21,37.31 Z M 27.38,57.53 7.10,61.02 7.69,54.46 Z M 6.21,37.31 7.69,54.46 1.75,41.23 Z M 2.07,7.78 15.04,5.71 7.11,13.04 Z M 1.23,132.77 2.73,124.38 36.63,135.07 Z M 8.21,91.24 4.56,76.77 27.38,57.53 Z M 8.21,91.24 2.83,88.56 4.56,76.77 Z M 27.38,57.53 4.56,76.77 7.10,61.02 Z M 8.51,114.05 1.20,105.33 8.21,91.24 Z M 7.11,13.04 25.31,5.99 4.96,24.60 Z M 6.21,37.31 32.79,6.19 53.03,34.82 Z M 32.79,6.19 6.21,37.31 25.31,5.99 Z M 53.03,34.82 65.41,1.57 73.84,2.11 Z M 82.32,6.84 53.03,34.82 73.84,2.11 Z M 65.41,1.57 53.03,34.82 51.82,8.29 Z M 36.63,135.07 8.51,114.05 68.15,112.13 Z M 8.21,91.24 27.38,57.53 67.21,78.88 Z M 8.21,91.24 67.21,78.88 68.15,112.13 Z M 8.51,114.05 36.63,135.07 2.73,124.38 Z M 67.21,78.88 27.38,57.53 53.03,34.82 Z M 44.88,8.88 51.82,8.29 53.03,34.82 Z M 8.51,114.05 8.21,91.24 68.15,112.13 Z M 107.77,57.14 68.15,112.13 67.21,78.88 Z M 53.03,34.82 107.77,57.14 67.21,78.88 Z M 6.21,37.31 53.03,34.82 27.38,57.53 Z M 32.79,6.19 44.88,8.88 53.03,34.82 Z M 36.63,135.07 68.15,112.13 64.46,172.26 Z M 64.46,172.26 68.15,112.13 95.79,158.05 Z M 7.11,13.04 15.04,5.71 25.31,5.99 Z M 1.23,132.77 36.63,135.07 4.50,144.97 Z M 7.70,185.45 3.32,171.17 23.58,154.79 Z M 2.86,152.85 23.58,154.79 2.75,164.68 Z M 4.50,144.97 23.58,154.79 2.86,152.85 Z M 8.94,207.88 6.14,192.49 32.61,213.62 Z M 2.75,164.68 23.58,154.79 3.32,171.17 Z M 6.77,226.69 1.97,213.66 8.94,207.88 Z M 27.38,265.13 7.64,246.36 8.49,234.38 Z M 3.43,255.70 13.85,263.77 8.06,267.77 Z M 7.64,246.36 13.85,263.77 3.43,255.70 Z M 32.61,213.62 6.77,226.69 8.94,207.88 Z M 32.61,213.62 8.49,234.38 6.77,226.69 Z M 6.14,192.49 7.70,185.45 43.22,197.30 Z M 6.14,192.49 43.22,197.30 32.61,213.62 Z M 23.58,154.79 36.63,135.07 41.65,163.13 Z M 7.70,185.45 41.65,163.13 43.22,197.30 Z M 27.38,265.13 8.49,234.38 32.61,213.62 Z M 43.22,197.30 64.46,172.26 53.53,217.78 Z M 64.46,172.26 43.22,197.30 41.65,163.13 Z M 53.53,217.78 52.95,261.58 32.61,213.62 Z M 65.56,261.50 93.88,221.03 73.78,265.12 Z M 93.88,221.03 65.56,261.50 53.53,217.78 Z M 53.53,217.78 32.61,213.62 43.22,197.30 Z M 4.50,144.97 36.63,135.07 23.58,154.79 Z M 52.95,261.58 53.53,217.78 65.56,261.50 Z M 7.64,246.36 27.38,265.13 13.85,263.77 Z M 27.38,265.13 32.61,213.62 38.06,266.50 Z M 73.78,265.12 93.88,221.03 87.15,265.56 Z M 52.95,261.58 42.93,266.95 38.06,266.50 Z M 52.95,261.58 38.06,266.50 32.61,213.62 Z M 93.88,221.03 53.53,217.78 64.46,172.26 Z M 23.58,154.79 41.65,163.13 7.70,185.45 Z M 64.46,172.26 41.65,163.13 36.63,135.07 Z M 82.32,6.84 107.77,57.14 53.03,34.82 Z M 116.65,37.75 124.96,4.02 135.72,3.80 Z M 167.81,4.67 175.72,3.30 184.09,8.24 Z M 154.22,4.72 167.81,4.67 147.27,8.65 Z M 116.65,37.75 107.77,57.14 82.32,6.84 Z M 116.65,37.75 104.94,6.97 112.38,7.32 Z M 82.32,6.84 104.94,6.97 116.65,37.75 Z M 147.27,8.65 191.70,45.31 155.37,73.13 Z M 116.65,37.75 135.72,3.80 147.27,8.65 Z M 116.65,37.75 155.37,73.13 107.77,57.14 Z M 155.37,73.13 116.65,37.75 147.27,8.65 Z M 167.81,4.67 184.09,8.24 192.12,33.05 Z M 116.65,37.75 112.38,7.32 124.96,4.02 Z M 167.81,4.67 192.12,33.05 147.27,8.65 Z M 68.15,112.13 155.37,73.13 95.79,158.05 Z M 155.37,73.13 68.15,112.13 107.77,57.14 Z M 192.12,33.05 191.70,45.31 147.27,8.65 Z M 193.64,22.02 184.09,8.24 193.52,14.95 Z M 192.12,33.05 184.09,8.24 193.64,22.02 Z M 196.48,62.81 191.70,45.31 196.62,55.50 Z M 193.52,14.95 184.09,8.24 197.50,8.13 Z M 196.48,62.81 192.60,75.54 155.37,73.13 Z M 191.68,112.80 191.03,91.16 193.44,105.92 Z M 191.03,91.16 155.37,73.13 192.60,75.54 Z M 198.07,84.38 191.03,91.16 192.60,75.54 Z M 191.03,91.16 191.68,112.80 155.37,73.13 Z M 202.72,94.48 193.44,105.92 191.03,91.16 Z M 155.37,73.13 191.68,112.80 155.78,167.92 Z M 155.37,73.13 191.70,45.31 196.48,62.81 Z M 196.45,128.88 193.73,135.81 191.68,112.80 Z M 64.46,172.26 112.49,191.44 93.88,221.03 Z M 64.46,172.26 95.79,158.05 112.49,191.44 Z M 112.49,191.44 95.79,158.05 155.78,167.92 Z M 93.88,221.03 112.49,191.44 133.64,263.71 Z M 177.83,261.85 155.68,261.32 194.19,228.47 Z M 155.68,261.32 133.64,263.71 112.49,191.44 Z M 163.08,267.86 155.68,261.32 177.83,261.85 Z M 155.68,261.32 148.54,266.15 133.64,263.71 Z M 177.83,261.85 195.12,253.57 186.52,266.16 Z M 191.25,212.11 155.68,261.32 112.49,191.44 Z M 155.37,73.13 155.78,167.92 95.79,158.05 Z M 93.88,221.03 133.64,263.71 111.76,264.20 Z M 98.18,266.99 87.15,265.56 102.86,265.49 Z M 111.76,264.20 102.86,265.49 93.88,221.03 Z M 121.48,268.48 111.76,264.20 133.64,263.71 Z M 155.78,167.92 191.25,212.11 112.49,191.44 Z M 102.86,265.49 87.15,265.56 93.88,221.03 Z M 191.62,186.80 155.78,167.92 193.01,167.16 Z M 196.45,171.33 191.62,186.80 193.01,167.16 Z M 191.83,193.54 191.25,212.11 155.78,167.92 Z M 193.73,135.81 195.15,141.18 193.64,152.12 Z M 193.64,152.12 193.01,167.16 155.78,167.92 Z M 193.73,135.81 193.64,152.12 155.78,167.92 Z M 193.15,201.40 191.25,212.11 191.83,193.54 Z M 196.44,243.19 177.83,261.85 194.19,228.47 Z M 195.12,253.57 177.83,261.85 196.44,243.19 Z M 195.12,253.57 198.59,263.82 186.52,266.16 Z M 196.44,243.19 194.19,228.47 196.11,232.94 Z M 194.19,228.47 155.68,261.32 191.25,212.11 Z M 191.83,193.54 155.78,167.92 191.62,186.80 Z M 191.68,112.80 193.73,135.81 155.78,167.92 Z M 104.94,6.97 82.32,6.84 94.07,3.27 Z"/>
 <path fill="#79d959" stroke="#000" stroke-width="0.5" d="M 226.68,48.80 196.62,55.50 191.70,45.31 Z M 226.68,48.80 192.12,33.05 193.64,22.02 Z M 193.52,14.95 207.43,6.13 193.64,22.02 Z M 226.68,48.80 196.48,62.81 196.62,55.50 Z M 191.70,45.31 192.12,33.05 226.68,48.80 Z M 202.72,94.48 191.03,91.16 198.07,84.38 Z M 202.72,94.48 198.07,84.38 226.68,48.80 Z M 191.68,112.80 193.44,105.92 196.45,128.88 Z M 226.68,48.80 198.07,84.38 196.48,62.81 Z M 198.07,84.38 192.60,75.54 196.48,62.81 Z M 202.72,94.48 196.45,128.88 193.44,105.92 Z M 197.50,8.13 207.43,6.13 193.52,14.95 Z M 237.43,8.86 217.40,5.83 225.15,1.45 Z M 193.64,22.02 217.40,5.83 226.68,48.80 Z M 275.66,4.88 263.88,28.02 262.52,5.08 Z M 275.66,4.88 283.52,7.00 263.88,28.02 Z M 253.04,91.03 226.68,48.80 262.41,62.18 Z M 237.43,8.86 226.68,48.80 217.40,5.83 Z M 263.88,28.02 226.68,48.80 237.43,8.86 Z M 226.68,48.80 253.04,91.03 202.72,94.48 Z M 263.88,28.02 262.41,62.18 226.68,48.80 Z M 253.52,7.50 262.52,5.08 263.88,28.02 Z M 253.04,91.03 262.41,62.18 297.86,74.60 Z M 281.92,52.04 262.41,62.18 263.88,28.02 Z M 283.52,7.00 281.92,52.04 263.88,28.02 Z M 263.88,28.02 237.43,8.86 253.52,7.50 Z M 237.43,8.86 246.85,3.69 253.52,7.50 Z M 246.29,178.89 253.04,91.03 296.41,95.20 Z M 281.92,52.04 297.86,74.60 262.41,62.18 Z M 217.40,5.83 193.64,22.02 207.43,6.13 Z M 196.45,128.88 202.72,94.48 253.04,91.03 Z M 193.01,167.16 193.64,152.12 196.45,171.33 Z M 193.73,135.81 196.45,128.88 195.15,141.18 Z M 221.87,171.21 196.45,171.33 193.64,152.12 Z M 195.15,141.18 221.87,171.21 193.64,152.12 Z M 195.15,141.18 196.45,128.88 221.87,171.21 Z M 191.83,193.54 191.62,186.80 221.87,171.21 Z M 221.87,171.21 193.15,201.40 191.83,193.54 Z M 194.19,228.47 191.25,212.11 222.24,218.78 Z M 222.24,218.78 196.11,232.94 194.19,228.47 Z M 195.12,253.57 196.44,243.19 216.59,266.08 Z M 196.44,243.19 196.11,232.94 222.24,218.78 Z M 193.15,201.40 222.24,218.78 191.25,212.11 Z M 191.62,186.80 196.45,171.33 221.87,171.21 Z M 222.24,218.78 224.13,261.04 196.44,243.19 Z M 222.24,218.78 193.15,201.40 221.87,171.21 Z M 222.24,218.78 221.87,171.21 246.29,178.89 Z M 224.13,261.04 216.59,266.08 196.44,243.19 Z M 288.62,264.46 276.98,261.23 318.25,201.78 Z M 242.67,224.71 224.13,261.04 222.24,218.78 Z M 216.59,266.08 203.16,266.34 195.12,253.57 Z M 242.67,224.71 237.24,265.98 224.13,261.04 Z M 318.25,201.78 276.98,261.23 242.67,224.71 Z M 242.67,224.71 222.24,218.78 246.29,178.89 Z M 196.45,128.88 253.04,91.03 221.87,171.21 Z M 276.98,261.23 258.65,265.76 242.67,224.71 Z M 198.59,263.82 195.12,253.57 203.16,266.34 Z M 276.98,261.23 265.41,266.10 258.65,265.76 Z M 241.47,267.63 242.67,224.71 258.65,265.76 Z M 241.47,267.63 237.24,265.98 242.67,224.71 Z M 318.25,201.78 242.67,224.71 246.29,178.89 Z M 253.04,91.03 246.29,178.89 221.87,171.21 Z M 281.92,52.04 283.52,7.00 302.03,6.53 Z M 335.40,28.09 302.03,6.53 318.92,3.12 Z M 335.40,28.09 281.92,52.04 302.03,6.53 Z M 318.92,3.12 321.95,2.62 332.37,7.85 Z M 346.15,92.57 296.41,95.20 297.86,74.60 Z M 296.41,95.20 253.04,91.03 297.86,74.60 Z M 335.40,28.09 318.92,3.12 332.37,7.85 Z M 281.92,52.04 335.40,28.09 297.86,74.60 Z M 335.40,28.09 354.90,8.61 385.29,23.53 Z M 335.40,28.09 345.65,4.80 354.90,8.61 Z M 335.40,28.09 346.15,92.57 297.86,74.60 Z M 385.74,64.70 346.15,92.57 335.40,28.09 Z M 367.66,8.63 385.29,23.53 354.90,8.61 Z M 335.40,28.09 332.37,7.85 345.65,4.80 Z M 352.98,136.93 296.41,95.20 346.15,92.57 Z M 367.66,8.63 378.80,4.60 384.67,15.30 Z M 283.52,7.00 296.66,3.75 302.03,6.53 Z M 367.66,8.63 384.67,15.30 385.29,23.53 Z M 387.59,38.61 335.40,28.09 385.29,23.53 Z M 385.47,46.08 335.40,28.09 387.59,38.61 Z M 385.74,64.70 335.40,28.09 386.79,53.56 Z M 385.47,46.08 386.79,53.56 335.40,28.09 Z M 346.15,92.57 385.74,64.70 384.88,74.15 Z M 346.15,92.57 385.29,82.75 382.93,92.60 Z M 346.15,92.57 384.88,74.15 385.29,82.75 Z M 385.76,102.96 387.25,118.24 352.98,136.93 Z M 352.98,136.93 387.25,118.24 387.08,123.63 Z M 352.98,136.93 346.15,92.57 385.76,102.96 Z M 346.15,92.57 382.93,92.60 385.76,102.96 Z M 384.67,15.30 378.80,4.60 384.91,4.57 Z M 388.54,133.75 352.98,136.93 387.08,123.63 Z M 318.25,201.78 313.65,164.25 355.50,196.94 Z M 313.65,164.25 296.41,95.20 332.68,152.98 Z M 355.50,196.94 313.65,164.25 332.68,152.98 Z M 333.49,235.09 288.62,264.46 318.25,201.78 Z M 355.50,196.94 333.49,235.09 318.25,201.78 Z M 382.78,231.53 333.49,235.09 355.50,196.94 Z M 333.49,235.09 361.29,262.55 352.29,264.54 Z M 382.78,231.53 361.29,262.55 333.49,235.09 Z M 383.31,172.80 332.68,152.98 352.98,136.93 Z M 383.31,172.80 355.50,196.94 332.68,152.98 Z M 296.41,95.20 352.98,136.93 332.68,152.98 Z M 333.49,235.09 298.91,266.16 288.62,264.46 Z M 333.49,235.09 306.98,267.00 298.91,266.16 Z M 333.49,235.09 317.35,266.32 306.98,267.00 Z M 352.29,264.54 343.02,263.45 333.49,235.09 Z M 322.88,266.16 333.49,235.09 334.46,267.97 Z M 322.88,266.16 317.35,266.32 333.49,235.09 Z M 334.46,267.97 333.49,235.09 343.02,263.45 Z M 246.29,178.89 313.65,164.25 318.25,201.78 Z M 384.18,186.59 386.36,192.41 355.50,196.94 Z M 355.50,196.94 383.31,172.80 384.18,186.59 Z M 383.31,172.80 352.98,136.93 386.29,154.27 Z M 382.78,231.53 355.50,196.94 384.11,208.21 Z M 386.36,192.41 384.11,208.21 355.50,196.94 Z M 387.29,167.83 383.31,172.80 386.29,154.27 Z M 384.47,267.47 377.02,262.39 386.69,253.35 Z M 361.29,262.55 382.78,231.53 385.89,244.08 Z M 377.02,262.39 361.29,262.55 385.89,244.08 Z M 388.68,215.83 387.24,227.72 382.78,231.53 Z M 385.89,244.08 386.69,253.35 377.02,262.39 Z M 382.78,231.53 384.11,208.21 388.68,215.83 Z M 352.98,136.93 383.89,145.76 386.29,154.27 Z M 352.98,136.93 388.54,133.75 383.89,145.76 Z M 313.65,164.25 246.29,178.89 296.41,95.20 Z"/>
 </svg>
