<svg xmlns="http://www.w3.org/2000/svg" version="1.1" viewBox="385 -10 360 120">
<path fill="none" stroke="blue" d="M390,98.78549306228422 395,96.8904324181502 400,93.76695876498054 405,86.84775167807761 410,77.2647360817659 415,64.12433169607382 420,47.62789860768068 425,31.451177354733844 430,20.420721010290777 435,10.566546806744157 440,3.617097637602953 445,0.18403725082757205 450,8.103282268107492 455,17.434236737867337 460,21.331657484155045 465,33.08861799541407 470,38.65205776118705 475,50.841344084313825 480,63.40683280246519 485,72.90432340953947 490,79.85812019606797 495,84.60073473940508 500,88.44153931843778 505,91.34434376137344 510,93.81698927248287 515,95.78788713245933 520,97.16665147221563 525,98.16346165665165 530,98.80436120001188 535,99.21620949146438 540,99.48227397094935 545,99.65533276512821 550,99.76884675211295 555,99.84386509620303 560,99.89378154013313 565,99.92725552732885 570,99.94984664388933 575,99.9651983367785 580,99.9756947551778 585,99.98292345527186 590,99.98793020205032 595,99.99141974885278 600,99.99386520577612 605,99.99558836066824 610,99.99681140030661 615,99.99768260535004 620,99.9983072220239 625,99.99875720356155 630,99.99908314638854 635,99.99932032702804 640,99.99949382580598 645,99.9996212959061 650,99.99971542286681 655,99.99978516749127 660,99.99983714541132 665,99.99987603473875 670,99.99990526728155 675,99.99992730576008 680,99.99994399845612 685,99.99995669879323 690,99.99996638756309 695,99.99997381214064 700,99.99997953084097 705,99.999983937986 710,99.9999873584595 715,99.99999001380597 720,99.99999208592794 725,99.99999370928515 730,99.99999498235421"/>
<path fill="none" stroke="green" d="M390,99.94512178207086 395,99.8488528369915 400,99.7027649638088 405,99.36217725836076 410,98.85922498707788 415,98.32813964279553 420,97.42249213002947 425,96.60765510458558 430,95.65789821213971 435,94.56749668507567 440,93.25161269129244 445,92.20887808886907 450,91.16309878858543 455,89.7127332804632 460,87.51179555409604 465,84.82250844138751 470,81.51582804630344 475,78.11734567319317 480,75.15151014546998 485,72.2156654279745 490,67.75963128081813 495,61.42552713275239 500,53.70863362223947 505,43.95975826358154 510,34.21907138958086 515,24.22952671341379 520,14.57204700951516 525,7.4449755236564386 530,2.545925823369359 535,0.34479198652316256 540,0.2529638660379874 545,0.023023200184340453 550,0.7798224159834319 555,3.9272991510879933 560,9.092440263980478 565,13.940265880717789 570,18.19120420542528 575,25.217496495443527 580,33.8088388058879 585,41.39967832489442 590,49.102084075319276 595,57.42055464174033 600,65.18230632944656 605,72.00374116894157 610,78.11230642568582 615,83.37353203106464 620,87.55485388228615 625,90.81667403516418 630,93.37630997756892 635,95.31726048626399 640,96.70769546666594 645,97.68527181398476 650,98.3845258985381 655,98.88107751804476 660,99.23104663815434 665,99.4733767851061 670,99.63792378224332 675,99.7485798969841 680,99.82420763860414 685,99.87767928809501 690,99.91525774820767 695,99.94182987460373 700,99.96021677371768 705,99.97264101382278 710,99.98090586450773 715,99.98647927436805 720,99.99046325874025 725,99.99324694946004 730,99.99519824496986"/>
<path fill="none" stroke="red" d="M390,99.93970240367145 395,99.83897251869905 400,99.67446326752837 405,99.33073209306416 410,98.85211072020982 415,98.41181898570017 420,97.77464142195349 425,97.36306150654653 430,96.95140312581086 435,96.47710256008544 440,95.88187049486147 445,95.44068078340777 450,95.00425801824036 455,94.31408975301144 460,93.19073870320315 465,91.665107554684 470,89.6652494147479 475,87.4945305385547 480,85.41857393852534 485,83.28909385689292 490,80.01979223234133 495,75.15723106303197 500,69.00440340162622 505,61.220696912381754 510,52.815430175184304 515,43.817637186577215 520,34.71701558413859 525,26.78501124659357 530,20.090208041890165 535,15.31626586777594 540,12.097748316911577 545,8.483374071872461 550,5.223645473703897 555,3.4393901458450244 560,3.2390775422272213 565,2.2987770325845815 570,0.2988884983834481 575,0.5281946916576743 580,2.4561259559700233 585,4.258550124851411 590,6.82487157980438 595,10.772238041217307 600,15.744162466017386 605,21.566788111803803 610,28.27013722432909 615,35.6423763162358 620,43.402141375730366 625,51.280816635632156 630,59.04565353556047 635,66.2945600706517 640,72.71650515209882 645,78.34790120692072 650,83.25442749424883 655,87.38172465409329 660,90.67604862459366 665,93.20952741794812 670,95.10108391905936 675,96.48115611179041 680,97.48464087083673 685,98.2159788448085 690,98.74801247937512 695,99.13841128893385 700,99.41574827946397 705,99.60244245507295 710,99.72330583545885 715,99.80429586585193 720,99.8642937030376 725,99.90544162504024 730,99.93379359597296"/>
</svg>
