<?xml version="1.0" standalone="yes"?>
<svg xmlns="http://www.w3.org/2000/svg" viewBox="0 -11 120 49" stroke-linejoin="round">
<g stroke-width="0.18518518518518517">
<g fill="#fdb" stroke="#888">
<rect x="-0.10000000000000142" y="-2.225925925925926" width="4.451851851851852" height="4.451851851851852"/>
<rect x="4.351851851851851" y="-2.225925925925926" width="4.451851851851852" height="4.451851851851852"/>
<rect x="8.803703703703702" y="-2.225925925925926" width="4.451851851851852" height="4.451851851851852"/>
<rect x="13.255555555555553" y="-2.225925925925926" width="4.451851851851852" height="4.451851851851852"/>
<rect x="22.15925925925926" y="-2.225925925925926" width="4.451851851851852" height="4.451851851851852"/>
<rect x="26.611111111111114" y="-2.225925925925926" width="4.451851851851852" height="4.451851851851852"/>
<rect x="31.06296296296296" y="-2.225925925925926" width="4.451851851851852" height="4.451851851851852"/>
<rect x="35.51481481481481" y="-2.225925925925926" width="4.451851851851852" height="4.451851851851852"/>
<rect x="39.96666666666667" y="-2.225925925925926" width="4.451851851851852" height="4.451851851851852"/>
<rect x="75.58148148148148" y="-2.225925925925926" width="4.451851851851852" height="4.451851851851852"/>
<rect x="80.03333333333335" y="-2.225925925925926" width="4.451851851851852" height="4.451851851851852"/>
<rect x="84.48518518518519" y="-2.225925925925926" width="4.451851851851852" height="4.451851851851852"/>
<rect x="88.93703703703703" y="-2.225925925925926" width="4.451851851851852" height="4.451851851851852"/>
<rect x="93.3888888888889" y="-2.225925925925926" width="4.451851851851852" height="4.451851851851852"/>
<rect x="102.29259259259261" y="-2.225925925925926" width="4.451851851851852" height="4.451851851851852"/>
<rect x="106.74444444444445" y="-2.225925925925926" width="4.451851851851852" height="4.451851851851852"/>
<rect x="111.1962962962963" y="-2.225925925925926" width="4.451851851851852" height="4.451851851851852"/>
<rect x="115.64814814814817" y="-2.225925925925926" width="4.451851851851852" height="4.451851851851852"/>
<rect x="4.351851851851851" y="2.225925925925923" width="4.451851851851852" height="4.451851851851852"/>
<rect x="13.255555555555553" y="2.225925925925923" width="4.451851851851852" height="4.451851851851852"/>
<rect x="22.15925925925926" y="2.225925925925923" width="4.451851851851852" height="4.451851851851852"/>
<rect x="31.06296296296296" y="2.225925925925923" width="4.451851851851852" height="4.451851851851852"/>
<rect x="39.96666666666667" y="2.225925925925923" width="4.451851851851852" height="4.451851851851852"/>
<rect x="75.58148148148148" y="2.225925925925923" width="4.451851851851852" height="4.451851851851852"/>
<rect x="84.48518518518519" y="2.225925925925923" width="4.451851851851852" height="4.451851851851852"/>
<rect x="93.3888888888889" y="2.225925925925923" width="4.451851851851852" height="4.451851851851852"/>
<rect x="102.29259259259261" y="2.225925925925923" width="4.451851851851852" height="4.451851851851852"/>
<rect x="111.1962962962963" y="2.225925925925923" width="4.451851851851852" height="4.451851851851852"/>
<rect x="13.255555555555553" y="6.677777777777779" width="4.451851851851852" height="4.451851851851852"/>
<rect x="17.707407407407405" y="6.677777777777779" width="4.451851851851852" height="4.451851851851852"/>
<rect x="22.15925925925926" y="6.677777777777779" width="4.451851851851852" height="4.451851851851852"/>
<rect x="26.611111111111114" y="6.677777777777779" width="4.451851851851852" height="4.451851851851852"/>
<rect x="39.96666666666667" y="6.677777777777779" width="4.451851851851852" height="4.451851851851852"/>
<rect x="44.41851851851852" y="6.677777777777779" width="4.451851851851852" height="4.451851851851852"/>
<rect x="71.12962962962963" y="6.677777777777779" width="4.451851851851852" height="4.451851851851852"/>
<rect x="75.58148148148148" y="6.677777777777779" width="4.451851851851852" height="4.451851851851852"/>
<rect x="88.93703703703703" y="6.677777777777779" width="4.451851851851852" height="4.451851851851852"/>
<rect x="93.3888888888889" y="6.677777777777779" width="4.451851851851852" height="4.451851851851852"/>
<rect x="97.84074074074074" y="6.677777777777779" width="4.451851851851852" height="4.451851851851852"/>
<rect x="102.29259259259261" y="6.677777777777779" width="4.451851851851852" height="4.451851851851852"/>
<rect x="17.707407407407405" y="11.12962962962962" width="4.451851851851852" height="4.451851851851852"/>
<rect x="39.96666666666667" y="11.12962962962962" width="4.451851851851852" height="4.451851851851852"/>
<rect x="44.41851851851852" y="11.12962962962962" width="4.451851851851852" height="4.451851851851852"/>
<rect x="71.12962962962963" y="11.12962962962962" width="4.451851851851852" height="4.451851851851852"/>
<rect x="75.58148148148148" y="11.12962962962962" width="4.451851851851852" height="4.451851851851852"/>
<rect x="97.84074074074074" y="11.12962962962962" width="4.451851851851852" height="4.451851851851852"/>
<rect x="39.96666666666667" y="15.581481481481477" width="4.451851851851852" height="4.451851851851852"/>
<rect x="75.58148148148148" y="15.581481481481477" width="4.451851851851852" height="4.451851851851852"/>
<rect x="39.96666666666667" y="20.03333333333335" width="4.451851851851852" height="4.451851851851852"/>
<rect x="44.41851851851852" y="20.03333333333335" width="4.451851851851852" height="4.451851851851852"/>
<rect x="48.87037037037037" y="20.03333333333335" width="4.451851851851852" height="4.451851851851852"/>
<rect x="53.322222222222216" y="20.03333333333335" width="4.451851851851852" height="4.451851851851852"/>
<rect x="62.225925925925914" y="20.03333333333335" width="4.451851851851852" height="4.451851851851852"/>
<rect x="66.67777777777779" y="20.03333333333335" width="4.451851851851852" height="4.451851851851852"/>
<rect x="71.12962962962963" y="20.03333333333335" width="4.451851851851852" height="4.451851851851852"/>
<rect x="75.58148148148148" y="20.03333333333335" width="4.451851851851852" height="4.451851851851852"/>
<rect x="44.41851851851852" y="24.48518518518519" width="4.451851851851852" height="4.451851851851852"/>
<rect x="53.322222222222216" y="24.48518518518519" width="4.451851851851852" height="4.451851851851852"/>
<rect x="62.225925925925914" y="24.48518518518519" width="4.451851851851852" height="4.451851851851852"/>
<rect x="71.12962962962963" y="24.48518518518519" width="4.451851851851852" height="4.451851851851852"/>
<rect x="53.322222222222216" y="28.937037037037033" width="4.451851851851852" height="4.451851851851852"/>
<rect x="57.77407407407407" y="28.937037037037033" width="4.451851851851852" height="4.451851851851852"/>
<rect x="62.225925925925914" y="28.937037037037033" width="4.451851851851852" height="4.451851851851852"/>
<rect x="57.77407407407407" y="33.388888888888886" width="4.451851851851852" height="4.451851851851852"/>
</g>
<text stroke="none" fill="#700" x="60" y="-6.01" text-anchor="middle" font-size="6.01">n=27, filled=64</text>
</g>
<g fill="none" stroke="#000" stroke-width="1">
<path d="M 0,0 4.444444444444445,0 6.666666666666668,3.849001794597505 8.888888888888891,0 13.333333333333336,0 15.555555555555559,3.849001794597505 13.333333333333337,7.698003589195011 17.777777777777782,7.698003589195011 20.000000000000004,11.547005383792516 22.222222222222225,7.698003589195011 26.66666666666667,7.698003589195011 24.44444444444445,3.8490017945975055 26.66666666666667,4.440892098500626e-16 31.111111111111114,4.440892098500626e-16 33.333333333333336,3.8490017945975055 35.55555555555556,4.440892098500626e-16 40,4.440892098500626e-16 42.22222222222222,3.8490017945975055 40,7.698003589195011 44.44444444444444,7.698003589195011 46.666666666666664,11.547005383792516 44.44444444444444,15.396007178390022 40,15.396007178390022 42.22222222222222,19.245008972987527 40,23.094010767585033 44.44444444444444,23.094010767585036 46.666666666666664,26.943012562182542 48.888888888888886,23.094010767585036 53.33333333333333,23.09401076758504 55.55555555555555,26.943012562182545 53.33333333333333,30.79201435678005 57.77777777777777,30.792014356780054 59.99999999999999,34.64101615137756 62.222222222222214,30.792014356780058 66.66666666666666,30.79201435678006 64.44444444444444,26.943012562182556 66.66666666666667,23.09401076758505 71.11111111111111,23.094010767585054 73.33333333333333,26.94301256218256 75.55555555555556,23.094010767585054 80,23.094010767585058 77.77777777777779,19.245008972987552 80.00000000000001,15.396007178390049 75.55555555555557,15.396007178390043 73.33333333333336,11.547005383792538 75.55555555555559,7.698003589195034 80.00000000000003,7.698003589195036 77.77777777777781,3.8490017945975294 80.00000000000004,2.531308496145357e-14 84.44444444444449,2.7286814783009402e-14 86.6666666666667,3.849001794597533 88.88888888888893,2.886579864025407e-14 93.33333333333337,3.0839528461809903e-14 95.55555555555559,3.8490017945975366 93.33333333333336,7.698003589195041 97.7777777777778,7.698003589195043 100.00000000000001,11.547005383792548 102.22222222222224,7.698003589195045 106.66666666666669,7.6980035891950465 104.44444444444447,3.84900179459754 106.6666666666667,3.597122599785507e-14 111.11111111111114,3.7944955819410905e-14 113.33333333333336,3.8490017945975437 115.55555555555559,3.952393967665557e-14 120.00000000000003,4.1497669498211406e-14 "/>
</g>
</svg>
