<?xml version="1.0" standalone="yes"?>
<svg xmlns="http://www.w3.org/2000/svg" viewBox="0 -11 120 58" stroke-linejoin="round">
<g stroke-width="0.5555555555555556">
<g fill="#fdb" stroke="#888">
<rect x="-0.10000000000000142" y="-6.677777777777785" width="13.355555555555556" height="13.355555555555556"/>
<rect x="13.255555555555556" y="-6.677777777777785" width="13.355555555555556" height="13.355555555555556"/>
<rect x="26.611111111111107" y="-6.677777777777785" width="13.355555555555556" height="13.355555555555556"/>
<rect x="39.96666666666666" y="-6.677777777777785" width="13.355555555555556" height="13.355555555555556"/>
<rect x="66.67777777777778" y="-6.677777777777785" width="13.355555555555556" height="13.355555555555556"/>
<rect x="80.03333333333333" y="-6.677777777777785" width="13.355555555555556" height="13.355555555555556"/>
<rect x="93.38888888888889" y="-6.677777777777785" width="13.355555555555556" height="13.355555555555556"/>
<rect x="106.74444444444444" y="-6.677777777777785" width="13.355555555555556" height="13.355555555555556"/>
<rect x="13.255555555555556" y="6.677777777777783" width="13.355555555555556" height="13.355555555555556"/>
<rect x="39.96666666666666" y="6.677777777777783" width="13.355555555555556" height="13.355555555555556"/>
<rect x="66.67777777777778" y="6.677777777777783" width="13.355555555555556" height="13.355555555555556"/>
<rect x="93.38888888888889" y="6.677777777777783" width="13.355555555555556" height="13.355555555555556"/>
<rect x="39.96666666666666" y="20.03333333333334" width="13.355555555555556" height="13.355555555555556"/>
<rect x="53.322222222222216" y="20.03333333333334" width="13.355555555555556" height="13.355555555555556"/>
<rect x="66.67777777777778" y="20.03333333333334" width="13.355555555555556" height="13.355555555555556"/>
<rect x="53.322222222222216" y="33.38888888888889" width="13.355555555555556" height="13.355555555555556"/>
</g>
<text stroke="none" fill="#700" x="60" y="-6.01" text-anchor="middle" font-size="6.01">n=9, filled=16</text>
</g>
<g fill="none" stroke="#000" stroke-width="1">
<path d="M 0,0 13.333333333333334,0 20.000000000000004,11.547005383792515 26.66666666666667,0 40.00000000000001,0 46.66666666666668,11.547005383792515 40.000000000000014,23.094010767585033 53.33333333333335,23.094010767585033 60.00000000000002,34.64101615137755 66.66666666666669,23.094010767585033 80.00000000000001,23.094010767585033 73.33333333333334,11.547005383792516 80.00000000000001,1.7763568394002505e-15 93.33333333333334,1.7763568394002505e-15 100.00000000000001,11.547005383792516 106.66666666666669,1.7763568394002505e-15 120.00000000000001,1.7763568394002505e-15 "/>
</g>
</svg>
