<svg xmlns="http://www.w3.org/2000/svg" version="1.1" viewBox="-2 -2 204 177.20508075688772">
<path d="M 200,173.20508075688772 100,0 0,173.20508075688772 Z" stroke-width="4" stroke="black" stroke-linejoin="round" fill="black"/>
<text x="195" y="173.20508075688772" fill="#ff8080" text-anchor="middle" font-family="arial" font-size="10px">L</text>
<text x="100" y="10" fill="#00ff00" text-anchor="middle" font-family="arial" font-size="10px">M</text>
<text x="5" y="173.20508075688772" fill="#8080ff" text-anchor="middle" font-family="arial" font-size="10px">S</text>
<circle title="390nm" fill="white" cx="13.196637342691243" cy="166.05661910007188" r="1.0"/>
<circle title="395nm" fill="white" cx="13.829274513806205" cy="165.55416644343663" r="1.0"/>
<circle title="400nm" fill="white" cx="13.832181546158488" cy="165.69574256174994" r="1.0"/>
<circle title="405nm" fill="white" cx="13.668388019282519" cy="165.5647495011081" r="1.0"/>
<circle title="410nm" fill="white" cx="13.73306997819474" cy="165.30911707872377" r="1.0"/>
<circle title="415nm" fill="white" cx="12.388231684087367" cy="165.80583565349215" r="1.0"/>
<circle title="420nm" fill="white" cx="12.292486190268088" cy="165.3968129845917" r="1.0"/>
<circle title="425nm" fill="white" cx="11.620329803434364" cy="165.32647666232216" r="1.0"/>
<circle title="430nm" fill="white" cx="12.003332435060672" cy="164.55756685464908" r="1.0"/>
<circle title="435nm" fill="white" cx="12.682633950931475" cy="163.64162780854946" r="1.0"/>
<circle title="440nm" fill="white" cx="13.971773865143573" cy="162.30660710769556" r="1.0"/>
<circle title="445nm" fill="white" cx="15.075601748696611" cy="161.1741886790313" r="1.0"/>
<circle title="450nm" fill="white" cx="17.808095130999643" cy="158.7285325722404" r="1.0"/>
<circle title="455nm" fill="white" cx="21.98023153410656" cy="155.1228194824072" r="1.0"/>
<circle title="460nm" fill="white" cx="26.64881503411708" cy="151.12574003575776" r="1.0"/>
<circle title="465nm" fill="white" cx="35.22002882101339" cy="144.13287145685783" r="1.0"/>
<circle title="470nm" fill="white" cx="43.42357164209336" cy="137.69810706033937" r="1.0"/>
<circle title="475nm" fill="white" cx="56.12854668471071" cy="127.83903644876736" r="1.0"/>
<circle title="480nm" fill="white" cx="71.04597678157053" cy="116.59221377393752" r="1.0"/>
<circle title="485nm" fill="white" cx="85.49429056338947" cy="105.98443190304084" r="1.0"/>
<circle title="490nm" fill="white" cx="99.77658022604467" cy="96.0352892119618" r="1.0"/>
<circle title="495nm" fill="white" cx="111.98163180285032" cy="88.43483481548881" r="1.0"/>
<circle title="500nm" fill="white" cx="121.87747563869907" cy="82.95957883100309" r="1.0"/>
<circle title="505nm" fill="white" cx="129.1119481186117" cy="79.40043485227369" r="1.0"/>
<circle title="510nm" fill="white" cx="134.4121461404877" cy="77.57995600885134" r="1.0"/>
<circle title="515nm" fill="white" cx="138.16712769324175" cy="76.82322151851359" r="1.0"/>
<circle title="520nm" fill="white" cx="140.67206767620613" cy="76.83838494275533" r="1.0"/>
<circle title="525nm" fill="white" cx="142.5869094854134" cy="77.55845872201341" r="1.0"/>
<circle title="530nm" fill="white" cx="144.0828692860093" cy="78.6733402369907" r="1.0"/>
<circle title="535nm" fill="white" cx="145.321253862643" cy="79.96537915817817" r="1.0"/>
<circle title="540nm" fill="white" cx="146.43987480478816" cy="81.38934166579797" r="1.0"/>
<circle title="545nm" fill="white" cx="147.52542790910704" cy="82.93883542534822" r="1.0"/>
<circle title="550nm" fill="white" cx="148.6775101623882" cy="84.72418865616326" r="1.0"/>
<circle title="555nm" fill="white" cx="150.0050584444057" cy="86.89184998490366" r="1.0"/>
<circle title="560nm" fill="white" cx="151.47376279202837" cy="89.3511261470444" r="1.0"/>
<circle title="565nm" fill="white" cx="153.10695354911041" cy="92.12101906631298" r="1.0"/>
<circle title="570nm" fill="white" cx="154.8859467150891" cy="95.16093915815337" r="1.0"/>
<circle title="575nm" fill="white" cx="157.05290673265839" cy="98.88770359359317" r="1.0"/>
<circle title="580nm" fill="white" cx="159.55053831531072" cy="103.19597235301617" r="1.0"/>
<circle title="585nm" fill="white" cx="162.01417962870386" cy="107.45003287086895" r="1.0"/>
<circle title="590nm" fill="white" cx="164.65835084802515" cy="112.02056707178305" r="1.0"/>
<circle title="595nm" fill="white" cx="167.68474653423553" cy="117.25596868223803" r="1.0"/>
<circle title="600nm" fill="white" cx="170.7507046086576" cy="122.56166155180206" r="1.0"/>
<circle title="605nm" fill="white" cx="173.68781304493808" cy="127.64539464690331" r="1.0"/>
<circle title="610nm" fill="white" cx="176.614081862445" cy="132.71128063642502" r="1.0"/>
<circle title="615nm" fill="white" cx="179.46432870173098" cy="137.64616709302152" r="1.0"/>
<circle title="620nm" fill="white" cx="181.97032919136564" cy="141.98526785631327" r="1.0"/>
<circle title="625nm" fill="white" cx="184.1360685266459" cy="145.73538048763993" r="1.0"/>
<circle title="630nm" fill="white" cx="186.07467532494724" cy="149.0923862838962" r="1.0"/>
<circle title="635nm" fill="white" cx="187.79828583725543" cy="152.0772250634405" r="1.0"/>
<circle title="640nm" fill="white" cx="189.22918638501991" cy="154.55521896967323" r="1.0"/>
<circle title="645nm" fill="white" cx="190.33894219956048" cy="156.4771113937242" r="1.0"/>
<circle title="650nm" fill="white" cx="191.19865962057253" cy="157.96608095915428" r="1.0"/>
<circle title="655nm" fill="white" cx="191.8517978993105" cy="159.09739806298182" r="1.0"/>
<circle title="660nm" fill="white" cx="192.37814406746946" cy="160.00922846274202" r="1.0"/>
<circle title="665nm" fill="white" cx="192.79957193389686" cy="160.73944224548717" r="1.0"/>
<circle title="670nm" fill="white" cx="193.11424272150677" cy="161.28483686770485" r="1.0"/>
<circle title="675nm" fill="white" cx="193.32777116522442" cy="161.65512040065525" r="1.0"/>
<circle title="680nm" fill="white" cx="193.46373830335307" cy="161.891151882447" r="1.0"/>
<circle title="685nm" fill="white" cx="193.57908798527387" cy="162.09160319946372" r="1.0"/>
<circle title="690nm" fill="white" cx="193.6556104373404" cy="162.2249860508879" r="1.0"/>
<circle title="695nm" fill="white" cx="193.66998814120382" cy="162.25104149719405" r="1.0"/>
<circle title="700nm" fill="white" cx="193.61848906671162" cy="162.16334192315222" r="1.0"/>
<circle title="705nm" fill="white" cx="193.5540105304205" cy="162.05339343754488" r="1.0"/>
<circle title="710nm" fill="white" cx="193.53639022529126" cy="162.02458463566188" r="1.0"/>
<circle title="715nm" fill="white" cx="193.5284689522128" cy="162.01259336755996" r="1.0"/>
<circle title="720nm" fill="white" cx="193.42340325279594" cy="161.83295538377638" r="1.0"/>
<circle title="725nm" fill="white" cx="193.3223603704863" cy="161.66057790162674" r="1.0"/>
<circle title="730nm" fill="white" cx="193.2240880564369" cy="161.49333363636637" r="1.0"/>
</svg>
