<svg xmlns="http://www.w3.org/2000/svg" version="1.1" viewBox="-2 -2 204 177.20508075688772">
<path d="M 200,173.20508075688772 100,0 0,173.20508075688772 Z" stroke-width="4" stroke="black" stroke-linejoin="round" fill="black"/>
<text x="195" y="173.20508075688772" fill="#ff8080" text-anchor="middle" font-family="arial" font-size="10px">L</text>
<text x="100" y="10" fill="#00ff00" text-anchor="middle" font-family="arial" font-size="10px">M</text>
<text x="5" y="173.20508075688772" fill="#8080ff" text-anchor="middle" font-family="arial" font-size="10px">S</text>
<line title="395nm" stroke="#080808" x1="13.196637342691243" y1="166.05661910007188" x2="13.829274513806205" y2="165.55416644343663" stroke-width="2" stroke-linecap="round"/>
<line title="400nm" stroke="#101010" x1="13.829274513806205" y1="165.55416644343663" x2="13.832181546158488" y2="165.69574256174994" stroke-width="2" stroke-linecap="round"/>
<line title="405nm" stroke="#222222" x1="13.832181546158488" y1="165.69574256174994" x2="13.668388019282519" y2="165.5647495011081" stroke-width="2" stroke-linecap="round"/>
<line title="410nm" stroke="#3a3a3a" x1="13.668388019282519" y1="165.5647495011081" x2="13.73306997819474" y2="165.30911707872377" stroke-width="2" stroke-linecap="round"/>
<line title="415nm" stroke="#5c5c5c" x1="13.73306997819474" y1="165.30911707872377" x2="12.388231684087367" y2="165.80583565349215" stroke-width="2" stroke-linecap="round"/>
<line title="420nm" stroke="#868686" x1="12.388231684087367" y1="165.80583565349215" x2="12.292486190268088" y2="165.3968129845917" stroke-width="2" stroke-linecap="round"/>
<line title="425nm" stroke="#afafaf" x1="12.292486190268088" y1="165.3968129845917" x2="11.620329803434364" y2="165.32647666232216" stroke-width="2" stroke-linecap="round"/>
<line title="430nm" stroke="#cbcbcb" x1="11.620329803434364" y1="165.32647666232216" x2="12.003332435060672" y2="164.55756685464908" stroke-width="2" stroke-linecap="round"/>
<line title="435nm" stroke="#e5e5e5" x1="12.003332435060672" y1="164.55756685464908" x2="12.682633950931475" y2="163.64162780854946" stroke-width="2" stroke-linecap="round"/>
<line title="440nm" stroke="#f6f6f6" x1="12.682633950931475" y1="163.64162780854946" x2="13.971773865143573" y2="162.30660710769556" stroke-width="2" stroke-linecap="round"/>
<line title="445nm" stroke="#ffffff" x1="13.971773865143573" y1="162.30660710769556" x2="15.075601748696611" y2="161.1741886790313" stroke-width="2" stroke-linecap="round"/>
<line title="450nm" stroke="#ebebeb" x1="15.075601748696611" y1="161.1741886790313" x2="17.808095130999643" y2="158.7285325722404" stroke-width="2" stroke-linecap="round"/>
<line title="455nm" stroke="#d3d3d3" x1="17.808095130999643" y1="158.7285325722404" x2="21.98023153410656" y2="155.1228194824072" stroke-width="2" stroke-linecap="round"/>
<line title="460nm" stroke="#c9c9c9" x1="21.98023153410656" y1="155.1228194824072" x2="26.64881503411708" y2="151.12574003575776" stroke-width="2" stroke-linecap="round"/>
<line title="465nm" stroke="#ababab" x1="26.64881503411708" y1="151.12574003575776" x2="35.22002882101339" y2="144.13287145685783" stroke-width="2" stroke-linecap="round"/>
<line title="470nm" stroke="#9d9d9d" x1="35.22002882101339" y1="144.13287145685783" x2="43.42357164209336" y2="137.69810706033937" stroke-width="2" stroke-linecap="round"/>
<line title="475nm" stroke="#7e7e7e" x1="43.42357164209336" y1="137.69810706033937" x2="56.12854668471071" y2="127.83903644876736" stroke-width="2" stroke-linecap="round"/>
<line title="480nm" stroke="#5e5e5e" x1="56.12854668471071" y1="127.83903644876736" x2="71.04597678157053" y2="116.59221377393752" stroke-width="2" stroke-linecap="round"/>
<line title="485nm" stroke="#474747" x1="71.04597678157053" y1="116.59221377393752" x2="85.49429056338947" y2="105.98443190304084" stroke-width="2" stroke-linecap="round"/>
<line title="490nm" stroke="#535353" x1="85.49429056338947" y1="105.98443190304084" x2="99.77658022604467" y2="96.0352892119618" stroke-width="2" stroke-linecap="round"/>
<line title="495nm" stroke="#636363" x1="99.77658022604467" y1="96.0352892119618" x2="111.98163180285032" y2="88.43483481548881" stroke-width="2" stroke-linecap="round"/>
<line title="500nm" stroke="#777777" x1="111.98163180285032" y1="88.43483481548881" x2="121.87747563869907" y2="82.95957883100309" stroke-width="2" stroke-linecap="round"/>
<line title="505nm" stroke="#8f8f8f" x1="121.87747563869907" y1="82.95957883100309" x2="129.1119481186117" y2="79.40043485227369" stroke-width="2" stroke-linecap="round"/>
<line title="510nm" stroke="#a8a8a8" x1="129.1119481186117" y1="79.40043485227369" x2="134.4121461404877" y2="77.57995600885134" stroke-width="2" stroke-linecap="round"/>
<line title="515nm" stroke="#c2c2c2" x1="134.4121461404877" y1="77.57995600885134" x2="138.16712769324175" y2="76.82322151851359" stroke-width="2" stroke-linecap="round"/>
<line title="520nm" stroke="#dadada" x1="138.16712769324175" y1="76.82322151851359" x2="140.67206767620613" y2="76.83838494275533" stroke-width="2" stroke-linecap="round"/>
<line title="525nm" stroke="#ededed" x1="140.67206767620613" y1="76.83838494275533" x2="142.5869094854134" y2="77.55845872201341" stroke-width="2" stroke-linecap="round"/>
<line title="530nm" stroke="#f9f9f9" x1="142.5869094854134" y1="77.55845872201341" x2="144.0828692860093" y2="78.6733402369907" stroke-width="2" stroke-linecap="round"/>
<line title="535nm" stroke="#ffffff" x1="144.0828692860093" y1="78.6733402369907" x2="145.321253862643" y2="79.96537915817817" stroke-width="2" stroke-linecap="round"/>
<line title="540nm" stroke="#ffffff" x1="145.321253862643" y1="79.96537915817817" x2="146.43987480478816" y2="81.38934166579797" stroke-width="2" stroke-linecap="round"/>
<line title="545nm" stroke="#ffffff" x1="146.43987480478816" y1="81.38934166579797" x2="147.52542790910704" y2="82.93883542534822" stroke-width="2" stroke-linecap="round"/>
<line title="550nm" stroke="#fefefe" x1="147.52542790910704" y1="82.93883542534822" x2="148.6775101623882" y2="84.72418865616326" stroke-width="2" stroke-linecap="round"/>
<line title="555nm" stroke="#f7f7f7" x1="148.6775101623882" y1="84.72418865616326" x2="150.0050584444057" y2="86.89184998490366" stroke-width="2" stroke-linecap="round"/>
<line title="560nm" stroke="#f7f7f7" x1="150.0050584444057" y1="86.89184998490366" x2="151.47376279202837" y2="89.3511261470444" stroke-width="2" stroke-linecap="round"/>
<line title="565nm" stroke="#fafafa" x1="151.47376279202837" y1="89.3511261470444" x2="153.10695354911041" y2="92.12101906631298" stroke-width="2" stroke-linecap="round"/>
<line title="570nm" stroke="#ffffff" x1="153.10695354911041" y1="92.12101906631298" x2="154.8859467150891" y2="95.16093915815337" stroke-width="2" stroke-linecap="round"/>
<line title="575nm" stroke="#fefefe" x1="154.8859467150891" y1="95.16093915815337" x2="157.05290673265839" y2="98.88770359359317" stroke-width="2" stroke-linecap="round"/>
<line title="580nm" stroke="#f9f9f9" x1="157.05290673265839" y1="98.88770359359317" x2="159.55053831531072" y2="103.19597235301617" stroke-width="2" stroke-linecap="round"/>
<line title="585nm" stroke="#f5f5f5" x1="159.55053831531072" y1="103.19597235301617" x2="162.01417962870386" y2="107.45003287086895" stroke-width="2" stroke-linecap="round"/>
<line title="590nm" stroke="#eeeeee" x1="162.01417962870386" y1="107.45003287086895" x2="164.65835084802515" y2="112.02056707178305" stroke-width="2" stroke-linecap="round"/>
<line title="595nm" stroke="#e4e4e4" x1="164.65835084802515" y1="112.02056707178305" x2="167.68474653423553" y2="117.25596868223803" stroke-width="2" stroke-linecap="round"/>
<line title="600nm" stroke="#d7d7d7" x1="167.68474653423553" y1="117.25596868223803" x2="170.7507046086576" y2="122.56166155180206" stroke-width="2" stroke-linecap="round"/>
<line title="605nm" stroke="#c9c9c9" x1="170.7507046086576" y1="122.56166155180206" x2="173.68781304493808" y2="127.64539464690331" stroke-width="2" stroke-linecap="round"/>
<line title="610nm" stroke="#b7b7b7" x1="173.68781304493808" y1="127.64539464690331" x2="176.614081862445" y2="132.71128063642502" stroke-width="2" stroke-linecap="round"/>
<line title="615nm" stroke="#a5a5a5" x1="176.614081862445" y1="132.71128063642502" x2="179.46432870173098" y2="137.64616709302152" stroke-width="2" stroke-linecap="round"/>
<line title="620nm" stroke="#919191" x1="179.46432870173098" y1="137.64616709302152" x2="181.97032919136564" y2="141.98526785631327" stroke-width="2" stroke-linecap="round"/>
<line title="625nm" stroke="#7d7d7d" x1="181.97032919136564" y1="141.98526785631327" x2="184.1360685266459" y2="145.73538048763993" stroke-width="2" stroke-linecap="round"/>
<line title="630nm" stroke="#696969" x1="184.1360685266459" y1="145.73538048763993" x2="186.07467532494724" y2="149.0923862838962" stroke-width="2" stroke-linecap="round"/>
<line title="635nm" stroke="#565656" x1="186.07467532494724" y1="149.0923862838962" x2="187.79828583725543" y2="152.0772250634405" stroke-width="2" stroke-linecap="round"/>
<line title="640nm" stroke="#464646" x1="187.79828583725543" y1="152.0772250634405" x2="189.22918638501991" y2="154.55521896967323" stroke-width="2" stroke-linecap="round"/>
<line title="645nm" stroke="#383838" x1="189.22918638501991" y1="154.55521896967323" x2="190.33894219956048" y2="156.4771113937242" stroke-width="2" stroke-linecap="round"/>
<line title="650nm" stroke="#2b2b2b" x1="190.33894219956048" y1="156.4771113937242" x2="191.19865962057253" y2="157.96608095915428" stroke-width="2" stroke-linecap="round"/>
<line title="655nm" stroke="#212121" x1="191.19865962057253" y1="157.96608095915428" x2="191.8517978993105" y2="159.09739806298182" stroke-width="2" stroke-linecap="round"/>
<line title="660nm" stroke="#181818" x1="191.8517978993105" y1="159.09739806298182" x2="192.37814406746946" y2="160.00922846274202" stroke-width="2" stroke-linecap="round"/>
<line title="665nm" stroke="#121212" x1="192.37814406746946" y1="160.00922846274202" x2="192.79957193389686" y2="160.73944224548717" stroke-width="2" stroke-linecap="round"/>
<line title="670nm" stroke="#0d0d0d" x1="192.79957193389686" y1="160.73944224548717" x2="193.11424272150677" y2="161.28483686770485" stroke-width="2" stroke-linecap="round"/>
<line title="675nm" stroke="#090909" x1="193.11424272150677" y1="161.28483686770485" x2="193.32777116522442" y2="161.65512040065525" stroke-width="2" stroke-linecap="round"/>
<line title="680nm" stroke="#070707" x1="193.32777116522442" y1="161.65512040065525" x2="193.46373830335307" y2="161.891151882447" stroke-width="2" stroke-linecap="round"/>
<line title="685nm" stroke="#050505" x1="193.46373830335307" y1="161.891151882447" x2="193.57908798527387" y2="162.09160319946372" stroke-width="2" stroke-linecap="round"/>
<line title="690nm" stroke="#040404" x1="193.57908798527387" y1="162.09160319946372" x2="193.6556104373404" y2="162.2249860508879" stroke-width="2" stroke-linecap="round"/>
<line title="695nm" stroke="#030303" x1="193.6556104373404" y1="162.2249860508879" x2="193.66998814120382" y2="162.25104149719405" stroke-width="2" stroke-linecap="round"/>
<line title="700nm" stroke="#020202" x1="193.66998814120382" y1="162.25104149719405" x2="193.61848906671162" y2="162.16334192315222" stroke-width="2" stroke-linecap="round"/>
<line title="705nm" stroke="#020202" x1="193.61848906671162" y1="162.16334192315222" x2="193.5540105304205" y2="162.05339343754488" stroke-width="2" stroke-linecap="round"/>
<line title="710nm" stroke="#010101" x1="193.5540105304205" y1="162.05339343754488" x2="193.53639022529126" y2="162.02458463566188" stroke-width="2" stroke-linecap="round"/>
<line title="715nm" stroke="#010101" x1="193.53639022529126" y1="162.02458463566188" x2="193.5284689522128" y2="162.01259336755996" stroke-width="2" stroke-linecap="round"/>
<line title="720nm" stroke="#010101" x1="193.5284689522128" y1="162.01259336755996" x2="193.42340325279594" y2="161.83295538377638" stroke-width="2" stroke-linecap="round"/>
<line title="725nm" stroke="#010101" x1="193.42340325279594" y1="161.83295538377638" x2="193.3223603704863" y2="161.66057790162674" stroke-width="2" stroke-linecap="round"/>
<line title="730nm" stroke="#010101" x1="193.3223603704863" y1="161.66057790162674" x2="193.2240880564369" y2="161.49333363636637" stroke-width="2" stroke-linecap="round"/>
<circle title="blue" fill="#0000FF" cx="29.66080308605109" cy="153.11965505264138" r="2"/>
<circle title="green" fill="#00FF00" cx="145.40272952980698" cy="88.04003951811285" r="2"/>
<circle title="red" fill="#FF0000" cx="185.51885201215984" cy="149.69793107753082" r="2"/>
</svg>
