<svg xmlns="http://www.w3.org/2000/svg" version="1.1" viewBox="-2 -2 204 177.20508075688772">
<path d="M 200,173.20508075688772 100,0 0,173.20508075688772 Z" stroke-width="4" stroke="black" stroke-linejoin="round"/>
<text x="195" y="173.20508075688772" fill="#ff8080" text-anchor="middle" font-family="arial" font-size="10px">L</text>
<text x="100" y="10" fill="#00ff00" text-anchor="middle" font-family="arial" font-size="10px">M</text>
<text x="5" y="173.20508075688772" fill="#8080ff" text-anchor="middle" font-family="arial" font-size="10px">S</text>
<line stroke-width="2" stroke="#222222" x1="13.196637342691243" y1="166.05661910007188" x2="13.829274513806205" y2="165.55416644343663" stroke-linecap="round" title="395nm"/>
<line stroke-width="2" stroke="#2a2a2a" x1="13.829274513806205" y1="165.55416644343663" x2="13.832181546158488" y2="165.69574256174994" stroke-linecap="round" title="400nm"/>
<line stroke-width="2" stroke="#3e3e3e" x1="13.832181546158488" y1="165.69574256174994" x2="13.668388019282519" y2="165.5647495011081" stroke-linecap="round" title="405nm"/>
<line stroke-width="2" stroke="#595959" x1="13.668388019282519" y1="165.5647495011081" x2="13.73306997819474" y2="165.30911707872377" stroke-linecap="round" title="410nm"/>
<line stroke-width="2" stroke="#7d7d7d" x1="13.73306997819474" y1="165.30911707872377" x2="12.388231684087367" y2="165.80583565349215" stroke-linecap="round" title="415nm"/>
<line stroke-width="2" stroke="#ababab" x1="12.388231684087367" y1="165.80583565349215" x2="12.292486190268088" y2="165.3968129845917" stroke-linecap="round" title="420nm"/>
<line stroke-width="2" stroke="#d7d7d7" x1="12.292486190268088" y1="165.3968129845917" x2="11.620329803434364" y2="165.32647666232216" stroke-linecap="round" title="425nm"/>
<line stroke-width="2" stroke="#f7f7f7" x1="11.620329803434364" y1="165.32647666232216" x2="12.003332435060672" y2="164.55756685464908" stroke-linecap="round" title="430nm"/>
<line stroke-width="2" stroke="#ffffff" x1="12.003332435060672" y1="164.55756685464908" x2="12.682633950931475" y2="163.64162780854946" stroke-linecap="round" title="435nm"/>
<line stroke-width="2" stroke="#ffffff" x1="12.682633950931475" y1="163.64162780854946" x2="13.971773865143573" y2="162.30660710769556" stroke-linecap="round" title="440nm"/>
<line stroke-width="2" stroke="#ffffff" x1="13.971773865143573" y1="162.30660710769556" x2="15.075601748696611" y2="161.1741886790313" stroke-linecap="round" title="445nm"/>
<line stroke-width="2" stroke="#ffffff" x1="15.075601748696611" y1="161.1741886790313" x2="17.808095130999643" y2="158.7285325722404" stroke-linecap="round" title="450nm"/>
<line stroke-width="2" stroke="#ffffff" x1="17.808095130999643" y1="158.7285325722404" x2="21.98023153410656" y2="155.1228194824072" stroke-linecap="round" title="455nm"/>
<line stroke-width="2" stroke="#ffffff" x1="21.98023153410656" y1="155.1228194824072" x2="26.64881503411708" y2="151.12574003575776" stroke-linecap="round" title="460nm"/>
<line stroke-width="2" stroke="#ffffff" x1="26.64881503411708" y1="151.12574003575776" x2="35.22002882101339" y2="144.13287145685783" stroke-linecap="round" title="465nm"/>
<line stroke-width="2" stroke="#ffffff" x1="35.22002882101339" y1="144.13287145685783" x2="43.42357164209336" y2="137.69810706033937" stroke-linecap="round" title="470nm"/>
<line stroke-width="2" stroke="#eeeeee" x1="43.42357164209336" y1="137.69810706033937" x2="56.12854668471071" y2="127.83903644876736" stroke-linecap="round" title="475nm"/>
<line stroke-width="2" stroke="#dbdbdb" x1="56.12854668471071" y1="127.83903644876736" x2="71.04597678157053" y2="116.59221377393752" stroke-linecap="round" title="480nm"/>
<line stroke-width="2" stroke="#d0d0d0" x1="71.04597678157053" y1="116.59221377393752" x2="85.49429056338947" y2="105.98443190304084" stroke-linecap="round" title="485nm"/>
<line stroke-width="2" stroke="#d2d2d2" x1="85.49429056338947" y1="105.98443190304084" x2="99.77658022604467" y2="96.0352892119618" stroke-linecap="round" title="490nm"/>
<line stroke-width="2" stroke="#e2e2e2" x1="99.77658022604467" y1="96.0352892119618" x2="111.98163180285032" y2="88.43483481548881" stroke-linecap="round" title="495nm"/>
<line stroke-width="2" stroke="#fcfcfc" x1="111.98163180285032" y1="88.43483481548881" x2="121.87747563869907" y2="82.95957883100309" stroke-linecap="round" title="500nm"/>
<line stroke-width="2" stroke="#ffffff" x1="121.87747563869907" y1="82.95957883100309" x2="129.1119481186117" y2="79.40043485227369" stroke-linecap="round" title="505nm"/>
<line stroke-width="2" stroke="#ffffff" x1="129.1119481186117" y1="79.40043485227369" x2="134.4121461404877" y2="77.57995600885134" stroke-linecap="round" title="510nm"/>
<line stroke-width="2" stroke="#ffffff" x1="134.4121461404877" y1="77.57995600885134" x2="138.16712769324175" y2="76.82322151851359" stroke-linecap="round" title="515nm"/>
<line stroke-width="2" stroke="#ffffff" x1="138.16712769324175" y1="76.82322151851359" x2="140.67206767620613" y2="76.83838494275533" stroke-linecap="round" title="520nm"/>
<line stroke-width="2" stroke="#ffffff" x1="140.67206767620613" y1="76.83838494275533" x2="142.5869094854134" y2="77.55845872201341" stroke-linecap="round" title="525nm"/>
<line stroke-width="2" stroke="#ffffff" x1="142.5869094854134" y1="77.55845872201341" x2="144.0828692860093" y2="78.6733402369907" stroke-linecap="round" title="530nm"/>
<line stroke-width="2" stroke="#ffffff" x1="144.0828692860093" y1="78.6733402369907" x2="145.321253862643" y2="79.96537915817817" stroke-linecap="round" title="535nm"/>
<line stroke-width="2" stroke="#ffffff" x1="145.321253862643" y1="79.96537915817817" x2="146.43987480478816" y2="81.38934166579797" stroke-linecap="round" title="540nm"/>
<line stroke-width="2" stroke="#ffffff" x1="146.43987480478816" y1="81.38934166579797" x2="147.52542790910704" y2="82.93883542534822" stroke-linecap="round" title="545nm"/>
<line stroke-width="2" stroke="#ffffff" x1="147.52542790910704" y1="82.93883542534822" x2="148.6775101623882" y2="84.72418865616326" stroke-linecap="round" title="550nm"/>
<line stroke-width="2" stroke="#ffffff" x1="148.6775101623882" y1="84.72418865616326" x2="150.0050584444057" y2="86.89184998490366" stroke-linecap="round" title="555nm"/>
<line stroke-width="2" stroke="#ffffff" x1="150.0050584444057" y1="86.89184998490366" x2="151.47376279202837" y2="89.3511261470444" stroke-linecap="round" title="560nm"/>
<line stroke-width="2" stroke="#ffffff" x1="151.47376279202837" y1="89.3511261470444" x2="153.10695354911041" y2="92.12101906631298" stroke-linecap="round" title="565nm"/>
<line stroke-width="2" stroke="#ffffff" x1="153.10695354911041" y1="92.12101906631298" x2="154.8859467150891" y2="95.16093915815337" stroke-linecap="round" title="570nm"/>
<line stroke-width="2" stroke="#ffffff" x1="154.8859467150891" y1="95.16093915815337" x2="157.05290673265839" y2="98.88770359359317" stroke-linecap="round" title="575nm"/>
<line stroke-width="2" stroke="#ffffff" x1="157.05290673265839" y1="98.88770359359317" x2="159.55053831531072" y2="103.19597235301617" stroke-linecap="round" title="580nm"/>
<line stroke-width="2" stroke="#ffffff" x1="159.55053831531072" y1="103.19597235301617" x2="162.01417962870386" y2="107.45003287086895" stroke-linecap="round" title="585nm"/>
<line stroke-width="2" stroke="#ffffff" x1="162.01417962870386" y1="107.45003287086895" x2="164.65835084802515" y2="112.02056707178305" stroke-linecap="round" title="590nm"/>
<line stroke-width="2" stroke="#ffffff" x1="164.65835084802515" y1="112.02056707178305" x2="167.68474653423553" y2="117.25596868223803" stroke-linecap="round" title="595nm"/>
<line stroke-width="2" stroke="#ffffff" x1="167.68474653423553" y1="117.25596868223803" x2="170.7507046086576" y2="122.56166155180206" stroke-linecap="round" title="600nm"/>
<line stroke-width="2" stroke="#ffffff" x1="170.7507046086576" y1="122.56166155180206" x2="173.68781304493808" y2="127.64539464690331" stroke-linecap="round" title="605nm"/>
<line stroke-width="2" stroke="#ffffff" x1="173.68781304493808" y1="127.64539464690331" x2="176.614081862445" y2="132.71128063642502" stroke-linecap="round" title="610nm"/>
<line stroke-width="2" stroke="#e8e8e8" x1="176.614081862445" y1="132.71128063642502" x2="179.46432870173098" y2="137.64616709302152" stroke-linecap="round" title="615nm"/>
<line stroke-width="2" stroke="#c9c9c9" x1="179.46432870173098" y1="137.64616709302152" x2="181.97032919136564" y2="141.98526785631327" stroke-linecap="round" title="620nm"/>
<line stroke-width="2" stroke="#adadad" x1="181.97032919136564" y1="141.98526785631327" x2="184.1360685266459" y2="145.73538048763993" stroke-linecap="round" title="625nm"/>
<line stroke-width="2" stroke="#929292" x1="184.1360685266459" y1="145.73538048763993" x2="186.07467532494724" y2="149.0923862838962" stroke-linecap="round" title="630nm"/>
<line stroke-width="2" stroke="#7b7b7b" x1="186.07467532494724" y1="149.0923862838962" x2="187.79828583725543" y2="152.0772250634405" stroke-linecap="round" title="635nm"/>
<line stroke-width="2" stroke="#676767" x1="187.79828583725543" y1="152.0772250634405" x2="189.22918638501991" y2="154.55521896967323" stroke-linecap="round" title="640nm"/>
<line stroke-width="2" stroke="#565656" x1="189.22918638501991" y1="154.55521896967323" x2="190.33894219956048" y2="156.4771113937242" stroke-linecap="round" title="645nm"/>
<line stroke-width="2" stroke="#484848" x1="190.33894219956048" y1="156.4771113937242" x2="191.19865962057253" y2="157.96608095915428" stroke-linecap="round" title="650nm"/>
<line stroke-width="2" stroke="#3c3c3c" x1="191.19865962057253" y1="157.96608095915428" x2="191.8517978993105" y2="159.09739806298182" stroke-linecap="round" title="655nm"/>
<line stroke-width="2" stroke="#333333" x1="191.8517978993105" y1="159.09739806298182" x2="192.37814406746946" y2="160.00922846274202" stroke-linecap="round" title="660nm"/>
<line stroke-width="2" stroke="#2c2c2c" x1="192.37814406746946" y1="160.00922846274202" x2="192.79957193389686" y2="160.73944224548717" stroke-linecap="round" title="665nm"/>
<line stroke-width="2" stroke="#262626" x1="192.79957193389686" y1="160.73944224548717" x2="193.11424272150677" y2="161.28483686770485" stroke-linecap="round" title="670nm"/>
<line stroke-width="2" stroke="#232323" x1="193.11424272150677" y1="161.28483686770485" x2="193.32777116522442" y2="161.65512040065525" stroke-linecap="round" title="675nm"/>
<line stroke-width="2" stroke="#202020" x1="193.32777116522442" y1="161.65512040065525" x2="193.46373830335307" y2="161.891151882447" stroke-linecap="round" title="680nm"/>
<line stroke-width="2" stroke="#1e1e1e" x1="193.46373830335307" y1="161.891151882447" x2="193.57908798527387" y2="162.09160319946372" stroke-linecap="round" title="685nm"/>
<line stroke-width="2" stroke="#1c1c1c" x1="193.57908798527387" y1="162.09160319946372" x2="193.6556104373404" y2="162.2249860508879" stroke-linecap="round" title="690nm"/>
<line stroke-width="2" stroke="#1b1b1b" x1="193.6556104373404" y1="162.2249860508879" x2="193.66998814120382" y2="162.25104149719405" stroke-linecap="round" title="695nm"/>
<line stroke-width="2" stroke="#1b1b1b" x1="193.66998814120382" y1="162.25104149719405" x2="193.61848906671162" y2="162.16334192315222" stroke-linecap="round" title="700nm"/>
<line stroke-width="2" stroke="#1a1a1a" x1="193.61848906671162" y1="162.16334192315222" x2="193.5540105304205" y2="162.05339343754488" stroke-linecap="round" title="705nm"/>
<line stroke-width="2" stroke="#1a1a1a" x1="193.5540105304205" y1="162.05339343754488" x2="193.53639022529126" y2="162.02458463566188" stroke-linecap="round" title="710nm"/>
<line stroke-width="2" stroke="#1a1a1a" x1="193.53639022529126" y1="162.02458463566188" x2="193.5284689522128" y2="162.01259336755996" stroke-linecap="round" title="715nm"/>
<line stroke-width="2" stroke="#191919" x1="193.5284689522128" y1="162.01259336755996" x2="193.42340325279594" y2="161.83295538377638" stroke-linecap="round" title="720nm"/>
<line stroke-width="2" stroke="#191919" x1="193.42340325279594" y1="161.83295538377638" x2="193.3223603704863" y2="161.66057790162674" stroke-linecap="round" title="725nm"/>
<line stroke-width="2" stroke="#191919" x1="193.3223603704863" y1="161.66057790162674" x2="193.2240880564369" y2="161.49333363636637" stroke-linecap="round" title="730nm"/>
</svg>
