<svg xmlns="http://www.w3.org/2000/svg" version="1.1" viewBox="-2 -2 204 177.20508075688772">
<path d="M 200,173.20508075688772 100,0 0,173.20508075688772 Z" stroke-width="4" stroke="black" stroke-linejoin="round" fill="black"/>
<text x="195" y="173.20508075688772" fill="#ff8080" text-anchor="middle" font-family="arial" font-size="10px">L</text>
<text x="100" y="10" fill="#00ff00" text-anchor="middle" font-family="arial" font-size="10px">M</text>
<text x="5" y="173.20508075688772" fill="#8080ff" text-anchor="middle" font-family="arial" font-size="10px">S</text>
<circle title="390nm" fill="white" x1="13.196637342691243" y1="166.05661910007188" r="2"/>
<circle title="395nm" fill="white" x1="13.829274513806205" y1="165.55416644343663" r="2"/>
<circle title="400nm" fill="white" x1="13.832181546158488" y1="165.69574256174994" r="2"/>
<circle title="405nm" fill="white" x1="13.668388019282519" y1="165.5647495011081" r="2"/>
<circle title="410nm" fill="white" x1="13.73306997819474" y1="165.30911707872377" r="2"/>
<circle title="415nm" fill="white" x1="12.388231684087367" y1="165.80583565349215" r="2"/>
<circle title="420nm" fill="white" x1="12.292486190268088" y1="165.3968129845917" r="2"/>
<circle title="425nm" fill="white" x1="11.620329803434364" y1="165.32647666232216" r="2"/>
<circle title="430nm" fill="white" x1="12.003332435060672" y1="164.55756685464908" r="2"/>
<circle title="435nm" fill="white" x1="12.682633950931475" y1="163.64162780854946" r="2"/>
<circle title="440nm" fill="white" x1="13.971773865143573" y1="162.30660710769556" r="2"/>
<circle title="445nm" fill="white" x1="15.075601748696611" y1="161.1741886790313" r="2"/>
<circle title="450nm" fill="white" x1="17.808095130999643" y1="158.7285325722404" r="2"/>
<circle title="455nm" fill="white" x1="21.98023153410656" y1="155.1228194824072" r="2"/>
<circle title="460nm" fill="white" x1="26.64881503411708" y1="151.12574003575776" r="2"/>
<circle title="465nm" fill="white" x1="35.22002882101339" y1="144.13287145685783" r="2"/>
<circle title="470nm" fill="white" x1="43.42357164209336" y1="137.69810706033937" r="2"/>
<circle title="475nm" fill="white" x1="56.12854668471071" y1="127.83903644876736" r="2"/>
<circle title="480nm" fill="white" x1="71.04597678157053" y1="116.59221377393752" r="2"/>
<circle title="485nm" fill="white" x1="85.49429056338947" y1="105.98443190304084" r="2"/>
<circle title="490nm" fill="white" x1="99.77658022604467" y1="96.0352892119618" r="2"/>
<circle title="495nm" fill="white" x1="111.98163180285032" y1="88.43483481548881" r="2"/>
<circle title="500nm" fill="white" x1="121.87747563869907" y1="82.95957883100309" r="2"/>
<circle title="505nm" fill="white" x1="129.1119481186117" y1="79.40043485227369" r="2"/>
<circle title="510nm" fill="white" x1="134.4121461404877" y1="77.57995600885134" r="2"/>
<circle title="515nm" fill="white" x1="138.16712769324175" y1="76.82322151851359" r="2"/>
<circle title="520nm" fill="white" x1="140.67206767620613" y1="76.83838494275533" r="2"/>
<circle title="525nm" fill="white" x1="142.5869094854134" y1="77.55845872201341" r="2"/>
<circle title="530nm" fill="white" x1="144.0828692860093" y1="78.6733402369907" r="2"/>
<circle title="535nm" fill="white" x1="145.321253862643" y1="79.96537915817817" r="2"/>
<circle title="540nm" fill="white" x1="146.43987480478816" y1="81.38934166579797" r="2"/>
<circle title="545nm" fill="white" x1="147.52542790910704" y1="82.93883542534822" r="2"/>
<circle title="550nm" fill="white" x1="148.6775101623882" y1="84.72418865616326" r="2"/>
<circle title="555nm" fill="white" x1="150.0050584444057" y1="86.89184998490366" r="2"/>
<circle title="560nm" fill="white" x1="151.47376279202837" y1="89.3511261470444" r="2"/>
<circle title="565nm" fill="white" x1="153.10695354911041" y1="92.12101906631298" r="2"/>
<circle title="570nm" fill="white" x1="154.8859467150891" y1="95.16093915815337" r="2"/>
<circle title="575nm" fill="white" x1="157.05290673265839" y1="98.88770359359317" r="2"/>
<circle title="580nm" fill="white" x1="159.55053831531072" y1="103.19597235301617" r="2"/>
<circle title="585nm" fill="white" x1="162.01417962870386" y1="107.45003287086895" r="2"/>
<circle title="590nm" fill="white" x1="164.65835084802515" y1="112.02056707178305" r="2"/>
<circle title="595nm" fill="white" x1="167.68474653423553" y1="117.25596868223803" r="2"/>
<circle title="600nm" fill="white" x1="170.7507046086576" y1="122.56166155180206" r="2"/>
<circle title="605nm" fill="white" x1="173.68781304493808" y1="127.64539464690331" r="2"/>
<circle title="610nm" fill="white" x1="176.614081862445" y1="132.71128063642502" r="2"/>
<circle title="615nm" fill="white" x1="179.46432870173098" y1="137.64616709302152" r="2"/>
<circle title="620nm" fill="white" x1="181.97032919136564" y1="141.98526785631327" r="2"/>
<circle title="625nm" fill="white" x1="184.1360685266459" y1="145.73538048763993" r="2"/>
<circle title="630nm" fill="white" x1="186.07467532494724" y1="149.0923862838962" r="2"/>
<circle title="635nm" fill="white" x1="187.79828583725543" y1="152.0772250634405" r="2"/>
<circle title="640nm" fill="white" x1="189.22918638501991" y1="154.55521896967323" r="2"/>
<circle title="645nm" fill="white" x1="190.33894219956048" y1="156.4771113937242" r="2"/>
<circle title="650nm" fill="white" x1="191.19865962057253" y1="157.96608095915428" r="2"/>
<circle title="655nm" fill="white" x1="191.8517978993105" y1="159.09739806298182" r="2"/>
<circle title="660nm" fill="white" x1="192.37814406746946" y1="160.00922846274202" r="2"/>
<circle title="665nm" fill="white" x1="192.79957193389686" y1="160.73944224548717" r="2"/>
<circle title="670nm" fill="white" x1="193.11424272150677" y1="161.28483686770485" r="2"/>
<circle title="675nm" fill="white" x1="193.32777116522442" y1="161.65512040065525" r="2"/>
<circle title="680nm" fill="white" x1="193.46373830335307" y1="161.891151882447" r="2"/>
<circle title="685nm" fill="white" x1="193.57908798527387" y1="162.09160319946372" r="2"/>
<circle title="690nm" fill="white" x1="193.6556104373404" y1="162.2249860508879" r="2"/>
<circle title="695nm" fill="white" x1="193.66998814120382" y1="162.25104149719405" r="2"/>
<circle title="700nm" fill="white" x1="193.61848906671162" y1="162.16334192315222" r="2"/>
<circle title="705nm" fill="white" x1="193.5540105304205" y1="162.05339343754488" r="2"/>
<circle title="710nm" fill="white" x1="193.53639022529126" y1="162.02458463566188" r="2"/>
<circle title="715nm" fill="white" x1="193.5284689522128" y1="162.01259336755996" r="2"/>
<circle title="720nm" fill="white" x1="193.42340325279594" y1="161.83295538377638" r="2"/>
<circle title="725nm" fill="white" x1="193.3223603704863" y1="161.66057790162674" r="2"/>
<circle title="730nm" fill="white" x1="193.2240880564369" y1="161.49333363636637" r="2"/>
</svg>
