<?xml version="1.0" encoding="UTF-8"?>
<svg version="1.1" viewBox="0 0 90 80" xmlns="http://www.w3.org/2000/svg">
 <g>
  <circle cx="42" cy="40" r="35" fill="none" stroke="#000" stroke-width=".5"/>
  <circle cx="5" cy="75" r="1"/>
  <circle cx="5" cy="55" r="1"/>
  <circle cx="5" cy="35" r="1"/>
  <circle cx="5" cy="15" r="1"/>
  <circle cx="25" cy="75" r="1"/>
  <circle cx="25" cy="55" r="1"/>
  <circle cx="25" cy="35" r="1"/>
  <circle cx="25" cy="15" r="1"/>
  <circle cx="45" cy="75" r="1"/>
  <circle cx="45" cy="55" r="1"/>
  <circle cx="45" cy="35" r="1"/>
  <circle cx="45" cy="15" r="1"/>
  <circle cx="65" cy="75" r="1"/>
  <circle cx="65" cy="55" r="1"/>
  <circle cx="65" cy="35" r="1"/>
  <circle cx="65" cy="15" r="1"/>
  <circle cx="75" cy="75" r="1"/>
  <circle cx="75" cy="55" r="1"/>
  <circle cx="75" cy="35" r="1"/>
  <circle cx="75" cy="15" r="1"/>
  <circle cx="55" cy="75" r="1"/>
  <circle cx="55" cy="55" r="1"/>
  <circle cx="55" cy="35" r="1"/>
  <circle cx="55" cy="15" r="1"/>
  <circle cx="35" cy="75" r="1"/>
  <circle cx="35" cy="55" r="1"/>
  <circle cx="35" cy="35" r="1"/>
  <circle cx="35" cy="15" r="1"/>
  <circle cx="15" cy="75" r="1"/>
  <circle cx="15" cy="55" r="1"/>
  <circle cx="15" cy="35" r="1"/>
  <circle cx="15" cy="15" r="1"/>
  <circle cx="5" cy="65" r="1"/>
  <circle cx="5" cy="45" r="1"/>
  <circle cx="5" cy="25" r="1"/>
  <circle cx="5" cy="5" r="1"/>
  <circle cx="25" cy="65" r="1"/>
  <circle cx="25" cy="45" r="1"/>
  <circle cx="25" cy="25" r="1"/>
  <circle cx="25" cy="5" r="1"/>
  <circle cx="45" cy="65" r="1"/>
  <circle cx="45" cy="45" r="1"/>
  <circle cx="45" cy="25" r="1"/>
  <circle cx="45" cy="5" r="1"/>
  <circle cx="65" cy="65" r="1"/>
  <circle cx="65" cy="45" r="1"/>
  <circle cx="65" cy="25" r="1"/>
  <circle cx="65" cy="5" r="1"/>
  <circle cx="75" cy="65" r="1"/>
  <circle cx="75" cy="45" r="1"/>
  <circle cx="75" cy="25" r="1"/>
  <circle cx="75" cy="5" r="1"/>
  <circle cx="55" cy="65" r="1"/>
  <circle cx="55" cy="45" r="1"/>
  <circle cx="55" cy="25" r="1"/>
  <circle cx="55" cy="5" r="1"/>
  <circle cx="35" cy="65" r="1"/>
  <circle cx="35" cy="45" r="1"/>
  <circle cx="35" cy="25" r="1"/>
  <circle cx="35" cy="5" r="1"/>
  <circle cx="15" cy="65" r="1"/>
  <circle cx="15" cy="45" r="1"/>
  <circle cx="15" cy="25" r="1"/>
  <circle cx="15" cy="5" r="1"/>
  <circle cx="85" cy="75" r="1"/>
  <circle cx="85" cy="55" r="1"/>
  <circle cx="85" cy="35" r="1"/>
  <circle cx="85" cy="15" r="1"/>
  <circle cx="85" cy="65" r="1"/>
  <circle cx="85" cy="45" r="1"/>
  <circle cx="85" cy="25" r="1"/>
  <circle cx="85" cy="5" r="1"/>
  <rect x="11" y="61" width="8" height="8" ry="1" opacity=".3" stroke-width=".5"/>
  <rect x="61" y="61" width="8" height="8" ry="1" opacity=".3" stroke-width=".5"/>
  <rect x="31" y="71" width="8" height="8" ry="1" opacity=".3" stroke-width=".5"/>
  <rect x="21" y="71" width="8" height="8" ry="1" opacity=".3" stroke-width=".5"/>
  <rect x="51" y="71" width="8" height="8" ry="1" opacity=".3" stroke-width=".5"/>
  <rect x="41" y="71" width="8" height="8" ry="1" opacity=".3" stroke-width=".5"/>
  <rect x="71" y="41" width="8" height="8" ry="1" opacity=".3" stroke-width=".5"/>
  <rect x="1" y="41" width="8" height="8" ry="1" opacity=".3" stroke-width=".5"/>
  <rect x="11" y="51" width="8" height="8" ry="1" opacity=".3" stroke-width=".5"/>
  <rect x="71" y="51" width="8" height="8" ry="1" opacity=".3" stroke-width=".5"/>
  <rect x="11" y="21" width="8" height="8" ry="1" opacity=".3" stroke-width=".5"/>
  <rect x="71" y="21" width="8" height="8" ry="1" opacity=".3" stroke-width=".5"/>
  <rect x="71" y="31" width="8" height="8" ry="1" opacity=".3" stroke-width=".5"/>
  <rect x="1" y="31" width="8" height="8" ry="1" opacity=".3" stroke-width=".5"/>
  <rect x="31" y="1" width="8" height="8" ry="1" opacity=".3" stroke-width=".5"/>
  <rect x="21" y="1" width="8" height="8" ry="1" opacity=".3" stroke-width=".5"/>
  <rect x="51" y="1" width="8" height="8" ry="1" opacity=".3" stroke-width=".5"/>
  <rect x="41" y="1" width="8" height="8" ry="1" opacity=".3" stroke-width=".5"/>
  <rect x="11" y="11" width="8" height="8" ry="1" opacity=".3" stroke-width=".5"/>
  <rect x="61" y="11" width="8" height="8" ry="1" opacity=".3" stroke-width=".5"/>
 </g>
</svg>
