<?xml version="1.0" encoding="UTF-8"?>
<svg version="1.1" viewBox="0 0 280 80" xmlns="http://www.w3.org/2000/svg">
 <g fill="none" stroke="#000">
  <g>
   <rect x="5" y="45" width="30" height="30" ry="1" stroke-width=".5"/>
   <rect x="45" y="45" width="30" height="30" ry="1" stroke-width=".5"/>
   <rect x="5" y="5" width="30" height="30" ry="1" stroke-width=".5"/>
   <rect x="45" y="5" width="30" height="30" ry="1" stroke-width=".5"/>
  </g>
  <g stroke-width="1px">
   <path d="m20 14v12"/>
   <path d="m14 20h12"/>
   <path d="m20 54v12"/>
   <path d="m14 60h12"/>
   <path d="m54 60h12"/>
   <path d="m54 20h12"/>
  </g>
 </g>
 <path d="m40 4-2 7 1.5-1.5v10.5h1v-10.5l1.5 1.5-2-7zm71 34-7 2 7 2-1.5-1.5h10.5v-1h-10.5l1.5-1.5zm143 22h12-12zm-214 4-2 7 1.5-1.5v10.5h1v-10.5l1.5 1.5-2-7zm100 0-2 7 1.5-1.5v10.5h1v-10.5l1.5 1.5-2-7zm100 0-2 7 1.5-1.5v10.5h1v-10.5l1.5 1.5-2-7z" />
 <g fill="none" stroke="#000">
  <g>
   <rect x="105" y="45" width="30" height="30" ry="1" stroke-width=".5"/>
   <rect x="145" y="45" width="30" height="30" ry="1" stroke-width=".5"/>
   <rect x="105" y="5" width="30" height="30" ry="1" stroke-width=".5"/>
   <rect x="145" y="5" width="30" height="30" ry="1" stroke-width=".5"/>
  </g>
  <g stroke-width="1px">
   <path d="m114 20h12"/>
   <path d="m120 54v12"/>
   <path d="m114 60h12"/>
   <path d="m154 20h12"/>
   <path d="m154 60h12"/>
  </g>
  <g>
   <rect x="205" y="45" width="30" height="30" ry="1" stroke-width=".5"/>
   <rect x="245" y="45" width="30" height="30" ry="1" stroke-width=".5"/>
   <rect x="205" y="5" width="30" height="30" ry="1" stroke-width=".5"/>
   <rect x="245" y="5" width="30" height="30" ry="1" stroke-width=".5"/>
  </g>
  <g stroke-width="1px">
   <path d="m214 20h12"/>
   <path d="m220 54v12"/>
   <path d="m214 60h12"/>
   <path d="m254 20h12"/>
   <path d="m260 14v12"/>
   <path d="m254 60h12"/>
  </g>
 </g>
 <text x="240" y="45" font-family="Arial" font-size="15px" text-anchor="middle"><tspan x="240" y="45">?</tspan></text>
</svg>
